  0
SECTION
  2
BLOCKS
  0
ENDSEC
  0
SECTION
  2
ENTITIES
  0
LINE
  8
0
 10
147
 20
100
 11
0
 21
100
  0
LINE
  8
0
 10
0
 20
100
 11
0
 21
0
  0
LINE
  8
0
 10
0
 20
0
 11
147
 21
0
  0
LINE
  8
0
 10
147
 20
0
 11
147
 21
100
  0
LINE
  8
0
 10
109.296
 20
75.5554
 11
108.609
 21
75.7202
  0
LINE
  8
0
 10
108.609
 20
75.7202
 11
107.957
 21
75.9905
  0
LINE
  8
0
 10
107.957
 20
75.9905
 11
107.355
 21
76.3594
  0
LINE
  8
0
 10
107.355
 20
76.3594
 11
106.818
 21
76.818
  0
LINE
  8
0
 10
106.818
 20
76.818
 11
106.359
 21
77.355
  0
LINE
  8
0
 10
106.359
 20
77.355
 11
105.99
 21
77.957
  0
LINE
  8
0
 10
105.99
 20
77.957
 11
105.72
 21
78.6094
  0
LINE
  8
0
 10
105.72
 20
78.6094
 11
105.555
 21
79.296
  0
LINE
  8
0
 10
105.555
 20
79.296
 11
105.5
 21
80
  0
LINE
  8
0
 10
105.5
 20
80
 11
105.555
 21
80.7039
  0
LINE
  8
0
 10
105.555
 20
80.7039
 11
105.72
 21
81.3906
  0
LINE
  8
0
 10
105.72
 20
81.3906
 11
105.99
 21
82.043
  0
LINE
  8
0
 10
105.99
 20
82.043
 11
106.359
 21
82.645
  0
LINE
  8
0
 10
106.359
 20
82.645
 11
106.818
 21
83.182
  0
LINE
  8
0
 10
106.818
 20
83.182
 11
107.355
 21
83.6406
  0
LINE
  8
0
 10
107.355
 20
83.6406
 11
107.957
 21
84.0095
  0
LINE
  8
0
 10
107.957
 20
84.0095
 11
108.609
 21
84.2797
  0
LINE
  8
0
 10
108.609
 20
84.2797
 11
109.296
 21
84.4446
  0
LINE
  8
0
 10
109.296
 20
84.4446
 11
110
 21
84.5
  0
LINE
  8
0
 10
110
 20
84.5
 11
110.704
 21
84.4446
  0
LINE
  8
0
 10
110.704
 20
84.4446
 11
111.391
 21
84.2797
  0
LINE
  8
0
 10
111.391
 20
84.2797
 11
112.043
 21
84.0095
  0
LINE
  8
0
 10
112.043
 20
84.0095
 11
112.645
 21
83.6406
  0
LINE
  8
0
 10
112.645
 20
83.6406
 11
113.182
 21
83.182
  0
LINE
  8
0
 10
113.182
 20
83.182
 11
113.641
 21
82.645
  0
LINE
  8
0
 10
113.641
 20
82.645
 11
114.01
 21
82.043
  0
LINE
  8
0
 10
114.01
 20
82.043
 11
114.28
 21
81.3906
  0
LINE
  8
0
 10
114.28
 20
81.3906
 11
114.445
 21
80.7039
  0
LINE
  8
0
 10
114.445
 20
80.7039
 11
114.5
 21
80
  0
LINE
  8
0
 10
114.5
 20
80
 11
114.445
 21
79.296
  0
LINE
  8
0
 10
114.445
 20
79.296
 11
114.28
 21
78.6094
  0
LINE
  8
0
 10
114.28
 20
78.6094
 11
114.01
 21
77.957
  0
LINE
  8
0
 10
114.01
 20
77.957
 11
113.641
 21
77.355
  0
LINE
  8
0
 10
113.641
 20
77.355
 11
113.182
 21
76.818
  0
LINE
  8
0
 10
113.182
 20
76.818
 11
112.645
 21
76.3594
  0
LINE
  8
0
 10
112.645
 20
76.3594
 11
112.043
 21
75.9905
  0
LINE
  8
0
 10
112.043
 20
75.9905
 11
111.391
 21
75.7202
  0
LINE
  8
0
 10
111.391
 20
75.7202
 11
110.704
 21
75.5554
  0
LINE
  8
0
 10
110.704
 20
75.5554
 11
110
 21
75.5
  0
LINE
  8
0
 10
110
 20
75.5
 11
109.296
 21
75.5554
  0
LINE
  8
0
 10
19.296
 20
75.5554
 11
18.6094
 21
75.7202
  0
LINE
  8
0
 10
18.6094
 20
75.7202
 11
17.957
 21
75.9905
  0
LINE
  8
0
 10
17.957
 20
75.9905
 11
17.355
 21
76.3594
  0
LINE
  8
0
 10
17.355
 20
76.3594
 11
16.818
 21
76.818
  0
LINE
  8
0
 10
16.818
 20
76.818
 11
16.3594
 21
77.355
  0
LINE
  8
0
 10
16.3594
 20
77.355
 11
15.9905
 21
77.957
  0
LINE
  8
0
 10
15.9905
 20
77.957
 11
15.7202
 21
78.6094
  0
LINE
  8
0
 10
15.7202
 20
78.6094
 11
15.5554
 21
79.296
  0
LINE
  8
0
 10
15.5554
 20
79.296
 11
15.5
 21
80
  0
LINE
  8
0
 10
15.5
 20
80
 11
15.5554
 21
80.7039
  0
LINE
  8
0
 10
15.5554
 20
80.7039
 11
15.7202
 21
81.3906
  0
LINE
  8
0
 10
15.7202
 20
81.3906
 11
15.9905
 21
82.043
  0
LINE
  8
0
 10
15.9905
 20
82.043
 11
16.3594
 21
82.645
  0
LINE
  8
0
 10
16.3594
 20
82.645
 11
16.818
 21
83.182
  0
LINE
  8
0
 10
16.818
 20
83.182
 11
17.355
 21
83.6406
  0
LINE
  8
0
 10
17.355
 20
83.6406
 11
17.957
 21
84.0095
  0
LINE
  8
0
 10
17.957
 20
84.0095
 11
18.6094
 21
84.2797
  0
LINE
  8
0
 10
18.6094
 20
84.2797
 11
19.296
 21
84.4446
  0
LINE
  8
0
 10
19.296
 20
84.4446
 11
20
 21
84.5
  0
LINE
  8
0
 10
20
 20
84.5
 11
20.7039
 21
84.4446
  0
LINE
  8
0
 10
20.7039
 20
84.4446
 11
21.3906
 21
84.2797
  0
LINE
  8
0
 10
21.3906
 20
84.2797
 11
22.043
 21
84.0095
  0
LINE
  8
0
 10
22.043
 20
84.0095
 11
22.645
 21
83.6406
  0
LINE
  8
0
 10
22.645
 20
83.6406
 11
23.182
 21
83.182
  0
LINE
  8
0
 10
23.182
 20
83.182
 11
23.6406
 21
82.645
  0
LINE
  8
0
 10
23.6406
 20
82.645
 11
24.0095
 21
82.043
  0
LINE
  8
0
 10
24.0095
 20
82.043
 11
24.2797
 21
81.3906
  0
LINE
  8
0
 10
24.2797
 20
81.3906
 11
24.4446
 21
80.7039
  0
LINE
  8
0
 10
24.4446
 20
80.7039
 11
24.5
 21
80
  0
LINE
  8
0
 10
24.5
 20
80
 11
24.4446
 21
79.296
  0
LINE
  8
0
 10
24.4446
 20
79.296
 11
24.2797
 21
78.6094
  0
LINE
  8
0
 10
24.2797
 20
78.6094
 11
24.0095
 21
77.957
  0
LINE
  8
0
 10
24.0095
 20
77.957
 11
23.6406
 21
77.355
  0
LINE
  8
0
 10
23.6406
 20
77.355
 11
23.182
 21
76.818
  0
LINE
  8
0
 10
23.182
 20
76.818
 11
22.645
 21
76.3594
  0
LINE
  8
0
 10
22.645
 20
76.3594
 11
22.043
 21
75.9905
  0
LINE
  8
0
 10
22.043
 20
75.9905
 11
21.3906
 21
75.7202
  0
LINE
  8
0
 10
21.3906
 20
75.7202
 11
20.7039
 21
75.5554
  0
LINE
  8
0
 10
20.7039
 20
75.5554
 11
20
 21
75.5
  0
LINE
  8
0
 10
20
 20
75.5
 11
19.296
 21
75.5554
  0
LINE
  8
0
 10
64.296
 20
75.5554
 11
63.6094
 21
75.7202
  0
LINE
  8
0
 10
63.6094
 20
75.7202
 11
62.957
 21
75.9905
  0
LINE
  8
0
 10
62.957
 20
75.9905
 11
62.355
 21
76.3594
  0
LINE
  8
0
 10
62.355
 20
76.3594
 11
61.818
 21
76.818
  0
LINE
  8
0
 10
61.818
 20
76.818
 11
61.3594
 21
77.355
  0
LINE
  8
0
 10
61.3594
 20
77.355
 11
60.9905
 21
77.957
  0
LINE
  8
0
 10
60.9905
 20
77.957
 11
60.7202
 21
78.6094
  0
LINE
  8
0
 10
60.7202
 20
78.6094
 11
60.5554
 21
79.296
  0
LINE
  8
0
 10
60.5554
 20
79.296
 11
60.5
 21
80
  0
LINE
  8
0
 10
60.5
 20
80
 11
60.5554
 21
80.7039
  0
LINE
  8
0
 10
60.5554
 20
80.7039
 11
60.7202
 21
81.3906
  0
LINE
  8
0
 10
60.7202
 20
81.3906
 11
60.9905
 21
82.043
  0
LINE
  8
0
 10
60.9905
 20
82.043
 11
61.3594
 21
82.645
  0
LINE
  8
0
 10
61.3594
 20
82.645
 11
61.818
 21
83.182
  0
LINE
  8
0
 10
61.818
 20
83.182
 11
62.355
 21
83.6406
  0
LINE
  8
0
 10
62.355
 20
83.6406
 11
62.957
 21
84.0095
  0
LINE
  8
0
 10
62.957
 20
84.0095
 11
63.6094
 21
84.2797
  0
LINE
  8
0
 10
63.6094
 20
84.2797
 11
64.296
 21
84.4446
  0
LINE
  8
0
 10
64.296
 20
84.4446
 11
65
 21
84.5
  0
LINE
  8
0
 10
65
 20
84.5
 11
65.7039
 21
84.4446
  0
LINE
  8
0
 10
65.7039
 20
84.4446
 11
66.3906
 21
84.2797
  0
LINE
  8
0
 10
66.3906
 20
84.2797
 11
67.043
 21
84.0095
  0
LINE
  8
0
 10
67.043
 20
84.0095
 11
67.645
 21
83.6406
  0
LINE
  8
0
 10
67.645
 20
83.6406
 11
68.182
 21
83.182
  0
LINE
  8
0
 10
68.182
 20
83.182
 11
68.6406
 21
82.645
  0
LINE
  8
0
 10
68.6406
 20
82.645
 11
69.0095
 21
82.043
  0
LINE
  8
0
 10
69.0095
 20
82.043
 11
69.2797
 21
81.3906
  0
LINE
  8
0
 10
69.2797
 20
81.3906
 11
69.4446
 21
80.7039
  0
LINE
  8
0
 10
69.4446
 20
80.7039
 11
69.5
 21
80
  0
LINE
  8
0
 10
69.5
 20
80
 11
69.4446
 21
79.296
  0
LINE
  8
0
 10
69.4446
 20
79.296
 11
69.2797
 21
78.6094
  0
LINE
  8
0
 10
69.2797
 20
78.6094
 11
69.0095
 21
77.957
  0
LINE
  8
0
 10
69.0095
 20
77.957
 11
68.6406
 21
77.355
  0
LINE
  8
0
 10
68.6406
 20
77.355
 11
68.182
 21
76.818
  0
LINE
  8
0
 10
68.182
 20
76.818
 11
67.645
 21
76.3594
  0
LINE
  8
0
 10
67.645
 20
76.3594
 11
67.043
 21
75.9905
  0
LINE
  8
0
 10
67.043
 20
75.9905
 11
66.3906
 21
75.7202
  0
LINE
  8
0
 10
66.3906
 20
75.7202
 11
65.7039
 21
75.5554
  0
LINE
  8
0
 10
65.7039
 20
75.5554
 11
65
 21
75.5
  0
LINE
  8
0
 10
65
 20
75.5
 11
64.296
 21
75.5554
  0
LINE
  8
0
 10
126.531
 20
77.0369
 11
126.073
 21
77.1468
  0
LINE
  8
0
 10
126.073
 20
77.1468
 11
125.638
 21
77.327
  0
LINE
  8
0
 10
125.638
 20
77.327
 11
125.237
 21
77.5729
  0
LINE
  8
0
 10
125.237
 20
77.5729
 11
124.879
 21
77.8787
  0
LINE
  8
0
 10
124.879
 20
77.8787
 11
124.573
 21
78.2366
  0
LINE
  8
0
 10
124.573
 20
78.2366
 11
124.327
 21
78.638
  0
LINE
  8
0
 10
124.327
 20
78.638
 11
124.147
 21
79.0729
  0
LINE
  8
0
 10
124.147
 20
79.0729
 11
124.037
 21
79.5307
  0
LINE
  8
0
 10
124.037
 20
79.5307
 11
124
 21
80
  0
LINE
  8
0
 10
124
 20
80
 11
124.037
 21
80.4693
  0
LINE
  8
0
 10
124.037
 20
80.4693
 11
124.147
 21
80.927
  0
LINE
  8
0
 10
124.147
 20
80.927
 11
124.327
 21
81.362
  0
LINE
  8
0
 10
124.327
 20
81.362
 11
124.573
 21
81.7634
  0
LINE
  8
0
 10
124.573
 20
81.7634
 11
124.879
 21
82.1213
  0
LINE
  8
0
 10
124.879
 20
82.1213
 11
125.237
 21
82.427
  0
LINE
  8
0
 10
125.237
 20
82.427
 11
125.638
 21
82.673
  0
LINE
  8
0
 10
125.638
 20
82.673
 11
126.073
 21
82.8532
  0
LINE
  8
0
 10
126.073
 20
82.8532
 11
126.531
 21
82.9631
  0
LINE
  8
0
 10
126.531
 20
82.9631
 11
127
 21
83
  0
LINE
  8
0
 10
127
 20
83
 11
127.469
 21
82.9631
  0
LINE
  8
0
 10
127.469
 20
82.9631
 11
127.927
 21
82.8532
  0
LINE
  8
0
 10
127.927
 20
82.8532
 11
128.362
 21
82.673
  0
LINE
  8
0
 10
128.362
 20
82.673
 11
128.763
 21
82.427
  0
LINE
  8
0
 10
128.763
 20
82.427
 11
129.121
 21
82.1213
  0
LINE
  8
0
 10
129.121
 20
82.1213
 11
129.427
 21
81.7634
  0
LINE
  8
0
 10
129.427
 20
81.7634
 11
129.673
 21
81.362
  0
LINE
  8
0
 10
129.673
 20
81.362
 11
129.853
 21
80.927
  0
LINE
  8
0
 10
129.853
 20
80.927
 11
129.963
 21
80.4693
  0
LINE
  8
0
 10
129.963
 20
80.4693
 11
130
 21
80
  0
LINE
  8
0
 10
130
 20
80
 11
129.963
 21
79.5307
  0
LINE
  8
0
 10
129.963
 20
79.5307
 11
129.853
 21
79.0729
  0
LINE
  8
0
 10
129.853
 20
79.0729
 11
129.673
 21
78.638
  0
LINE
  8
0
 10
129.673
 20
78.638
 11
129.427
 21
78.2366
  0
LINE
  8
0
 10
129.427
 20
78.2366
 11
129.121
 21
77.8787
  0
LINE
  8
0
 10
129.121
 20
77.8787
 11
128.763
 21
77.5729
  0
LINE
  8
0
 10
128.763
 20
77.5729
 11
128.362
 21
77.327
  0
LINE
  8
0
 10
128.362
 20
77.327
 11
127.927
 21
77.1468
  0
LINE
  8
0
 10
127.927
 20
77.1468
 11
127.469
 21
77.0369
  0
LINE
  8
0
 10
127.469
 20
77.0369
 11
127
 21
77
  0
LINE
  8
0
 10
127
 20
77
 11
126.531
 21
77.0369
  0
LINE
  8
0
 10
81.5307
 20
77.0369
 11
81.0729
 21
77.1468
  0
LINE
  8
0
 10
81.0729
 20
77.1468
 11
80.638
 21
77.327
  0
LINE
  8
0
 10
80.638
 20
77.327
 11
80.2366
 21
77.5729
  0
LINE
  8
0
 10
80.2366
 20
77.5729
 11
79.8787
 21
77.8787
  0
LINE
  8
0
 10
79.8787
 20
77.8787
 11
79.5729
 21
78.2366
  0
LINE
  8
0
 10
79.5729
 20
78.2366
 11
79.327
 21
78.638
  0
LINE
  8
0
 10
79.327
 20
78.638
 11
79.1468
 21
79.0729
  0
LINE
  8
0
 10
79.1468
 20
79.0729
 11
79.0369
 21
79.5307
  0
LINE
  8
0
 10
79.0369
 20
79.5307
 11
79
 21
80
  0
LINE
  8
0
 10
79
 20
80
 11
79.0369
 21
80.4693
  0
LINE
  8
0
 10
79.0369
 20
80.4693
 11
79.1468
 21
80.927
  0
LINE
  8
0
 10
79.1468
 20
80.927
 11
79.327
 21
81.362
  0
LINE
  8
0
 10
79.327
 20
81.362
 11
79.5729
 21
81.7634
  0
LINE
  8
0
 10
79.5729
 20
81.7634
 11
79.8787
 21
82.1213
  0
LINE
  8
0
 10
79.8787
 20
82.1213
 11
80.2366
 21
82.427
  0
LINE
  8
0
 10
80.2366
 20
82.427
 11
80.638
 21
82.673
  0
LINE
  8
0
 10
80.638
 20
82.673
 11
81.0729
 21
82.8532
  0
LINE
  8
0
 10
81.0729
 20
82.8532
 11
81.5307
 21
82.9631
  0
LINE
  8
0
 10
81.5307
 20
82.9631
 11
82
 21
83
  0
LINE
  8
0
 10
82
 20
83
 11
82.4693
 21
82.9631
  0
LINE
  8
0
 10
82.4693
 20
82.9631
 11
82.927
 21
82.8532
  0
LINE
  8
0
 10
82.927
 20
82.8532
 11
83.362
 21
82.673
  0
LINE
  8
0
 10
83.362
 20
82.673
 11
83.7634
 21
82.427
  0
LINE
  8
0
 10
83.7634
 20
82.427
 11
84.1213
 21
82.1213
  0
LINE
  8
0
 10
84.1213
 20
82.1213
 11
84.427
 21
81.7634
  0
LINE
  8
0
 10
84.427
 20
81.7634
 11
84.673
 21
81.362
  0
LINE
  8
0
 10
84.673
 20
81.362
 11
84.8532
 21
80.927
  0
LINE
  8
0
 10
84.8532
 20
80.927
 11
84.9631
 21
80.4693
  0
LINE
  8
0
 10
84.9631
 20
80.4693
 11
85
 21
80
  0
LINE
  8
0
 10
85
 20
80
 11
84.9631
 21
79.5307
  0
LINE
  8
0
 10
84.9631
 20
79.5307
 11
84.8532
 21
79.0729
  0
LINE
  8
0
 10
84.8532
 20
79.0729
 11
84.673
 21
78.638
  0
LINE
  8
0
 10
84.673
 20
78.638
 11
84.427
 21
78.2366
  0
LINE
  8
0
 10
84.427
 20
78.2366
 11
84.1213
 21
77.8787
  0
LINE
  8
0
 10
84.1213
 20
77.8787
 11
83.7634
 21
77.5729
  0
LINE
  8
0
 10
83.7634
 20
77.5729
 11
83.362
 21
77.327
  0
LINE
  8
0
 10
83.362
 20
77.327
 11
82.927
 21
77.1468
  0
LINE
  8
0
 10
82.927
 20
77.1468
 11
82.4693
 21
77.0369
  0
LINE
  8
0
 10
82.4693
 20
77.0369
 11
82
 21
77
  0
LINE
  8
0
 10
82
 20
77
 11
81.5307
 21
77.0369
  0
LINE
  8
0
 10
36.5307
 20
77.0369
 11
36.0729
 21
77.1468
  0
LINE
  8
0
 10
36.0729
 20
77.1468
 11
35.638
 21
77.327
  0
LINE
  8
0
 10
35.638
 20
77.327
 11
35.2366
 21
77.5729
  0
LINE
  8
0
 10
35.2366
 20
77.5729
 11
34.8787
 21
77.8787
  0
LINE
  8
0
 10
34.8787
 20
77.8787
 11
34.5729
 21
78.2366
  0
LINE
  8
0
 10
34.5729
 20
78.2366
 11
34.327
 21
78.638
  0
LINE
  8
0
 10
34.327
 20
78.638
 11
34.1468
 21
79.0729
  0
LINE
  8
0
 10
34.1468
 20
79.0729
 11
34.0369
 21
79.5307
  0
LINE
  8
0
 10
34.0369
 20
79.5307
 11
34
 21
80
  0
LINE
  8
0
 10
34
 20
80
 11
34.0369
 21
80.4693
  0
LINE
  8
0
 10
34.0369
 20
80.4693
 11
34.1468
 21
80.927
  0
LINE
  8
0
 10
34.1468
 20
80.927
 11
34.327
 21
81.362
  0
LINE
  8
0
 10
34.327
 20
81.362
 11
34.5729
 21
81.7634
  0
LINE
  8
0
 10
34.5729
 20
81.7634
 11
34.8787
 21
82.1213
  0
LINE
  8
0
 10
34.8787
 20
82.1213
 11
35.2366
 21
82.427
  0
LINE
  8
0
 10
35.2366
 20
82.427
 11
35.638
 21
82.673
  0
LINE
  8
0
 10
35.638
 20
82.673
 11
36.0729
 21
82.8532
  0
LINE
  8
0
 10
36.0729
 20
82.8532
 11
36.5307
 21
82.9631
  0
LINE
  8
0
 10
36.5307
 20
82.9631
 11
37
 21
83
  0
LINE
  8
0
 10
37
 20
83
 11
37.4693
 21
82.9631
  0
LINE
  8
0
 10
37.4693
 20
82.9631
 11
37.927
 21
82.8532
  0
LINE
  8
0
 10
37.927
 20
82.8532
 11
38.362
 21
82.673
  0
LINE
  8
0
 10
38.362
 20
82.673
 11
38.7634
 21
82.427
  0
LINE
  8
0
 10
38.7634
 20
82.427
 11
39.1213
 21
82.1213
  0
LINE
  8
0
 10
39.1213
 20
82.1213
 11
39.427
 21
81.7634
  0
LINE
  8
0
 10
39.427
 20
81.7634
 11
39.673
 21
81.362
  0
LINE
  8
0
 10
39.673
 20
81.362
 11
39.8532
 21
80.927
  0
LINE
  8
0
 10
39.8532
 20
80.927
 11
39.9631
 21
80.4693
  0
LINE
  8
0
 10
39.9631
 20
80.4693
 11
40
 21
80
  0
LINE
  8
0
 10
40
 20
80
 11
39.9631
 21
79.5307
  0
LINE
  8
0
 10
39.9631
 20
79.5307
 11
39.8532
 21
79.0729
  0
LINE
  8
0
 10
39.8532
 20
79.0729
 11
39.673
 21
78.638
  0
LINE
  8
0
 10
39.673
 20
78.638
 11
39.427
 21
78.2366
  0
LINE
  8
0
 10
39.427
 20
78.2366
 11
39.1213
 21
77.8787
  0
LINE
  8
0
 10
39.1213
 20
77.8787
 11
38.7634
 21
77.5729
  0
LINE
  8
0
 10
38.7634
 20
77.5729
 11
38.362
 21
77.327
  0
LINE
  8
0
 10
38.362
 20
77.327
 11
37.927
 21
77.1468
  0
LINE
  8
0
 10
37.927
 20
77.1468
 11
37.4693
 21
77.0369
  0
LINE
  8
0
 10
37.4693
 20
77.0369
 11
37
 21
77
  0
LINE
  8
0
 10
37
 20
77
 11
36.5307
 21
77.0369
  0
LINE
  8
0
 10
64.296
 20
45.5554
 11
63.6094
 21
45.7202
  0
LINE
  8
0
 10
63.6094
 20
45.7202
 11
62.957
 21
45.9905
  0
LINE
  8
0
 10
62.957
 20
45.9905
 11
62.355
 21
46.3594
  0
LINE
  8
0
 10
62.355
 20
46.3594
 11
61.818
 21
46.818
  0
LINE
  8
0
 10
61.818
 20
46.818
 11
61.3594
 21
47.355
  0
LINE
  8
0
 10
61.3594
 20
47.355
 11
60.9905
 21
47.957
  0
LINE
  8
0
 10
60.9905
 20
47.957
 11
60.7202
 21
48.6094
  0
LINE
  8
0
 10
60.7202
 20
48.6094
 11
60.5554
 21
49.296
  0
LINE
  8
0
 10
60.5554
 20
49.296
 11
60.5
 21
50
  0
LINE
  8
0
 10
60.5
 20
50
 11
60.5554
 21
50.7039
  0
LINE
  8
0
 10
60.5554
 20
50.7039
 11
60.7202
 21
51.3906
  0
LINE
  8
0
 10
60.7202
 20
51.3906
 11
60.9905
 21
52.043
  0
LINE
  8
0
 10
60.9905
 20
52.043
 11
61.3594
 21
52.645
  0
LINE
  8
0
 10
61.3594
 20
52.645
 11
61.818
 21
53.182
  0
LINE
  8
0
 10
61.818
 20
53.182
 11
62.355
 21
53.6406
  0
LINE
  8
0
 10
62.355
 20
53.6406
 11
62.957
 21
54.0095
  0
LINE
  8
0
 10
62.957
 20
54.0095
 11
63.6094
 21
54.2797
  0
LINE
  8
0
 10
63.6094
 20
54.2797
 11
64.296
 21
54.4446
  0
LINE
  8
0
 10
64.296
 20
54.4446
 11
65
 21
54.5
  0
LINE
  8
0
 10
65
 20
54.5
 11
65.7039
 21
54.4446
  0
LINE
  8
0
 10
65.7039
 20
54.4446
 11
66.3906
 21
54.2797
  0
LINE
  8
0
 10
66.3906
 20
54.2797
 11
67.043
 21
54.0095
  0
LINE
  8
0
 10
67.043
 20
54.0095
 11
67.645
 21
53.6406
  0
LINE
  8
0
 10
67.645
 20
53.6406
 11
68.182
 21
53.182
  0
LINE
  8
0
 10
68.182
 20
53.182
 11
68.6406
 21
52.645
  0
LINE
  8
0
 10
68.6406
 20
52.645
 11
69.0095
 21
52.043
  0
LINE
  8
0
 10
69.0095
 20
52.043
 11
69.2797
 21
51.3906
  0
LINE
  8
0
 10
69.2797
 20
51.3906
 11
69.4446
 21
50.7039
  0
LINE
  8
0
 10
69.4446
 20
50.7039
 11
69.5
 21
50
  0
LINE
  8
0
 10
69.5
 20
50
 11
69.4446
 21
49.296
  0
LINE
  8
0
 10
69.4446
 20
49.296
 11
69.2797
 21
48.6094
  0
LINE
  8
0
 10
69.2797
 20
48.6094
 11
69.0095
 21
47.957
  0
LINE
  8
0
 10
69.0095
 20
47.957
 11
68.6406
 21
47.355
  0
LINE
  8
0
 10
68.6406
 20
47.355
 11
68.182
 21
46.818
  0
LINE
  8
0
 10
68.182
 20
46.818
 11
67.645
 21
46.3594
  0
LINE
  8
0
 10
67.645
 20
46.3594
 11
67.043
 21
45.9905
  0
LINE
  8
0
 10
67.043
 20
45.9905
 11
66.3906
 21
45.7202
  0
LINE
  8
0
 10
66.3906
 20
45.7202
 11
65.7039
 21
45.5554
  0
LINE
  8
0
 10
65.7039
 20
45.5554
 11
65
 21
45.5
  0
LINE
  8
0
 10
65
 20
45.5
 11
64.296
 21
45.5554
  0
LINE
  8
0
 10
109.296
 20
45.5554
 11
108.609
 21
45.7202
  0
LINE
  8
0
 10
108.609
 20
45.7202
 11
107.957
 21
45.9905
  0
LINE
  8
0
 10
107.957
 20
45.9905
 11
107.355
 21
46.3594
  0
LINE
  8
0
 10
107.355
 20
46.3594
 11
106.818
 21
46.818
  0
LINE
  8
0
 10
106.818
 20
46.818
 11
106.359
 21
47.355
  0
LINE
  8
0
 10
106.359
 20
47.355
 11
105.99
 21
47.957
  0
LINE
  8
0
 10
105.99
 20
47.957
 11
105.72
 21
48.6094
  0
LINE
  8
0
 10
105.72
 20
48.6094
 11
105.555
 21
49.296
  0
LINE
  8
0
 10
105.555
 20
49.296
 11
105.5
 21
50
  0
LINE
  8
0
 10
105.5
 20
50
 11
105.555
 21
50.7039
  0
LINE
  8
0
 10
105.555
 20
50.7039
 11
105.72
 21
51.3906
  0
LINE
  8
0
 10
105.72
 20
51.3906
 11
105.99
 21
52.043
  0
LINE
  8
0
 10
105.99
 20
52.043
 11
106.359
 21
52.645
  0
LINE
  8
0
 10
106.359
 20
52.645
 11
106.818
 21
53.182
  0
LINE
  8
0
 10
106.818
 20
53.182
 11
107.355
 21
53.6406
  0
LINE
  8
0
 10
107.355
 20
53.6406
 11
107.957
 21
54.0095
  0
LINE
  8
0
 10
107.957
 20
54.0095
 11
108.609
 21
54.2797
  0
LINE
  8
0
 10
108.609
 20
54.2797
 11
109.296
 21
54.4446
  0
LINE
  8
0
 10
109.296
 20
54.4446
 11
110
 21
54.5
  0
LINE
  8
0
 10
110
 20
54.5
 11
110.704
 21
54.4446
  0
LINE
  8
0
 10
110.704
 20
54.4446
 11
111.391
 21
54.2797
  0
LINE
  8
0
 10
111.391
 20
54.2797
 11
112.043
 21
54.0095
  0
LINE
  8
0
 10
112.043
 20
54.0095
 11
112.645
 21
53.6406
  0
LINE
  8
0
 10
112.645
 20
53.6406
 11
113.182
 21
53.182
  0
LINE
  8
0
 10
113.182
 20
53.182
 11
113.641
 21
52.645
  0
LINE
  8
0
 10
113.641
 20
52.645
 11
114.01
 21
52.043
  0
LINE
  8
0
 10
114.01
 20
52.043
 11
114.28
 21
51.3906
  0
LINE
  8
0
 10
114.28
 20
51.3906
 11
114.445
 21
50.7039
  0
LINE
  8
0
 10
114.445
 20
50.7039
 11
114.5
 21
50
  0
LINE
  8
0
 10
114.5
 20
50
 11
114.445
 21
49.296
  0
LINE
  8
0
 10
114.445
 20
49.296
 11
114.28
 21
48.6094
  0
LINE
  8
0
 10
114.28
 20
48.6094
 11
114.01
 21
47.957
  0
LINE
  8
0
 10
114.01
 20
47.957
 11
113.641
 21
47.355
  0
LINE
  8
0
 10
113.641
 20
47.355
 11
113.182
 21
46.818
  0
LINE
  8
0
 10
113.182
 20
46.818
 11
112.645
 21
46.3594
  0
LINE
  8
0
 10
112.645
 20
46.3594
 11
112.043
 21
45.9905
  0
LINE
  8
0
 10
112.043
 20
45.9905
 11
111.391
 21
45.7202
  0
LINE
  8
0
 10
111.391
 20
45.7202
 11
110.704
 21
45.5554
  0
LINE
  8
0
 10
110.704
 20
45.5554
 11
110
 21
45.5
  0
LINE
  8
0
 10
110
 20
45.5
 11
109.296
 21
45.5554
  0
LINE
  8
0
 10
19.296
 20
45.5554
 11
18.6094
 21
45.7202
  0
LINE
  8
0
 10
18.6094
 20
45.7202
 11
17.957
 21
45.9905
  0
LINE
  8
0
 10
17.957
 20
45.9905
 11
17.355
 21
46.3594
  0
LINE
  8
0
 10
17.355
 20
46.3594
 11
16.818
 21
46.818
  0
LINE
  8
0
 10
16.818
 20
46.818
 11
16.3594
 21
47.355
  0
LINE
  8
0
 10
16.3594
 20
47.355
 11
15.9905
 21
47.957
  0
LINE
  8
0
 10
15.9905
 20
47.957
 11
15.7202
 21
48.6094
  0
LINE
  8
0
 10
15.7202
 20
48.6094
 11
15.5554
 21
49.296
  0
LINE
  8
0
 10
15.5554
 20
49.296
 11
15.5
 21
50
  0
LINE
  8
0
 10
15.5
 20
50
 11
15.5554
 21
50.7039
  0
LINE
  8
0
 10
15.5554
 20
50.7039
 11
15.7202
 21
51.3906
  0
LINE
  8
0
 10
15.7202
 20
51.3906
 11
15.9905
 21
52.043
  0
LINE
  8
0
 10
15.9905
 20
52.043
 11
16.3594
 21
52.645
  0
LINE
  8
0
 10
16.3594
 20
52.645
 11
16.818
 21
53.182
  0
LINE
  8
0
 10
16.818
 20
53.182
 11
17.355
 21
53.6406
  0
LINE
  8
0
 10
17.355
 20
53.6406
 11
17.957
 21
54.0095
  0
LINE
  8
0
 10
17.957
 20
54.0095
 11
18.6094
 21
54.2797
  0
LINE
  8
0
 10
18.6094
 20
54.2797
 11
19.296
 21
54.4446
  0
LINE
  8
0
 10
19.296
 20
54.4446
 11
20
 21
54.5
  0
LINE
  8
0
 10
20
 20
54.5
 11
20.7039
 21
54.4446
  0
LINE
  8
0
 10
20.7039
 20
54.4446
 11
21.3906
 21
54.2797
  0
LINE
  8
0
 10
21.3906
 20
54.2797
 11
22.043
 21
54.0095
  0
LINE
  8
0
 10
22.043
 20
54.0095
 11
22.645
 21
53.6406
  0
LINE
  8
0
 10
22.645
 20
53.6406
 11
23.182
 21
53.182
  0
LINE
  8
0
 10
23.182
 20
53.182
 11
23.6406
 21
52.645
  0
LINE
  8
0
 10
23.6406
 20
52.645
 11
24.0095
 21
52.043
  0
LINE
  8
0
 10
24.0095
 20
52.043
 11
24.2797
 21
51.3906
  0
LINE
  8
0
 10
24.2797
 20
51.3906
 11
24.4446
 21
50.7039
  0
LINE
  8
0
 10
24.4446
 20
50.7039
 11
24.5
 21
50
  0
LINE
  8
0
 10
24.5
 20
50
 11
24.4446
 21
49.296
  0
LINE
  8
0
 10
24.4446
 20
49.296
 11
24.2797
 21
48.6094
  0
LINE
  8
0
 10
24.2797
 20
48.6094
 11
24.0095
 21
47.957
  0
LINE
  8
0
 10
24.0095
 20
47.957
 11
23.6406
 21
47.355
  0
LINE
  8
0
 10
23.6406
 20
47.355
 11
23.182
 21
46.818
  0
LINE
  8
0
 10
23.182
 20
46.818
 11
22.645
 21
46.3594
  0
LINE
  8
0
 10
22.645
 20
46.3594
 11
22.043
 21
45.9905
  0
LINE
  8
0
 10
22.043
 20
45.9905
 11
21.3906
 21
45.7202
  0
LINE
  8
0
 10
21.3906
 20
45.7202
 11
20.7039
 21
45.5554
  0
LINE
  8
0
 10
20.7039
 20
45.5554
 11
20
 21
45.5
  0
LINE
  8
0
 10
20
 20
45.5
 11
19.296
 21
45.5554
  0
LINE
  8
0
 10
36.5307
 20
47.0369
 11
36.0729
 21
47.1468
  0
LINE
  8
0
 10
36.0729
 20
47.1468
 11
35.638
 21
47.327
  0
LINE
  8
0
 10
35.638
 20
47.327
 11
35.2366
 21
47.5729
  0
LINE
  8
0
 10
35.2366
 20
47.5729
 11
34.8787
 21
47.8787
  0
LINE
  8
0
 10
34.8787
 20
47.8787
 11
34.5729
 21
48.2366
  0
LINE
  8
0
 10
34.5729
 20
48.2366
 11
34.327
 21
48.638
  0
LINE
  8
0
 10
34.327
 20
48.638
 11
34.1468
 21
49.0729
  0
LINE
  8
0
 10
34.1468
 20
49.0729
 11
34.0369
 21
49.5307
  0
LINE
  8
0
 10
34.0369
 20
49.5307
 11
34
 21
50
  0
LINE
  8
0
 10
34
 20
50
 11
34.0369
 21
50.4693
  0
LINE
  8
0
 10
34.0369
 20
50.4693
 11
34.1468
 21
50.927
  0
LINE
  8
0
 10
34.1468
 20
50.927
 11
34.327
 21
51.362
  0
LINE
  8
0
 10
34.327
 20
51.362
 11
34.5729
 21
51.7634
  0
LINE
  8
0
 10
34.5729
 20
51.7634
 11
34.8787
 21
52.1213
  0
LINE
  8
0
 10
34.8787
 20
52.1213
 11
35.2366
 21
52.427
  0
LINE
  8
0
 10
35.2366
 20
52.427
 11
35.638
 21
52.673
  0
LINE
  8
0
 10
35.638
 20
52.673
 11
36.0729
 21
52.8532
  0
LINE
  8
0
 10
36.0729
 20
52.8532
 11
36.5307
 21
52.9631
  0
LINE
  8
0
 10
36.5307
 20
52.9631
 11
37
 21
53
  0
LINE
  8
0
 10
37
 20
53
 11
37.4693
 21
52.9631
  0
LINE
  8
0
 10
37.4693
 20
52.9631
 11
37.927
 21
52.8532
  0
LINE
  8
0
 10
37.927
 20
52.8532
 11
38.362
 21
52.673
  0
LINE
  8
0
 10
38.362
 20
52.673
 11
38.7634
 21
52.427
  0
LINE
  8
0
 10
38.7634
 20
52.427
 11
39.1213
 21
52.1213
  0
LINE
  8
0
 10
39.1213
 20
52.1213
 11
39.427
 21
51.7634
  0
LINE
  8
0
 10
39.427
 20
51.7634
 11
39.673
 21
51.362
  0
LINE
  8
0
 10
39.673
 20
51.362
 11
39.8532
 21
50.927
  0
LINE
  8
0
 10
39.8532
 20
50.927
 11
39.9631
 21
50.4693
  0
LINE
  8
0
 10
39.9631
 20
50.4693
 11
40
 21
50
  0
LINE
  8
0
 10
40
 20
50
 11
39.9631
 21
49.5307
  0
LINE
  8
0
 10
39.9631
 20
49.5307
 11
39.8532
 21
49.0729
  0
LINE
  8
0
 10
39.8532
 20
49.0729
 11
39.673
 21
48.638
  0
LINE
  8
0
 10
39.673
 20
48.638
 11
39.427
 21
48.2366
  0
LINE
  8
0
 10
39.427
 20
48.2366
 11
39.1213
 21
47.8787
  0
LINE
  8
0
 10
39.1213
 20
47.8787
 11
38.7634
 21
47.5729
  0
LINE
  8
0
 10
38.7634
 20
47.5729
 11
38.362
 21
47.327
  0
LINE
  8
0
 10
38.362
 20
47.327
 11
37.927
 21
47.1468
  0
LINE
  8
0
 10
37.927
 20
47.1468
 11
37.4693
 21
47.0369
  0
LINE
  8
0
 10
37.4693
 20
47.0369
 11
37
 21
47
  0
LINE
  8
0
 10
37
 20
47
 11
36.5307
 21
47.0369
  0
LINE
  8
0
 10
81.5307
 20
47.0369
 11
81.0729
 21
47.1468
  0
LINE
  8
0
 10
81.0729
 20
47.1468
 11
80.638
 21
47.327
  0
LINE
  8
0
 10
80.638
 20
47.327
 11
80.2366
 21
47.5729
  0
LINE
  8
0
 10
80.2366
 20
47.5729
 11
79.8787
 21
47.8787
  0
LINE
  8
0
 10
79.8787
 20
47.8787
 11
79.5729
 21
48.2366
  0
LINE
  8
0
 10
79.5729
 20
48.2366
 11
79.327
 21
48.638
  0
LINE
  8
0
 10
79.327
 20
48.638
 11
79.1468
 21
49.0729
  0
LINE
  8
0
 10
79.1468
 20
49.0729
 11
79.0369
 21
49.5307
  0
LINE
  8
0
 10
79.0369
 20
49.5307
 11
79
 21
50
  0
LINE
  8
0
 10
79
 20
50
 11
79.0369
 21
50.4693
  0
LINE
  8
0
 10
79.0369
 20
50.4693
 11
79.1468
 21
50.927
  0
LINE
  8
0
 10
79.1468
 20
50.927
 11
79.327
 21
51.362
  0
LINE
  8
0
 10
79.327
 20
51.362
 11
79.5729
 21
51.7634
  0
LINE
  8
0
 10
79.5729
 20
51.7634
 11
79.8787
 21
52.1213
  0
LINE
  8
0
 10
79.8787
 20
52.1213
 11
80.2366
 21
52.427
  0
LINE
  8
0
 10
80.2366
 20
52.427
 11
80.638
 21
52.673
  0
LINE
  8
0
 10
80.638
 20
52.673
 11
81.0729
 21
52.8532
  0
LINE
  8
0
 10
81.0729
 20
52.8532
 11
81.5307
 21
52.9631
  0
LINE
  8
0
 10
81.5307
 20
52.9631
 11
82
 21
53
  0
LINE
  8
0
 10
82
 20
53
 11
82.4693
 21
52.9631
  0
LINE
  8
0
 10
82.4693
 20
52.9631
 11
82.927
 21
52.8532
  0
LINE
  8
0
 10
82.927
 20
52.8532
 11
83.362
 21
52.673
  0
LINE
  8
0
 10
83.362
 20
52.673
 11
83.7634
 21
52.427
  0
LINE
  8
0
 10
83.7634
 20
52.427
 11
84.1213
 21
52.1213
  0
LINE
  8
0
 10
84.1213
 20
52.1213
 11
84.427
 21
51.7634
  0
LINE
  8
0
 10
84.427
 20
51.7634
 11
84.673
 21
51.362
  0
LINE
  8
0
 10
84.673
 20
51.362
 11
84.8532
 21
50.927
  0
LINE
  8
0
 10
84.8532
 20
50.927
 11
84.9631
 21
50.4693
  0
LINE
  8
0
 10
84.9631
 20
50.4693
 11
85
 21
50
  0
LINE
  8
0
 10
85
 20
50
 11
84.9631
 21
49.5307
  0
LINE
  8
0
 10
84.9631
 20
49.5307
 11
84.8532
 21
49.0729
  0
LINE
  8
0
 10
84.8532
 20
49.0729
 11
84.673
 21
48.638
  0
LINE
  8
0
 10
84.673
 20
48.638
 11
84.427
 21
48.2366
  0
LINE
  8
0
 10
84.427
 20
48.2366
 11
84.1213
 21
47.8787
  0
LINE
  8
0
 10
84.1213
 20
47.8787
 11
83.7634
 21
47.5729
  0
LINE
  8
0
 10
83.7634
 20
47.5729
 11
83.362
 21
47.327
  0
LINE
  8
0
 10
83.362
 20
47.327
 11
82.927
 21
47.1468
  0
LINE
  8
0
 10
82.927
 20
47.1468
 11
82.4693
 21
47.0369
  0
LINE
  8
0
 10
82.4693
 20
47.0369
 11
82
 21
47
  0
LINE
  8
0
 10
82
 20
47
 11
81.5307
 21
47.0369
  0
LINE
  8
0
 10
126.531
 20
47.0369
 11
126.073
 21
47.1468
  0
LINE
  8
0
 10
126.073
 20
47.1468
 11
125.638
 21
47.327
  0
LINE
  8
0
 10
125.638
 20
47.327
 11
125.237
 21
47.5729
  0
LINE
  8
0
 10
125.237
 20
47.5729
 11
124.879
 21
47.8787
  0
LINE
  8
0
 10
124.879
 20
47.8787
 11
124.573
 21
48.2366
  0
LINE
  8
0
 10
124.573
 20
48.2366
 11
124.327
 21
48.638
  0
LINE
  8
0
 10
124.327
 20
48.638
 11
124.147
 21
49.0729
  0
LINE
  8
0
 10
124.147
 20
49.0729
 11
124.037
 21
49.5307
  0
LINE
  8
0
 10
124.037
 20
49.5307
 11
124
 21
50
  0
LINE
  8
0
 10
124
 20
50
 11
124.037
 21
50.4693
  0
LINE
  8
0
 10
124.037
 20
50.4693
 11
124.147
 21
50.927
  0
LINE
  8
0
 10
124.147
 20
50.927
 11
124.327
 21
51.362
  0
LINE
  8
0
 10
124.327
 20
51.362
 11
124.573
 21
51.7634
  0
LINE
  8
0
 10
124.573
 20
51.7634
 11
124.879
 21
52.1213
  0
LINE
  8
0
 10
124.879
 20
52.1213
 11
125.237
 21
52.427
  0
LINE
  8
0
 10
125.237
 20
52.427
 11
125.638
 21
52.673
  0
LINE
  8
0
 10
125.638
 20
52.673
 11
126.073
 21
52.8532
  0
LINE
  8
0
 10
126.073
 20
52.8532
 11
126.531
 21
52.9631
  0
LINE
  8
0
 10
126.531
 20
52.9631
 11
127
 21
53
  0
LINE
  8
0
 10
127
 20
53
 11
127.469
 21
52.9631
  0
LINE
  8
0
 10
127.469
 20
52.9631
 11
127.927
 21
52.8532
  0
LINE
  8
0
 10
127.927
 20
52.8532
 11
128.362
 21
52.673
  0
LINE
  8
0
 10
128.362
 20
52.673
 11
128.763
 21
52.427
  0
LINE
  8
0
 10
128.763
 20
52.427
 11
129.121
 21
52.1213
  0
LINE
  8
0
 10
129.121
 20
52.1213
 11
129.427
 21
51.7634
  0
LINE
  8
0
 10
129.427
 20
51.7634
 11
129.673
 21
51.362
  0
LINE
  8
0
 10
129.673
 20
51.362
 11
129.853
 21
50.927
  0
LINE
  8
0
 10
129.853
 20
50.927
 11
129.963
 21
50.4693
  0
LINE
  8
0
 10
129.963
 20
50.4693
 11
130
 21
50
  0
LINE
  8
0
 10
130
 20
50
 11
129.963
 21
49.5307
  0
LINE
  8
0
 10
129.963
 20
49.5307
 11
129.853
 21
49.0729
  0
LINE
  8
0
 10
129.853
 20
49.0729
 11
129.673
 21
48.638
  0
LINE
  8
0
 10
129.673
 20
48.638
 11
129.427
 21
48.2366
  0
LINE
  8
0
 10
129.427
 20
48.2366
 11
129.121
 21
47.8787
  0
LINE
  8
0
 10
129.121
 20
47.8787
 11
128.763
 21
47.5729
  0
LINE
  8
0
 10
128.763
 20
47.5729
 11
128.362
 21
47.327
  0
LINE
  8
0
 10
128.362
 20
47.327
 11
127.927
 21
47.1468
  0
LINE
  8
0
 10
127.927
 20
47.1468
 11
127.469
 21
47.0369
  0
LINE
  8
0
 10
127.469
 20
47.0369
 11
127
 21
47
  0
LINE
  8
0
 10
127
 20
47
 11
126.531
 21
47.0369
  0
LINE
  8
0
 10
64.296
 20
15.5554
 11
63.6094
 21
15.7202
  0
LINE
  8
0
 10
63.6094
 20
15.7202
 11
62.957
 21
15.9905
  0
LINE
  8
0
 10
62.957
 20
15.9905
 11
62.355
 21
16.3594
  0
LINE
  8
0
 10
62.355
 20
16.3594
 11
61.818
 21
16.818
  0
LINE
  8
0
 10
61.818
 20
16.818
 11
61.3594
 21
17.355
  0
LINE
  8
0
 10
61.3594
 20
17.355
 11
60.9905
 21
17.957
  0
LINE
  8
0
 10
60.9905
 20
17.957
 11
60.7202
 21
18.6094
  0
LINE
  8
0
 10
60.7202
 20
18.6094
 11
60.5554
 21
19.296
  0
LINE
  8
0
 10
60.5554
 20
19.296
 11
60.5
 21
20
  0
LINE
  8
0
 10
60.5
 20
20
 11
60.5554
 21
20.7039
  0
LINE
  8
0
 10
60.5554
 20
20.7039
 11
60.7202
 21
21.3906
  0
LINE
  8
0
 10
60.7202
 20
21.3906
 11
60.9905
 21
22.043
  0
LINE
  8
0
 10
60.9905
 20
22.043
 11
61.3594
 21
22.645
  0
LINE
  8
0
 10
61.3594
 20
22.645
 11
61.818
 21
23.182
  0
LINE
  8
0
 10
61.818
 20
23.182
 11
62.355
 21
23.6406
  0
LINE
  8
0
 10
62.355
 20
23.6406
 11
62.957
 21
24.0095
  0
LINE
  8
0
 10
62.957
 20
24.0095
 11
63.6094
 21
24.2797
  0
LINE
  8
0
 10
63.6094
 20
24.2797
 11
64.296
 21
24.4446
  0
LINE
  8
0
 10
64.296
 20
24.4446
 11
65
 21
24.5
  0
LINE
  8
0
 10
65
 20
24.5
 11
65.7039
 21
24.4446
  0
LINE
  8
0
 10
65.7039
 20
24.4446
 11
66.3906
 21
24.2797
  0
LINE
  8
0
 10
66.3906
 20
24.2797
 11
67.043
 21
24.0095
  0
LINE
  8
0
 10
67.043
 20
24.0095
 11
67.645
 21
23.6406
  0
LINE
  8
0
 10
67.645
 20
23.6406
 11
68.182
 21
23.182
  0
LINE
  8
0
 10
68.182
 20
23.182
 11
68.6406
 21
22.645
  0
LINE
  8
0
 10
68.6406
 20
22.645
 11
69.0095
 21
22.043
  0
LINE
  8
0
 10
69.0095
 20
22.043
 11
69.2797
 21
21.3906
  0
LINE
  8
0
 10
69.2797
 20
21.3906
 11
69.4446
 21
20.7039
  0
LINE
  8
0
 10
69.4446
 20
20.7039
 11
69.5
 21
20
  0
LINE
  8
0
 10
69.5
 20
20
 11
69.4446
 21
19.296
  0
LINE
  8
0
 10
69.4446
 20
19.296
 11
69.2797
 21
18.6094
  0
LINE
  8
0
 10
69.2797
 20
18.6094
 11
69.0095
 21
17.957
  0
LINE
  8
0
 10
69.0095
 20
17.957
 11
68.6406
 21
17.355
  0
LINE
  8
0
 10
68.6406
 20
17.355
 11
68.182
 21
16.818
  0
LINE
  8
0
 10
68.182
 20
16.818
 11
67.645
 21
16.3594
  0
LINE
  8
0
 10
67.645
 20
16.3594
 11
67.043
 21
15.9905
  0
LINE
  8
0
 10
67.043
 20
15.9905
 11
66.3906
 21
15.7202
  0
LINE
  8
0
 10
66.3906
 20
15.7202
 11
65.7039
 21
15.5554
  0
LINE
  8
0
 10
65.7039
 20
15.5554
 11
65
 21
15.5
  0
LINE
  8
0
 10
65
 20
15.5
 11
64.296
 21
15.5554
  0
LINE
  8
0
 10
109.296
 20
15.5554
 11
108.609
 21
15.7202
  0
LINE
  8
0
 10
108.609
 20
15.7202
 11
107.957
 21
15.9905
  0
LINE
  8
0
 10
107.957
 20
15.9905
 11
107.355
 21
16.3594
  0
LINE
  8
0
 10
107.355
 20
16.3594
 11
106.818
 21
16.818
  0
LINE
  8
0
 10
106.818
 20
16.818
 11
106.359
 21
17.355
  0
LINE
  8
0
 10
106.359
 20
17.355
 11
105.99
 21
17.957
  0
LINE
  8
0
 10
105.99
 20
17.957
 11
105.72
 21
18.6094
  0
LINE
  8
0
 10
105.72
 20
18.6094
 11
105.555
 21
19.296
  0
LINE
  8
0
 10
105.555
 20
19.296
 11
105.5
 21
20
  0
LINE
  8
0
 10
105.5
 20
20
 11
105.555
 21
20.7039
  0
LINE
  8
0
 10
105.555
 20
20.7039
 11
105.72
 21
21.3906
  0
LINE
  8
0
 10
105.72
 20
21.3906
 11
105.99
 21
22.043
  0
LINE
  8
0
 10
105.99
 20
22.043
 11
106.359
 21
22.645
  0
LINE
  8
0
 10
106.359
 20
22.645
 11
106.818
 21
23.182
  0
LINE
  8
0
 10
106.818
 20
23.182
 11
107.355
 21
23.6406
  0
LINE
  8
0
 10
107.355
 20
23.6406
 11
107.957
 21
24.0095
  0
LINE
  8
0
 10
107.957
 20
24.0095
 11
108.609
 21
24.2797
  0
LINE
  8
0
 10
108.609
 20
24.2797
 11
109.296
 21
24.4446
  0
LINE
  8
0
 10
109.296
 20
24.4446
 11
110
 21
24.5
  0
LINE
  8
0
 10
110
 20
24.5
 11
110.704
 21
24.4446
  0
LINE
  8
0
 10
110.704
 20
24.4446
 11
111.391
 21
24.2797
  0
LINE
  8
0
 10
111.391
 20
24.2797
 11
112.043
 21
24.0095
  0
LINE
  8
0
 10
112.043
 20
24.0095
 11
112.645
 21
23.6406
  0
LINE
  8
0
 10
112.645
 20
23.6406
 11
113.182
 21
23.182
  0
LINE
  8
0
 10
113.182
 20
23.182
 11
113.641
 21
22.645
  0
LINE
  8
0
 10
113.641
 20
22.645
 11
114.01
 21
22.043
  0
LINE
  8
0
 10
114.01
 20
22.043
 11
114.28
 21
21.3906
  0
LINE
  8
0
 10
114.28
 20
21.3906
 11
114.445
 21
20.7039
  0
LINE
  8
0
 10
114.445
 20
20.7039
 11
114.5
 21
20
  0
LINE
  8
0
 10
114.5
 20
20
 11
114.445
 21
19.296
  0
LINE
  8
0
 10
114.445
 20
19.296
 11
114.28
 21
18.6094
  0
LINE
  8
0
 10
114.28
 20
18.6094
 11
114.01
 21
17.957
  0
LINE
  8
0
 10
114.01
 20
17.957
 11
113.641
 21
17.355
  0
LINE
  8
0
 10
113.641
 20
17.355
 11
113.182
 21
16.818
  0
LINE
  8
0
 10
113.182
 20
16.818
 11
112.645
 21
16.3594
  0
LINE
  8
0
 10
112.645
 20
16.3594
 11
112.043
 21
15.9905
  0
LINE
  8
0
 10
112.043
 20
15.9905
 11
111.391
 21
15.7202
  0
LINE
  8
0
 10
111.391
 20
15.7202
 11
110.704
 21
15.5554
  0
LINE
  8
0
 10
110.704
 20
15.5554
 11
110
 21
15.5
  0
LINE
  8
0
 10
110
 20
15.5
 11
109.296
 21
15.5554
  0
LINE
  8
0
 10
19.296
 20
15.5554
 11
18.6094
 21
15.7202
  0
LINE
  8
0
 10
18.6094
 20
15.7202
 11
17.957
 21
15.9905
  0
LINE
  8
0
 10
17.957
 20
15.9905
 11
17.355
 21
16.3594
  0
LINE
  8
0
 10
17.355
 20
16.3594
 11
16.818
 21
16.818
  0
LINE
  8
0
 10
16.818
 20
16.818
 11
16.3594
 21
17.355
  0
LINE
  8
0
 10
16.3594
 20
17.355
 11
15.9905
 21
17.957
  0
LINE
  8
0
 10
15.9905
 20
17.957
 11
15.7202
 21
18.6094
  0
LINE
  8
0
 10
15.7202
 20
18.6094
 11
15.5554
 21
19.296
  0
LINE
  8
0
 10
15.5554
 20
19.296
 11
15.5
 21
20
  0
LINE
  8
0
 10
15.5
 20
20
 11
15.5554
 21
20.7039
  0
LINE
  8
0
 10
15.5554
 20
20.7039
 11
15.7202
 21
21.3906
  0
LINE
  8
0
 10
15.7202
 20
21.3906
 11
15.9905
 21
22.043
  0
LINE
  8
0
 10
15.9905
 20
22.043
 11
16.3594
 21
22.645
  0
LINE
  8
0
 10
16.3594
 20
22.645
 11
16.818
 21
23.182
  0
LINE
  8
0
 10
16.818
 20
23.182
 11
17.355
 21
23.6406
  0
LINE
  8
0
 10
17.355
 20
23.6406
 11
17.957
 21
24.0095
  0
LINE
  8
0
 10
17.957
 20
24.0095
 11
18.6094
 21
24.2797
  0
LINE
  8
0
 10
18.6094
 20
24.2797
 11
19.296
 21
24.4446
  0
LINE
  8
0
 10
19.296
 20
24.4446
 11
20
 21
24.5
  0
LINE
  8
0
 10
20
 20
24.5
 11
20.7039
 21
24.4446
  0
LINE
  8
0
 10
20.7039
 20
24.4446
 11
21.3906
 21
24.2797
  0
LINE
  8
0
 10
21.3906
 20
24.2797
 11
22.043
 21
24.0095
  0
LINE
  8
0
 10
22.043
 20
24.0095
 11
22.645
 21
23.6406
  0
LINE
  8
0
 10
22.645
 20
23.6406
 11
23.182
 21
23.182
  0
LINE
  8
0
 10
23.182
 20
23.182
 11
23.6406
 21
22.645
  0
LINE
  8
0
 10
23.6406
 20
22.645
 11
24.0095
 21
22.043
  0
LINE
  8
0
 10
24.0095
 20
22.043
 11
24.2797
 21
21.3906
  0
LINE
  8
0
 10
24.2797
 20
21.3906
 11
24.4446
 21
20.7039
  0
LINE
  8
0
 10
24.4446
 20
20.7039
 11
24.5
 21
20
  0
LINE
  8
0
 10
24.5
 20
20
 11
24.4446
 21
19.296
  0
LINE
  8
0
 10
24.4446
 20
19.296
 11
24.2797
 21
18.6094
  0
LINE
  8
0
 10
24.2797
 20
18.6094
 11
24.0095
 21
17.957
  0
LINE
  8
0
 10
24.0095
 20
17.957
 11
23.6406
 21
17.355
  0
LINE
  8
0
 10
23.6406
 20
17.355
 11
23.182
 21
16.818
  0
LINE
  8
0
 10
23.182
 20
16.818
 11
22.645
 21
16.3594
  0
LINE
  8
0
 10
22.645
 20
16.3594
 11
22.043
 21
15.9905
  0
LINE
  8
0
 10
22.043
 20
15.9905
 11
21.3906
 21
15.7202
  0
LINE
  8
0
 10
21.3906
 20
15.7202
 11
20.7039
 21
15.5554
  0
LINE
  8
0
 10
20.7039
 20
15.5554
 11
20
 21
15.5
  0
LINE
  8
0
 10
20
 20
15.5
 11
19.296
 21
15.5554
  0
LINE
  8
0
 10
81.5307
 20
17.0369
 11
81.0729
 21
17.1468
  0
LINE
  8
0
 10
81.0729
 20
17.1468
 11
80.638
 21
17.327
  0
LINE
  8
0
 10
80.638
 20
17.327
 11
80.2366
 21
17.5729
  0
LINE
  8
0
 10
80.2366
 20
17.5729
 11
79.8787
 21
17.8787
  0
LINE
  8
0
 10
79.8787
 20
17.8787
 11
79.5729
 21
18.2366
  0
LINE
  8
0
 10
79.5729
 20
18.2366
 11
79.327
 21
18.638
  0
LINE
  8
0
 10
79.327
 20
18.638
 11
79.1468
 21
19.0729
  0
LINE
  8
0
 10
79.1468
 20
19.0729
 11
79.0369
 21
19.5307
  0
LINE
  8
0
 10
79.0369
 20
19.5307
 11
79
 21
20
  0
LINE
  8
0
 10
79
 20
20
 11
79.0369
 21
20.4693
  0
LINE
  8
0
 10
79.0369
 20
20.4693
 11
79.1468
 21
20.927
  0
LINE
  8
0
 10
79.1468
 20
20.927
 11
79.327
 21
21.362
  0
LINE
  8
0
 10
79.327
 20
21.362
 11
79.5729
 21
21.7634
  0
LINE
  8
0
 10
79.5729
 20
21.7634
 11
79.8787
 21
22.1213
  0
LINE
  8
0
 10
79.8787
 20
22.1213
 11
80.2366
 21
22.427
  0
LINE
  8
0
 10
80.2366
 20
22.427
 11
80.638
 21
22.673
  0
LINE
  8
0
 10
80.638
 20
22.673
 11
81.0729
 21
22.8532
  0
LINE
  8
0
 10
81.0729
 20
22.8532
 11
81.5307
 21
22.9631
  0
LINE
  8
0
 10
81.5307
 20
22.9631
 11
82
 21
23
  0
LINE
  8
0
 10
82
 20
23
 11
82.4693
 21
22.9631
  0
LINE
  8
0
 10
82.4693
 20
22.9631
 11
82.927
 21
22.8532
  0
LINE
  8
0
 10
82.927
 20
22.8532
 11
83.362
 21
22.673
  0
LINE
  8
0
 10
83.362
 20
22.673
 11
83.7634
 21
22.427
  0
LINE
  8
0
 10
83.7634
 20
22.427
 11
84.1213
 21
22.1213
  0
LINE
  8
0
 10
84.1213
 20
22.1213
 11
84.427
 21
21.7634
  0
LINE
  8
0
 10
84.427
 20
21.7634
 11
84.673
 21
21.362
  0
LINE
  8
0
 10
84.673
 20
21.362
 11
84.8532
 21
20.927
  0
LINE
  8
0
 10
84.8532
 20
20.927
 11
84.9631
 21
20.4693
  0
LINE
  8
0
 10
84.9631
 20
20.4693
 11
85
 21
20
  0
LINE
  8
0
 10
85
 20
20
 11
84.9631
 21
19.5307
  0
LINE
  8
0
 10
84.9631
 20
19.5307
 11
84.8532
 21
19.0729
  0
LINE
  8
0
 10
84.8532
 20
19.0729
 11
84.673
 21
18.638
  0
LINE
  8
0
 10
84.673
 20
18.638
 11
84.427
 21
18.2366
  0
LINE
  8
0
 10
84.427
 20
18.2366
 11
84.1213
 21
17.8787
  0
LINE
  8
0
 10
84.1213
 20
17.8787
 11
83.7634
 21
17.5729
  0
LINE
  8
0
 10
83.7634
 20
17.5729
 11
83.362
 21
17.327
  0
LINE
  8
0
 10
83.362
 20
17.327
 11
82.927
 21
17.1468
  0
LINE
  8
0
 10
82.927
 20
17.1468
 11
82.4693
 21
17.0369
  0
LINE
  8
0
 10
82.4693
 20
17.0369
 11
82
 21
17
  0
LINE
  8
0
 10
82
 20
17
 11
81.5307
 21
17.0369
  0
LINE
  8
0
 10
36.5307
 20
17.0369
 11
36.0729
 21
17.1468
  0
LINE
  8
0
 10
36.0729
 20
17.1468
 11
35.638
 21
17.327
  0
LINE
  8
0
 10
35.638
 20
17.327
 11
35.2366
 21
17.5729
  0
LINE
  8
0
 10
35.2366
 20
17.5729
 11
34.8787
 21
17.8787
  0
LINE
  8
0
 10
34.8787
 20
17.8787
 11
34.5729
 21
18.2366
  0
LINE
  8
0
 10
34.5729
 20
18.2366
 11
34.327
 21
18.638
  0
LINE
  8
0
 10
34.327
 20
18.638
 11
34.1468
 21
19.0729
  0
LINE
  8
0
 10
34.1468
 20
19.0729
 11
34.0369
 21
19.5307
  0
LINE
  8
0
 10
34.0369
 20
19.5307
 11
34
 21
20
  0
LINE
  8
0
 10
34
 20
20
 11
34.0369
 21
20.4693
  0
LINE
  8
0
 10
34.0369
 20
20.4693
 11
34.1468
 21
20.927
  0
LINE
  8
0
 10
34.1468
 20
20.927
 11
34.327
 21
21.362
  0
LINE
  8
0
 10
34.327
 20
21.362
 11
34.5729
 21
21.7634
  0
LINE
  8
0
 10
34.5729
 20
21.7634
 11
34.8787
 21
22.1213
  0
LINE
  8
0
 10
34.8787
 20
22.1213
 11
35.2366
 21
22.427
  0
LINE
  8
0
 10
35.2366
 20
22.427
 11
35.638
 21
22.673
  0
LINE
  8
0
 10
35.638
 20
22.673
 11
36.0729
 21
22.8532
  0
LINE
  8
0
 10
36.0729
 20
22.8532
 11
36.5307
 21
22.9631
  0
LINE
  8
0
 10
36.5307
 20
22.9631
 11
37
 21
23
  0
LINE
  8
0
 10
37
 20
23
 11
37.4693
 21
22.9631
  0
LINE
  8
0
 10
37.4693
 20
22.9631
 11
37.927
 21
22.8532
  0
LINE
  8
0
 10
37.927
 20
22.8532
 11
38.362
 21
22.673
  0
LINE
  8
0
 10
38.362
 20
22.673
 11
38.7634
 21
22.427
  0
LINE
  8
0
 10
38.7634
 20
22.427
 11
39.1213
 21
22.1213
  0
LINE
  8
0
 10
39.1213
 20
22.1213
 11
39.427
 21
21.7634
  0
LINE
  8
0
 10
39.427
 20
21.7634
 11
39.673
 21
21.362
  0
LINE
  8
0
 10
39.673
 20
21.362
 11
39.8532
 21
20.927
  0
LINE
  8
0
 10
39.8532
 20
20.927
 11
39.9631
 21
20.4693
  0
LINE
  8
0
 10
39.9631
 20
20.4693
 11
40
 21
20
  0
LINE
  8
0
 10
40
 20
20
 11
39.9631
 21
19.5307
  0
LINE
  8
0
 10
39.9631
 20
19.5307
 11
39.8532
 21
19.0729
  0
LINE
  8
0
 10
39.8532
 20
19.0729
 11
39.673
 21
18.638
  0
LINE
  8
0
 10
39.673
 20
18.638
 11
39.427
 21
18.2366
  0
LINE
  8
0
 10
39.427
 20
18.2366
 11
39.1213
 21
17.8787
  0
LINE
  8
0
 10
39.1213
 20
17.8787
 11
38.7634
 21
17.5729
  0
LINE
  8
0
 10
38.7634
 20
17.5729
 11
38.362
 21
17.327
  0
LINE
  8
0
 10
38.362
 20
17.327
 11
37.927
 21
17.1468
  0
LINE
  8
0
 10
37.927
 20
17.1468
 11
37.4693
 21
17.0369
  0
LINE
  8
0
 10
37.4693
 20
17.0369
 11
37
 21
17
  0
LINE
  8
0
 10
37
 20
17
 11
36.5307
 21
17.0369
  0
LINE
  8
0
 10
126.531
 20
17.0369
 11
126.073
 21
17.1468
  0
LINE
  8
0
 10
126.073
 20
17.1468
 11
125.638
 21
17.327
  0
LINE
  8
0
 10
125.638
 20
17.327
 11
125.237
 21
17.5729
  0
LINE
  8
0
 10
125.237
 20
17.5729
 11
124.879
 21
17.8787
  0
LINE
  8
0
 10
124.879
 20
17.8787
 11
124.573
 21
18.2366
  0
LINE
  8
0
 10
124.573
 20
18.2366
 11
124.327
 21
18.638
  0
LINE
  8
0
 10
124.327
 20
18.638
 11
124.147
 21
19.0729
  0
LINE
  8
0
 10
124.147
 20
19.0729
 11
124.037
 21
19.5307
  0
LINE
  8
0
 10
124.037
 20
19.5307
 11
124
 21
20
  0
LINE
  8
0
 10
124
 20
20
 11
124.037
 21
20.4693
  0
LINE
  8
0
 10
124.037
 20
20.4693
 11
124.147
 21
20.927
  0
LINE
  8
0
 10
124.147
 20
20.927
 11
124.327
 21
21.362
  0
LINE
  8
0
 10
124.327
 20
21.362
 11
124.573
 21
21.7634
  0
LINE
  8
0
 10
124.573
 20
21.7634
 11
124.879
 21
22.1213
  0
LINE
  8
0
 10
124.879
 20
22.1213
 11
125.237
 21
22.427
  0
LINE
  8
0
 10
125.237
 20
22.427
 11
125.638
 21
22.673
  0
LINE
  8
0
 10
125.638
 20
22.673
 11
126.073
 21
22.8532
  0
LINE
  8
0
 10
126.073
 20
22.8532
 11
126.531
 21
22.9631
  0
LINE
  8
0
 10
126.531
 20
22.9631
 11
127
 21
23
  0
LINE
  8
0
 10
127
 20
23
 11
127.469
 21
22.9631
  0
LINE
  8
0
 10
127.469
 20
22.9631
 11
127.927
 21
22.8532
  0
LINE
  8
0
 10
127.927
 20
22.8532
 11
128.362
 21
22.673
  0
LINE
  8
0
 10
128.362
 20
22.673
 11
128.763
 21
22.427
  0
LINE
  8
0
 10
128.763
 20
22.427
 11
129.121
 21
22.1213
  0
LINE
  8
0
 10
129.121
 20
22.1213
 11
129.427
 21
21.7634
  0
LINE
  8
0
 10
129.427
 20
21.7634
 11
129.673
 21
21.362
  0
LINE
  8
0
 10
129.673
 20
21.362
 11
129.853
 21
20.927
  0
LINE
  8
0
 10
129.853
 20
20.927
 11
129.963
 21
20.4693
  0
LINE
  8
0
 10
129.963
 20
20.4693
 11
130
 21
20
  0
LINE
  8
0
 10
130
 20
20
 11
129.963
 21
19.5307
  0
LINE
  8
0
 10
129.963
 20
19.5307
 11
129.853
 21
19.0729
  0
LINE
  8
0
 10
129.853
 20
19.0729
 11
129.673
 21
18.638
  0
LINE
  8
0
 10
129.673
 20
18.638
 11
129.427
 21
18.2366
  0
LINE
  8
0
 10
129.427
 20
18.2366
 11
129.121
 21
17.8787
  0
LINE
  8
0
 10
129.121
 20
17.8787
 11
128.763
 21
17.5729
  0
LINE
  8
0
 10
128.763
 20
17.5729
 11
128.362
 21
17.327
  0
LINE
  8
0
 10
128.362
 20
17.327
 11
127.927
 21
17.1468
  0
LINE
  8
0
 10
127.927
 20
17.1468
 11
127.469
 21
17.0369
  0
LINE
  8
0
 10
127.469
 20
17.0369
 11
127
 21
17
  0
LINE
  8
0
 10
127
 20
17
 11
126.531
 21
17.0369
  0
ENDSEC
  0
SECTION
  2
OBJECTS
  0
DICTIONARY
  0
ENDSEC
  0
EOF
