  0
SECTION
  2
BLOCKS
  0
ENDSEC
  0
SECTION
  2
ENTITIES
  0
LINE
  8
0
 10
93
 20
100
 11
0
 21
100
  0
LINE
  8
0
 10
0
 20
100
 11
0
 21
0
  0
LINE
  8
0
 10
0
 20
0
 11
93
 21
0
  0
LINE
  8
0
 10
93
 20
0
 11
93
 21
100
  0
LINE
  8
0
 10
19.296
 20
75.5554
 11
18.6094
 21
75.7202
  0
LINE
  8
0
 10
18.6094
 20
75.7202
 11
17.957
 21
75.9905
  0
LINE
  8
0
 10
17.957
 20
75.9905
 11
17.355
 21
76.3594
  0
LINE
  8
0
 10
17.355
 20
76.3594
 11
16.818
 21
76.818
  0
LINE
  8
0
 10
16.818
 20
76.818
 11
16.3594
 21
77.355
  0
LINE
  8
0
 10
16.3594
 20
77.355
 11
15.9905
 21
77.957
  0
LINE
  8
0
 10
15.9905
 20
77.957
 11
15.7202
 21
78.6094
  0
LINE
  8
0
 10
15.7202
 20
78.6094
 11
15.5554
 21
79.296
  0
LINE
  8
0
 10
15.5554
 20
79.296
 11
15.5
 21
80
  0
LINE
  8
0
 10
15.5
 20
80
 11
15.5554
 21
80.7039
  0
LINE
  8
0
 10
15.5554
 20
80.7039
 11
15.7202
 21
81.3906
  0
LINE
  8
0
 10
15.7202
 20
81.3906
 11
15.9905
 21
82.043
  0
LINE
  8
0
 10
15.9905
 20
82.043
 11
16.3594
 21
82.645
  0
LINE
  8
0
 10
16.3594
 20
82.645
 11
16.818
 21
83.182
  0
LINE
  8
0
 10
16.818
 20
83.182
 11
17.355
 21
83.6406
  0
LINE
  8
0
 10
17.355
 20
83.6406
 11
17.957
 21
84.0095
  0
LINE
  8
0
 10
17.957
 20
84.0095
 11
18.6094
 21
84.2797
  0
LINE
  8
0
 10
18.6094
 20
84.2797
 11
19.296
 21
84.4446
  0
LINE
  8
0
 10
19.296
 20
84.4446
 11
20
 21
84.5
  0
LINE
  8
0
 10
20
 20
84.5
 11
20.7039
 21
84.4446
  0
LINE
  8
0
 10
20.7039
 20
84.4446
 11
21.3906
 21
84.2797
  0
LINE
  8
0
 10
21.3906
 20
84.2797
 11
22.043
 21
84.0095
  0
LINE
  8
0
 10
22.043
 20
84.0095
 11
22.645
 21
83.6406
  0
LINE
  8
0
 10
22.645
 20
83.6406
 11
23.182
 21
83.182
  0
LINE
  8
0
 10
23.182
 20
83.182
 11
23.6406
 21
82.645
  0
LINE
  8
0
 10
23.6406
 20
82.645
 11
24.0095
 21
82.043
  0
LINE
  8
0
 10
24.0095
 20
82.043
 11
24.2797
 21
81.3906
  0
LINE
  8
0
 10
24.2797
 20
81.3906
 11
24.4446
 21
80.7039
  0
LINE
  8
0
 10
24.4446
 20
80.7039
 11
24.5
 21
80
  0
LINE
  8
0
 10
24.5
 20
80
 11
24.4446
 21
79.296
  0
LINE
  8
0
 10
24.4446
 20
79.296
 11
24.2797
 21
78.6094
  0
LINE
  8
0
 10
24.2797
 20
78.6094
 11
24.0095
 21
77.957
  0
LINE
  8
0
 10
24.0095
 20
77.957
 11
23.6406
 21
77.355
  0
LINE
  8
0
 10
23.6406
 20
77.355
 11
23.182
 21
76.818
  0
LINE
  8
0
 10
23.182
 20
76.818
 11
22.645
 21
76.3594
  0
LINE
  8
0
 10
22.645
 20
76.3594
 11
22.043
 21
75.9905
  0
LINE
  8
0
 10
22.043
 20
75.9905
 11
21.3906
 21
75.7202
  0
LINE
  8
0
 10
21.3906
 20
75.7202
 11
20.7039
 21
75.5554
  0
LINE
  8
0
 10
20.7039
 20
75.5554
 11
20
 21
75.5
  0
LINE
  8
0
 10
20
 20
75.5
 11
19.296
 21
75.5554
  0
LINE
  8
0
 10
57.296
 20
75.5554
 11
56.6094
 21
75.7202
  0
LINE
  8
0
 10
56.6094
 20
75.7202
 11
55.957
 21
75.9905
  0
LINE
  8
0
 10
55.957
 20
75.9905
 11
55.355
 21
76.3594
  0
LINE
  8
0
 10
55.355
 20
76.3594
 11
54.818
 21
76.818
  0
LINE
  8
0
 10
54.818
 20
76.818
 11
54.3594
 21
77.355
  0
LINE
  8
0
 10
54.3594
 20
77.355
 11
53.9905
 21
77.957
  0
LINE
  8
0
 10
53.9905
 20
77.957
 11
53.7202
 21
78.6094
  0
LINE
  8
0
 10
53.7202
 20
78.6094
 11
53.5554
 21
79.296
  0
LINE
  8
0
 10
53.5554
 20
79.296
 11
53.5
 21
80
  0
LINE
  8
0
 10
53.5
 20
80
 11
53.5554
 21
80.7039
  0
LINE
  8
0
 10
53.5554
 20
80.7039
 11
53.7202
 21
81.3906
  0
LINE
  8
0
 10
53.7202
 20
81.3906
 11
53.9905
 21
82.043
  0
LINE
  8
0
 10
53.9905
 20
82.043
 11
54.3594
 21
82.645
  0
LINE
  8
0
 10
54.3594
 20
82.645
 11
54.818
 21
83.182
  0
LINE
  8
0
 10
54.818
 20
83.182
 11
55.355
 21
83.6406
  0
LINE
  8
0
 10
55.355
 20
83.6406
 11
55.957
 21
84.0095
  0
LINE
  8
0
 10
55.957
 20
84.0095
 11
56.6094
 21
84.2797
  0
LINE
  8
0
 10
56.6094
 20
84.2797
 11
57.296
 21
84.4446
  0
LINE
  8
0
 10
57.296
 20
84.4446
 11
58
 21
84.5
  0
LINE
  8
0
 10
58
 20
84.5
 11
58.7039
 21
84.4446
  0
LINE
  8
0
 10
58.7039
 20
84.4446
 11
59.3906
 21
84.2797
  0
LINE
  8
0
 10
59.3906
 20
84.2797
 11
60.043
 21
84.0095
  0
LINE
  8
0
 10
60.043
 20
84.0095
 11
60.645
 21
83.6406
  0
LINE
  8
0
 10
60.645
 20
83.6406
 11
61.182
 21
83.182
  0
LINE
  8
0
 10
61.182
 20
83.182
 11
61.6406
 21
82.645
  0
LINE
  8
0
 10
61.6406
 20
82.645
 11
62.0095
 21
82.043
  0
LINE
  8
0
 10
62.0095
 20
82.043
 11
62.2797
 21
81.3906
  0
LINE
  8
0
 10
62.2797
 20
81.3906
 11
62.4446
 21
80.7039
  0
LINE
  8
0
 10
62.4446
 20
80.7039
 11
62.5
 21
80
  0
LINE
  8
0
 10
62.5
 20
80
 11
62.4446
 21
79.296
  0
LINE
  8
0
 10
62.4446
 20
79.296
 11
62.2797
 21
78.6094
  0
LINE
  8
0
 10
62.2797
 20
78.6094
 11
62.0095
 21
77.957
  0
LINE
  8
0
 10
62.0095
 20
77.957
 11
61.6406
 21
77.355
  0
LINE
  8
0
 10
61.6406
 20
77.355
 11
61.182
 21
76.818
  0
LINE
  8
0
 10
61.182
 20
76.818
 11
60.645
 21
76.3594
  0
LINE
  8
0
 10
60.645
 20
76.3594
 11
60.043
 21
75.9905
  0
LINE
  8
0
 10
60.043
 20
75.9905
 11
59.3906
 21
75.7202
  0
LINE
  8
0
 10
59.3906
 20
75.7202
 11
58.7039
 21
75.5554
  0
LINE
  8
0
 10
58.7039
 20
75.5554
 11
58
 21
75.5
  0
LINE
  8
0
 10
58
 20
75.5
 11
57.296
 21
75.5554
  0
LINE
  8
0
 10
34.5307
 20
77.0369
 11
34.0729
 21
77.1468
  0
LINE
  8
0
 10
34.0729
 20
77.1468
 11
33.638
 21
77.327
  0
LINE
  8
0
 10
33.638
 20
77.327
 11
33.2366
 21
77.5729
  0
LINE
  8
0
 10
33.2366
 20
77.5729
 11
32.8787
 21
77.8787
  0
LINE
  8
0
 10
32.8787
 20
77.8787
 11
32.5729
 21
78.2366
  0
LINE
  8
0
 10
32.5729
 20
78.2366
 11
32.327
 21
78.638
  0
LINE
  8
0
 10
32.327
 20
78.638
 11
32.1468
 21
79.0729
  0
LINE
  8
0
 10
32.1468
 20
79.0729
 11
32.0369
 21
79.5307
  0
LINE
  8
0
 10
32.0369
 20
79.5307
 11
32
 21
80
  0
LINE
  8
0
 10
32
 20
80
 11
32.0369
 21
80.4693
  0
LINE
  8
0
 10
32.0369
 20
80.4693
 11
32.1468
 21
80.927
  0
LINE
  8
0
 10
32.1468
 20
80.927
 11
32.327
 21
81.362
  0
LINE
  8
0
 10
32.327
 20
81.362
 11
32.5729
 21
81.7634
  0
LINE
  8
0
 10
32.5729
 20
81.7634
 11
32.8787
 21
82.1213
  0
LINE
  8
0
 10
32.8787
 20
82.1213
 11
33.2366
 21
82.427
  0
LINE
  8
0
 10
33.2366
 20
82.427
 11
33.638
 21
82.673
  0
LINE
  8
0
 10
33.638
 20
82.673
 11
34.0729
 21
82.8532
  0
LINE
  8
0
 10
34.0729
 20
82.8532
 11
34.5307
 21
82.9631
  0
LINE
  8
0
 10
34.5307
 20
82.9631
 11
35
 21
83
  0
LINE
  8
0
 10
35
 20
83
 11
35.4693
 21
82.9631
  0
LINE
  8
0
 10
35.4693
 20
82.9631
 11
35.927
 21
82.8532
  0
LINE
  8
0
 10
35.927
 20
82.8532
 11
36.362
 21
82.673
  0
LINE
  8
0
 10
36.362
 20
82.673
 11
36.7634
 21
82.427
  0
LINE
  8
0
 10
36.7634
 20
82.427
 11
37.1213
 21
82.1213
  0
LINE
  8
0
 10
37.1213
 20
82.1213
 11
37.427
 21
81.7634
  0
LINE
  8
0
 10
37.427
 20
81.7634
 11
37.673
 21
81.362
  0
LINE
  8
0
 10
37.673
 20
81.362
 11
37.8532
 21
80.927
  0
LINE
  8
0
 10
37.8532
 20
80.927
 11
37.9631
 21
80.4693
  0
LINE
  8
0
 10
37.9631
 20
80.4693
 11
38
 21
80
  0
LINE
  8
0
 10
38
 20
80
 11
37.9631
 21
79.5307
  0
LINE
  8
0
 10
37.9631
 20
79.5307
 11
37.8532
 21
79.0729
  0
LINE
  8
0
 10
37.8532
 20
79.0729
 11
37.673
 21
78.638
  0
LINE
  8
0
 10
37.673
 20
78.638
 11
37.427
 21
78.2366
  0
LINE
  8
0
 10
37.427
 20
78.2366
 11
37.1213
 21
77.8787
  0
LINE
  8
0
 10
37.1213
 20
77.8787
 11
36.7634
 21
77.5729
  0
LINE
  8
0
 10
36.7634
 20
77.5729
 11
36.362
 21
77.327
  0
LINE
  8
0
 10
36.362
 20
77.327
 11
35.927
 21
77.1468
  0
LINE
  8
0
 10
35.927
 20
77.1468
 11
35.4693
 21
77.0369
  0
LINE
  8
0
 10
35.4693
 20
77.0369
 11
35
 21
77
  0
LINE
  8
0
 10
35
 20
77
 11
34.5307
 21
77.0369
  0
LINE
  8
0
 10
72.5307
 20
77.0369
 11
72.0729
 21
77.1468
  0
LINE
  8
0
 10
72.0729
 20
77.1468
 11
71.638
 21
77.327
  0
LINE
  8
0
 10
71.638
 20
77.327
 11
71.2366
 21
77.5729
  0
LINE
  8
0
 10
71.2366
 20
77.5729
 11
70.8787
 21
77.8787
  0
LINE
  8
0
 10
70.8787
 20
77.8787
 11
70.5729
 21
78.2366
  0
LINE
  8
0
 10
70.5729
 20
78.2366
 11
70.327
 21
78.638
  0
LINE
  8
0
 10
70.327
 20
78.638
 11
70.1468
 21
79.0729
  0
LINE
  8
0
 10
70.1468
 20
79.0729
 11
70.0369
 21
79.5307
  0
LINE
  8
0
 10
70.0369
 20
79.5307
 11
70
 21
80
  0
LINE
  8
0
 10
70
 20
80
 11
70.0369
 21
80.4693
  0
LINE
  8
0
 10
70.0369
 20
80.4693
 11
70.1468
 21
80.927
  0
LINE
  8
0
 10
70.1468
 20
80.927
 11
70.327
 21
81.362
  0
LINE
  8
0
 10
70.327
 20
81.362
 11
70.5729
 21
81.7634
  0
LINE
  8
0
 10
70.5729
 20
81.7634
 11
70.8787
 21
82.1213
  0
LINE
  8
0
 10
70.8787
 20
82.1213
 11
71.2366
 21
82.427
  0
LINE
  8
0
 10
71.2366
 20
82.427
 11
71.638
 21
82.673
  0
LINE
  8
0
 10
71.638
 20
82.673
 11
72.0729
 21
82.8532
  0
LINE
  8
0
 10
72.0729
 20
82.8532
 11
72.5307
 21
82.9631
  0
LINE
  8
0
 10
72.5307
 20
82.9631
 11
73
 21
83
  0
LINE
  8
0
 10
73
 20
83
 11
73.4693
 21
82.9631
  0
LINE
  8
0
 10
73.4693
 20
82.9631
 11
73.927
 21
82.8532
  0
LINE
  8
0
 10
73.927
 20
82.8532
 11
74.362
 21
82.673
  0
LINE
  8
0
 10
74.362
 20
82.673
 11
74.7634
 21
82.427
  0
LINE
  8
0
 10
74.7634
 20
82.427
 11
75.1213
 21
82.1213
  0
LINE
  8
0
 10
75.1213
 20
82.1213
 11
75.427
 21
81.7634
  0
LINE
  8
0
 10
75.427
 20
81.7634
 11
75.673
 21
81.362
  0
LINE
  8
0
 10
75.673
 20
81.362
 11
75.8532
 21
80.927
  0
LINE
  8
0
 10
75.8532
 20
80.927
 11
75.9631
 21
80.4693
  0
LINE
  8
0
 10
75.9631
 20
80.4693
 11
76
 21
80
  0
LINE
  8
0
 10
76
 20
80
 11
75.9631
 21
79.5307
  0
LINE
  8
0
 10
75.9631
 20
79.5307
 11
75.8532
 21
79.0729
  0
LINE
  8
0
 10
75.8532
 20
79.0729
 11
75.673
 21
78.638
  0
LINE
  8
0
 10
75.673
 20
78.638
 11
75.427
 21
78.2366
  0
LINE
  8
0
 10
75.427
 20
78.2366
 11
75.1213
 21
77.8787
  0
LINE
  8
0
 10
75.1213
 20
77.8787
 11
74.7634
 21
77.5729
  0
LINE
  8
0
 10
74.7634
 20
77.5729
 11
74.362
 21
77.327
  0
LINE
  8
0
 10
74.362
 20
77.327
 11
73.927
 21
77.1468
  0
LINE
  8
0
 10
73.927
 20
77.1468
 11
73.4693
 21
77.0369
  0
LINE
  8
0
 10
73.4693
 20
77.0369
 11
73
 21
77
  0
LINE
  8
0
 10
73
 20
77
 11
72.5307
 21
77.0369
  0
LINE
  8
0
 10
19.296
 20
45.5554
 11
18.6094
 21
45.7202
  0
LINE
  8
0
 10
18.6094
 20
45.7202
 11
17.957
 21
45.9905
  0
LINE
  8
0
 10
17.957
 20
45.9905
 11
17.355
 21
46.3594
  0
LINE
  8
0
 10
17.355
 20
46.3594
 11
16.818
 21
46.818
  0
LINE
  8
0
 10
16.818
 20
46.818
 11
16.3594
 21
47.355
  0
LINE
  8
0
 10
16.3594
 20
47.355
 11
15.9905
 21
47.957
  0
LINE
  8
0
 10
15.9905
 20
47.957
 11
15.7202
 21
48.6094
  0
LINE
  8
0
 10
15.7202
 20
48.6094
 11
15.5554
 21
49.296
  0
LINE
  8
0
 10
15.5554
 20
49.296
 11
15.5
 21
50
  0
LINE
  8
0
 10
15.5
 20
50
 11
15.5554
 21
50.7039
  0
LINE
  8
0
 10
15.5554
 20
50.7039
 11
15.7202
 21
51.3906
  0
LINE
  8
0
 10
15.7202
 20
51.3906
 11
15.9905
 21
52.043
  0
LINE
  8
0
 10
15.9905
 20
52.043
 11
16.3594
 21
52.645
  0
LINE
  8
0
 10
16.3594
 20
52.645
 11
16.818
 21
53.182
  0
LINE
  8
0
 10
16.818
 20
53.182
 11
17.355
 21
53.6406
  0
LINE
  8
0
 10
17.355
 20
53.6406
 11
17.957
 21
54.0095
  0
LINE
  8
0
 10
17.957
 20
54.0095
 11
18.6094
 21
54.2797
  0
LINE
  8
0
 10
18.6094
 20
54.2797
 11
19.296
 21
54.4446
  0
LINE
  8
0
 10
19.296
 20
54.4446
 11
20
 21
54.5
  0
LINE
  8
0
 10
20
 20
54.5
 11
20.7039
 21
54.4446
  0
LINE
  8
0
 10
20.7039
 20
54.4446
 11
21.3906
 21
54.2797
  0
LINE
  8
0
 10
21.3906
 20
54.2797
 11
22.043
 21
54.0095
  0
LINE
  8
0
 10
22.043
 20
54.0095
 11
22.645
 21
53.6406
  0
LINE
  8
0
 10
22.645
 20
53.6406
 11
23.182
 21
53.182
  0
LINE
  8
0
 10
23.182
 20
53.182
 11
23.6406
 21
52.645
  0
LINE
  8
0
 10
23.6406
 20
52.645
 11
24.0095
 21
52.043
  0
LINE
  8
0
 10
24.0095
 20
52.043
 11
24.2797
 21
51.3906
  0
LINE
  8
0
 10
24.2797
 20
51.3906
 11
24.4446
 21
50.7039
  0
LINE
  8
0
 10
24.4446
 20
50.7039
 11
24.5
 21
50
  0
LINE
  8
0
 10
24.5
 20
50
 11
24.4446
 21
49.296
  0
LINE
  8
0
 10
24.4446
 20
49.296
 11
24.2797
 21
48.6094
  0
LINE
  8
0
 10
24.2797
 20
48.6094
 11
24.0095
 21
47.957
  0
LINE
  8
0
 10
24.0095
 20
47.957
 11
23.6406
 21
47.355
  0
LINE
  8
0
 10
23.6406
 20
47.355
 11
23.182
 21
46.818
  0
LINE
  8
0
 10
23.182
 20
46.818
 11
22.645
 21
46.3594
  0
LINE
  8
0
 10
22.645
 20
46.3594
 11
22.043
 21
45.9905
  0
LINE
  8
0
 10
22.043
 20
45.9905
 11
21.3906
 21
45.7202
  0
LINE
  8
0
 10
21.3906
 20
45.7202
 11
20.7039
 21
45.5554
  0
LINE
  8
0
 10
20.7039
 20
45.5554
 11
20
 21
45.5
  0
LINE
  8
0
 10
20
 20
45.5
 11
19.296
 21
45.5554
  0
LINE
  8
0
 10
57.296
 20
45.5554
 11
56.6094
 21
45.7202
  0
LINE
  8
0
 10
56.6094
 20
45.7202
 11
55.957
 21
45.9905
  0
LINE
  8
0
 10
55.957
 20
45.9905
 11
55.355
 21
46.3594
  0
LINE
  8
0
 10
55.355
 20
46.3594
 11
54.818
 21
46.818
  0
LINE
  8
0
 10
54.818
 20
46.818
 11
54.3594
 21
47.355
  0
LINE
  8
0
 10
54.3594
 20
47.355
 11
53.9905
 21
47.957
  0
LINE
  8
0
 10
53.9905
 20
47.957
 11
53.7202
 21
48.6094
  0
LINE
  8
0
 10
53.7202
 20
48.6094
 11
53.5554
 21
49.296
  0
LINE
  8
0
 10
53.5554
 20
49.296
 11
53.5
 21
50
  0
LINE
  8
0
 10
53.5
 20
50
 11
53.5554
 21
50.7039
  0
LINE
  8
0
 10
53.5554
 20
50.7039
 11
53.7202
 21
51.3906
  0
LINE
  8
0
 10
53.7202
 20
51.3906
 11
53.9905
 21
52.043
  0
LINE
  8
0
 10
53.9905
 20
52.043
 11
54.3594
 21
52.645
  0
LINE
  8
0
 10
54.3594
 20
52.645
 11
54.818
 21
53.182
  0
LINE
  8
0
 10
54.818
 20
53.182
 11
55.355
 21
53.6406
  0
LINE
  8
0
 10
55.355
 20
53.6406
 11
55.957
 21
54.0095
  0
LINE
  8
0
 10
55.957
 20
54.0095
 11
56.6094
 21
54.2797
  0
LINE
  8
0
 10
56.6094
 20
54.2797
 11
57.296
 21
54.4446
  0
LINE
  8
0
 10
57.296
 20
54.4446
 11
58
 21
54.5
  0
LINE
  8
0
 10
58
 20
54.5
 11
58.7039
 21
54.4446
  0
LINE
  8
0
 10
58.7039
 20
54.4446
 11
59.3906
 21
54.2797
  0
LINE
  8
0
 10
59.3906
 20
54.2797
 11
60.043
 21
54.0095
  0
LINE
  8
0
 10
60.043
 20
54.0095
 11
60.645
 21
53.6406
  0
LINE
  8
0
 10
60.645
 20
53.6406
 11
61.182
 21
53.182
  0
LINE
  8
0
 10
61.182
 20
53.182
 11
61.6406
 21
52.645
  0
LINE
  8
0
 10
61.6406
 20
52.645
 11
62.0095
 21
52.043
  0
LINE
  8
0
 10
62.0095
 20
52.043
 11
62.2797
 21
51.3906
  0
LINE
  8
0
 10
62.2797
 20
51.3906
 11
62.4446
 21
50.7039
  0
LINE
  8
0
 10
62.4446
 20
50.7039
 11
62.5
 21
50
  0
LINE
  8
0
 10
62.5
 20
50
 11
62.4446
 21
49.296
  0
LINE
  8
0
 10
62.4446
 20
49.296
 11
62.2797
 21
48.6094
  0
LINE
  8
0
 10
62.2797
 20
48.6094
 11
62.0095
 21
47.957
  0
LINE
  8
0
 10
62.0095
 20
47.957
 11
61.6406
 21
47.355
  0
LINE
  8
0
 10
61.6406
 20
47.355
 11
61.182
 21
46.818
  0
LINE
  8
0
 10
61.182
 20
46.818
 11
60.645
 21
46.3594
  0
LINE
  8
0
 10
60.645
 20
46.3594
 11
60.043
 21
45.9905
  0
LINE
  8
0
 10
60.043
 20
45.9905
 11
59.3906
 21
45.7202
  0
LINE
  8
0
 10
59.3906
 20
45.7202
 11
58.7039
 21
45.5554
  0
LINE
  8
0
 10
58.7039
 20
45.5554
 11
58
 21
45.5
  0
LINE
  8
0
 10
58
 20
45.5
 11
57.296
 21
45.5554
  0
LINE
  8
0
 10
34.5307
 20
47.0369
 11
34.0729
 21
47.1468
  0
LINE
  8
0
 10
34.0729
 20
47.1468
 11
33.638
 21
47.327
  0
LINE
  8
0
 10
33.638
 20
47.327
 11
33.2366
 21
47.5729
  0
LINE
  8
0
 10
33.2366
 20
47.5729
 11
32.8787
 21
47.8787
  0
LINE
  8
0
 10
32.8787
 20
47.8787
 11
32.5729
 21
48.2366
  0
LINE
  8
0
 10
32.5729
 20
48.2366
 11
32.327
 21
48.638
  0
LINE
  8
0
 10
32.327
 20
48.638
 11
32.1468
 21
49.0729
  0
LINE
  8
0
 10
32.1468
 20
49.0729
 11
32.0369
 21
49.5307
  0
LINE
  8
0
 10
32.0369
 20
49.5307
 11
32
 21
50
  0
LINE
  8
0
 10
32
 20
50
 11
32.0369
 21
50.4693
  0
LINE
  8
0
 10
32.0369
 20
50.4693
 11
32.1468
 21
50.927
  0
LINE
  8
0
 10
32.1468
 20
50.927
 11
32.327
 21
51.362
  0
LINE
  8
0
 10
32.327
 20
51.362
 11
32.5729
 21
51.7634
  0
LINE
  8
0
 10
32.5729
 20
51.7634
 11
32.8787
 21
52.1213
  0
LINE
  8
0
 10
32.8787
 20
52.1213
 11
33.2366
 21
52.427
  0
LINE
  8
0
 10
33.2366
 20
52.427
 11
33.638
 21
52.673
  0
LINE
  8
0
 10
33.638
 20
52.673
 11
34.0729
 21
52.8532
  0
LINE
  8
0
 10
34.0729
 20
52.8532
 11
34.5307
 21
52.9631
  0
LINE
  8
0
 10
34.5307
 20
52.9631
 11
35
 21
53
  0
LINE
  8
0
 10
35
 20
53
 11
35.4693
 21
52.9631
  0
LINE
  8
0
 10
35.4693
 20
52.9631
 11
35.927
 21
52.8532
  0
LINE
  8
0
 10
35.927
 20
52.8532
 11
36.362
 21
52.673
  0
LINE
  8
0
 10
36.362
 20
52.673
 11
36.7634
 21
52.427
  0
LINE
  8
0
 10
36.7634
 20
52.427
 11
37.1213
 21
52.1213
  0
LINE
  8
0
 10
37.1213
 20
52.1213
 11
37.427
 21
51.7634
  0
LINE
  8
0
 10
37.427
 20
51.7634
 11
37.673
 21
51.362
  0
LINE
  8
0
 10
37.673
 20
51.362
 11
37.8532
 21
50.927
  0
LINE
  8
0
 10
37.8532
 20
50.927
 11
37.9631
 21
50.4693
  0
LINE
  8
0
 10
37.9631
 20
50.4693
 11
38
 21
50
  0
LINE
  8
0
 10
38
 20
50
 11
37.9631
 21
49.5307
  0
LINE
  8
0
 10
37.9631
 20
49.5307
 11
37.8532
 21
49.0729
  0
LINE
  8
0
 10
37.8532
 20
49.0729
 11
37.673
 21
48.638
  0
LINE
  8
0
 10
37.673
 20
48.638
 11
37.427
 21
48.2366
  0
LINE
  8
0
 10
37.427
 20
48.2366
 11
37.1213
 21
47.8787
  0
LINE
  8
0
 10
37.1213
 20
47.8787
 11
36.7634
 21
47.5729
  0
LINE
  8
0
 10
36.7634
 20
47.5729
 11
36.362
 21
47.327
  0
LINE
  8
0
 10
36.362
 20
47.327
 11
35.927
 21
47.1468
  0
LINE
  8
0
 10
35.927
 20
47.1468
 11
35.4693
 21
47.0369
  0
LINE
  8
0
 10
35.4693
 20
47.0369
 11
35
 21
47
  0
LINE
  8
0
 10
35
 20
47
 11
34.5307
 21
47.0369
  0
LINE
  8
0
 10
72.5307
 20
47.0369
 11
72.0729
 21
47.1468
  0
LINE
  8
0
 10
72.0729
 20
47.1468
 11
71.638
 21
47.327
  0
LINE
  8
0
 10
71.638
 20
47.327
 11
71.2366
 21
47.5729
  0
LINE
  8
0
 10
71.2366
 20
47.5729
 11
70.8787
 21
47.8787
  0
LINE
  8
0
 10
70.8787
 20
47.8787
 11
70.5729
 21
48.2366
  0
LINE
  8
0
 10
70.5729
 20
48.2366
 11
70.327
 21
48.638
  0
LINE
  8
0
 10
70.327
 20
48.638
 11
70.1468
 21
49.0729
  0
LINE
  8
0
 10
70.1468
 20
49.0729
 11
70.0369
 21
49.5307
  0
LINE
  8
0
 10
70.0369
 20
49.5307
 11
70
 21
50
  0
LINE
  8
0
 10
70
 20
50
 11
70.0369
 21
50.4693
  0
LINE
  8
0
 10
70.0369
 20
50.4693
 11
70.1468
 21
50.927
  0
LINE
  8
0
 10
70.1468
 20
50.927
 11
70.327
 21
51.362
  0
LINE
  8
0
 10
70.327
 20
51.362
 11
70.5729
 21
51.7634
  0
LINE
  8
0
 10
70.5729
 20
51.7634
 11
70.8787
 21
52.1213
  0
LINE
  8
0
 10
70.8787
 20
52.1213
 11
71.2366
 21
52.427
  0
LINE
  8
0
 10
71.2366
 20
52.427
 11
71.638
 21
52.673
  0
LINE
  8
0
 10
71.638
 20
52.673
 11
72.0729
 21
52.8532
  0
LINE
  8
0
 10
72.0729
 20
52.8532
 11
72.5307
 21
52.9631
  0
LINE
  8
0
 10
72.5307
 20
52.9631
 11
73
 21
53
  0
LINE
  8
0
 10
73
 20
53
 11
73.4693
 21
52.9631
  0
LINE
  8
0
 10
73.4693
 20
52.9631
 11
73.927
 21
52.8532
  0
LINE
  8
0
 10
73.927
 20
52.8532
 11
74.362
 21
52.673
  0
LINE
  8
0
 10
74.362
 20
52.673
 11
74.7634
 21
52.427
  0
LINE
  8
0
 10
74.7634
 20
52.427
 11
75.1213
 21
52.1213
  0
LINE
  8
0
 10
75.1213
 20
52.1213
 11
75.427
 21
51.7634
  0
LINE
  8
0
 10
75.427
 20
51.7634
 11
75.673
 21
51.362
  0
LINE
  8
0
 10
75.673
 20
51.362
 11
75.8532
 21
50.927
  0
LINE
  8
0
 10
75.8532
 20
50.927
 11
75.9631
 21
50.4693
  0
LINE
  8
0
 10
75.9631
 20
50.4693
 11
76
 21
50
  0
LINE
  8
0
 10
76
 20
50
 11
75.9631
 21
49.5307
  0
LINE
  8
0
 10
75.9631
 20
49.5307
 11
75.8532
 21
49.0729
  0
LINE
  8
0
 10
75.8532
 20
49.0729
 11
75.673
 21
48.638
  0
LINE
  8
0
 10
75.673
 20
48.638
 11
75.427
 21
48.2366
  0
LINE
  8
0
 10
75.427
 20
48.2366
 11
75.1213
 21
47.8787
  0
LINE
  8
0
 10
75.1213
 20
47.8787
 11
74.7634
 21
47.5729
  0
LINE
  8
0
 10
74.7634
 20
47.5729
 11
74.362
 21
47.327
  0
LINE
  8
0
 10
74.362
 20
47.327
 11
73.927
 21
47.1468
  0
LINE
  8
0
 10
73.927
 20
47.1468
 11
73.4693
 21
47.0369
  0
LINE
  8
0
 10
73.4693
 20
47.0369
 11
73
 21
47
  0
LINE
  8
0
 10
73
 20
47
 11
72.5307
 21
47.0369
  0
LINE
  8
0
 10
19.296
 20
15.5554
 11
18.6094
 21
15.7202
  0
LINE
  8
0
 10
18.6094
 20
15.7202
 11
17.957
 21
15.9905
  0
LINE
  8
0
 10
17.957
 20
15.9905
 11
17.355
 21
16.3594
  0
LINE
  8
0
 10
17.355
 20
16.3594
 11
16.818
 21
16.818
  0
LINE
  8
0
 10
16.818
 20
16.818
 11
16.3594
 21
17.355
  0
LINE
  8
0
 10
16.3594
 20
17.355
 11
15.9905
 21
17.957
  0
LINE
  8
0
 10
15.9905
 20
17.957
 11
15.7202
 21
18.6094
  0
LINE
  8
0
 10
15.7202
 20
18.6094
 11
15.5554
 21
19.296
  0
LINE
  8
0
 10
15.5554
 20
19.296
 11
15.5
 21
20
  0
LINE
  8
0
 10
15.5
 20
20
 11
15.5554
 21
20.7039
  0
LINE
  8
0
 10
15.5554
 20
20.7039
 11
15.7202
 21
21.3906
  0
LINE
  8
0
 10
15.7202
 20
21.3906
 11
15.9905
 21
22.043
  0
LINE
  8
0
 10
15.9905
 20
22.043
 11
16.3594
 21
22.645
  0
LINE
  8
0
 10
16.3594
 20
22.645
 11
16.818
 21
23.182
  0
LINE
  8
0
 10
16.818
 20
23.182
 11
17.355
 21
23.6406
  0
LINE
  8
0
 10
17.355
 20
23.6406
 11
17.957
 21
24.0095
  0
LINE
  8
0
 10
17.957
 20
24.0095
 11
18.6094
 21
24.2797
  0
LINE
  8
0
 10
18.6094
 20
24.2797
 11
19.296
 21
24.4446
  0
LINE
  8
0
 10
19.296
 20
24.4446
 11
20
 21
24.5
  0
LINE
  8
0
 10
20
 20
24.5
 11
20.7039
 21
24.4446
  0
LINE
  8
0
 10
20.7039
 20
24.4446
 11
21.3906
 21
24.2797
  0
LINE
  8
0
 10
21.3906
 20
24.2797
 11
22.043
 21
24.0095
  0
LINE
  8
0
 10
22.043
 20
24.0095
 11
22.645
 21
23.6406
  0
LINE
  8
0
 10
22.645
 20
23.6406
 11
23.182
 21
23.182
  0
LINE
  8
0
 10
23.182
 20
23.182
 11
23.6406
 21
22.645
  0
LINE
  8
0
 10
23.6406
 20
22.645
 11
24.0095
 21
22.043
  0
LINE
  8
0
 10
24.0095
 20
22.043
 11
24.2797
 21
21.3906
  0
LINE
  8
0
 10
24.2797
 20
21.3906
 11
24.4446
 21
20.7039
  0
LINE
  8
0
 10
24.4446
 20
20.7039
 11
24.5
 21
20
  0
LINE
  8
0
 10
24.5
 20
20
 11
24.4446
 21
19.296
  0
LINE
  8
0
 10
24.4446
 20
19.296
 11
24.2797
 21
18.6094
  0
LINE
  8
0
 10
24.2797
 20
18.6094
 11
24.0095
 21
17.957
  0
LINE
  8
0
 10
24.0095
 20
17.957
 11
23.6406
 21
17.355
  0
LINE
  8
0
 10
23.6406
 20
17.355
 11
23.182
 21
16.818
  0
LINE
  8
0
 10
23.182
 20
16.818
 11
22.645
 21
16.3594
  0
LINE
  8
0
 10
22.645
 20
16.3594
 11
22.043
 21
15.9905
  0
LINE
  8
0
 10
22.043
 20
15.9905
 11
21.3906
 21
15.7202
  0
LINE
  8
0
 10
21.3906
 20
15.7202
 11
20.7039
 21
15.5554
  0
LINE
  8
0
 10
20.7039
 20
15.5554
 11
20
 21
15.5
  0
LINE
  8
0
 10
20
 20
15.5
 11
19.296
 21
15.5554
  0
LINE
  8
0
 10
57.296
 20
15.5554
 11
56.6094
 21
15.7202
  0
LINE
  8
0
 10
56.6094
 20
15.7202
 11
55.957
 21
15.9905
  0
LINE
  8
0
 10
55.957
 20
15.9905
 11
55.355
 21
16.3594
  0
LINE
  8
0
 10
55.355
 20
16.3594
 11
54.818
 21
16.818
  0
LINE
  8
0
 10
54.818
 20
16.818
 11
54.3594
 21
17.355
  0
LINE
  8
0
 10
54.3594
 20
17.355
 11
53.9905
 21
17.957
  0
LINE
  8
0
 10
53.9905
 20
17.957
 11
53.7202
 21
18.6094
  0
LINE
  8
0
 10
53.7202
 20
18.6094
 11
53.5554
 21
19.296
  0
LINE
  8
0
 10
53.5554
 20
19.296
 11
53.5
 21
20
  0
LINE
  8
0
 10
53.5
 20
20
 11
53.5554
 21
20.7039
  0
LINE
  8
0
 10
53.5554
 20
20.7039
 11
53.7202
 21
21.3906
  0
LINE
  8
0
 10
53.7202
 20
21.3906
 11
53.9905
 21
22.043
  0
LINE
  8
0
 10
53.9905
 20
22.043
 11
54.3594
 21
22.645
  0
LINE
  8
0
 10
54.3594
 20
22.645
 11
54.818
 21
23.182
  0
LINE
  8
0
 10
54.818
 20
23.182
 11
55.355
 21
23.6406
  0
LINE
  8
0
 10
55.355
 20
23.6406
 11
55.957
 21
24.0095
  0
LINE
  8
0
 10
55.957
 20
24.0095
 11
56.6094
 21
24.2797
  0
LINE
  8
0
 10
56.6094
 20
24.2797
 11
57.296
 21
24.4446
  0
LINE
  8
0
 10
57.296
 20
24.4446
 11
58
 21
24.5
  0
LINE
  8
0
 10
58
 20
24.5
 11
58.7039
 21
24.4446
  0
LINE
  8
0
 10
58.7039
 20
24.4446
 11
59.3906
 21
24.2797
  0
LINE
  8
0
 10
59.3906
 20
24.2797
 11
60.043
 21
24.0095
  0
LINE
  8
0
 10
60.043
 20
24.0095
 11
60.645
 21
23.6406
  0
LINE
  8
0
 10
60.645
 20
23.6406
 11
61.182
 21
23.182
  0
LINE
  8
0
 10
61.182
 20
23.182
 11
61.6406
 21
22.645
  0
LINE
  8
0
 10
61.6406
 20
22.645
 11
62.0095
 21
22.043
  0
LINE
  8
0
 10
62.0095
 20
22.043
 11
62.2797
 21
21.3906
  0
LINE
  8
0
 10
62.2797
 20
21.3906
 11
62.4446
 21
20.7039
  0
LINE
  8
0
 10
62.4446
 20
20.7039
 11
62.5
 21
20
  0
LINE
  8
0
 10
62.5
 20
20
 11
62.4446
 21
19.296
  0
LINE
  8
0
 10
62.4446
 20
19.296
 11
62.2797
 21
18.6094
  0
LINE
  8
0
 10
62.2797
 20
18.6094
 11
62.0095
 21
17.957
  0
LINE
  8
0
 10
62.0095
 20
17.957
 11
61.6406
 21
17.355
  0
LINE
  8
0
 10
61.6406
 20
17.355
 11
61.182
 21
16.818
  0
LINE
  8
0
 10
61.182
 20
16.818
 11
60.645
 21
16.3594
  0
LINE
  8
0
 10
60.645
 20
16.3594
 11
60.043
 21
15.9905
  0
LINE
  8
0
 10
60.043
 20
15.9905
 11
59.3906
 21
15.7202
  0
LINE
  8
0
 10
59.3906
 20
15.7202
 11
58.7039
 21
15.5554
  0
LINE
  8
0
 10
58.7039
 20
15.5554
 11
58
 21
15.5
  0
LINE
  8
0
 10
58
 20
15.5
 11
57.296
 21
15.5554
  0
LINE
  8
0
 10
34.5307
 20
17.0369
 11
34.0729
 21
17.1468
  0
LINE
  8
0
 10
34.0729
 20
17.1468
 11
33.638
 21
17.327
  0
LINE
  8
0
 10
33.638
 20
17.327
 11
33.2366
 21
17.5729
  0
LINE
  8
0
 10
33.2366
 20
17.5729
 11
32.8787
 21
17.8787
  0
LINE
  8
0
 10
32.8787
 20
17.8787
 11
32.5729
 21
18.2366
  0
LINE
  8
0
 10
32.5729
 20
18.2366
 11
32.327
 21
18.638
  0
LINE
  8
0
 10
32.327
 20
18.638
 11
32.1468
 21
19.0729
  0
LINE
  8
0
 10
32.1468
 20
19.0729
 11
32.0369
 21
19.5307
  0
LINE
  8
0
 10
32.0369
 20
19.5307
 11
32
 21
20
  0
LINE
  8
0
 10
32
 20
20
 11
32.0369
 21
20.4693
  0
LINE
  8
0
 10
32.0369
 20
20.4693
 11
32.1468
 21
20.927
  0
LINE
  8
0
 10
32.1468
 20
20.927
 11
32.327
 21
21.362
  0
LINE
  8
0
 10
32.327
 20
21.362
 11
32.5729
 21
21.7634
  0
LINE
  8
0
 10
32.5729
 20
21.7634
 11
32.8787
 21
22.1213
  0
LINE
  8
0
 10
32.8787
 20
22.1213
 11
33.2366
 21
22.427
  0
LINE
  8
0
 10
33.2366
 20
22.427
 11
33.638
 21
22.673
  0
LINE
  8
0
 10
33.638
 20
22.673
 11
34.0729
 21
22.8532
  0
LINE
  8
0
 10
34.0729
 20
22.8532
 11
34.5307
 21
22.9631
  0
LINE
  8
0
 10
34.5307
 20
22.9631
 11
35
 21
23
  0
LINE
  8
0
 10
35
 20
23
 11
35.4693
 21
22.9631
  0
LINE
  8
0
 10
35.4693
 20
22.9631
 11
35.927
 21
22.8532
  0
LINE
  8
0
 10
35.927
 20
22.8532
 11
36.362
 21
22.673
  0
LINE
  8
0
 10
36.362
 20
22.673
 11
36.7634
 21
22.427
  0
LINE
  8
0
 10
36.7634
 20
22.427
 11
37.1213
 21
22.1213
  0
LINE
  8
0
 10
37.1213
 20
22.1213
 11
37.427
 21
21.7634
  0
LINE
  8
0
 10
37.427
 20
21.7634
 11
37.673
 21
21.362
  0
LINE
  8
0
 10
37.673
 20
21.362
 11
37.8532
 21
20.927
  0
LINE
  8
0
 10
37.8532
 20
20.927
 11
37.9631
 21
20.4693
  0
LINE
  8
0
 10
37.9631
 20
20.4693
 11
38
 21
20
  0
LINE
  8
0
 10
38
 20
20
 11
37.9631
 21
19.5307
  0
LINE
  8
0
 10
37.9631
 20
19.5307
 11
37.8532
 21
19.0729
  0
LINE
  8
0
 10
37.8532
 20
19.0729
 11
37.673
 21
18.638
  0
LINE
  8
0
 10
37.673
 20
18.638
 11
37.427
 21
18.2366
  0
LINE
  8
0
 10
37.427
 20
18.2366
 11
37.1213
 21
17.8787
  0
LINE
  8
0
 10
37.1213
 20
17.8787
 11
36.7634
 21
17.5729
  0
LINE
  8
0
 10
36.7634
 20
17.5729
 11
36.362
 21
17.327
  0
LINE
  8
0
 10
36.362
 20
17.327
 11
35.927
 21
17.1468
  0
LINE
  8
0
 10
35.927
 20
17.1468
 11
35.4693
 21
17.0369
  0
LINE
  8
0
 10
35.4693
 20
17.0369
 11
35
 21
17
  0
LINE
  8
0
 10
35
 20
17
 11
34.5307
 21
17.0369
  0
LINE
  8
0
 10
72.5307
 20
17.0369
 11
72.0729
 21
17.1468
  0
LINE
  8
0
 10
72.0729
 20
17.1468
 11
71.638
 21
17.327
  0
LINE
  8
0
 10
71.638
 20
17.327
 11
71.2366
 21
17.5729
  0
LINE
  8
0
 10
71.2366
 20
17.5729
 11
70.8787
 21
17.8787
  0
LINE
  8
0
 10
70.8787
 20
17.8787
 11
70.5729
 21
18.2366
  0
LINE
  8
0
 10
70.5729
 20
18.2366
 11
70.327
 21
18.638
  0
LINE
  8
0
 10
70.327
 20
18.638
 11
70.1468
 21
19.0729
  0
LINE
  8
0
 10
70.1468
 20
19.0729
 11
70.0369
 21
19.5307
  0
LINE
  8
0
 10
70.0369
 20
19.5307
 11
70
 21
20
  0
LINE
  8
0
 10
70
 20
20
 11
70.0369
 21
20.4693
  0
LINE
  8
0
 10
70.0369
 20
20.4693
 11
70.1468
 21
20.927
  0
LINE
  8
0
 10
70.1468
 20
20.927
 11
70.327
 21
21.362
  0
LINE
  8
0
 10
70.327
 20
21.362
 11
70.5729
 21
21.7634
  0
LINE
  8
0
 10
70.5729
 20
21.7634
 11
70.8787
 21
22.1213
  0
LINE
  8
0
 10
70.8787
 20
22.1213
 11
71.2366
 21
22.427
  0
LINE
  8
0
 10
71.2366
 20
22.427
 11
71.638
 21
22.673
  0
LINE
  8
0
 10
71.638
 20
22.673
 11
72.0729
 21
22.8532
  0
LINE
  8
0
 10
72.0729
 20
22.8532
 11
72.5307
 21
22.9631
  0
LINE
  8
0
 10
72.5307
 20
22.9631
 11
73
 21
23
  0
LINE
  8
0
 10
73
 20
23
 11
73.4693
 21
22.9631
  0
LINE
  8
0
 10
73.4693
 20
22.9631
 11
73.927
 21
22.8532
  0
LINE
  8
0
 10
73.927
 20
22.8532
 11
74.362
 21
22.673
  0
LINE
  8
0
 10
74.362
 20
22.673
 11
74.7634
 21
22.427
  0
LINE
  8
0
 10
74.7634
 20
22.427
 11
75.1213
 21
22.1213
  0
LINE
  8
0
 10
75.1213
 20
22.1213
 11
75.427
 21
21.7634
  0
LINE
  8
0
 10
75.427
 20
21.7634
 11
75.673
 21
21.362
  0
LINE
  8
0
 10
75.673
 20
21.362
 11
75.8532
 21
20.927
  0
LINE
  8
0
 10
75.8532
 20
20.927
 11
75.9631
 21
20.4693
  0
LINE
  8
0
 10
75.9631
 20
20.4693
 11
76
 21
20
  0
LINE
  8
0
 10
76
 20
20
 11
75.9631
 21
19.5307
  0
LINE
  8
0
 10
75.9631
 20
19.5307
 11
75.8532
 21
19.0729
  0
LINE
  8
0
 10
75.8532
 20
19.0729
 11
75.673
 21
18.638
  0
LINE
  8
0
 10
75.673
 20
18.638
 11
75.427
 21
18.2366
  0
LINE
  8
0
 10
75.427
 20
18.2366
 11
75.1213
 21
17.8787
  0
LINE
  8
0
 10
75.1213
 20
17.8787
 11
74.7634
 21
17.5729
  0
LINE
  8
0
 10
74.7634
 20
17.5729
 11
74.362
 21
17.327
  0
LINE
  8
0
 10
74.362
 20
17.327
 11
73.927
 21
17.1468
  0
LINE
  8
0
 10
73.927
 20
17.1468
 11
73.4693
 21
17.0369
  0
LINE
  8
0
 10
73.4693
 20
17.0369
 11
73
 21
17
  0
LINE
  8
0
 10
73
 20
17
 11
72.5307
 21
17.0369
  0
ENDSEC
  0
SECTION
  2
OBJECTS
  0
DICTIONARY
  0
ENDSEC
  0
EOF
