  0
SECTION
  2
BLOCKS
  0
ENDSEC
  0
SECTION
  2
ENTITIES
  0
LINE
  8
0
 10
282
 20
130
 11
0
 21
130
  0
LINE
  8
0
 10
0
 20
130
 11
0
 21
0
  0
LINE
  8
0
 10
0
 20
0
 11
282
 21
0
  0
LINE
  8
0
 10
282
 20
0
 11
282
 21
130
  0
LINE
  8
0
 10
244.296
 20
105.555
 11
243.609
 21
105.72
  0
LINE
  8
0
 10
243.609
 20
105.72
 11
242.957
 21
105.99
  0
LINE
  8
0
 10
242.957
 20
105.99
 11
242.355
 21
106.359
  0
LINE
  8
0
 10
242.355
 20
106.359
 11
241.818
 21
106.818
  0
LINE
  8
0
 10
241.818
 20
106.818
 11
241.359
 21
107.355
  0
LINE
  8
0
 10
241.359
 20
107.355
 11
240.99
 21
107.957
  0
LINE
  8
0
 10
240.99
 20
107.957
 11
240.72
 21
108.609
  0
LINE
  8
0
 10
240.72
 20
108.609
 11
240.555
 21
109.296
  0
LINE
  8
0
 10
240.555
 20
109.296
 11
240.5
 21
110
  0
LINE
  8
0
 10
240.5
 20
110
 11
240.555
 21
110.704
  0
LINE
  8
0
 10
240.555
 20
110.704
 11
240.72
 21
111.391
  0
LINE
  8
0
 10
240.72
 20
111.391
 11
240.99
 21
112.043
  0
LINE
  8
0
 10
240.99
 20
112.043
 11
241.359
 21
112.645
  0
LINE
  8
0
 10
241.359
 20
112.645
 11
241.818
 21
113.182
  0
LINE
  8
0
 10
241.818
 20
113.182
 11
242.355
 21
113.641
  0
LINE
  8
0
 10
242.355
 20
113.641
 11
242.957
 21
114.01
  0
LINE
  8
0
 10
242.957
 20
114.01
 11
243.609
 21
114.28
  0
LINE
  8
0
 10
243.609
 20
114.28
 11
244.296
 21
114.445
  0
LINE
  8
0
 10
244.296
 20
114.445
 11
245
 21
114.5
  0
LINE
  8
0
 10
245
 20
114.5
 11
245.704
 21
114.445
  0
LINE
  8
0
 10
245.704
 20
114.445
 11
246.391
 21
114.28
  0
LINE
  8
0
 10
246.391
 20
114.28
 11
247.043
 21
114.01
  0
LINE
  8
0
 10
247.043
 20
114.01
 11
247.645
 21
113.641
  0
LINE
  8
0
 10
247.645
 20
113.641
 11
248.182
 21
113.182
  0
LINE
  8
0
 10
248.182
 20
113.182
 11
248.641
 21
112.645
  0
LINE
  8
0
 10
248.641
 20
112.645
 11
249.01
 21
112.043
  0
LINE
  8
0
 10
249.01
 20
112.043
 11
249.28
 21
111.391
  0
LINE
  8
0
 10
249.28
 20
111.391
 11
249.445
 21
110.704
  0
LINE
  8
0
 10
249.445
 20
110.704
 11
249.5
 21
110
  0
LINE
  8
0
 10
249.5
 20
110
 11
249.445
 21
109.296
  0
LINE
  8
0
 10
249.445
 20
109.296
 11
249.28
 21
108.609
  0
LINE
  8
0
 10
249.28
 20
108.609
 11
249.01
 21
107.957
  0
LINE
  8
0
 10
249.01
 20
107.957
 11
248.641
 21
107.355
  0
LINE
  8
0
 10
248.641
 20
107.355
 11
248.182
 21
106.818
  0
LINE
  8
0
 10
248.182
 20
106.818
 11
247.645
 21
106.359
  0
LINE
  8
0
 10
247.645
 20
106.359
 11
247.043
 21
105.99
  0
LINE
  8
0
 10
247.043
 20
105.99
 11
246.391
 21
105.72
  0
LINE
  8
0
 10
246.391
 20
105.72
 11
245.704
 21
105.555
  0
LINE
  8
0
 10
245.704
 20
105.555
 11
245
 21
105.5
  0
LINE
  8
0
 10
245
 20
105.5
 11
244.296
 21
105.555
  0
LINE
  8
0
 10
19.296
 20
105.555
 11
18.6094
 21
105.72
  0
LINE
  8
0
 10
18.6094
 20
105.72
 11
17.957
 21
105.99
  0
LINE
  8
0
 10
17.957
 20
105.99
 11
17.355
 21
106.359
  0
LINE
  8
0
 10
17.355
 20
106.359
 11
16.818
 21
106.818
  0
LINE
  8
0
 10
16.818
 20
106.818
 11
16.3594
 21
107.355
  0
LINE
  8
0
 10
16.3594
 20
107.355
 11
15.9905
 21
107.957
  0
LINE
  8
0
 10
15.9905
 20
107.957
 11
15.7202
 21
108.609
  0
LINE
  8
0
 10
15.7202
 20
108.609
 11
15.5554
 21
109.296
  0
LINE
  8
0
 10
15.5554
 20
109.296
 11
15.5
 21
110
  0
LINE
  8
0
 10
15.5
 20
110
 11
15.5554
 21
110.704
  0
LINE
  8
0
 10
15.5554
 20
110.704
 11
15.7202
 21
111.391
  0
LINE
  8
0
 10
15.7202
 20
111.391
 11
15.9905
 21
112.043
  0
LINE
  8
0
 10
15.9905
 20
112.043
 11
16.3594
 21
112.645
  0
LINE
  8
0
 10
16.3594
 20
112.645
 11
16.818
 21
113.182
  0
LINE
  8
0
 10
16.818
 20
113.182
 11
17.355
 21
113.641
  0
LINE
  8
0
 10
17.355
 20
113.641
 11
17.957
 21
114.01
  0
LINE
  8
0
 10
17.957
 20
114.01
 11
18.6094
 21
114.28
  0
LINE
  8
0
 10
18.6094
 20
114.28
 11
19.296
 21
114.445
  0
LINE
  8
0
 10
19.296
 20
114.445
 11
20
 21
114.5
  0
LINE
  8
0
 10
20
 20
114.5
 11
20.7039
 21
114.445
  0
LINE
  8
0
 10
20.7039
 20
114.445
 11
21.3906
 21
114.28
  0
LINE
  8
0
 10
21.3906
 20
114.28
 11
22.043
 21
114.01
  0
LINE
  8
0
 10
22.043
 20
114.01
 11
22.645
 21
113.641
  0
LINE
  8
0
 10
22.645
 20
113.641
 11
23.182
 21
113.182
  0
LINE
  8
0
 10
23.182
 20
113.182
 11
23.6406
 21
112.645
  0
LINE
  8
0
 10
23.6406
 20
112.645
 11
24.0095
 21
112.043
  0
LINE
  8
0
 10
24.0095
 20
112.043
 11
24.2797
 21
111.391
  0
LINE
  8
0
 10
24.2797
 20
111.391
 11
24.4446
 21
110.704
  0
LINE
  8
0
 10
24.4446
 20
110.704
 11
24.5
 21
110
  0
LINE
  8
0
 10
24.5
 20
110
 11
24.4446
 21
109.296
  0
LINE
  8
0
 10
24.4446
 20
109.296
 11
24.2797
 21
108.609
  0
LINE
  8
0
 10
24.2797
 20
108.609
 11
24.0095
 21
107.957
  0
LINE
  8
0
 10
24.0095
 20
107.957
 11
23.6406
 21
107.355
  0
LINE
  8
0
 10
23.6406
 20
107.355
 11
23.182
 21
106.818
  0
LINE
  8
0
 10
23.182
 20
106.818
 11
22.645
 21
106.359
  0
LINE
  8
0
 10
22.645
 20
106.359
 11
22.043
 21
105.99
  0
LINE
  8
0
 10
22.043
 20
105.99
 11
21.3906
 21
105.72
  0
LINE
  8
0
 10
21.3906
 20
105.72
 11
20.7039
 21
105.555
  0
LINE
  8
0
 10
20.7039
 20
105.555
 11
20
 21
105.5
  0
LINE
  8
0
 10
20
 20
105.5
 11
19.296
 21
105.555
  0
LINE
  8
0
 10
199.296
 20
105.555
 11
198.609
 21
105.72
  0
LINE
  8
0
 10
198.609
 20
105.72
 11
197.957
 21
105.99
  0
LINE
  8
0
 10
197.957
 20
105.99
 11
197.355
 21
106.359
  0
LINE
  8
0
 10
197.355
 20
106.359
 11
196.818
 21
106.818
  0
LINE
  8
0
 10
196.818
 20
106.818
 11
196.359
 21
107.355
  0
LINE
  8
0
 10
196.359
 20
107.355
 11
195.99
 21
107.957
  0
LINE
  8
0
 10
195.99
 20
107.957
 11
195.72
 21
108.609
  0
LINE
  8
0
 10
195.72
 20
108.609
 11
195.555
 21
109.296
  0
LINE
  8
0
 10
195.555
 20
109.296
 11
195.5
 21
110
  0
LINE
  8
0
 10
195.5
 20
110
 11
195.555
 21
110.704
  0
LINE
  8
0
 10
195.555
 20
110.704
 11
195.72
 21
111.391
  0
LINE
  8
0
 10
195.72
 20
111.391
 11
195.99
 21
112.043
  0
LINE
  8
0
 10
195.99
 20
112.043
 11
196.359
 21
112.645
  0
LINE
  8
0
 10
196.359
 20
112.645
 11
196.818
 21
113.182
  0
LINE
  8
0
 10
196.818
 20
113.182
 11
197.355
 21
113.641
  0
LINE
  8
0
 10
197.355
 20
113.641
 11
197.957
 21
114.01
  0
LINE
  8
0
 10
197.957
 20
114.01
 11
198.609
 21
114.28
  0
LINE
  8
0
 10
198.609
 20
114.28
 11
199.296
 21
114.445
  0
LINE
  8
0
 10
199.296
 20
114.445
 11
200
 21
114.5
  0
LINE
  8
0
 10
200
 20
114.5
 11
200.704
 21
114.445
  0
LINE
  8
0
 10
200.704
 20
114.445
 11
201.391
 21
114.28
  0
LINE
  8
0
 10
201.391
 20
114.28
 11
202.043
 21
114.01
  0
LINE
  8
0
 10
202.043
 20
114.01
 11
202.645
 21
113.641
  0
LINE
  8
0
 10
202.645
 20
113.641
 11
203.182
 21
113.182
  0
LINE
  8
0
 10
203.182
 20
113.182
 11
203.641
 21
112.645
  0
LINE
  8
0
 10
203.641
 20
112.645
 11
204.01
 21
112.043
  0
LINE
  8
0
 10
204.01
 20
112.043
 11
204.28
 21
111.391
  0
LINE
  8
0
 10
204.28
 20
111.391
 11
204.445
 21
110.704
  0
LINE
  8
0
 10
204.445
 20
110.704
 11
204.5
 21
110
  0
LINE
  8
0
 10
204.5
 20
110
 11
204.445
 21
109.296
  0
LINE
  8
0
 10
204.445
 20
109.296
 11
204.28
 21
108.609
  0
LINE
  8
0
 10
204.28
 20
108.609
 11
204.01
 21
107.957
  0
LINE
  8
0
 10
204.01
 20
107.957
 11
203.641
 21
107.355
  0
LINE
  8
0
 10
203.641
 20
107.355
 11
203.182
 21
106.818
  0
LINE
  8
0
 10
203.182
 20
106.818
 11
202.645
 21
106.359
  0
LINE
  8
0
 10
202.645
 20
106.359
 11
202.043
 21
105.99
  0
LINE
  8
0
 10
202.043
 20
105.99
 11
201.391
 21
105.72
  0
LINE
  8
0
 10
201.391
 20
105.72
 11
200.704
 21
105.555
  0
LINE
  8
0
 10
200.704
 20
105.555
 11
200
 21
105.5
  0
LINE
  8
0
 10
200
 20
105.5
 11
199.296
 21
105.555
  0
LINE
  8
0
 10
154.296
 20
105.555
 11
153.609
 21
105.72
  0
LINE
  8
0
 10
153.609
 20
105.72
 11
152.957
 21
105.99
  0
LINE
  8
0
 10
152.957
 20
105.99
 11
152.355
 21
106.359
  0
LINE
  8
0
 10
152.355
 20
106.359
 11
151.818
 21
106.818
  0
LINE
  8
0
 10
151.818
 20
106.818
 11
151.359
 21
107.355
  0
LINE
  8
0
 10
151.359
 20
107.355
 11
150.99
 21
107.957
  0
LINE
  8
0
 10
150.99
 20
107.957
 11
150.72
 21
108.609
  0
LINE
  8
0
 10
150.72
 20
108.609
 11
150.555
 21
109.296
  0
LINE
  8
0
 10
150.555
 20
109.296
 11
150.5
 21
110
  0
LINE
  8
0
 10
150.5
 20
110
 11
150.555
 21
110.704
  0
LINE
  8
0
 10
150.555
 20
110.704
 11
150.72
 21
111.391
  0
LINE
  8
0
 10
150.72
 20
111.391
 11
150.99
 21
112.043
  0
LINE
  8
0
 10
150.99
 20
112.043
 11
151.359
 21
112.645
  0
LINE
  8
0
 10
151.359
 20
112.645
 11
151.818
 21
113.182
  0
LINE
  8
0
 10
151.818
 20
113.182
 11
152.355
 21
113.641
  0
LINE
  8
0
 10
152.355
 20
113.641
 11
152.957
 21
114.01
  0
LINE
  8
0
 10
152.957
 20
114.01
 11
153.609
 21
114.28
  0
LINE
  8
0
 10
153.609
 20
114.28
 11
154.296
 21
114.445
  0
LINE
  8
0
 10
154.296
 20
114.445
 11
155
 21
114.5
  0
LINE
  8
0
 10
155
 20
114.5
 11
155.704
 21
114.445
  0
LINE
  8
0
 10
155.704
 20
114.445
 11
156.391
 21
114.28
  0
LINE
  8
0
 10
156.391
 20
114.28
 11
157.043
 21
114.01
  0
LINE
  8
0
 10
157.043
 20
114.01
 11
157.645
 21
113.641
  0
LINE
  8
0
 10
157.645
 20
113.641
 11
158.182
 21
113.182
  0
LINE
  8
0
 10
158.182
 20
113.182
 11
158.641
 21
112.645
  0
LINE
  8
0
 10
158.641
 20
112.645
 11
159.01
 21
112.043
  0
LINE
  8
0
 10
159.01
 20
112.043
 11
159.28
 21
111.391
  0
LINE
  8
0
 10
159.28
 20
111.391
 11
159.445
 21
110.704
  0
LINE
  8
0
 10
159.445
 20
110.704
 11
159.5
 21
110
  0
LINE
  8
0
 10
159.5
 20
110
 11
159.445
 21
109.296
  0
LINE
  8
0
 10
159.445
 20
109.296
 11
159.28
 21
108.609
  0
LINE
  8
0
 10
159.28
 20
108.609
 11
159.01
 21
107.957
  0
LINE
  8
0
 10
159.01
 20
107.957
 11
158.641
 21
107.355
  0
LINE
  8
0
 10
158.641
 20
107.355
 11
158.182
 21
106.818
  0
LINE
  8
0
 10
158.182
 20
106.818
 11
157.645
 21
106.359
  0
LINE
  8
0
 10
157.645
 20
106.359
 11
157.043
 21
105.99
  0
LINE
  8
0
 10
157.043
 20
105.99
 11
156.391
 21
105.72
  0
LINE
  8
0
 10
156.391
 20
105.72
 11
155.704
 21
105.555
  0
LINE
  8
0
 10
155.704
 20
105.555
 11
155
 21
105.5
  0
LINE
  8
0
 10
155
 20
105.5
 11
154.296
 21
105.555
  0
LINE
  8
0
 10
109.296
 20
105.555
 11
108.609
 21
105.72
  0
LINE
  8
0
 10
108.609
 20
105.72
 11
107.957
 21
105.99
  0
LINE
  8
0
 10
107.957
 20
105.99
 11
107.355
 21
106.359
  0
LINE
  8
0
 10
107.355
 20
106.359
 11
106.818
 21
106.818
  0
LINE
  8
0
 10
106.818
 20
106.818
 11
106.359
 21
107.355
  0
LINE
  8
0
 10
106.359
 20
107.355
 11
105.99
 21
107.957
  0
LINE
  8
0
 10
105.99
 20
107.957
 11
105.72
 21
108.609
  0
LINE
  8
0
 10
105.72
 20
108.609
 11
105.555
 21
109.296
  0
LINE
  8
0
 10
105.555
 20
109.296
 11
105.5
 21
110
  0
LINE
  8
0
 10
105.5
 20
110
 11
105.555
 21
110.704
  0
LINE
  8
0
 10
105.555
 20
110.704
 11
105.72
 21
111.391
  0
LINE
  8
0
 10
105.72
 20
111.391
 11
105.99
 21
112.043
  0
LINE
  8
0
 10
105.99
 20
112.043
 11
106.359
 21
112.645
  0
LINE
  8
0
 10
106.359
 20
112.645
 11
106.818
 21
113.182
  0
LINE
  8
0
 10
106.818
 20
113.182
 11
107.355
 21
113.641
  0
LINE
  8
0
 10
107.355
 20
113.641
 11
107.957
 21
114.01
  0
LINE
  8
0
 10
107.957
 20
114.01
 11
108.609
 21
114.28
  0
LINE
  8
0
 10
108.609
 20
114.28
 11
109.296
 21
114.445
  0
LINE
  8
0
 10
109.296
 20
114.445
 11
110
 21
114.5
  0
LINE
  8
0
 10
110
 20
114.5
 11
110.704
 21
114.445
  0
LINE
  8
0
 10
110.704
 20
114.445
 11
111.391
 21
114.28
  0
LINE
  8
0
 10
111.391
 20
114.28
 11
112.043
 21
114.01
  0
LINE
  8
0
 10
112.043
 20
114.01
 11
112.645
 21
113.641
  0
LINE
  8
0
 10
112.645
 20
113.641
 11
113.182
 21
113.182
  0
LINE
  8
0
 10
113.182
 20
113.182
 11
113.641
 21
112.645
  0
LINE
  8
0
 10
113.641
 20
112.645
 11
114.01
 21
112.043
  0
LINE
  8
0
 10
114.01
 20
112.043
 11
114.28
 21
111.391
  0
LINE
  8
0
 10
114.28
 20
111.391
 11
114.445
 21
110.704
  0
LINE
  8
0
 10
114.445
 20
110.704
 11
114.5
 21
110
  0
LINE
  8
0
 10
114.5
 20
110
 11
114.445
 21
109.296
  0
LINE
  8
0
 10
114.445
 20
109.296
 11
114.28
 21
108.609
  0
LINE
  8
0
 10
114.28
 20
108.609
 11
114.01
 21
107.957
  0
LINE
  8
0
 10
114.01
 20
107.957
 11
113.641
 21
107.355
  0
LINE
  8
0
 10
113.641
 20
107.355
 11
113.182
 21
106.818
  0
LINE
  8
0
 10
113.182
 20
106.818
 11
112.645
 21
106.359
  0
LINE
  8
0
 10
112.645
 20
106.359
 11
112.043
 21
105.99
  0
LINE
  8
0
 10
112.043
 20
105.99
 11
111.391
 21
105.72
  0
LINE
  8
0
 10
111.391
 20
105.72
 11
110.704
 21
105.555
  0
LINE
  8
0
 10
110.704
 20
105.555
 11
110
 21
105.5
  0
LINE
  8
0
 10
110
 20
105.5
 11
109.296
 21
105.555
  0
LINE
  8
0
 10
64.296
 20
105.555
 11
63.6094
 21
105.72
  0
LINE
  8
0
 10
63.6094
 20
105.72
 11
62.957
 21
105.99
  0
LINE
  8
0
 10
62.957
 20
105.99
 11
62.355
 21
106.359
  0
LINE
  8
0
 10
62.355
 20
106.359
 11
61.818
 21
106.818
  0
LINE
  8
0
 10
61.818
 20
106.818
 11
61.3594
 21
107.355
  0
LINE
  8
0
 10
61.3594
 20
107.355
 11
60.9905
 21
107.957
  0
LINE
  8
0
 10
60.9905
 20
107.957
 11
60.7202
 21
108.609
  0
LINE
  8
0
 10
60.7202
 20
108.609
 11
60.5554
 21
109.296
  0
LINE
  8
0
 10
60.5554
 20
109.296
 11
60.5
 21
110
  0
LINE
  8
0
 10
60.5
 20
110
 11
60.5554
 21
110.704
  0
LINE
  8
0
 10
60.5554
 20
110.704
 11
60.7202
 21
111.391
  0
LINE
  8
0
 10
60.7202
 20
111.391
 11
60.9905
 21
112.043
  0
LINE
  8
0
 10
60.9905
 20
112.043
 11
61.3594
 21
112.645
  0
LINE
  8
0
 10
61.3594
 20
112.645
 11
61.818
 21
113.182
  0
LINE
  8
0
 10
61.818
 20
113.182
 11
62.355
 21
113.641
  0
LINE
  8
0
 10
62.355
 20
113.641
 11
62.957
 21
114.01
  0
LINE
  8
0
 10
62.957
 20
114.01
 11
63.6094
 21
114.28
  0
LINE
  8
0
 10
63.6094
 20
114.28
 11
64.296
 21
114.445
  0
LINE
  8
0
 10
64.296
 20
114.445
 11
65
 21
114.5
  0
LINE
  8
0
 10
65
 20
114.5
 11
65.7039
 21
114.445
  0
LINE
  8
0
 10
65.7039
 20
114.445
 11
66.3906
 21
114.28
  0
LINE
  8
0
 10
66.3906
 20
114.28
 11
67.043
 21
114.01
  0
LINE
  8
0
 10
67.043
 20
114.01
 11
67.645
 21
113.641
  0
LINE
  8
0
 10
67.645
 20
113.641
 11
68.182
 21
113.182
  0
LINE
  8
0
 10
68.182
 20
113.182
 11
68.6406
 21
112.645
  0
LINE
  8
0
 10
68.6406
 20
112.645
 11
69.0095
 21
112.043
  0
LINE
  8
0
 10
69.0095
 20
112.043
 11
69.2797
 21
111.391
  0
LINE
  8
0
 10
69.2797
 20
111.391
 11
69.4446
 21
110.704
  0
LINE
  8
0
 10
69.4446
 20
110.704
 11
69.5
 21
110
  0
LINE
  8
0
 10
69.5
 20
110
 11
69.4446
 21
109.296
  0
LINE
  8
0
 10
69.4446
 20
109.296
 11
69.2797
 21
108.609
  0
LINE
  8
0
 10
69.2797
 20
108.609
 11
69.0095
 21
107.957
  0
LINE
  8
0
 10
69.0095
 20
107.957
 11
68.6406
 21
107.355
  0
LINE
  8
0
 10
68.6406
 20
107.355
 11
68.182
 21
106.818
  0
LINE
  8
0
 10
68.182
 20
106.818
 11
67.645
 21
106.359
  0
LINE
  8
0
 10
67.645
 20
106.359
 11
67.043
 21
105.99
  0
LINE
  8
0
 10
67.043
 20
105.99
 11
66.3906
 21
105.72
  0
LINE
  8
0
 10
66.3906
 20
105.72
 11
65.7039
 21
105.555
  0
LINE
  8
0
 10
65.7039
 20
105.555
 11
65
 21
105.5
  0
LINE
  8
0
 10
65
 20
105.5
 11
64.296
 21
105.555
  0
LINE
  8
0
 10
126.531
 20
107.037
 11
126.073
 21
107.147
  0
LINE
  8
0
 10
126.073
 20
107.147
 11
125.638
 21
107.327
  0
LINE
  8
0
 10
125.638
 20
107.327
 11
125.237
 21
107.573
  0
LINE
  8
0
 10
125.237
 20
107.573
 11
124.879
 21
107.879
  0
LINE
  8
0
 10
124.879
 20
107.879
 11
124.573
 21
108.237
  0
LINE
  8
0
 10
124.573
 20
108.237
 11
124.327
 21
108.638
  0
LINE
  8
0
 10
124.327
 20
108.638
 11
124.147
 21
109.073
  0
LINE
  8
0
 10
124.147
 20
109.073
 11
124.037
 21
109.531
  0
LINE
  8
0
 10
124.037
 20
109.531
 11
124
 21
110
  0
LINE
  8
0
 10
124
 20
110
 11
124.037
 21
110.469
  0
LINE
  8
0
 10
124.037
 20
110.469
 11
124.147
 21
110.927
  0
LINE
  8
0
 10
124.147
 20
110.927
 11
124.327
 21
111.362
  0
LINE
  8
0
 10
124.327
 20
111.362
 11
124.573
 21
111.763
  0
LINE
  8
0
 10
124.573
 20
111.763
 11
124.879
 21
112.121
  0
LINE
  8
0
 10
124.879
 20
112.121
 11
125.237
 21
112.427
  0
LINE
  8
0
 10
125.237
 20
112.427
 11
125.638
 21
112.673
  0
LINE
  8
0
 10
125.638
 20
112.673
 11
126.073
 21
112.853
  0
LINE
  8
0
 10
126.073
 20
112.853
 11
126.531
 21
112.963
  0
LINE
  8
0
 10
126.531
 20
112.963
 11
127
 21
113
  0
LINE
  8
0
 10
127
 20
113
 11
127.469
 21
112.963
  0
LINE
  8
0
 10
127.469
 20
112.963
 11
127.927
 21
112.853
  0
LINE
  8
0
 10
127.927
 20
112.853
 11
128.362
 21
112.673
  0
LINE
  8
0
 10
128.362
 20
112.673
 11
128.763
 21
112.427
  0
LINE
  8
0
 10
128.763
 20
112.427
 11
129.121
 21
112.121
  0
LINE
  8
0
 10
129.121
 20
112.121
 11
129.427
 21
111.763
  0
LINE
  8
0
 10
129.427
 20
111.763
 11
129.673
 21
111.362
  0
LINE
  8
0
 10
129.673
 20
111.362
 11
129.853
 21
110.927
  0
LINE
  8
0
 10
129.853
 20
110.927
 11
129.963
 21
110.469
  0
LINE
  8
0
 10
129.963
 20
110.469
 11
130
 21
110
  0
LINE
  8
0
 10
130
 20
110
 11
129.963
 21
109.531
  0
LINE
  8
0
 10
129.963
 20
109.531
 11
129.853
 21
109.073
  0
LINE
  8
0
 10
129.853
 20
109.073
 11
129.673
 21
108.638
  0
LINE
  8
0
 10
129.673
 20
108.638
 11
129.427
 21
108.237
  0
LINE
  8
0
 10
129.427
 20
108.237
 11
129.121
 21
107.879
  0
LINE
  8
0
 10
129.121
 20
107.879
 11
128.763
 21
107.573
  0
LINE
  8
0
 10
128.763
 20
107.573
 11
128.362
 21
107.327
  0
LINE
  8
0
 10
128.362
 20
107.327
 11
127.927
 21
107.147
  0
LINE
  8
0
 10
127.927
 20
107.147
 11
127.469
 21
107.037
  0
LINE
  8
0
 10
127.469
 20
107.037
 11
127
 21
107
  0
LINE
  8
0
 10
127
 20
107
 11
126.531
 21
107.037
  0
LINE
  8
0
 10
261.531
 20
107.037
 11
261.073
 21
107.147
  0
LINE
  8
0
 10
261.073
 20
107.147
 11
260.638
 21
107.327
  0
LINE
  8
0
 10
260.638
 20
107.327
 11
260.237
 21
107.573
  0
LINE
  8
0
 10
260.237
 20
107.573
 11
259.879
 21
107.879
  0
LINE
  8
0
 10
259.879
 20
107.879
 11
259.573
 21
108.237
  0
LINE
  8
0
 10
259.573
 20
108.237
 11
259.327
 21
108.638
  0
LINE
  8
0
 10
259.327
 20
108.638
 11
259.147
 21
109.073
  0
LINE
  8
0
 10
259.147
 20
109.073
 11
259.037
 21
109.531
  0
LINE
  8
0
 10
259.037
 20
109.531
 11
259
 21
110
  0
LINE
  8
0
 10
259
 20
110
 11
259.037
 21
110.469
  0
LINE
  8
0
 10
259.037
 20
110.469
 11
259.147
 21
110.927
  0
LINE
  8
0
 10
259.147
 20
110.927
 11
259.327
 21
111.362
  0
LINE
  8
0
 10
259.327
 20
111.362
 11
259.573
 21
111.763
  0
LINE
  8
0
 10
259.573
 20
111.763
 11
259.879
 21
112.121
  0
LINE
  8
0
 10
259.879
 20
112.121
 11
260.237
 21
112.427
  0
LINE
  8
0
 10
260.237
 20
112.427
 11
260.638
 21
112.673
  0
LINE
  8
0
 10
260.638
 20
112.673
 11
261.073
 21
112.853
  0
LINE
  8
0
 10
261.073
 20
112.853
 11
261.531
 21
112.963
  0
LINE
  8
0
 10
261.531
 20
112.963
 11
262
 21
113
  0
LINE
  8
0
 10
262
 20
113
 11
262.469
 21
112.963
  0
LINE
  8
0
 10
262.469
 20
112.963
 11
262.927
 21
112.853
  0
LINE
  8
0
 10
262.927
 20
112.853
 11
263.362
 21
112.673
  0
LINE
  8
0
 10
263.362
 20
112.673
 11
263.763
 21
112.427
  0
LINE
  8
0
 10
263.763
 20
112.427
 11
264.121
 21
112.121
  0
LINE
  8
0
 10
264.121
 20
112.121
 11
264.427
 21
111.763
  0
LINE
  8
0
 10
264.427
 20
111.763
 11
264.673
 21
111.362
  0
LINE
  8
0
 10
264.673
 20
111.362
 11
264.853
 21
110.927
  0
LINE
  8
0
 10
264.853
 20
110.927
 11
264.963
 21
110.469
  0
LINE
  8
0
 10
264.963
 20
110.469
 11
265
 21
110
  0
LINE
  8
0
 10
265
 20
110
 11
264.963
 21
109.531
  0
LINE
  8
0
 10
264.963
 20
109.531
 11
264.853
 21
109.073
  0
LINE
  8
0
 10
264.853
 20
109.073
 11
264.673
 21
108.638
  0
LINE
  8
0
 10
264.673
 20
108.638
 11
264.427
 21
108.237
  0
LINE
  8
0
 10
264.427
 20
108.237
 11
264.121
 21
107.879
  0
LINE
  8
0
 10
264.121
 20
107.879
 11
263.763
 21
107.573
  0
LINE
  8
0
 10
263.763
 20
107.573
 11
263.362
 21
107.327
  0
LINE
  8
0
 10
263.362
 20
107.327
 11
262.927
 21
107.147
  0
LINE
  8
0
 10
262.927
 20
107.147
 11
262.469
 21
107.037
  0
LINE
  8
0
 10
262.469
 20
107.037
 11
262
 21
107
  0
LINE
  8
0
 10
262
 20
107
 11
261.531
 21
107.037
  0
LINE
  8
0
 10
216.531
 20
107.037
 11
216.073
 21
107.147
  0
LINE
  8
0
 10
216.073
 20
107.147
 11
215.638
 21
107.327
  0
LINE
  8
0
 10
215.638
 20
107.327
 11
215.237
 21
107.573
  0
LINE
  8
0
 10
215.237
 20
107.573
 11
214.879
 21
107.879
  0
LINE
  8
0
 10
214.879
 20
107.879
 11
214.573
 21
108.237
  0
LINE
  8
0
 10
214.573
 20
108.237
 11
214.327
 21
108.638
  0
LINE
  8
0
 10
214.327
 20
108.638
 11
214.147
 21
109.073
  0
LINE
  8
0
 10
214.147
 20
109.073
 11
214.037
 21
109.531
  0
LINE
  8
0
 10
214.037
 20
109.531
 11
214
 21
110
  0
LINE
  8
0
 10
214
 20
110
 11
214.037
 21
110.469
  0
LINE
  8
0
 10
214.037
 20
110.469
 11
214.147
 21
110.927
  0
LINE
  8
0
 10
214.147
 20
110.927
 11
214.327
 21
111.362
  0
LINE
  8
0
 10
214.327
 20
111.362
 11
214.573
 21
111.763
  0
LINE
  8
0
 10
214.573
 20
111.763
 11
214.879
 21
112.121
  0
LINE
  8
0
 10
214.879
 20
112.121
 11
215.237
 21
112.427
  0
LINE
  8
0
 10
215.237
 20
112.427
 11
215.638
 21
112.673
  0
LINE
  8
0
 10
215.638
 20
112.673
 11
216.073
 21
112.853
  0
LINE
  8
0
 10
216.073
 20
112.853
 11
216.531
 21
112.963
  0
LINE
  8
0
 10
216.531
 20
112.963
 11
217
 21
113
  0
LINE
  8
0
 10
217
 20
113
 11
217.469
 21
112.963
  0
LINE
  8
0
 10
217.469
 20
112.963
 11
217.927
 21
112.853
  0
LINE
  8
0
 10
217.927
 20
112.853
 11
218.362
 21
112.673
  0
LINE
  8
0
 10
218.362
 20
112.673
 11
218.763
 21
112.427
  0
LINE
  8
0
 10
218.763
 20
112.427
 11
219.121
 21
112.121
  0
LINE
  8
0
 10
219.121
 20
112.121
 11
219.427
 21
111.763
  0
LINE
  8
0
 10
219.427
 20
111.763
 11
219.673
 21
111.362
  0
LINE
  8
0
 10
219.673
 20
111.362
 11
219.853
 21
110.927
  0
LINE
  8
0
 10
219.853
 20
110.927
 11
219.963
 21
110.469
  0
LINE
  8
0
 10
219.963
 20
110.469
 11
220
 21
110
  0
LINE
  8
0
 10
220
 20
110
 11
219.963
 21
109.531
  0
LINE
  8
0
 10
219.963
 20
109.531
 11
219.853
 21
109.073
  0
LINE
  8
0
 10
219.853
 20
109.073
 11
219.673
 21
108.638
  0
LINE
  8
0
 10
219.673
 20
108.638
 11
219.427
 21
108.237
  0
LINE
  8
0
 10
219.427
 20
108.237
 11
219.121
 21
107.879
  0
LINE
  8
0
 10
219.121
 20
107.879
 11
218.763
 21
107.573
  0
LINE
  8
0
 10
218.763
 20
107.573
 11
218.362
 21
107.327
  0
LINE
  8
0
 10
218.362
 20
107.327
 11
217.927
 21
107.147
  0
LINE
  8
0
 10
217.927
 20
107.147
 11
217.469
 21
107.037
  0
LINE
  8
0
 10
217.469
 20
107.037
 11
217
 21
107
  0
LINE
  8
0
 10
217
 20
107
 11
216.531
 21
107.037
  0
LINE
  8
0
 10
171.531
 20
107.037
 11
171.073
 21
107.147
  0
LINE
  8
0
 10
171.073
 20
107.147
 11
170.638
 21
107.327
  0
LINE
  8
0
 10
170.638
 20
107.327
 11
170.237
 21
107.573
  0
LINE
  8
0
 10
170.237
 20
107.573
 11
169.879
 21
107.879
  0
LINE
  8
0
 10
169.879
 20
107.879
 11
169.573
 21
108.237
  0
LINE
  8
0
 10
169.573
 20
108.237
 11
169.327
 21
108.638
  0
LINE
  8
0
 10
169.327
 20
108.638
 11
169.147
 21
109.073
  0
LINE
  8
0
 10
169.147
 20
109.073
 11
169.037
 21
109.531
  0
LINE
  8
0
 10
169.037
 20
109.531
 11
169
 21
110
  0
LINE
  8
0
 10
169
 20
110
 11
169.037
 21
110.469
  0
LINE
  8
0
 10
169.037
 20
110.469
 11
169.147
 21
110.927
  0
LINE
  8
0
 10
169.147
 20
110.927
 11
169.327
 21
111.362
  0
LINE
  8
0
 10
169.327
 20
111.362
 11
169.573
 21
111.763
  0
LINE
  8
0
 10
169.573
 20
111.763
 11
169.879
 21
112.121
  0
LINE
  8
0
 10
169.879
 20
112.121
 11
170.237
 21
112.427
  0
LINE
  8
0
 10
170.237
 20
112.427
 11
170.638
 21
112.673
  0
LINE
  8
0
 10
170.638
 20
112.673
 11
171.073
 21
112.853
  0
LINE
  8
0
 10
171.073
 20
112.853
 11
171.531
 21
112.963
  0
LINE
  8
0
 10
171.531
 20
112.963
 11
172
 21
113
  0
LINE
  8
0
 10
172
 20
113
 11
172.469
 21
112.963
  0
LINE
  8
0
 10
172.469
 20
112.963
 11
172.927
 21
112.853
  0
LINE
  8
0
 10
172.927
 20
112.853
 11
173.362
 21
112.673
  0
LINE
  8
0
 10
173.362
 20
112.673
 11
173.763
 21
112.427
  0
LINE
  8
0
 10
173.763
 20
112.427
 11
174.121
 21
112.121
  0
LINE
  8
0
 10
174.121
 20
112.121
 11
174.427
 21
111.763
  0
LINE
  8
0
 10
174.427
 20
111.763
 11
174.673
 21
111.362
  0
LINE
  8
0
 10
174.673
 20
111.362
 11
174.853
 21
110.927
  0
LINE
  8
0
 10
174.853
 20
110.927
 11
174.963
 21
110.469
  0
LINE
  8
0
 10
174.963
 20
110.469
 11
175
 21
110
  0
LINE
  8
0
 10
175
 20
110
 11
174.963
 21
109.531
  0
LINE
  8
0
 10
174.963
 20
109.531
 11
174.853
 21
109.073
  0
LINE
  8
0
 10
174.853
 20
109.073
 11
174.673
 21
108.638
  0
LINE
  8
0
 10
174.673
 20
108.638
 11
174.427
 21
108.237
  0
LINE
  8
0
 10
174.427
 20
108.237
 11
174.121
 21
107.879
  0
LINE
  8
0
 10
174.121
 20
107.879
 11
173.763
 21
107.573
  0
LINE
  8
0
 10
173.763
 20
107.573
 11
173.362
 21
107.327
  0
LINE
  8
0
 10
173.362
 20
107.327
 11
172.927
 21
107.147
  0
LINE
  8
0
 10
172.927
 20
107.147
 11
172.469
 21
107.037
  0
LINE
  8
0
 10
172.469
 20
107.037
 11
172
 21
107
  0
LINE
  8
0
 10
172
 20
107
 11
171.531
 21
107.037
  0
LINE
  8
0
 10
81.5307
 20
107.037
 11
81.0729
 21
107.147
  0
LINE
  8
0
 10
81.0729
 20
107.147
 11
80.638
 21
107.327
  0
LINE
  8
0
 10
80.638
 20
107.327
 11
80.2366
 21
107.573
  0
LINE
  8
0
 10
80.2366
 20
107.573
 11
79.8787
 21
107.879
  0
LINE
  8
0
 10
79.8787
 20
107.879
 11
79.5729
 21
108.237
  0
LINE
  8
0
 10
79.5729
 20
108.237
 11
79.327
 21
108.638
  0
LINE
  8
0
 10
79.327
 20
108.638
 11
79.1468
 21
109.073
  0
LINE
  8
0
 10
79.1468
 20
109.073
 11
79.0369
 21
109.531
  0
LINE
  8
0
 10
79.0369
 20
109.531
 11
79
 21
110
  0
LINE
  8
0
 10
79
 20
110
 11
79.0369
 21
110.469
  0
LINE
  8
0
 10
79.0369
 20
110.469
 11
79.1468
 21
110.927
  0
LINE
  8
0
 10
79.1468
 20
110.927
 11
79.327
 21
111.362
  0
LINE
  8
0
 10
79.327
 20
111.362
 11
79.5729
 21
111.763
  0
LINE
  8
0
 10
79.5729
 20
111.763
 11
79.8787
 21
112.121
  0
LINE
  8
0
 10
79.8787
 20
112.121
 11
80.2366
 21
112.427
  0
LINE
  8
0
 10
80.2366
 20
112.427
 11
80.638
 21
112.673
  0
LINE
  8
0
 10
80.638
 20
112.673
 11
81.0729
 21
112.853
  0
LINE
  8
0
 10
81.0729
 20
112.853
 11
81.5307
 21
112.963
  0
LINE
  8
0
 10
81.5307
 20
112.963
 11
82
 21
113
  0
LINE
  8
0
 10
82
 20
113
 11
82.4693
 21
112.963
  0
LINE
  8
0
 10
82.4693
 20
112.963
 11
82.927
 21
112.853
  0
LINE
  8
0
 10
82.927
 20
112.853
 11
83.362
 21
112.673
  0
LINE
  8
0
 10
83.362
 20
112.673
 11
83.7634
 21
112.427
  0
LINE
  8
0
 10
83.7634
 20
112.427
 11
84.1213
 21
112.121
  0
LINE
  8
0
 10
84.1213
 20
112.121
 11
84.427
 21
111.763
  0
LINE
  8
0
 10
84.427
 20
111.763
 11
84.673
 21
111.362
  0
LINE
  8
0
 10
84.673
 20
111.362
 11
84.8532
 21
110.927
  0
LINE
  8
0
 10
84.8532
 20
110.927
 11
84.9631
 21
110.469
  0
LINE
  8
0
 10
84.9631
 20
110.469
 11
85
 21
110
  0
LINE
  8
0
 10
85
 20
110
 11
84.9631
 21
109.531
  0
LINE
  8
0
 10
84.9631
 20
109.531
 11
84.8532
 21
109.073
  0
LINE
  8
0
 10
84.8532
 20
109.073
 11
84.673
 21
108.638
  0
LINE
  8
0
 10
84.673
 20
108.638
 11
84.427
 21
108.237
  0
LINE
  8
0
 10
84.427
 20
108.237
 11
84.1213
 21
107.879
  0
LINE
  8
0
 10
84.1213
 20
107.879
 11
83.7634
 21
107.573
  0
LINE
  8
0
 10
83.7634
 20
107.573
 11
83.362
 21
107.327
  0
LINE
  8
0
 10
83.362
 20
107.327
 11
82.927
 21
107.147
  0
LINE
  8
0
 10
82.927
 20
107.147
 11
82.4693
 21
107.037
  0
LINE
  8
0
 10
82.4693
 20
107.037
 11
82
 21
107
  0
LINE
  8
0
 10
82
 20
107
 11
81.5307
 21
107.037
  0
LINE
  8
0
 10
36.5307
 20
107.037
 11
36.0729
 21
107.147
  0
LINE
  8
0
 10
36.0729
 20
107.147
 11
35.638
 21
107.327
  0
LINE
  8
0
 10
35.638
 20
107.327
 11
35.2366
 21
107.573
  0
LINE
  8
0
 10
35.2366
 20
107.573
 11
34.8787
 21
107.879
  0
LINE
  8
0
 10
34.8787
 20
107.879
 11
34.5729
 21
108.237
  0
LINE
  8
0
 10
34.5729
 20
108.237
 11
34.327
 21
108.638
  0
LINE
  8
0
 10
34.327
 20
108.638
 11
34.1468
 21
109.073
  0
LINE
  8
0
 10
34.1468
 20
109.073
 11
34.0369
 21
109.531
  0
LINE
  8
0
 10
34.0369
 20
109.531
 11
34
 21
110
  0
LINE
  8
0
 10
34
 20
110
 11
34.0369
 21
110.469
  0
LINE
  8
0
 10
34.0369
 20
110.469
 11
34.1468
 21
110.927
  0
LINE
  8
0
 10
34.1468
 20
110.927
 11
34.327
 21
111.362
  0
LINE
  8
0
 10
34.327
 20
111.362
 11
34.5729
 21
111.763
  0
LINE
  8
0
 10
34.5729
 20
111.763
 11
34.8787
 21
112.121
  0
LINE
  8
0
 10
34.8787
 20
112.121
 11
35.2366
 21
112.427
  0
LINE
  8
0
 10
35.2366
 20
112.427
 11
35.638
 21
112.673
  0
LINE
  8
0
 10
35.638
 20
112.673
 11
36.0729
 21
112.853
  0
LINE
  8
0
 10
36.0729
 20
112.853
 11
36.5307
 21
112.963
  0
LINE
  8
0
 10
36.5307
 20
112.963
 11
37
 21
113
  0
LINE
  8
0
 10
37
 20
113
 11
37.4693
 21
112.963
  0
LINE
  8
0
 10
37.4693
 20
112.963
 11
37.927
 21
112.853
  0
LINE
  8
0
 10
37.927
 20
112.853
 11
38.362
 21
112.673
  0
LINE
  8
0
 10
38.362
 20
112.673
 11
38.7634
 21
112.427
  0
LINE
  8
0
 10
38.7634
 20
112.427
 11
39.1213
 21
112.121
  0
LINE
  8
0
 10
39.1213
 20
112.121
 11
39.427
 21
111.763
  0
LINE
  8
0
 10
39.427
 20
111.763
 11
39.673
 21
111.362
  0
LINE
  8
0
 10
39.673
 20
111.362
 11
39.8532
 21
110.927
  0
LINE
  8
0
 10
39.8532
 20
110.927
 11
39.9631
 21
110.469
  0
LINE
  8
0
 10
39.9631
 20
110.469
 11
40
 21
110
  0
LINE
  8
0
 10
40
 20
110
 11
39.9631
 21
109.531
  0
LINE
  8
0
 10
39.9631
 20
109.531
 11
39.8532
 21
109.073
  0
LINE
  8
0
 10
39.8532
 20
109.073
 11
39.673
 21
108.638
  0
LINE
  8
0
 10
39.673
 20
108.638
 11
39.427
 21
108.237
  0
LINE
  8
0
 10
39.427
 20
108.237
 11
39.1213
 21
107.879
  0
LINE
  8
0
 10
39.1213
 20
107.879
 11
38.7634
 21
107.573
  0
LINE
  8
0
 10
38.7634
 20
107.573
 11
38.362
 21
107.327
  0
LINE
  8
0
 10
38.362
 20
107.327
 11
37.927
 21
107.147
  0
LINE
  8
0
 10
37.927
 20
107.147
 11
37.4693
 21
107.037
  0
LINE
  8
0
 10
37.4693
 20
107.037
 11
37
 21
107
  0
LINE
  8
0
 10
37
 20
107
 11
36.5307
 21
107.037
  0
LINE
  8
0
 10
64.296
 20
75.5554
 11
63.6094
 21
75.7202
  0
LINE
  8
0
 10
63.6094
 20
75.7202
 11
62.957
 21
75.9905
  0
LINE
  8
0
 10
62.957
 20
75.9905
 11
62.355
 21
76.3594
  0
LINE
  8
0
 10
62.355
 20
76.3594
 11
61.818
 21
76.818
  0
LINE
  8
0
 10
61.818
 20
76.818
 11
61.3594
 21
77.355
  0
LINE
  8
0
 10
61.3594
 20
77.355
 11
60.9905
 21
77.957
  0
LINE
  8
0
 10
60.9905
 20
77.957
 11
60.7202
 21
78.6094
  0
LINE
  8
0
 10
60.7202
 20
78.6094
 11
60.5554
 21
79.296
  0
LINE
  8
0
 10
60.5554
 20
79.296
 11
60.5
 21
80
  0
LINE
  8
0
 10
60.5
 20
80
 11
60.5554
 21
80.7039
  0
LINE
  8
0
 10
60.5554
 20
80.7039
 11
60.7202
 21
81.3906
  0
LINE
  8
0
 10
60.7202
 20
81.3906
 11
60.9905
 21
82.043
  0
LINE
  8
0
 10
60.9905
 20
82.043
 11
61.3594
 21
82.645
  0
LINE
  8
0
 10
61.3594
 20
82.645
 11
61.818
 21
83.182
  0
LINE
  8
0
 10
61.818
 20
83.182
 11
62.355
 21
83.6406
  0
LINE
  8
0
 10
62.355
 20
83.6406
 11
62.957
 21
84.0095
  0
LINE
  8
0
 10
62.957
 20
84.0095
 11
63.6094
 21
84.2797
  0
LINE
  8
0
 10
63.6094
 20
84.2797
 11
64.296
 21
84.4446
  0
LINE
  8
0
 10
64.296
 20
84.4446
 11
65
 21
84.5
  0
LINE
  8
0
 10
65
 20
84.5
 11
65.7039
 21
84.4446
  0
LINE
  8
0
 10
65.7039
 20
84.4446
 11
66.3906
 21
84.2797
  0
LINE
  8
0
 10
66.3906
 20
84.2797
 11
67.043
 21
84.0095
  0
LINE
  8
0
 10
67.043
 20
84.0095
 11
67.645
 21
83.6406
  0
LINE
  8
0
 10
67.645
 20
83.6406
 11
68.182
 21
83.182
  0
LINE
  8
0
 10
68.182
 20
83.182
 11
68.6406
 21
82.645
  0
LINE
  8
0
 10
68.6406
 20
82.645
 11
69.0095
 21
82.043
  0
LINE
  8
0
 10
69.0095
 20
82.043
 11
69.2797
 21
81.3906
  0
LINE
  8
0
 10
69.2797
 20
81.3906
 11
69.4446
 21
80.7039
  0
LINE
  8
0
 10
69.4446
 20
80.7039
 11
69.5
 21
80
  0
LINE
  8
0
 10
69.5
 20
80
 11
69.4446
 21
79.296
  0
LINE
  8
0
 10
69.4446
 20
79.296
 11
69.2797
 21
78.6094
  0
LINE
  8
0
 10
69.2797
 20
78.6094
 11
69.0095
 21
77.957
  0
LINE
  8
0
 10
69.0095
 20
77.957
 11
68.6406
 21
77.355
  0
LINE
  8
0
 10
68.6406
 20
77.355
 11
68.182
 21
76.818
  0
LINE
  8
0
 10
68.182
 20
76.818
 11
67.645
 21
76.3594
  0
LINE
  8
0
 10
67.645
 20
76.3594
 11
67.043
 21
75.9905
  0
LINE
  8
0
 10
67.043
 20
75.9905
 11
66.3906
 21
75.7202
  0
LINE
  8
0
 10
66.3906
 20
75.7202
 11
65.7039
 21
75.5554
  0
LINE
  8
0
 10
65.7039
 20
75.5554
 11
65
 21
75.5
  0
LINE
  8
0
 10
65
 20
75.5
 11
64.296
 21
75.5554
  0
LINE
  8
0
 10
19.296
 20
75.5554
 11
18.6094
 21
75.7202
  0
LINE
  8
0
 10
18.6094
 20
75.7202
 11
17.957
 21
75.9905
  0
LINE
  8
0
 10
17.957
 20
75.9905
 11
17.355
 21
76.3594
  0
LINE
  8
0
 10
17.355
 20
76.3594
 11
16.818
 21
76.818
  0
LINE
  8
0
 10
16.818
 20
76.818
 11
16.3594
 21
77.355
  0
LINE
  8
0
 10
16.3594
 20
77.355
 11
15.9905
 21
77.957
  0
LINE
  8
0
 10
15.9905
 20
77.957
 11
15.7202
 21
78.6094
  0
LINE
  8
0
 10
15.7202
 20
78.6094
 11
15.5554
 21
79.296
  0
LINE
  8
0
 10
15.5554
 20
79.296
 11
15.5
 21
80
  0
LINE
  8
0
 10
15.5
 20
80
 11
15.5554
 21
80.7039
  0
LINE
  8
0
 10
15.5554
 20
80.7039
 11
15.7202
 21
81.3906
  0
LINE
  8
0
 10
15.7202
 20
81.3906
 11
15.9905
 21
82.043
  0
LINE
  8
0
 10
15.9905
 20
82.043
 11
16.3594
 21
82.645
  0
LINE
  8
0
 10
16.3594
 20
82.645
 11
16.818
 21
83.182
  0
LINE
  8
0
 10
16.818
 20
83.182
 11
17.355
 21
83.6406
  0
LINE
  8
0
 10
17.355
 20
83.6406
 11
17.957
 21
84.0095
  0
LINE
  8
0
 10
17.957
 20
84.0095
 11
18.6094
 21
84.2797
  0
LINE
  8
0
 10
18.6094
 20
84.2797
 11
19.296
 21
84.4446
  0
LINE
  8
0
 10
19.296
 20
84.4446
 11
20
 21
84.5
  0
LINE
  8
0
 10
20
 20
84.5
 11
20.7039
 21
84.4446
  0
LINE
  8
0
 10
20.7039
 20
84.4446
 11
21.3906
 21
84.2797
  0
LINE
  8
0
 10
21.3906
 20
84.2797
 11
22.043
 21
84.0095
  0
LINE
  8
0
 10
22.043
 20
84.0095
 11
22.645
 21
83.6406
  0
LINE
  8
0
 10
22.645
 20
83.6406
 11
23.182
 21
83.182
  0
LINE
  8
0
 10
23.182
 20
83.182
 11
23.6406
 21
82.645
  0
LINE
  8
0
 10
23.6406
 20
82.645
 11
24.0095
 21
82.043
  0
LINE
  8
0
 10
24.0095
 20
82.043
 11
24.2797
 21
81.3906
  0
LINE
  8
0
 10
24.2797
 20
81.3906
 11
24.4446
 21
80.7039
  0
LINE
  8
0
 10
24.4446
 20
80.7039
 11
24.5
 21
80
  0
LINE
  8
0
 10
24.5
 20
80
 11
24.4446
 21
79.296
  0
LINE
  8
0
 10
24.4446
 20
79.296
 11
24.2797
 21
78.6094
  0
LINE
  8
0
 10
24.2797
 20
78.6094
 11
24.0095
 21
77.957
  0
LINE
  8
0
 10
24.0095
 20
77.957
 11
23.6406
 21
77.355
  0
LINE
  8
0
 10
23.6406
 20
77.355
 11
23.182
 21
76.818
  0
LINE
  8
0
 10
23.182
 20
76.818
 11
22.645
 21
76.3594
  0
LINE
  8
0
 10
22.645
 20
76.3594
 11
22.043
 21
75.9905
  0
LINE
  8
0
 10
22.043
 20
75.9905
 11
21.3906
 21
75.7202
  0
LINE
  8
0
 10
21.3906
 20
75.7202
 11
20.7039
 21
75.5554
  0
LINE
  8
0
 10
20.7039
 20
75.5554
 11
20
 21
75.5
  0
LINE
  8
0
 10
20
 20
75.5
 11
19.296
 21
75.5554
  0
LINE
  8
0
 10
199.296
 20
75.5554
 11
198.609
 21
75.7202
  0
LINE
  8
0
 10
198.609
 20
75.7202
 11
197.957
 21
75.9905
  0
LINE
  8
0
 10
197.957
 20
75.9905
 11
197.355
 21
76.3594
  0
LINE
  8
0
 10
197.355
 20
76.3594
 11
196.818
 21
76.818
  0
LINE
  8
0
 10
196.818
 20
76.818
 11
196.359
 21
77.355
  0
LINE
  8
0
 10
196.359
 20
77.355
 11
195.99
 21
77.957
  0
LINE
  8
0
 10
195.99
 20
77.957
 11
195.72
 21
78.6094
  0
LINE
  8
0
 10
195.72
 20
78.6094
 11
195.555
 21
79.296
  0
LINE
  8
0
 10
195.555
 20
79.296
 11
195.5
 21
80
  0
LINE
  8
0
 10
195.5
 20
80
 11
195.555
 21
80.7039
  0
LINE
  8
0
 10
195.555
 20
80.7039
 11
195.72
 21
81.3906
  0
LINE
  8
0
 10
195.72
 20
81.3906
 11
195.99
 21
82.043
  0
LINE
  8
0
 10
195.99
 20
82.043
 11
196.359
 21
82.645
  0
LINE
  8
0
 10
196.359
 20
82.645
 11
196.818
 21
83.182
  0
LINE
  8
0
 10
196.818
 20
83.182
 11
197.355
 21
83.6406
  0
LINE
  8
0
 10
197.355
 20
83.6406
 11
197.957
 21
84.0095
  0
LINE
  8
0
 10
197.957
 20
84.0095
 11
198.609
 21
84.2797
  0
LINE
  8
0
 10
198.609
 20
84.2797
 11
199.296
 21
84.4446
  0
LINE
  8
0
 10
199.296
 20
84.4446
 11
200
 21
84.5
  0
LINE
  8
0
 10
200
 20
84.5
 11
200.704
 21
84.4446
  0
LINE
  8
0
 10
200.704
 20
84.4446
 11
201.391
 21
84.2797
  0
LINE
  8
0
 10
201.391
 20
84.2797
 11
202.043
 21
84.0095
  0
LINE
  8
0
 10
202.043
 20
84.0095
 11
202.645
 21
83.6406
  0
LINE
  8
0
 10
202.645
 20
83.6406
 11
203.182
 21
83.182
  0
LINE
  8
0
 10
203.182
 20
83.182
 11
203.641
 21
82.645
  0
LINE
  8
0
 10
203.641
 20
82.645
 11
204.01
 21
82.043
  0
LINE
  8
0
 10
204.01
 20
82.043
 11
204.28
 21
81.3906
  0
LINE
  8
0
 10
204.28
 20
81.3906
 11
204.445
 21
80.7039
  0
LINE
  8
0
 10
204.445
 20
80.7039
 11
204.5
 21
80
  0
LINE
  8
0
 10
204.5
 20
80
 11
204.445
 21
79.296
  0
LINE
  8
0
 10
204.445
 20
79.296
 11
204.28
 21
78.6094
  0
LINE
  8
0
 10
204.28
 20
78.6094
 11
204.01
 21
77.957
  0
LINE
  8
0
 10
204.01
 20
77.957
 11
203.641
 21
77.355
  0
LINE
  8
0
 10
203.641
 20
77.355
 11
203.182
 21
76.818
  0
LINE
  8
0
 10
203.182
 20
76.818
 11
202.645
 21
76.3594
  0
LINE
  8
0
 10
202.645
 20
76.3594
 11
202.043
 21
75.9905
  0
LINE
  8
0
 10
202.043
 20
75.9905
 11
201.391
 21
75.7202
  0
LINE
  8
0
 10
201.391
 20
75.7202
 11
200.704
 21
75.5554
  0
LINE
  8
0
 10
200.704
 20
75.5554
 11
200
 21
75.5
  0
LINE
  8
0
 10
200
 20
75.5
 11
199.296
 21
75.5554
  0
LINE
  8
0
 10
154.296
 20
75.5554
 11
153.609
 21
75.7202
  0
LINE
  8
0
 10
153.609
 20
75.7202
 11
152.957
 21
75.9905
  0
LINE
  8
0
 10
152.957
 20
75.9905
 11
152.355
 21
76.3594
  0
LINE
  8
0
 10
152.355
 20
76.3594
 11
151.818
 21
76.818
  0
LINE
  8
0
 10
151.818
 20
76.818
 11
151.359
 21
77.355
  0
LINE
  8
0
 10
151.359
 20
77.355
 11
150.99
 21
77.957
  0
LINE
  8
0
 10
150.99
 20
77.957
 11
150.72
 21
78.6094
  0
LINE
  8
0
 10
150.72
 20
78.6094
 11
150.555
 21
79.296
  0
LINE
  8
0
 10
150.555
 20
79.296
 11
150.5
 21
80
  0
LINE
  8
0
 10
150.5
 20
80
 11
150.555
 21
80.7039
  0
LINE
  8
0
 10
150.555
 20
80.7039
 11
150.72
 21
81.3906
  0
LINE
  8
0
 10
150.72
 20
81.3906
 11
150.99
 21
82.043
  0
LINE
  8
0
 10
150.99
 20
82.043
 11
151.359
 21
82.645
  0
LINE
  8
0
 10
151.359
 20
82.645
 11
151.818
 21
83.182
  0
LINE
  8
0
 10
151.818
 20
83.182
 11
152.355
 21
83.6406
  0
LINE
  8
0
 10
152.355
 20
83.6406
 11
152.957
 21
84.0095
  0
LINE
  8
0
 10
152.957
 20
84.0095
 11
153.609
 21
84.2797
  0
LINE
  8
0
 10
153.609
 20
84.2797
 11
154.296
 21
84.4446
  0
LINE
  8
0
 10
154.296
 20
84.4446
 11
155
 21
84.5
  0
LINE
  8
0
 10
155
 20
84.5
 11
155.704
 21
84.4446
  0
LINE
  8
0
 10
155.704
 20
84.4446
 11
156.391
 21
84.2797
  0
LINE
  8
0
 10
156.391
 20
84.2797
 11
157.043
 21
84.0095
  0
LINE
  8
0
 10
157.043
 20
84.0095
 11
157.645
 21
83.6406
  0
LINE
  8
0
 10
157.645
 20
83.6406
 11
158.182
 21
83.182
  0
LINE
  8
0
 10
158.182
 20
83.182
 11
158.641
 21
82.645
  0
LINE
  8
0
 10
158.641
 20
82.645
 11
159.01
 21
82.043
  0
LINE
  8
0
 10
159.01
 20
82.043
 11
159.28
 21
81.3906
  0
LINE
  8
0
 10
159.28
 20
81.3906
 11
159.445
 21
80.7039
  0
LINE
  8
0
 10
159.445
 20
80.7039
 11
159.5
 21
80
  0
LINE
  8
0
 10
159.5
 20
80
 11
159.445
 21
79.296
  0
LINE
  8
0
 10
159.445
 20
79.296
 11
159.28
 21
78.6094
  0
LINE
  8
0
 10
159.28
 20
78.6094
 11
159.01
 21
77.957
  0
LINE
  8
0
 10
159.01
 20
77.957
 11
158.641
 21
77.355
  0
LINE
  8
0
 10
158.641
 20
77.355
 11
158.182
 21
76.818
  0
LINE
  8
0
 10
158.182
 20
76.818
 11
157.645
 21
76.3594
  0
LINE
  8
0
 10
157.645
 20
76.3594
 11
157.043
 21
75.9905
  0
LINE
  8
0
 10
157.043
 20
75.9905
 11
156.391
 21
75.7202
  0
LINE
  8
0
 10
156.391
 20
75.7202
 11
155.704
 21
75.5554
  0
LINE
  8
0
 10
155.704
 20
75.5554
 11
155
 21
75.5
  0
LINE
  8
0
 10
155
 20
75.5
 11
154.296
 21
75.5554
  0
LINE
  8
0
 10
244.296
 20
75.5554
 11
243.609
 21
75.7202
  0
LINE
  8
0
 10
243.609
 20
75.7202
 11
242.957
 21
75.9905
  0
LINE
  8
0
 10
242.957
 20
75.9905
 11
242.355
 21
76.3594
  0
LINE
  8
0
 10
242.355
 20
76.3594
 11
241.818
 21
76.818
  0
LINE
  8
0
 10
241.818
 20
76.818
 11
241.359
 21
77.355
  0
LINE
  8
0
 10
241.359
 20
77.355
 11
240.99
 21
77.957
  0
LINE
  8
0
 10
240.99
 20
77.957
 11
240.72
 21
78.6094
  0
LINE
  8
0
 10
240.72
 20
78.6094
 11
240.555
 21
79.296
  0
LINE
  8
0
 10
240.555
 20
79.296
 11
240.5
 21
80
  0
LINE
  8
0
 10
240.5
 20
80
 11
240.555
 21
80.7039
  0
LINE
  8
0
 10
240.555
 20
80.7039
 11
240.72
 21
81.3906
  0
LINE
  8
0
 10
240.72
 20
81.3906
 11
240.99
 21
82.043
  0
LINE
  8
0
 10
240.99
 20
82.043
 11
241.359
 21
82.645
  0
LINE
  8
0
 10
241.359
 20
82.645
 11
241.818
 21
83.182
  0
LINE
  8
0
 10
241.818
 20
83.182
 11
242.355
 21
83.6406
  0
LINE
  8
0
 10
242.355
 20
83.6406
 11
242.957
 21
84.0095
  0
LINE
  8
0
 10
242.957
 20
84.0095
 11
243.609
 21
84.2797
  0
LINE
  8
0
 10
243.609
 20
84.2797
 11
244.296
 21
84.4446
  0
LINE
  8
0
 10
244.296
 20
84.4446
 11
245
 21
84.5
  0
LINE
  8
0
 10
245
 20
84.5
 11
245.704
 21
84.4446
  0
LINE
  8
0
 10
245.704
 20
84.4446
 11
246.391
 21
84.2797
  0
LINE
  8
0
 10
246.391
 20
84.2797
 11
247.043
 21
84.0095
  0
LINE
  8
0
 10
247.043
 20
84.0095
 11
247.645
 21
83.6406
  0
LINE
  8
0
 10
247.645
 20
83.6406
 11
248.182
 21
83.182
  0
LINE
  8
0
 10
248.182
 20
83.182
 11
248.641
 21
82.645
  0
LINE
  8
0
 10
248.641
 20
82.645
 11
249.01
 21
82.043
  0
LINE
  8
0
 10
249.01
 20
82.043
 11
249.28
 21
81.3906
  0
LINE
  8
0
 10
249.28
 20
81.3906
 11
249.445
 21
80.7039
  0
LINE
  8
0
 10
249.445
 20
80.7039
 11
249.5
 21
80
  0
LINE
  8
0
 10
249.5
 20
80
 11
249.445
 21
79.296
  0
LINE
  8
0
 10
249.445
 20
79.296
 11
249.28
 21
78.6094
  0
LINE
  8
0
 10
249.28
 20
78.6094
 11
249.01
 21
77.957
  0
LINE
  8
0
 10
249.01
 20
77.957
 11
248.641
 21
77.355
  0
LINE
  8
0
 10
248.641
 20
77.355
 11
248.182
 21
76.818
  0
LINE
  8
0
 10
248.182
 20
76.818
 11
247.645
 21
76.3594
  0
LINE
  8
0
 10
247.645
 20
76.3594
 11
247.043
 21
75.9905
  0
LINE
  8
0
 10
247.043
 20
75.9905
 11
246.391
 21
75.7202
  0
LINE
  8
0
 10
246.391
 20
75.7202
 11
245.704
 21
75.5554
  0
LINE
  8
0
 10
245.704
 20
75.5554
 11
245
 21
75.5
  0
LINE
  8
0
 10
245
 20
75.5
 11
244.296
 21
75.5554
  0
LINE
  8
0
 10
109.296
 20
75.5554
 11
108.609
 21
75.7202
  0
LINE
  8
0
 10
108.609
 20
75.7202
 11
107.957
 21
75.9905
  0
LINE
  8
0
 10
107.957
 20
75.9905
 11
107.355
 21
76.3594
  0
LINE
  8
0
 10
107.355
 20
76.3594
 11
106.818
 21
76.818
  0
LINE
  8
0
 10
106.818
 20
76.818
 11
106.359
 21
77.355
  0
LINE
  8
0
 10
106.359
 20
77.355
 11
105.99
 21
77.957
  0
LINE
  8
0
 10
105.99
 20
77.957
 11
105.72
 21
78.6094
  0
LINE
  8
0
 10
105.72
 20
78.6094
 11
105.555
 21
79.296
  0
LINE
  8
0
 10
105.555
 20
79.296
 11
105.5
 21
80
  0
LINE
  8
0
 10
105.5
 20
80
 11
105.555
 21
80.7039
  0
LINE
  8
0
 10
105.555
 20
80.7039
 11
105.72
 21
81.3906
  0
LINE
  8
0
 10
105.72
 20
81.3906
 11
105.99
 21
82.043
  0
LINE
  8
0
 10
105.99
 20
82.043
 11
106.359
 21
82.645
  0
LINE
  8
0
 10
106.359
 20
82.645
 11
106.818
 21
83.182
  0
LINE
  8
0
 10
106.818
 20
83.182
 11
107.355
 21
83.6406
  0
LINE
  8
0
 10
107.355
 20
83.6406
 11
107.957
 21
84.0095
  0
LINE
  8
0
 10
107.957
 20
84.0095
 11
108.609
 21
84.2797
  0
LINE
  8
0
 10
108.609
 20
84.2797
 11
109.296
 21
84.4446
  0
LINE
  8
0
 10
109.296
 20
84.4446
 11
110
 21
84.5
  0
LINE
  8
0
 10
110
 20
84.5
 11
110.704
 21
84.4446
  0
LINE
  8
0
 10
110.704
 20
84.4446
 11
111.391
 21
84.2797
  0
LINE
  8
0
 10
111.391
 20
84.2797
 11
112.043
 21
84.0095
  0
LINE
  8
0
 10
112.043
 20
84.0095
 11
112.645
 21
83.6406
  0
LINE
  8
0
 10
112.645
 20
83.6406
 11
113.182
 21
83.182
  0
LINE
  8
0
 10
113.182
 20
83.182
 11
113.641
 21
82.645
  0
LINE
  8
0
 10
113.641
 20
82.645
 11
114.01
 21
82.043
  0
LINE
  8
0
 10
114.01
 20
82.043
 11
114.28
 21
81.3906
  0
LINE
  8
0
 10
114.28
 20
81.3906
 11
114.445
 21
80.7039
  0
LINE
  8
0
 10
114.445
 20
80.7039
 11
114.5
 21
80
  0
LINE
  8
0
 10
114.5
 20
80
 11
114.445
 21
79.296
  0
LINE
  8
0
 10
114.445
 20
79.296
 11
114.28
 21
78.6094
  0
LINE
  8
0
 10
114.28
 20
78.6094
 11
114.01
 21
77.957
  0
LINE
  8
0
 10
114.01
 20
77.957
 11
113.641
 21
77.355
  0
LINE
  8
0
 10
113.641
 20
77.355
 11
113.182
 21
76.818
  0
LINE
  8
0
 10
113.182
 20
76.818
 11
112.645
 21
76.3594
  0
LINE
  8
0
 10
112.645
 20
76.3594
 11
112.043
 21
75.9905
  0
LINE
  8
0
 10
112.043
 20
75.9905
 11
111.391
 21
75.7202
  0
LINE
  8
0
 10
111.391
 20
75.7202
 11
110.704
 21
75.5554
  0
LINE
  8
0
 10
110.704
 20
75.5554
 11
110
 21
75.5
  0
LINE
  8
0
 10
110
 20
75.5
 11
109.296
 21
75.5554
  0
LINE
  8
0
 10
216.531
 20
77.0369
 11
216.073
 21
77.1468
  0
LINE
  8
0
 10
216.073
 20
77.1468
 11
215.638
 21
77.327
  0
LINE
  8
0
 10
215.638
 20
77.327
 11
215.237
 21
77.5729
  0
LINE
  8
0
 10
215.237
 20
77.5729
 11
214.879
 21
77.8787
  0
LINE
  8
0
 10
214.879
 20
77.8787
 11
214.573
 21
78.2366
  0
LINE
  8
0
 10
214.573
 20
78.2366
 11
214.327
 21
78.638
  0
LINE
  8
0
 10
214.327
 20
78.638
 11
214.147
 21
79.0729
  0
LINE
  8
0
 10
214.147
 20
79.0729
 11
214.037
 21
79.5307
  0
LINE
  8
0
 10
214.037
 20
79.5307
 11
214
 21
80
  0
LINE
  8
0
 10
214
 20
80
 11
214.037
 21
80.4693
  0
LINE
  8
0
 10
214.037
 20
80.4693
 11
214.147
 21
80.927
  0
LINE
  8
0
 10
214.147
 20
80.927
 11
214.327
 21
81.362
  0
LINE
  8
0
 10
214.327
 20
81.362
 11
214.573
 21
81.7634
  0
LINE
  8
0
 10
214.573
 20
81.7634
 11
214.879
 21
82.1213
  0
LINE
  8
0
 10
214.879
 20
82.1213
 11
215.237
 21
82.427
  0
LINE
  8
0
 10
215.237
 20
82.427
 11
215.638
 21
82.673
  0
LINE
  8
0
 10
215.638
 20
82.673
 11
216.073
 21
82.8532
  0
LINE
  8
0
 10
216.073
 20
82.8532
 11
216.531
 21
82.9631
  0
LINE
  8
0
 10
216.531
 20
82.9631
 11
217
 21
83
  0
LINE
  8
0
 10
217
 20
83
 11
217.469
 21
82.9631
  0
LINE
  8
0
 10
217.469
 20
82.9631
 11
217.927
 21
82.8532
  0
LINE
  8
0
 10
217.927
 20
82.8532
 11
218.362
 21
82.673
  0
LINE
  8
0
 10
218.362
 20
82.673
 11
218.763
 21
82.427
  0
LINE
  8
0
 10
218.763
 20
82.427
 11
219.121
 21
82.1213
  0
LINE
  8
0
 10
219.121
 20
82.1213
 11
219.427
 21
81.7634
  0
LINE
  8
0
 10
219.427
 20
81.7634
 11
219.673
 21
81.362
  0
LINE
  8
0
 10
219.673
 20
81.362
 11
219.853
 21
80.927
  0
LINE
  8
0
 10
219.853
 20
80.927
 11
219.963
 21
80.4693
  0
LINE
  8
0
 10
219.963
 20
80.4693
 11
220
 21
80
  0
LINE
  8
0
 10
220
 20
80
 11
219.963
 21
79.5307
  0
LINE
  8
0
 10
219.963
 20
79.5307
 11
219.853
 21
79.0729
  0
LINE
  8
0
 10
219.853
 20
79.0729
 11
219.673
 21
78.638
  0
LINE
  8
0
 10
219.673
 20
78.638
 11
219.427
 21
78.2366
  0
LINE
  8
0
 10
219.427
 20
78.2366
 11
219.121
 21
77.8787
  0
LINE
  8
0
 10
219.121
 20
77.8787
 11
218.763
 21
77.5729
  0
LINE
  8
0
 10
218.763
 20
77.5729
 11
218.362
 21
77.327
  0
LINE
  8
0
 10
218.362
 20
77.327
 11
217.927
 21
77.1468
  0
LINE
  8
0
 10
217.927
 20
77.1468
 11
217.469
 21
77.0369
  0
LINE
  8
0
 10
217.469
 20
77.0369
 11
217
 21
77
  0
LINE
  8
0
 10
217
 20
77
 11
216.531
 21
77.0369
  0
LINE
  8
0
 10
126.531
 20
77.0369
 11
126.073
 21
77.1468
  0
LINE
  8
0
 10
126.073
 20
77.1468
 11
125.638
 21
77.327
  0
LINE
  8
0
 10
125.638
 20
77.327
 11
125.237
 21
77.5729
  0
LINE
  8
0
 10
125.237
 20
77.5729
 11
124.879
 21
77.8787
  0
LINE
  8
0
 10
124.879
 20
77.8787
 11
124.573
 21
78.2366
  0
LINE
  8
0
 10
124.573
 20
78.2366
 11
124.327
 21
78.638
  0
LINE
  8
0
 10
124.327
 20
78.638
 11
124.147
 21
79.0729
  0
LINE
  8
0
 10
124.147
 20
79.0729
 11
124.037
 21
79.5307
  0
LINE
  8
0
 10
124.037
 20
79.5307
 11
124
 21
80
  0
LINE
  8
0
 10
124
 20
80
 11
124.037
 21
80.4693
  0
LINE
  8
0
 10
124.037
 20
80.4693
 11
124.147
 21
80.927
  0
LINE
  8
0
 10
124.147
 20
80.927
 11
124.327
 21
81.362
  0
LINE
  8
0
 10
124.327
 20
81.362
 11
124.573
 21
81.7634
  0
LINE
  8
0
 10
124.573
 20
81.7634
 11
124.879
 21
82.1213
  0
LINE
  8
0
 10
124.879
 20
82.1213
 11
125.237
 21
82.427
  0
LINE
  8
0
 10
125.237
 20
82.427
 11
125.638
 21
82.673
  0
LINE
  8
0
 10
125.638
 20
82.673
 11
126.073
 21
82.8532
  0
LINE
  8
0
 10
126.073
 20
82.8532
 11
126.531
 21
82.9631
  0
LINE
  8
0
 10
126.531
 20
82.9631
 11
127
 21
83
  0
LINE
  8
0
 10
127
 20
83
 11
127.469
 21
82.9631
  0
LINE
  8
0
 10
127.469
 20
82.9631
 11
127.927
 21
82.8532
  0
LINE
  8
0
 10
127.927
 20
82.8532
 11
128.362
 21
82.673
  0
LINE
  8
0
 10
128.362
 20
82.673
 11
128.763
 21
82.427
  0
LINE
  8
0
 10
128.763
 20
82.427
 11
129.121
 21
82.1213
  0
LINE
  8
0
 10
129.121
 20
82.1213
 11
129.427
 21
81.7634
  0
LINE
  8
0
 10
129.427
 20
81.7634
 11
129.673
 21
81.362
  0
LINE
  8
0
 10
129.673
 20
81.362
 11
129.853
 21
80.927
  0
LINE
  8
0
 10
129.853
 20
80.927
 11
129.963
 21
80.4693
  0
LINE
  8
0
 10
129.963
 20
80.4693
 11
130
 21
80
  0
LINE
  8
0
 10
130
 20
80
 11
129.963
 21
79.5307
  0
LINE
  8
0
 10
129.963
 20
79.5307
 11
129.853
 21
79.0729
  0
LINE
  8
0
 10
129.853
 20
79.0729
 11
129.673
 21
78.638
  0
LINE
  8
0
 10
129.673
 20
78.638
 11
129.427
 21
78.2366
  0
LINE
  8
0
 10
129.427
 20
78.2366
 11
129.121
 21
77.8787
  0
LINE
  8
0
 10
129.121
 20
77.8787
 11
128.763
 21
77.5729
  0
LINE
  8
0
 10
128.763
 20
77.5729
 11
128.362
 21
77.327
  0
LINE
  8
0
 10
128.362
 20
77.327
 11
127.927
 21
77.1468
  0
LINE
  8
0
 10
127.927
 20
77.1468
 11
127.469
 21
77.0369
  0
LINE
  8
0
 10
127.469
 20
77.0369
 11
127
 21
77
  0
LINE
  8
0
 10
127
 20
77
 11
126.531
 21
77.0369
  0
LINE
  8
0
 10
261.531
 20
77.0369
 11
261.073
 21
77.1468
  0
LINE
  8
0
 10
261.073
 20
77.1468
 11
260.638
 21
77.327
  0
LINE
  8
0
 10
260.638
 20
77.327
 11
260.237
 21
77.5729
  0
LINE
  8
0
 10
260.237
 20
77.5729
 11
259.879
 21
77.8787
  0
LINE
  8
0
 10
259.879
 20
77.8787
 11
259.573
 21
78.2366
  0
LINE
  8
0
 10
259.573
 20
78.2366
 11
259.327
 21
78.638
  0
LINE
  8
0
 10
259.327
 20
78.638
 11
259.147
 21
79.0729
  0
LINE
  8
0
 10
259.147
 20
79.0729
 11
259.037
 21
79.5307
  0
LINE
  8
0
 10
259.037
 20
79.5307
 11
259
 21
80
  0
LINE
  8
0
 10
259
 20
80
 11
259.037
 21
80.4693
  0
LINE
  8
0
 10
259.037
 20
80.4693
 11
259.147
 21
80.927
  0
LINE
  8
0
 10
259.147
 20
80.927
 11
259.327
 21
81.362
  0
LINE
  8
0
 10
259.327
 20
81.362
 11
259.573
 21
81.7634
  0
LINE
  8
0
 10
259.573
 20
81.7634
 11
259.879
 21
82.1213
  0
LINE
  8
0
 10
259.879
 20
82.1213
 11
260.237
 21
82.427
  0
LINE
  8
0
 10
260.237
 20
82.427
 11
260.638
 21
82.673
  0
LINE
  8
0
 10
260.638
 20
82.673
 11
261.073
 21
82.8532
  0
LINE
  8
0
 10
261.073
 20
82.8532
 11
261.531
 21
82.9631
  0
LINE
  8
0
 10
261.531
 20
82.9631
 11
262
 21
83
  0
LINE
  8
0
 10
262
 20
83
 11
262.469
 21
82.9631
  0
LINE
  8
0
 10
262.469
 20
82.9631
 11
262.927
 21
82.8532
  0
LINE
  8
0
 10
262.927
 20
82.8532
 11
263.362
 21
82.673
  0
LINE
  8
0
 10
263.362
 20
82.673
 11
263.763
 21
82.427
  0
LINE
  8
0
 10
263.763
 20
82.427
 11
264.121
 21
82.1213
  0
LINE
  8
0
 10
264.121
 20
82.1213
 11
264.427
 21
81.7634
  0
LINE
  8
0
 10
264.427
 20
81.7634
 11
264.673
 21
81.362
  0
LINE
  8
0
 10
264.673
 20
81.362
 11
264.853
 21
80.927
  0
LINE
  8
0
 10
264.853
 20
80.927
 11
264.963
 21
80.4693
  0
LINE
  8
0
 10
264.963
 20
80.4693
 11
265
 21
80
  0
LINE
  8
0
 10
265
 20
80
 11
264.963
 21
79.5307
  0
LINE
  8
0
 10
264.963
 20
79.5307
 11
264.853
 21
79.0729
  0
LINE
  8
0
 10
264.853
 20
79.0729
 11
264.673
 21
78.638
  0
LINE
  8
0
 10
264.673
 20
78.638
 11
264.427
 21
78.2366
  0
LINE
  8
0
 10
264.427
 20
78.2366
 11
264.121
 21
77.8787
  0
LINE
  8
0
 10
264.121
 20
77.8787
 11
263.763
 21
77.5729
  0
LINE
  8
0
 10
263.763
 20
77.5729
 11
263.362
 21
77.327
  0
LINE
  8
0
 10
263.362
 20
77.327
 11
262.927
 21
77.1468
  0
LINE
  8
0
 10
262.927
 20
77.1468
 11
262.469
 21
77.0369
  0
LINE
  8
0
 10
262.469
 20
77.0369
 11
262
 21
77
  0
LINE
  8
0
 10
262
 20
77
 11
261.531
 21
77.0369
  0
LINE
  8
0
 10
81.5307
 20
77.0369
 11
81.0729
 21
77.1468
  0
LINE
  8
0
 10
81.0729
 20
77.1468
 11
80.638
 21
77.327
  0
LINE
  8
0
 10
80.638
 20
77.327
 11
80.2366
 21
77.5729
  0
LINE
  8
0
 10
80.2366
 20
77.5729
 11
79.8787
 21
77.8787
  0
LINE
  8
0
 10
79.8787
 20
77.8787
 11
79.5729
 21
78.2366
  0
LINE
  8
0
 10
79.5729
 20
78.2366
 11
79.327
 21
78.638
  0
LINE
  8
0
 10
79.327
 20
78.638
 11
79.1468
 21
79.0729
  0
LINE
  8
0
 10
79.1468
 20
79.0729
 11
79.0369
 21
79.5307
  0
LINE
  8
0
 10
79.0369
 20
79.5307
 11
79
 21
80
  0
LINE
  8
0
 10
79
 20
80
 11
79.0369
 21
80.4693
  0
LINE
  8
0
 10
79.0369
 20
80.4693
 11
79.1468
 21
80.927
  0
LINE
  8
0
 10
79.1468
 20
80.927
 11
79.327
 21
81.362
  0
LINE
  8
0
 10
79.327
 20
81.362
 11
79.5729
 21
81.7634
  0
LINE
  8
0
 10
79.5729
 20
81.7634
 11
79.8787
 21
82.1213
  0
LINE
  8
0
 10
79.8787
 20
82.1213
 11
80.2366
 21
82.427
  0
LINE
  8
0
 10
80.2366
 20
82.427
 11
80.638
 21
82.673
  0
LINE
  8
0
 10
80.638
 20
82.673
 11
81.0729
 21
82.8532
  0
LINE
  8
0
 10
81.0729
 20
82.8532
 11
81.5307
 21
82.9631
  0
LINE
  8
0
 10
81.5307
 20
82.9631
 11
82
 21
83
  0
LINE
  8
0
 10
82
 20
83
 11
82.4693
 21
82.9631
  0
LINE
  8
0
 10
82.4693
 20
82.9631
 11
82.927
 21
82.8532
  0
LINE
  8
0
 10
82.927
 20
82.8532
 11
83.362
 21
82.673
  0
LINE
  8
0
 10
83.362
 20
82.673
 11
83.7634
 21
82.427
  0
LINE
  8
0
 10
83.7634
 20
82.427
 11
84.1213
 21
82.1213
  0
LINE
  8
0
 10
84.1213
 20
82.1213
 11
84.427
 21
81.7634
  0
LINE
  8
0
 10
84.427
 20
81.7634
 11
84.673
 21
81.362
  0
LINE
  8
0
 10
84.673
 20
81.362
 11
84.8532
 21
80.927
  0
LINE
  8
0
 10
84.8532
 20
80.927
 11
84.9631
 21
80.4693
  0
LINE
  8
0
 10
84.9631
 20
80.4693
 11
85
 21
80
  0
LINE
  8
0
 10
85
 20
80
 11
84.9631
 21
79.5307
  0
LINE
  8
0
 10
84.9631
 20
79.5307
 11
84.8532
 21
79.0729
  0
LINE
  8
0
 10
84.8532
 20
79.0729
 11
84.673
 21
78.638
  0
LINE
  8
0
 10
84.673
 20
78.638
 11
84.427
 21
78.2366
  0
LINE
  8
0
 10
84.427
 20
78.2366
 11
84.1213
 21
77.8787
  0
LINE
  8
0
 10
84.1213
 20
77.8787
 11
83.7634
 21
77.5729
  0
LINE
  8
0
 10
83.7634
 20
77.5729
 11
83.362
 21
77.327
  0
LINE
  8
0
 10
83.362
 20
77.327
 11
82.927
 21
77.1468
  0
LINE
  8
0
 10
82.927
 20
77.1468
 11
82.4693
 21
77.0369
  0
LINE
  8
0
 10
82.4693
 20
77.0369
 11
82
 21
77
  0
LINE
  8
0
 10
82
 20
77
 11
81.5307
 21
77.0369
  0
LINE
  8
0
 10
36.5307
 20
77.0369
 11
36.0729
 21
77.1468
  0
LINE
  8
0
 10
36.0729
 20
77.1468
 11
35.638
 21
77.327
  0
LINE
  8
0
 10
35.638
 20
77.327
 11
35.2366
 21
77.5729
  0
LINE
  8
0
 10
35.2366
 20
77.5729
 11
34.8787
 21
77.8787
  0
LINE
  8
0
 10
34.8787
 20
77.8787
 11
34.5729
 21
78.2366
  0
LINE
  8
0
 10
34.5729
 20
78.2366
 11
34.327
 21
78.638
  0
LINE
  8
0
 10
34.327
 20
78.638
 11
34.1468
 21
79.0729
  0
LINE
  8
0
 10
34.1468
 20
79.0729
 11
34.0369
 21
79.5307
  0
LINE
  8
0
 10
34.0369
 20
79.5307
 11
34
 21
80
  0
LINE
  8
0
 10
34
 20
80
 11
34.0369
 21
80.4693
  0
LINE
  8
0
 10
34.0369
 20
80.4693
 11
34.1468
 21
80.927
  0
LINE
  8
0
 10
34.1468
 20
80.927
 11
34.327
 21
81.362
  0
LINE
  8
0
 10
34.327
 20
81.362
 11
34.5729
 21
81.7634
  0
LINE
  8
0
 10
34.5729
 20
81.7634
 11
34.8787
 21
82.1213
  0
LINE
  8
0
 10
34.8787
 20
82.1213
 11
35.2366
 21
82.427
  0
LINE
  8
0
 10
35.2366
 20
82.427
 11
35.638
 21
82.673
  0
LINE
  8
0
 10
35.638
 20
82.673
 11
36.0729
 21
82.8532
  0
LINE
  8
0
 10
36.0729
 20
82.8532
 11
36.5307
 21
82.9631
  0
LINE
  8
0
 10
36.5307
 20
82.9631
 11
37
 21
83
  0
LINE
  8
0
 10
37
 20
83
 11
37.4693
 21
82.9631
  0
LINE
  8
0
 10
37.4693
 20
82.9631
 11
37.927
 21
82.8532
  0
LINE
  8
0
 10
37.927
 20
82.8532
 11
38.362
 21
82.673
  0
LINE
  8
0
 10
38.362
 20
82.673
 11
38.7634
 21
82.427
  0
LINE
  8
0
 10
38.7634
 20
82.427
 11
39.1213
 21
82.1213
  0
LINE
  8
0
 10
39.1213
 20
82.1213
 11
39.427
 21
81.7634
  0
LINE
  8
0
 10
39.427
 20
81.7634
 11
39.673
 21
81.362
  0
LINE
  8
0
 10
39.673
 20
81.362
 11
39.8532
 21
80.927
  0
LINE
  8
0
 10
39.8532
 20
80.927
 11
39.9631
 21
80.4693
  0
LINE
  8
0
 10
39.9631
 20
80.4693
 11
40
 21
80
  0
LINE
  8
0
 10
40
 20
80
 11
39.9631
 21
79.5307
  0
LINE
  8
0
 10
39.9631
 20
79.5307
 11
39.8532
 21
79.0729
  0
LINE
  8
0
 10
39.8532
 20
79.0729
 11
39.673
 21
78.638
  0
LINE
  8
0
 10
39.673
 20
78.638
 11
39.427
 21
78.2366
  0
LINE
  8
0
 10
39.427
 20
78.2366
 11
39.1213
 21
77.8787
  0
LINE
  8
0
 10
39.1213
 20
77.8787
 11
38.7634
 21
77.5729
  0
LINE
  8
0
 10
38.7634
 20
77.5729
 11
38.362
 21
77.327
  0
LINE
  8
0
 10
38.362
 20
77.327
 11
37.927
 21
77.1468
  0
LINE
  8
0
 10
37.927
 20
77.1468
 11
37.4693
 21
77.0369
  0
LINE
  8
0
 10
37.4693
 20
77.0369
 11
37
 21
77
  0
LINE
  8
0
 10
37
 20
77
 11
36.5307
 21
77.0369
  0
LINE
  8
0
 10
171.531
 20
77.0369
 11
171.073
 21
77.1468
  0
LINE
  8
0
 10
171.073
 20
77.1468
 11
170.638
 21
77.327
  0
LINE
  8
0
 10
170.638
 20
77.327
 11
170.237
 21
77.5729
  0
LINE
  8
0
 10
170.237
 20
77.5729
 11
169.879
 21
77.8787
  0
LINE
  8
0
 10
169.879
 20
77.8787
 11
169.573
 21
78.2366
  0
LINE
  8
0
 10
169.573
 20
78.2366
 11
169.327
 21
78.638
  0
LINE
  8
0
 10
169.327
 20
78.638
 11
169.147
 21
79.0729
  0
LINE
  8
0
 10
169.147
 20
79.0729
 11
169.037
 21
79.5307
  0
LINE
  8
0
 10
169.037
 20
79.5307
 11
169
 21
80
  0
LINE
  8
0
 10
169
 20
80
 11
169.037
 21
80.4693
  0
LINE
  8
0
 10
169.037
 20
80.4693
 11
169.147
 21
80.927
  0
LINE
  8
0
 10
169.147
 20
80.927
 11
169.327
 21
81.362
  0
LINE
  8
0
 10
169.327
 20
81.362
 11
169.573
 21
81.7634
  0
LINE
  8
0
 10
169.573
 20
81.7634
 11
169.879
 21
82.1213
  0
LINE
  8
0
 10
169.879
 20
82.1213
 11
170.237
 21
82.427
  0
LINE
  8
0
 10
170.237
 20
82.427
 11
170.638
 21
82.673
  0
LINE
  8
0
 10
170.638
 20
82.673
 11
171.073
 21
82.8532
  0
LINE
  8
0
 10
171.073
 20
82.8532
 11
171.531
 21
82.9631
  0
LINE
  8
0
 10
171.531
 20
82.9631
 11
172
 21
83
  0
LINE
  8
0
 10
172
 20
83
 11
172.469
 21
82.9631
  0
LINE
  8
0
 10
172.469
 20
82.9631
 11
172.927
 21
82.8532
  0
LINE
  8
0
 10
172.927
 20
82.8532
 11
173.362
 21
82.673
  0
LINE
  8
0
 10
173.362
 20
82.673
 11
173.763
 21
82.427
  0
LINE
  8
0
 10
173.763
 20
82.427
 11
174.121
 21
82.1213
  0
LINE
  8
0
 10
174.121
 20
82.1213
 11
174.427
 21
81.7634
  0
LINE
  8
0
 10
174.427
 20
81.7634
 11
174.673
 21
81.362
  0
LINE
  8
0
 10
174.673
 20
81.362
 11
174.853
 21
80.927
  0
LINE
  8
0
 10
174.853
 20
80.927
 11
174.963
 21
80.4693
  0
LINE
  8
0
 10
174.963
 20
80.4693
 11
175
 21
80
  0
LINE
  8
0
 10
175
 20
80
 11
174.963
 21
79.5307
  0
LINE
  8
0
 10
174.963
 20
79.5307
 11
174.853
 21
79.0729
  0
LINE
  8
0
 10
174.853
 20
79.0729
 11
174.673
 21
78.638
  0
LINE
  8
0
 10
174.673
 20
78.638
 11
174.427
 21
78.2366
  0
LINE
  8
0
 10
174.427
 20
78.2366
 11
174.121
 21
77.8787
  0
LINE
  8
0
 10
174.121
 20
77.8787
 11
173.763
 21
77.5729
  0
LINE
  8
0
 10
173.763
 20
77.5729
 11
173.362
 21
77.327
  0
LINE
  8
0
 10
173.362
 20
77.327
 11
172.927
 21
77.1468
  0
LINE
  8
0
 10
172.927
 20
77.1468
 11
172.469
 21
77.0369
  0
LINE
  8
0
 10
172.469
 20
77.0369
 11
172
 21
77
  0
LINE
  8
0
 10
172
 20
77
 11
171.531
 21
77.0369
  0
LINE
  8
0
 10
109.296
 20
45.5554
 11
108.609
 21
45.7202
  0
LINE
  8
0
 10
108.609
 20
45.7202
 11
107.957
 21
45.9905
  0
LINE
  8
0
 10
107.957
 20
45.9905
 11
107.355
 21
46.3594
  0
LINE
  8
0
 10
107.355
 20
46.3594
 11
106.818
 21
46.818
  0
LINE
  8
0
 10
106.818
 20
46.818
 11
106.359
 21
47.355
  0
LINE
  8
0
 10
106.359
 20
47.355
 11
105.99
 21
47.957
  0
LINE
  8
0
 10
105.99
 20
47.957
 11
105.72
 21
48.6094
  0
LINE
  8
0
 10
105.72
 20
48.6094
 11
105.555
 21
49.296
  0
LINE
  8
0
 10
105.555
 20
49.296
 11
105.5
 21
50
  0
LINE
  8
0
 10
105.5
 20
50
 11
105.555
 21
50.7039
  0
LINE
  8
0
 10
105.555
 20
50.7039
 11
105.72
 21
51.3906
  0
LINE
  8
0
 10
105.72
 20
51.3906
 11
105.99
 21
52.043
  0
LINE
  8
0
 10
105.99
 20
52.043
 11
106.359
 21
52.645
  0
LINE
  8
0
 10
106.359
 20
52.645
 11
106.818
 21
53.182
  0
LINE
  8
0
 10
106.818
 20
53.182
 11
107.355
 21
53.6406
  0
LINE
  8
0
 10
107.355
 20
53.6406
 11
107.957
 21
54.0095
  0
LINE
  8
0
 10
107.957
 20
54.0095
 11
108.609
 21
54.2797
  0
LINE
  8
0
 10
108.609
 20
54.2797
 11
109.296
 21
54.4446
  0
LINE
  8
0
 10
109.296
 20
54.4446
 11
110
 21
54.5
  0
LINE
  8
0
 10
110
 20
54.5
 11
110.704
 21
54.4446
  0
LINE
  8
0
 10
110.704
 20
54.4446
 11
111.391
 21
54.2797
  0
LINE
  8
0
 10
111.391
 20
54.2797
 11
112.043
 21
54.0095
  0
LINE
  8
0
 10
112.043
 20
54.0095
 11
112.645
 21
53.6406
  0
LINE
  8
0
 10
112.645
 20
53.6406
 11
113.182
 21
53.182
  0
LINE
  8
0
 10
113.182
 20
53.182
 11
113.641
 21
52.645
  0
LINE
  8
0
 10
113.641
 20
52.645
 11
114.01
 21
52.043
  0
LINE
  8
0
 10
114.01
 20
52.043
 11
114.28
 21
51.3906
  0
LINE
  8
0
 10
114.28
 20
51.3906
 11
114.445
 21
50.7039
  0
LINE
  8
0
 10
114.445
 20
50.7039
 11
114.5
 21
50
  0
LINE
  8
0
 10
114.5
 20
50
 11
114.445
 21
49.296
  0
LINE
  8
0
 10
114.445
 20
49.296
 11
114.28
 21
48.6094
  0
LINE
  8
0
 10
114.28
 20
48.6094
 11
114.01
 21
47.957
  0
LINE
  8
0
 10
114.01
 20
47.957
 11
113.641
 21
47.355
  0
LINE
  8
0
 10
113.641
 20
47.355
 11
113.182
 21
46.818
  0
LINE
  8
0
 10
113.182
 20
46.818
 11
112.645
 21
46.3594
  0
LINE
  8
0
 10
112.645
 20
46.3594
 11
112.043
 21
45.9905
  0
LINE
  8
0
 10
112.043
 20
45.9905
 11
111.391
 21
45.7202
  0
LINE
  8
0
 10
111.391
 20
45.7202
 11
110.704
 21
45.5554
  0
LINE
  8
0
 10
110.704
 20
45.5554
 11
110
 21
45.5
  0
LINE
  8
0
 10
110
 20
45.5
 11
109.296
 21
45.5554
  0
LINE
  8
0
 10
19.296
 20
45.5554
 11
18.6094
 21
45.7202
  0
LINE
  8
0
 10
18.6094
 20
45.7202
 11
17.957
 21
45.9905
  0
LINE
  8
0
 10
17.957
 20
45.9905
 11
17.355
 21
46.3594
  0
LINE
  8
0
 10
17.355
 20
46.3594
 11
16.818
 21
46.818
  0
LINE
  8
0
 10
16.818
 20
46.818
 11
16.3594
 21
47.355
  0
LINE
  8
0
 10
16.3594
 20
47.355
 11
15.9905
 21
47.957
  0
LINE
  8
0
 10
15.9905
 20
47.957
 11
15.7202
 21
48.6094
  0
LINE
  8
0
 10
15.7202
 20
48.6094
 11
15.5554
 21
49.296
  0
LINE
  8
0
 10
15.5554
 20
49.296
 11
15.5
 21
50
  0
LINE
  8
0
 10
15.5
 20
50
 11
15.5554
 21
50.7039
  0
LINE
  8
0
 10
15.5554
 20
50.7039
 11
15.7202
 21
51.3906
  0
LINE
  8
0
 10
15.7202
 20
51.3906
 11
15.9905
 21
52.043
  0
LINE
  8
0
 10
15.9905
 20
52.043
 11
16.3594
 21
52.645
  0
LINE
  8
0
 10
16.3594
 20
52.645
 11
16.818
 21
53.182
  0
LINE
  8
0
 10
16.818
 20
53.182
 11
17.355
 21
53.6406
  0
LINE
  8
0
 10
17.355
 20
53.6406
 11
17.957
 21
54.0095
  0
LINE
  8
0
 10
17.957
 20
54.0095
 11
18.6094
 21
54.2797
  0
LINE
  8
0
 10
18.6094
 20
54.2797
 11
19.296
 21
54.4446
  0
LINE
  8
0
 10
19.296
 20
54.4446
 11
20
 21
54.5
  0
LINE
  8
0
 10
20
 20
54.5
 11
20.7039
 21
54.4446
  0
LINE
  8
0
 10
20.7039
 20
54.4446
 11
21.3906
 21
54.2797
  0
LINE
  8
0
 10
21.3906
 20
54.2797
 11
22.043
 21
54.0095
  0
LINE
  8
0
 10
22.043
 20
54.0095
 11
22.645
 21
53.6406
  0
LINE
  8
0
 10
22.645
 20
53.6406
 11
23.182
 21
53.182
  0
LINE
  8
0
 10
23.182
 20
53.182
 11
23.6406
 21
52.645
  0
LINE
  8
0
 10
23.6406
 20
52.645
 11
24.0095
 21
52.043
  0
LINE
  8
0
 10
24.0095
 20
52.043
 11
24.2797
 21
51.3906
  0
LINE
  8
0
 10
24.2797
 20
51.3906
 11
24.4446
 21
50.7039
  0
LINE
  8
0
 10
24.4446
 20
50.7039
 11
24.5
 21
50
  0
LINE
  8
0
 10
24.5
 20
50
 11
24.4446
 21
49.296
  0
LINE
  8
0
 10
24.4446
 20
49.296
 11
24.2797
 21
48.6094
  0
LINE
  8
0
 10
24.2797
 20
48.6094
 11
24.0095
 21
47.957
  0
LINE
  8
0
 10
24.0095
 20
47.957
 11
23.6406
 21
47.355
  0
LINE
  8
0
 10
23.6406
 20
47.355
 11
23.182
 21
46.818
  0
LINE
  8
0
 10
23.182
 20
46.818
 11
22.645
 21
46.3594
  0
LINE
  8
0
 10
22.645
 20
46.3594
 11
22.043
 21
45.9905
  0
LINE
  8
0
 10
22.043
 20
45.9905
 11
21.3906
 21
45.7202
  0
LINE
  8
0
 10
21.3906
 20
45.7202
 11
20.7039
 21
45.5554
  0
LINE
  8
0
 10
20.7039
 20
45.5554
 11
20
 21
45.5
  0
LINE
  8
0
 10
20
 20
45.5
 11
19.296
 21
45.5554
  0
LINE
  8
0
 10
64.296
 20
45.5554
 11
63.6094
 21
45.7202
  0
LINE
  8
0
 10
63.6094
 20
45.7202
 11
62.957
 21
45.9905
  0
LINE
  8
0
 10
62.957
 20
45.9905
 11
62.355
 21
46.3594
  0
LINE
  8
0
 10
62.355
 20
46.3594
 11
61.818
 21
46.818
  0
LINE
  8
0
 10
61.818
 20
46.818
 11
61.3594
 21
47.355
  0
LINE
  8
0
 10
61.3594
 20
47.355
 11
60.9905
 21
47.957
  0
LINE
  8
0
 10
60.9905
 20
47.957
 11
60.7202
 21
48.6094
  0
LINE
  8
0
 10
60.7202
 20
48.6094
 11
60.5554
 21
49.296
  0
LINE
  8
0
 10
60.5554
 20
49.296
 11
60.5
 21
50
  0
LINE
  8
0
 10
60.5
 20
50
 11
60.5554
 21
50.7039
  0
LINE
  8
0
 10
60.5554
 20
50.7039
 11
60.7202
 21
51.3906
  0
LINE
  8
0
 10
60.7202
 20
51.3906
 11
60.9905
 21
52.043
  0
LINE
  8
0
 10
60.9905
 20
52.043
 11
61.3594
 21
52.645
  0
LINE
  8
0
 10
61.3594
 20
52.645
 11
61.818
 21
53.182
  0
LINE
  8
0
 10
61.818
 20
53.182
 11
62.355
 21
53.6406
  0
LINE
  8
0
 10
62.355
 20
53.6406
 11
62.957
 21
54.0095
  0
LINE
  8
0
 10
62.957
 20
54.0095
 11
63.6094
 21
54.2797
  0
LINE
  8
0
 10
63.6094
 20
54.2797
 11
64.296
 21
54.4446
  0
LINE
  8
0
 10
64.296
 20
54.4446
 11
65
 21
54.5
  0
LINE
  8
0
 10
65
 20
54.5
 11
65.7039
 21
54.4446
  0
LINE
  8
0
 10
65.7039
 20
54.4446
 11
66.3906
 21
54.2797
  0
LINE
  8
0
 10
66.3906
 20
54.2797
 11
67.043
 21
54.0095
  0
LINE
  8
0
 10
67.043
 20
54.0095
 11
67.645
 21
53.6406
  0
LINE
  8
0
 10
67.645
 20
53.6406
 11
68.182
 21
53.182
  0
LINE
  8
0
 10
68.182
 20
53.182
 11
68.6406
 21
52.645
  0
LINE
  8
0
 10
68.6406
 20
52.645
 11
69.0095
 21
52.043
  0
LINE
  8
0
 10
69.0095
 20
52.043
 11
69.2797
 21
51.3906
  0
LINE
  8
0
 10
69.2797
 20
51.3906
 11
69.4446
 21
50.7039
  0
LINE
  8
0
 10
69.4446
 20
50.7039
 11
69.5
 21
50
  0
LINE
  8
0
 10
69.5
 20
50
 11
69.4446
 21
49.296
  0
LINE
  8
0
 10
69.4446
 20
49.296
 11
69.2797
 21
48.6094
  0
LINE
  8
0
 10
69.2797
 20
48.6094
 11
69.0095
 21
47.957
  0
LINE
  8
0
 10
69.0095
 20
47.957
 11
68.6406
 21
47.355
  0
LINE
  8
0
 10
68.6406
 20
47.355
 11
68.182
 21
46.818
  0
LINE
  8
0
 10
68.182
 20
46.818
 11
67.645
 21
46.3594
  0
LINE
  8
0
 10
67.645
 20
46.3594
 11
67.043
 21
45.9905
  0
LINE
  8
0
 10
67.043
 20
45.9905
 11
66.3906
 21
45.7202
  0
LINE
  8
0
 10
66.3906
 20
45.7202
 11
65.7039
 21
45.5554
  0
LINE
  8
0
 10
65.7039
 20
45.5554
 11
65
 21
45.5
  0
LINE
  8
0
 10
65
 20
45.5
 11
64.296
 21
45.5554
  0
LINE
  8
0
 10
154.296
 20
45.5554
 11
153.609
 21
45.7202
  0
LINE
  8
0
 10
153.609
 20
45.7202
 11
152.957
 21
45.9905
  0
LINE
  8
0
 10
152.957
 20
45.9905
 11
152.355
 21
46.3594
  0
LINE
  8
0
 10
152.355
 20
46.3594
 11
151.818
 21
46.818
  0
LINE
  8
0
 10
151.818
 20
46.818
 11
151.359
 21
47.355
  0
LINE
  8
0
 10
151.359
 20
47.355
 11
150.99
 21
47.957
  0
LINE
  8
0
 10
150.99
 20
47.957
 11
150.72
 21
48.6094
  0
LINE
  8
0
 10
150.72
 20
48.6094
 11
150.555
 21
49.296
  0
LINE
  8
0
 10
150.555
 20
49.296
 11
150.5
 21
50
  0
LINE
  8
0
 10
150.5
 20
50
 11
150.555
 21
50.7039
  0
LINE
  8
0
 10
150.555
 20
50.7039
 11
150.72
 21
51.3906
  0
LINE
  8
0
 10
150.72
 20
51.3906
 11
150.99
 21
52.043
  0
LINE
  8
0
 10
150.99
 20
52.043
 11
151.359
 21
52.645
  0
LINE
  8
0
 10
151.359
 20
52.645
 11
151.818
 21
53.182
  0
LINE
  8
0
 10
151.818
 20
53.182
 11
152.355
 21
53.6406
  0
LINE
  8
0
 10
152.355
 20
53.6406
 11
152.957
 21
54.0095
  0
LINE
  8
0
 10
152.957
 20
54.0095
 11
153.609
 21
54.2797
  0
LINE
  8
0
 10
153.609
 20
54.2797
 11
154.296
 21
54.4446
  0
LINE
  8
0
 10
154.296
 20
54.4446
 11
155
 21
54.5
  0
LINE
  8
0
 10
155
 20
54.5
 11
155.704
 21
54.4446
  0
LINE
  8
0
 10
155.704
 20
54.4446
 11
156.391
 21
54.2797
  0
LINE
  8
0
 10
156.391
 20
54.2797
 11
157.043
 21
54.0095
  0
LINE
  8
0
 10
157.043
 20
54.0095
 11
157.645
 21
53.6406
  0
LINE
  8
0
 10
157.645
 20
53.6406
 11
158.182
 21
53.182
  0
LINE
  8
0
 10
158.182
 20
53.182
 11
158.641
 21
52.645
  0
LINE
  8
0
 10
158.641
 20
52.645
 11
159.01
 21
52.043
  0
LINE
  8
0
 10
159.01
 20
52.043
 11
159.28
 21
51.3906
  0
LINE
  8
0
 10
159.28
 20
51.3906
 11
159.445
 21
50.7039
  0
LINE
  8
0
 10
159.445
 20
50.7039
 11
159.5
 21
50
  0
LINE
  8
0
 10
159.5
 20
50
 11
159.445
 21
49.296
  0
LINE
  8
0
 10
159.445
 20
49.296
 11
159.28
 21
48.6094
  0
LINE
  8
0
 10
159.28
 20
48.6094
 11
159.01
 21
47.957
  0
LINE
  8
0
 10
159.01
 20
47.957
 11
158.641
 21
47.355
  0
LINE
  8
0
 10
158.641
 20
47.355
 11
158.182
 21
46.818
  0
LINE
  8
0
 10
158.182
 20
46.818
 11
157.645
 21
46.3594
  0
LINE
  8
0
 10
157.645
 20
46.3594
 11
157.043
 21
45.9905
  0
LINE
  8
0
 10
157.043
 20
45.9905
 11
156.391
 21
45.7202
  0
LINE
  8
0
 10
156.391
 20
45.7202
 11
155.704
 21
45.5554
  0
LINE
  8
0
 10
155.704
 20
45.5554
 11
155
 21
45.5
  0
LINE
  8
0
 10
155
 20
45.5
 11
154.296
 21
45.5554
  0
LINE
  8
0
 10
244.296
 20
45.5554
 11
243.609
 21
45.7202
  0
LINE
  8
0
 10
243.609
 20
45.7202
 11
242.957
 21
45.9905
  0
LINE
  8
0
 10
242.957
 20
45.9905
 11
242.355
 21
46.3594
  0
LINE
  8
0
 10
242.355
 20
46.3594
 11
241.818
 21
46.818
  0
LINE
  8
0
 10
241.818
 20
46.818
 11
241.359
 21
47.355
  0
LINE
  8
0
 10
241.359
 20
47.355
 11
240.99
 21
47.957
  0
LINE
  8
0
 10
240.99
 20
47.957
 11
240.72
 21
48.6094
  0
LINE
  8
0
 10
240.72
 20
48.6094
 11
240.555
 21
49.296
  0
LINE
  8
0
 10
240.555
 20
49.296
 11
240.5
 21
50
  0
LINE
  8
0
 10
240.5
 20
50
 11
240.555
 21
50.7039
  0
LINE
  8
0
 10
240.555
 20
50.7039
 11
240.72
 21
51.3906
  0
LINE
  8
0
 10
240.72
 20
51.3906
 11
240.99
 21
52.043
  0
LINE
  8
0
 10
240.99
 20
52.043
 11
241.359
 21
52.645
  0
LINE
  8
0
 10
241.359
 20
52.645
 11
241.818
 21
53.182
  0
LINE
  8
0
 10
241.818
 20
53.182
 11
242.355
 21
53.6406
  0
LINE
  8
0
 10
242.355
 20
53.6406
 11
242.957
 21
54.0095
  0
LINE
  8
0
 10
242.957
 20
54.0095
 11
243.609
 21
54.2797
  0
LINE
  8
0
 10
243.609
 20
54.2797
 11
244.296
 21
54.4446
  0
LINE
  8
0
 10
244.296
 20
54.4446
 11
245
 21
54.5
  0
LINE
  8
0
 10
245
 20
54.5
 11
245.704
 21
54.4446
  0
LINE
  8
0
 10
245.704
 20
54.4446
 11
246.391
 21
54.2797
  0
LINE
  8
0
 10
246.391
 20
54.2797
 11
247.043
 21
54.0095
  0
LINE
  8
0
 10
247.043
 20
54.0095
 11
247.645
 21
53.6406
  0
LINE
  8
0
 10
247.645
 20
53.6406
 11
248.182
 21
53.182
  0
LINE
  8
0
 10
248.182
 20
53.182
 11
248.641
 21
52.645
  0
LINE
  8
0
 10
248.641
 20
52.645
 11
249.01
 21
52.043
  0
LINE
  8
0
 10
249.01
 20
52.043
 11
249.28
 21
51.3906
  0
LINE
  8
0
 10
249.28
 20
51.3906
 11
249.445
 21
50.7039
  0
LINE
  8
0
 10
249.445
 20
50.7039
 11
249.5
 21
50
  0
LINE
  8
0
 10
249.5
 20
50
 11
249.445
 21
49.296
  0
LINE
  8
0
 10
249.445
 20
49.296
 11
249.28
 21
48.6094
  0
LINE
  8
0
 10
249.28
 20
48.6094
 11
249.01
 21
47.957
  0
LINE
  8
0
 10
249.01
 20
47.957
 11
248.641
 21
47.355
  0
LINE
  8
0
 10
248.641
 20
47.355
 11
248.182
 21
46.818
  0
LINE
  8
0
 10
248.182
 20
46.818
 11
247.645
 21
46.3594
  0
LINE
  8
0
 10
247.645
 20
46.3594
 11
247.043
 21
45.9905
  0
LINE
  8
0
 10
247.043
 20
45.9905
 11
246.391
 21
45.7202
  0
LINE
  8
0
 10
246.391
 20
45.7202
 11
245.704
 21
45.5554
  0
LINE
  8
0
 10
245.704
 20
45.5554
 11
245
 21
45.5
  0
LINE
  8
0
 10
245
 20
45.5
 11
244.296
 21
45.5554
  0
LINE
  8
0
 10
199.296
 20
45.5554
 11
198.609
 21
45.7202
  0
LINE
  8
0
 10
198.609
 20
45.7202
 11
197.957
 21
45.9905
  0
LINE
  8
0
 10
197.957
 20
45.9905
 11
197.355
 21
46.3594
  0
LINE
  8
0
 10
197.355
 20
46.3594
 11
196.818
 21
46.818
  0
LINE
  8
0
 10
196.818
 20
46.818
 11
196.359
 21
47.355
  0
LINE
  8
0
 10
196.359
 20
47.355
 11
195.99
 21
47.957
  0
LINE
  8
0
 10
195.99
 20
47.957
 11
195.72
 21
48.6094
  0
LINE
  8
0
 10
195.72
 20
48.6094
 11
195.555
 21
49.296
  0
LINE
  8
0
 10
195.555
 20
49.296
 11
195.5
 21
50
  0
LINE
  8
0
 10
195.5
 20
50
 11
195.555
 21
50.7039
  0
LINE
  8
0
 10
195.555
 20
50.7039
 11
195.72
 21
51.3906
  0
LINE
  8
0
 10
195.72
 20
51.3906
 11
195.99
 21
52.043
  0
LINE
  8
0
 10
195.99
 20
52.043
 11
196.359
 21
52.645
  0
LINE
  8
0
 10
196.359
 20
52.645
 11
196.818
 21
53.182
  0
LINE
  8
0
 10
196.818
 20
53.182
 11
197.355
 21
53.6406
  0
LINE
  8
0
 10
197.355
 20
53.6406
 11
197.957
 21
54.0095
  0
LINE
  8
0
 10
197.957
 20
54.0095
 11
198.609
 21
54.2797
  0
LINE
  8
0
 10
198.609
 20
54.2797
 11
199.296
 21
54.4446
  0
LINE
  8
0
 10
199.296
 20
54.4446
 11
200
 21
54.5
  0
LINE
  8
0
 10
200
 20
54.5
 11
200.704
 21
54.4446
  0
LINE
  8
0
 10
200.704
 20
54.4446
 11
201.391
 21
54.2797
  0
LINE
  8
0
 10
201.391
 20
54.2797
 11
202.043
 21
54.0095
  0
LINE
  8
0
 10
202.043
 20
54.0095
 11
202.645
 21
53.6406
  0
LINE
  8
0
 10
202.645
 20
53.6406
 11
203.182
 21
53.182
  0
LINE
  8
0
 10
203.182
 20
53.182
 11
203.641
 21
52.645
  0
LINE
  8
0
 10
203.641
 20
52.645
 11
204.01
 21
52.043
  0
LINE
  8
0
 10
204.01
 20
52.043
 11
204.28
 21
51.3906
  0
LINE
  8
0
 10
204.28
 20
51.3906
 11
204.445
 21
50.7039
  0
LINE
  8
0
 10
204.445
 20
50.7039
 11
204.5
 21
50
  0
LINE
  8
0
 10
204.5
 20
50
 11
204.445
 21
49.296
  0
LINE
  8
0
 10
204.445
 20
49.296
 11
204.28
 21
48.6094
  0
LINE
  8
0
 10
204.28
 20
48.6094
 11
204.01
 21
47.957
  0
LINE
  8
0
 10
204.01
 20
47.957
 11
203.641
 21
47.355
  0
LINE
  8
0
 10
203.641
 20
47.355
 11
203.182
 21
46.818
  0
LINE
  8
0
 10
203.182
 20
46.818
 11
202.645
 21
46.3594
  0
LINE
  8
0
 10
202.645
 20
46.3594
 11
202.043
 21
45.9905
  0
LINE
  8
0
 10
202.043
 20
45.9905
 11
201.391
 21
45.7202
  0
LINE
  8
0
 10
201.391
 20
45.7202
 11
200.704
 21
45.5554
  0
LINE
  8
0
 10
200.704
 20
45.5554
 11
200
 21
45.5
  0
LINE
  8
0
 10
200
 20
45.5
 11
199.296
 21
45.5554
  0
LINE
  8
0
 10
216.531
 20
47.0369
 11
216.073
 21
47.1468
  0
LINE
  8
0
 10
216.073
 20
47.1468
 11
215.638
 21
47.327
  0
LINE
  8
0
 10
215.638
 20
47.327
 11
215.237
 21
47.5729
  0
LINE
  8
0
 10
215.237
 20
47.5729
 11
214.879
 21
47.8787
  0
LINE
  8
0
 10
214.879
 20
47.8787
 11
214.573
 21
48.2366
  0
LINE
  8
0
 10
214.573
 20
48.2366
 11
214.327
 21
48.638
  0
LINE
  8
0
 10
214.327
 20
48.638
 11
214.147
 21
49.0729
  0
LINE
  8
0
 10
214.147
 20
49.0729
 11
214.037
 21
49.5307
  0
LINE
  8
0
 10
214.037
 20
49.5307
 11
214
 21
50
  0
LINE
  8
0
 10
214
 20
50
 11
214.037
 21
50.4693
  0
LINE
  8
0
 10
214.037
 20
50.4693
 11
214.147
 21
50.927
  0
LINE
  8
0
 10
214.147
 20
50.927
 11
214.327
 21
51.362
  0
LINE
  8
0
 10
214.327
 20
51.362
 11
214.573
 21
51.7634
  0
LINE
  8
0
 10
214.573
 20
51.7634
 11
214.879
 21
52.1213
  0
LINE
  8
0
 10
214.879
 20
52.1213
 11
215.237
 21
52.427
  0
LINE
  8
0
 10
215.237
 20
52.427
 11
215.638
 21
52.673
  0
LINE
  8
0
 10
215.638
 20
52.673
 11
216.073
 21
52.8532
  0
LINE
  8
0
 10
216.073
 20
52.8532
 11
216.531
 21
52.9631
  0
LINE
  8
0
 10
216.531
 20
52.9631
 11
217
 21
53
  0
LINE
  8
0
 10
217
 20
53
 11
217.469
 21
52.9631
  0
LINE
  8
0
 10
217.469
 20
52.9631
 11
217.927
 21
52.8532
  0
LINE
  8
0
 10
217.927
 20
52.8532
 11
218.362
 21
52.673
  0
LINE
  8
0
 10
218.362
 20
52.673
 11
218.763
 21
52.427
  0
LINE
  8
0
 10
218.763
 20
52.427
 11
219.121
 21
52.1213
  0
LINE
  8
0
 10
219.121
 20
52.1213
 11
219.427
 21
51.7634
  0
LINE
  8
0
 10
219.427
 20
51.7634
 11
219.673
 21
51.362
  0
LINE
  8
0
 10
219.673
 20
51.362
 11
219.853
 21
50.927
  0
LINE
  8
0
 10
219.853
 20
50.927
 11
219.963
 21
50.4693
  0
LINE
  8
0
 10
219.963
 20
50.4693
 11
220
 21
50
  0
LINE
  8
0
 10
220
 20
50
 11
219.963
 21
49.5307
  0
LINE
  8
0
 10
219.963
 20
49.5307
 11
219.853
 21
49.0729
  0
LINE
  8
0
 10
219.853
 20
49.0729
 11
219.673
 21
48.638
  0
LINE
  8
0
 10
219.673
 20
48.638
 11
219.427
 21
48.2366
  0
LINE
  8
0
 10
219.427
 20
48.2366
 11
219.121
 21
47.8787
  0
LINE
  8
0
 10
219.121
 20
47.8787
 11
218.763
 21
47.5729
  0
LINE
  8
0
 10
218.763
 20
47.5729
 11
218.362
 21
47.327
  0
LINE
  8
0
 10
218.362
 20
47.327
 11
217.927
 21
47.1468
  0
LINE
  8
0
 10
217.927
 20
47.1468
 11
217.469
 21
47.0369
  0
LINE
  8
0
 10
217.469
 20
47.0369
 11
217
 21
47
  0
LINE
  8
0
 10
217
 20
47
 11
216.531
 21
47.0369
  0
LINE
  8
0
 10
81.5307
 20
47.0369
 11
81.0729
 21
47.1468
  0
LINE
  8
0
 10
81.0729
 20
47.1468
 11
80.638
 21
47.327
  0
LINE
  8
0
 10
80.638
 20
47.327
 11
80.2366
 21
47.5729
  0
LINE
  8
0
 10
80.2366
 20
47.5729
 11
79.8787
 21
47.8787
  0
LINE
  8
0
 10
79.8787
 20
47.8787
 11
79.5729
 21
48.2366
  0
LINE
  8
0
 10
79.5729
 20
48.2366
 11
79.327
 21
48.638
  0
LINE
  8
0
 10
79.327
 20
48.638
 11
79.1468
 21
49.0729
  0
LINE
  8
0
 10
79.1468
 20
49.0729
 11
79.0369
 21
49.5307
  0
LINE
  8
0
 10
79.0369
 20
49.5307
 11
79
 21
50
  0
LINE
  8
0
 10
79
 20
50
 11
79.0369
 21
50.4693
  0
LINE
  8
0
 10
79.0369
 20
50.4693
 11
79.1468
 21
50.927
  0
LINE
  8
0
 10
79.1468
 20
50.927
 11
79.327
 21
51.362
  0
LINE
  8
0
 10
79.327
 20
51.362
 11
79.5729
 21
51.7634
  0
LINE
  8
0
 10
79.5729
 20
51.7634
 11
79.8787
 21
52.1213
  0
LINE
  8
0
 10
79.8787
 20
52.1213
 11
80.2366
 21
52.427
  0
LINE
  8
0
 10
80.2366
 20
52.427
 11
80.638
 21
52.673
  0
LINE
  8
0
 10
80.638
 20
52.673
 11
81.0729
 21
52.8532
  0
LINE
  8
0
 10
81.0729
 20
52.8532
 11
81.5307
 21
52.9631
  0
LINE
  8
0
 10
81.5307
 20
52.9631
 11
82
 21
53
  0
LINE
  8
0
 10
82
 20
53
 11
82.4693
 21
52.9631
  0
LINE
  8
0
 10
82.4693
 20
52.9631
 11
82.927
 21
52.8532
  0
LINE
  8
0
 10
82.927
 20
52.8532
 11
83.362
 21
52.673
  0
LINE
  8
0
 10
83.362
 20
52.673
 11
83.7634
 21
52.427
  0
LINE
  8
0
 10
83.7634
 20
52.427
 11
84.1213
 21
52.1213
  0
LINE
  8
0
 10
84.1213
 20
52.1213
 11
84.427
 21
51.7634
  0
LINE
  8
0
 10
84.427
 20
51.7634
 11
84.673
 21
51.362
  0
LINE
  8
0
 10
84.673
 20
51.362
 11
84.8532
 21
50.927
  0
LINE
  8
0
 10
84.8532
 20
50.927
 11
84.9631
 21
50.4693
  0
LINE
  8
0
 10
84.9631
 20
50.4693
 11
85
 21
50
  0
LINE
  8
0
 10
85
 20
50
 11
84.9631
 21
49.5307
  0
LINE
  8
0
 10
84.9631
 20
49.5307
 11
84.8532
 21
49.0729
  0
LINE
  8
0
 10
84.8532
 20
49.0729
 11
84.673
 21
48.638
  0
LINE
  8
0
 10
84.673
 20
48.638
 11
84.427
 21
48.2366
  0
LINE
  8
0
 10
84.427
 20
48.2366
 11
84.1213
 21
47.8787
  0
LINE
  8
0
 10
84.1213
 20
47.8787
 11
83.7634
 21
47.5729
  0
LINE
  8
0
 10
83.7634
 20
47.5729
 11
83.362
 21
47.327
  0
LINE
  8
0
 10
83.362
 20
47.327
 11
82.927
 21
47.1468
  0
LINE
  8
0
 10
82.927
 20
47.1468
 11
82.4693
 21
47.0369
  0
LINE
  8
0
 10
82.4693
 20
47.0369
 11
82
 21
47
  0
LINE
  8
0
 10
82
 20
47
 11
81.5307
 21
47.0369
  0
LINE
  8
0
 10
36.5307
 20
47.0369
 11
36.0729
 21
47.1468
  0
LINE
  8
0
 10
36.0729
 20
47.1468
 11
35.638
 21
47.327
  0
LINE
  8
0
 10
35.638
 20
47.327
 11
35.2366
 21
47.5729
  0
LINE
  8
0
 10
35.2366
 20
47.5729
 11
34.8787
 21
47.8787
  0
LINE
  8
0
 10
34.8787
 20
47.8787
 11
34.5729
 21
48.2366
  0
LINE
  8
0
 10
34.5729
 20
48.2366
 11
34.327
 21
48.638
  0
LINE
  8
0
 10
34.327
 20
48.638
 11
34.1468
 21
49.0729
  0
LINE
  8
0
 10
34.1468
 20
49.0729
 11
34.0369
 21
49.5307
  0
LINE
  8
0
 10
34.0369
 20
49.5307
 11
34
 21
50
  0
LINE
  8
0
 10
34
 20
50
 11
34.0369
 21
50.4693
  0
LINE
  8
0
 10
34.0369
 20
50.4693
 11
34.1468
 21
50.927
  0
LINE
  8
0
 10
34.1468
 20
50.927
 11
34.327
 21
51.362
  0
LINE
  8
0
 10
34.327
 20
51.362
 11
34.5729
 21
51.7634
  0
LINE
  8
0
 10
34.5729
 20
51.7634
 11
34.8787
 21
52.1213
  0
LINE
  8
0
 10
34.8787
 20
52.1213
 11
35.2366
 21
52.427
  0
LINE
  8
0
 10
35.2366
 20
52.427
 11
35.638
 21
52.673
  0
LINE
  8
0
 10
35.638
 20
52.673
 11
36.0729
 21
52.8532
  0
LINE
  8
0
 10
36.0729
 20
52.8532
 11
36.5307
 21
52.9631
  0
LINE
  8
0
 10
36.5307
 20
52.9631
 11
37
 21
53
  0
LINE
  8
0
 10
37
 20
53
 11
37.4693
 21
52.9631
  0
LINE
  8
0
 10
37.4693
 20
52.9631
 11
37.927
 21
52.8532
  0
LINE
  8
0
 10
37.927
 20
52.8532
 11
38.362
 21
52.673
  0
LINE
  8
0
 10
38.362
 20
52.673
 11
38.7634
 21
52.427
  0
LINE
  8
0
 10
38.7634
 20
52.427
 11
39.1213
 21
52.1213
  0
LINE
  8
0
 10
39.1213
 20
52.1213
 11
39.427
 21
51.7634
  0
LINE
  8
0
 10
39.427
 20
51.7634
 11
39.673
 21
51.362
  0
LINE
  8
0
 10
39.673
 20
51.362
 11
39.8532
 21
50.927
  0
LINE
  8
0
 10
39.8532
 20
50.927
 11
39.9631
 21
50.4693
  0
LINE
  8
0
 10
39.9631
 20
50.4693
 11
40
 21
50
  0
LINE
  8
0
 10
40
 20
50
 11
39.9631
 21
49.5307
  0
LINE
  8
0
 10
39.9631
 20
49.5307
 11
39.8532
 21
49.0729
  0
LINE
  8
0
 10
39.8532
 20
49.0729
 11
39.673
 21
48.638
  0
LINE
  8
0
 10
39.673
 20
48.638
 11
39.427
 21
48.2366
  0
LINE
  8
0
 10
39.427
 20
48.2366
 11
39.1213
 21
47.8787
  0
LINE
  8
0
 10
39.1213
 20
47.8787
 11
38.7634
 21
47.5729
  0
LINE
  8
0
 10
38.7634
 20
47.5729
 11
38.362
 21
47.327
  0
LINE
  8
0
 10
38.362
 20
47.327
 11
37.927
 21
47.1468
  0
LINE
  8
0
 10
37.927
 20
47.1468
 11
37.4693
 21
47.0369
  0
LINE
  8
0
 10
37.4693
 20
47.0369
 11
37
 21
47
  0
LINE
  8
0
 10
37
 20
47
 11
36.5307
 21
47.0369
  0
LINE
  8
0
 10
171.531
 20
47.0369
 11
171.073
 21
47.1468
  0
LINE
  8
0
 10
171.073
 20
47.1468
 11
170.638
 21
47.327
  0
LINE
  8
0
 10
170.638
 20
47.327
 11
170.237
 21
47.5729
  0
LINE
  8
0
 10
170.237
 20
47.5729
 11
169.879
 21
47.8787
  0
LINE
  8
0
 10
169.879
 20
47.8787
 11
169.573
 21
48.2366
  0
LINE
  8
0
 10
169.573
 20
48.2366
 11
169.327
 21
48.638
  0
LINE
  8
0
 10
169.327
 20
48.638
 11
169.147
 21
49.0729
  0
LINE
  8
0
 10
169.147
 20
49.0729
 11
169.037
 21
49.5307
  0
LINE
  8
0
 10
169.037
 20
49.5307
 11
169
 21
50
  0
LINE
  8
0
 10
169
 20
50
 11
169.037
 21
50.4693
  0
LINE
  8
0
 10
169.037
 20
50.4693
 11
169.147
 21
50.927
  0
LINE
  8
0
 10
169.147
 20
50.927
 11
169.327
 21
51.362
  0
LINE
  8
0
 10
169.327
 20
51.362
 11
169.573
 21
51.7634
  0
LINE
  8
0
 10
169.573
 20
51.7634
 11
169.879
 21
52.1213
  0
LINE
  8
0
 10
169.879
 20
52.1213
 11
170.237
 21
52.427
  0
LINE
  8
0
 10
170.237
 20
52.427
 11
170.638
 21
52.673
  0
LINE
  8
0
 10
170.638
 20
52.673
 11
171.073
 21
52.8532
  0
LINE
  8
0
 10
171.073
 20
52.8532
 11
171.531
 21
52.9631
  0
LINE
  8
0
 10
171.531
 20
52.9631
 11
172
 21
53
  0
LINE
  8
0
 10
172
 20
53
 11
172.469
 21
52.9631
  0
LINE
  8
0
 10
172.469
 20
52.9631
 11
172.927
 21
52.8532
  0
LINE
  8
0
 10
172.927
 20
52.8532
 11
173.362
 21
52.673
  0
LINE
  8
0
 10
173.362
 20
52.673
 11
173.763
 21
52.427
  0
LINE
  8
0
 10
173.763
 20
52.427
 11
174.121
 21
52.1213
  0
LINE
  8
0
 10
174.121
 20
52.1213
 11
174.427
 21
51.7634
  0
LINE
  8
0
 10
174.427
 20
51.7634
 11
174.673
 21
51.362
  0
LINE
  8
0
 10
174.673
 20
51.362
 11
174.853
 21
50.927
  0
LINE
  8
0
 10
174.853
 20
50.927
 11
174.963
 21
50.4693
  0
LINE
  8
0
 10
174.963
 20
50.4693
 11
175
 21
50
  0
LINE
  8
0
 10
175
 20
50
 11
174.963
 21
49.5307
  0
LINE
  8
0
 10
174.963
 20
49.5307
 11
174.853
 21
49.0729
  0
LINE
  8
0
 10
174.853
 20
49.0729
 11
174.673
 21
48.638
  0
LINE
  8
0
 10
174.673
 20
48.638
 11
174.427
 21
48.2366
  0
LINE
  8
0
 10
174.427
 20
48.2366
 11
174.121
 21
47.8787
  0
LINE
  8
0
 10
174.121
 20
47.8787
 11
173.763
 21
47.5729
  0
LINE
  8
0
 10
173.763
 20
47.5729
 11
173.362
 21
47.327
  0
LINE
  8
0
 10
173.362
 20
47.327
 11
172.927
 21
47.1468
  0
LINE
  8
0
 10
172.927
 20
47.1468
 11
172.469
 21
47.0369
  0
LINE
  8
0
 10
172.469
 20
47.0369
 11
172
 21
47
  0
LINE
  8
0
 10
172
 20
47
 11
171.531
 21
47.0369
  0
LINE
  8
0
 10
126.531
 20
47.0369
 11
126.073
 21
47.1468
  0
LINE
  8
0
 10
126.073
 20
47.1468
 11
125.638
 21
47.327
  0
LINE
  8
0
 10
125.638
 20
47.327
 11
125.237
 21
47.5729
  0
LINE
  8
0
 10
125.237
 20
47.5729
 11
124.879
 21
47.8787
  0
LINE
  8
0
 10
124.879
 20
47.8787
 11
124.573
 21
48.2366
  0
LINE
  8
0
 10
124.573
 20
48.2366
 11
124.327
 21
48.638
  0
LINE
  8
0
 10
124.327
 20
48.638
 11
124.147
 21
49.0729
  0
LINE
  8
0
 10
124.147
 20
49.0729
 11
124.037
 21
49.5307
  0
LINE
  8
0
 10
124.037
 20
49.5307
 11
124
 21
50
  0
LINE
  8
0
 10
124
 20
50
 11
124.037
 21
50.4693
  0
LINE
  8
0
 10
124.037
 20
50.4693
 11
124.147
 21
50.927
  0
LINE
  8
0
 10
124.147
 20
50.927
 11
124.327
 21
51.362
  0
LINE
  8
0
 10
124.327
 20
51.362
 11
124.573
 21
51.7634
  0
LINE
  8
0
 10
124.573
 20
51.7634
 11
124.879
 21
52.1213
  0
LINE
  8
0
 10
124.879
 20
52.1213
 11
125.237
 21
52.427
  0
LINE
  8
0
 10
125.237
 20
52.427
 11
125.638
 21
52.673
  0
LINE
  8
0
 10
125.638
 20
52.673
 11
126.073
 21
52.8532
  0
LINE
  8
0
 10
126.073
 20
52.8532
 11
126.531
 21
52.9631
  0
LINE
  8
0
 10
126.531
 20
52.9631
 11
127
 21
53
  0
LINE
  8
0
 10
127
 20
53
 11
127.469
 21
52.9631
  0
LINE
  8
0
 10
127.469
 20
52.9631
 11
127.927
 21
52.8532
  0
LINE
  8
0
 10
127.927
 20
52.8532
 11
128.362
 21
52.673
  0
LINE
  8
0
 10
128.362
 20
52.673
 11
128.763
 21
52.427
  0
LINE
  8
0
 10
128.763
 20
52.427
 11
129.121
 21
52.1213
  0
LINE
  8
0
 10
129.121
 20
52.1213
 11
129.427
 21
51.7634
  0
LINE
  8
0
 10
129.427
 20
51.7634
 11
129.673
 21
51.362
  0
LINE
  8
0
 10
129.673
 20
51.362
 11
129.853
 21
50.927
  0
LINE
  8
0
 10
129.853
 20
50.927
 11
129.963
 21
50.4693
  0
LINE
  8
0
 10
129.963
 20
50.4693
 11
130
 21
50
  0
LINE
  8
0
 10
130
 20
50
 11
129.963
 21
49.5307
  0
LINE
  8
0
 10
129.963
 20
49.5307
 11
129.853
 21
49.0729
  0
LINE
  8
0
 10
129.853
 20
49.0729
 11
129.673
 21
48.638
  0
LINE
  8
0
 10
129.673
 20
48.638
 11
129.427
 21
48.2366
  0
LINE
  8
0
 10
129.427
 20
48.2366
 11
129.121
 21
47.8787
  0
LINE
  8
0
 10
129.121
 20
47.8787
 11
128.763
 21
47.5729
  0
LINE
  8
0
 10
128.763
 20
47.5729
 11
128.362
 21
47.327
  0
LINE
  8
0
 10
128.362
 20
47.327
 11
127.927
 21
47.1468
  0
LINE
  8
0
 10
127.927
 20
47.1468
 11
127.469
 21
47.0369
  0
LINE
  8
0
 10
127.469
 20
47.0369
 11
127
 21
47
  0
LINE
  8
0
 10
127
 20
47
 11
126.531
 21
47.0369
  0
LINE
  8
0
 10
261.531
 20
47.0369
 11
261.073
 21
47.1468
  0
LINE
  8
0
 10
261.073
 20
47.1468
 11
260.638
 21
47.327
  0
LINE
  8
0
 10
260.638
 20
47.327
 11
260.237
 21
47.5729
  0
LINE
  8
0
 10
260.237
 20
47.5729
 11
259.879
 21
47.8787
  0
LINE
  8
0
 10
259.879
 20
47.8787
 11
259.573
 21
48.2366
  0
LINE
  8
0
 10
259.573
 20
48.2366
 11
259.327
 21
48.638
  0
LINE
  8
0
 10
259.327
 20
48.638
 11
259.147
 21
49.0729
  0
LINE
  8
0
 10
259.147
 20
49.0729
 11
259.037
 21
49.5307
  0
LINE
  8
0
 10
259.037
 20
49.5307
 11
259
 21
50
  0
LINE
  8
0
 10
259
 20
50
 11
259.037
 21
50.4693
  0
LINE
  8
0
 10
259.037
 20
50.4693
 11
259.147
 21
50.927
  0
LINE
  8
0
 10
259.147
 20
50.927
 11
259.327
 21
51.362
  0
LINE
  8
0
 10
259.327
 20
51.362
 11
259.573
 21
51.7634
  0
LINE
  8
0
 10
259.573
 20
51.7634
 11
259.879
 21
52.1213
  0
LINE
  8
0
 10
259.879
 20
52.1213
 11
260.237
 21
52.427
  0
LINE
  8
0
 10
260.237
 20
52.427
 11
260.638
 21
52.673
  0
LINE
  8
0
 10
260.638
 20
52.673
 11
261.073
 21
52.8532
  0
LINE
  8
0
 10
261.073
 20
52.8532
 11
261.531
 21
52.9631
  0
LINE
  8
0
 10
261.531
 20
52.9631
 11
262
 21
53
  0
LINE
  8
0
 10
262
 20
53
 11
262.469
 21
52.9631
  0
LINE
  8
0
 10
262.469
 20
52.9631
 11
262.927
 21
52.8532
  0
LINE
  8
0
 10
262.927
 20
52.8532
 11
263.362
 21
52.673
  0
LINE
  8
0
 10
263.362
 20
52.673
 11
263.763
 21
52.427
  0
LINE
  8
0
 10
263.763
 20
52.427
 11
264.121
 21
52.1213
  0
LINE
  8
0
 10
264.121
 20
52.1213
 11
264.427
 21
51.7634
  0
LINE
  8
0
 10
264.427
 20
51.7634
 11
264.673
 21
51.362
  0
LINE
  8
0
 10
264.673
 20
51.362
 11
264.853
 21
50.927
  0
LINE
  8
0
 10
264.853
 20
50.927
 11
264.963
 21
50.4693
  0
LINE
  8
0
 10
264.963
 20
50.4693
 11
265
 21
50
  0
LINE
  8
0
 10
265
 20
50
 11
264.963
 21
49.5307
  0
LINE
  8
0
 10
264.963
 20
49.5307
 11
264.853
 21
49.0729
  0
LINE
  8
0
 10
264.853
 20
49.0729
 11
264.673
 21
48.638
  0
LINE
  8
0
 10
264.673
 20
48.638
 11
264.427
 21
48.2366
  0
LINE
  8
0
 10
264.427
 20
48.2366
 11
264.121
 21
47.8787
  0
LINE
  8
0
 10
264.121
 20
47.8787
 11
263.763
 21
47.5729
  0
LINE
  8
0
 10
263.763
 20
47.5729
 11
263.362
 21
47.327
  0
LINE
  8
0
 10
263.362
 20
47.327
 11
262.927
 21
47.1468
  0
LINE
  8
0
 10
262.927
 20
47.1468
 11
262.469
 21
47.0369
  0
LINE
  8
0
 10
262.469
 20
47.0369
 11
262
 21
47
  0
LINE
  8
0
 10
262
 20
47
 11
261.531
 21
47.0369
  0
LINE
  8
0
 10
244.296
 20
15.5554
 11
243.609
 21
15.7202
  0
LINE
  8
0
 10
243.609
 20
15.7202
 11
242.957
 21
15.9905
  0
LINE
  8
0
 10
242.957
 20
15.9905
 11
242.355
 21
16.3594
  0
LINE
  8
0
 10
242.355
 20
16.3594
 11
241.818
 21
16.818
  0
LINE
  8
0
 10
241.818
 20
16.818
 11
241.359
 21
17.355
  0
LINE
  8
0
 10
241.359
 20
17.355
 11
240.99
 21
17.957
  0
LINE
  8
0
 10
240.99
 20
17.957
 11
240.72
 21
18.6094
  0
LINE
  8
0
 10
240.72
 20
18.6094
 11
240.555
 21
19.296
  0
LINE
  8
0
 10
240.555
 20
19.296
 11
240.5
 21
20
  0
LINE
  8
0
 10
240.5
 20
20
 11
240.555
 21
20.7039
  0
LINE
  8
0
 10
240.555
 20
20.7039
 11
240.72
 21
21.3906
  0
LINE
  8
0
 10
240.72
 20
21.3906
 11
240.99
 21
22.043
  0
LINE
  8
0
 10
240.99
 20
22.043
 11
241.359
 21
22.645
  0
LINE
  8
0
 10
241.359
 20
22.645
 11
241.818
 21
23.182
  0
LINE
  8
0
 10
241.818
 20
23.182
 11
242.355
 21
23.6406
  0
LINE
  8
0
 10
242.355
 20
23.6406
 11
242.957
 21
24.0095
  0
LINE
  8
0
 10
242.957
 20
24.0095
 11
243.609
 21
24.2797
  0
LINE
  8
0
 10
243.609
 20
24.2797
 11
244.296
 21
24.4446
  0
LINE
  8
0
 10
244.296
 20
24.4446
 11
245
 21
24.5
  0
LINE
  8
0
 10
245
 20
24.5
 11
245.704
 21
24.4446
  0
LINE
  8
0
 10
245.704
 20
24.4446
 11
246.391
 21
24.2797
  0
LINE
  8
0
 10
246.391
 20
24.2797
 11
247.043
 21
24.0095
  0
LINE
  8
0
 10
247.043
 20
24.0095
 11
247.645
 21
23.6406
  0
LINE
  8
0
 10
247.645
 20
23.6406
 11
248.182
 21
23.182
  0
LINE
  8
0
 10
248.182
 20
23.182
 11
248.641
 21
22.645
  0
LINE
  8
0
 10
248.641
 20
22.645
 11
249.01
 21
22.043
  0
LINE
  8
0
 10
249.01
 20
22.043
 11
249.28
 21
21.3906
  0
LINE
  8
0
 10
249.28
 20
21.3906
 11
249.445
 21
20.7039
  0
LINE
  8
0
 10
249.445
 20
20.7039
 11
249.5
 21
20
  0
LINE
  8
0
 10
249.5
 20
20
 11
249.445
 21
19.296
  0
LINE
  8
0
 10
249.445
 20
19.296
 11
249.28
 21
18.6094
  0
LINE
  8
0
 10
249.28
 20
18.6094
 11
249.01
 21
17.957
  0
LINE
  8
0
 10
249.01
 20
17.957
 11
248.641
 21
17.355
  0
LINE
  8
0
 10
248.641
 20
17.355
 11
248.182
 21
16.818
  0
LINE
  8
0
 10
248.182
 20
16.818
 11
247.645
 21
16.3594
  0
LINE
  8
0
 10
247.645
 20
16.3594
 11
247.043
 21
15.9905
  0
LINE
  8
0
 10
247.043
 20
15.9905
 11
246.391
 21
15.7202
  0
LINE
  8
0
 10
246.391
 20
15.7202
 11
245.704
 21
15.5554
  0
LINE
  8
0
 10
245.704
 20
15.5554
 11
245
 21
15.5
  0
LINE
  8
0
 10
245
 20
15.5
 11
244.296
 21
15.5554
  0
LINE
  8
0
 10
19.296
 20
15.5554
 11
18.6094
 21
15.7202
  0
LINE
  8
0
 10
18.6094
 20
15.7202
 11
17.957
 21
15.9905
  0
LINE
  8
0
 10
17.957
 20
15.9905
 11
17.355
 21
16.3594
  0
LINE
  8
0
 10
17.355
 20
16.3594
 11
16.818
 21
16.818
  0
LINE
  8
0
 10
16.818
 20
16.818
 11
16.3594
 21
17.355
  0
LINE
  8
0
 10
16.3594
 20
17.355
 11
15.9905
 21
17.957
  0
LINE
  8
0
 10
15.9905
 20
17.957
 11
15.7202
 21
18.6094
  0
LINE
  8
0
 10
15.7202
 20
18.6094
 11
15.5554
 21
19.296
  0
LINE
  8
0
 10
15.5554
 20
19.296
 11
15.5
 21
20
  0
LINE
  8
0
 10
15.5
 20
20
 11
15.5554
 21
20.7039
  0
LINE
  8
0
 10
15.5554
 20
20.7039
 11
15.7202
 21
21.3906
  0
LINE
  8
0
 10
15.7202
 20
21.3906
 11
15.9905
 21
22.043
  0
LINE
  8
0
 10
15.9905
 20
22.043
 11
16.3594
 21
22.645
  0
LINE
  8
0
 10
16.3594
 20
22.645
 11
16.818
 21
23.182
  0
LINE
  8
0
 10
16.818
 20
23.182
 11
17.355
 21
23.6406
  0
LINE
  8
0
 10
17.355
 20
23.6406
 11
17.957
 21
24.0095
  0
LINE
  8
0
 10
17.957
 20
24.0095
 11
18.6094
 21
24.2797
  0
LINE
  8
0
 10
18.6094
 20
24.2797
 11
19.296
 21
24.4446
  0
LINE
  8
0
 10
19.296
 20
24.4446
 11
20
 21
24.5
  0
LINE
  8
0
 10
20
 20
24.5
 11
20.7039
 21
24.4446
  0
LINE
  8
0
 10
20.7039
 20
24.4446
 11
21.3906
 21
24.2797
  0
LINE
  8
0
 10
21.3906
 20
24.2797
 11
22.043
 21
24.0095
  0
LINE
  8
0
 10
22.043
 20
24.0095
 11
22.645
 21
23.6406
  0
LINE
  8
0
 10
22.645
 20
23.6406
 11
23.182
 21
23.182
  0
LINE
  8
0
 10
23.182
 20
23.182
 11
23.6406
 21
22.645
  0
LINE
  8
0
 10
23.6406
 20
22.645
 11
24.0095
 21
22.043
  0
LINE
  8
0
 10
24.0095
 20
22.043
 11
24.2797
 21
21.3906
  0
LINE
  8
0
 10
24.2797
 20
21.3906
 11
24.4446
 21
20.7039
  0
LINE
  8
0
 10
24.4446
 20
20.7039
 11
24.5
 21
20
  0
LINE
  8
0
 10
24.5
 20
20
 11
24.4446
 21
19.296
  0
LINE
  8
0
 10
24.4446
 20
19.296
 11
24.2797
 21
18.6094
  0
LINE
  8
0
 10
24.2797
 20
18.6094
 11
24.0095
 21
17.957
  0
LINE
  8
0
 10
24.0095
 20
17.957
 11
23.6406
 21
17.355
  0
LINE
  8
0
 10
23.6406
 20
17.355
 11
23.182
 21
16.818
  0
LINE
  8
0
 10
23.182
 20
16.818
 11
22.645
 21
16.3594
  0
LINE
  8
0
 10
22.645
 20
16.3594
 11
22.043
 21
15.9905
  0
LINE
  8
0
 10
22.043
 20
15.9905
 11
21.3906
 21
15.7202
  0
LINE
  8
0
 10
21.3906
 20
15.7202
 11
20.7039
 21
15.5554
  0
LINE
  8
0
 10
20.7039
 20
15.5554
 11
20
 21
15.5
  0
LINE
  8
0
 10
20
 20
15.5
 11
19.296
 21
15.5554
  0
LINE
  8
0
 10
199.296
 20
15.5554
 11
198.609
 21
15.7202
  0
LINE
  8
0
 10
198.609
 20
15.7202
 11
197.957
 21
15.9905
  0
LINE
  8
0
 10
197.957
 20
15.9905
 11
197.355
 21
16.3594
  0
LINE
  8
0
 10
197.355
 20
16.3594
 11
196.818
 21
16.818
  0
LINE
  8
0
 10
196.818
 20
16.818
 11
196.359
 21
17.355
  0
LINE
  8
0
 10
196.359
 20
17.355
 11
195.99
 21
17.957
  0
LINE
  8
0
 10
195.99
 20
17.957
 11
195.72
 21
18.6094
  0
LINE
  8
0
 10
195.72
 20
18.6094
 11
195.555
 21
19.296
  0
LINE
  8
0
 10
195.555
 20
19.296
 11
195.5
 21
20
  0
LINE
  8
0
 10
195.5
 20
20
 11
195.555
 21
20.7039
  0
LINE
  8
0
 10
195.555
 20
20.7039
 11
195.72
 21
21.3906
  0
LINE
  8
0
 10
195.72
 20
21.3906
 11
195.99
 21
22.043
  0
LINE
  8
0
 10
195.99
 20
22.043
 11
196.359
 21
22.645
  0
LINE
  8
0
 10
196.359
 20
22.645
 11
196.818
 21
23.182
  0
LINE
  8
0
 10
196.818
 20
23.182
 11
197.355
 21
23.6406
  0
LINE
  8
0
 10
197.355
 20
23.6406
 11
197.957
 21
24.0095
  0
LINE
  8
0
 10
197.957
 20
24.0095
 11
198.609
 21
24.2797
  0
LINE
  8
0
 10
198.609
 20
24.2797
 11
199.296
 21
24.4446
  0
LINE
  8
0
 10
199.296
 20
24.4446
 11
200
 21
24.5
  0
LINE
  8
0
 10
200
 20
24.5
 11
200.704
 21
24.4446
  0
LINE
  8
0
 10
200.704
 20
24.4446
 11
201.391
 21
24.2797
  0
LINE
  8
0
 10
201.391
 20
24.2797
 11
202.043
 21
24.0095
  0
LINE
  8
0
 10
202.043
 20
24.0095
 11
202.645
 21
23.6406
  0
LINE
  8
0
 10
202.645
 20
23.6406
 11
203.182
 21
23.182
  0
LINE
  8
0
 10
203.182
 20
23.182
 11
203.641
 21
22.645
  0
LINE
  8
0
 10
203.641
 20
22.645
 11
204.01
 21
22.043
  0
LINE
  8
0
 10
204.01
 20
22.043
 11
204.28
 21
21.3906
  0
LINE
  8
0
 10
204.28
 20
21.3906
 11
204.445
 21
20.7039
  0
LINE
  8
0
 10
204.445
 20
20.7039
 11
204.5
 21
20
  0
LINE
  8
0
 10
204.5
 20
20
 11
204.445
 21
19.296
  0
LINE
  8
0
 10
204.445
 20
19.296
 11
204.28
 21
18.6094
  0
LINE
  8
0
 10
204.28
 20
18.6094
 11
204.01
 21
17.957
  0
LINE
  8
0
 10
204.01
 20
17.957
 11
203.641
 21
17.355
  0
LINE
  8
0
 10
203.641
 20
17.355
 11
203.182
 21
16.818
  0
LINE
  8
0
 10
203.182
 20
16.818
 11
202.645
 21
16.3594
  0
LINE
  8
0
 10
202.645
 20
16.3594
 11
202.043
 21
15.9905
  0
LINE
  8
0
 10
202.043
 20
15.9905
 11
201.391
 21
15.7202
  0
LINE
  8
0
 10
201.391
 20
15.7202
 11
200.704
 21
15.5554
  0
LINE
  8
0
 10
200.704
 20
15.5554
 11
200
 21
15.5
  0
LINE
  8
0
 10
200
 20
15.5
 11
199.296
 21
15.5554
  0
LINE
  8
0
 10
154.296
 20
15.5554
 11
153.609
 21
15.7202
  0
LINE
  8
0
 10
153.609
 20
15.7202
 11
152.957
 21
15.9905
  0
LINE
  8
0
 10
152.957
 20
15.9905
 11
152.355
 21
16.3594
  0
LINE
  8
0
 10
152.355
 20
16.3594
 11
151.818
 21
16.818
  0
LINE
  8
0
 10
151.818
 20
16.818
 11
151.359
 21
17.355
  0
LINE
  8
0
 10
151.359
 20
17.355
 11
150.99
 21
17.957
  0
LINE
  8
0
 10
150.99
 20
17.957
 11
150.72
 21
18.6094
  0
LINE
  8
0
 10
150.72
 20
18.6094
 11
150.555
 21
19.296
  0
LINE
  8
0
 10
150.555
 20
19.296
 11
150.5
 21
20
  0
LINE
  8
0
 10
150.5
 20
20
 11
150.555
 21
20.7039
  0
LINE
  8
0
 10
150.555
 20
20.7039
 11
150.72
 21
21.3906
  0
LINE
  8
0
 10
150.72
 20
21.3906
 11
150.99
 21
22.043
  0
LINE
  8
0
 10
150.99
 20
22.043
 11
151.359
 21
22.645
  0
LINE
  8
0
 10
151.359
 20
22.645
 11
151.818
 21
23.182
  0
LINE
  8
0
 10
151.818
 20
23.182
 11
152.355
 21
23.6406
  0
LINE
  8
0
 10
152.355
 20
23.6406
 11
152.957
 21
24.0095
  0
LINE
  8
0
 10
152.957
 20
24.0095
 11
153.609
 21
24.2797
  0
LINE
  8
0
 10
153.609
 20
24.2797
 11
154.296
 21
24.4446
  0
LINE
  8
0
 10
154.296
 20
24.4446
 11
155
 21
24.5
  0
LINE
  8
0
 10
155
 20
24.5
 11
155.704
 21
24.4446
  0
LINE
  8
0
 10
155.704
 20
24.4446
 11
156.391
 21
24.2797
  0
LINE
  8
0
 10
156.391
 20
24.2797
 11
157.043
 21
24.0095
  0
LINE
  8
0
 10
157.043
 20
24.0095
 11
157.645
 21
23.6406
  0
LINE
  8
0
 10
157.645
 20
23.6406
 11
158.182
 21
23.182
  0
LINE
  8
0
 10
158.182
 20
23.182
 11
158.641
 21
22.645
  0
LINE
  8
0
 10
158.641
 20
22.645
 11
159.01
 21
22.043
  0
LINE
  8
0
 10
159.01
 20
22.043
 11
159.28
 21
21.3906
  0
LINE
  8
0
 10
159.28
 20
21.3906
 11
159.445
 21
20.7039
  0
LINE
  8
0
 10
159.445
 20
20.7039
 11
159.5
 21
20
  0
LINE
  8
0
 10
159.5
 20
20
 11
159.445
 21
19.296
  0
LINE
  8
0
 10
159.445
 20
19.296
 11
159.28
 21
18.6094
  0
LINE
  8
0
 10
159.28
 20
18.6094
 11
159.01
 21
17.957
  0
LINE
  8
0
 10
159.01
 20
17.957
 11
158.641
 21
17.355
  0
LINE
  8
0
 10
158.641
 20
17.355
 11
158.182
 21
16.818
  0
LINE
  8
0
 10
158.182
 20
16.818
 11
157.645
 21
16.3594
  0
LINE
  8
0
 10
157.645
 20
16.3594
 11
157.043
 21
15.9905
  0
LINE
  8
0
 10
157.043
 20
15.9905
 11
156.391
 21
15.7202
  0
LINE
  8
0
 10
156.391
 20
15.7202
 11
155.704
 21
15.5554
  0
LINE
  8
0
 10
155.704
 20
15.5554
 11
155
 21
15.5
  0
LINE
  8
0
 10
155
 20
15.5
 11
154.296
 21
15.5554
  0
LINE
  8
0
 10
64.296
 20
15.5554
 11
63.6094
 21
15.7202
  0
LINE
  8
0
 10
63.6094
 20
15.7202
 11
62.957
 21
15.9905
  0
LINE
  8
0
 10
62.957
 20
15.9905
 11
62.355
 21
16.3594
  0
LINE
  8
0
 10
62.355
 20
16.3594
 11
61.818
 21
16.818
  0
LINE
  8
0
 10
61.818
 20
16.818
 11
61.3594
 21
17.355
  0
LINE
  8
0
 10
61.3594
 20
17.355
 11
60.9905
 21
17.957
  0
LINE
  8
0
 10
60.9905
 20
17.957
 11
60.7202
 21
18.6094
  0
LINE
  8
0
 10
60.7202
 20
18.6094
 11
60.5554
 21
19.296
  0
LINE
  8
0
 10
60.5554
 20
19.296
 11
60.5
 21
20
  0
LINE
  8
0
 10
60.5
 20
20
 11
60.5554
 21
20.7039
  0
LINE
  8
0
 10
60.5554
 20
20.7039
 11
60.7202
 21
21.3906
  0
LINE
  8
0
 10
60.7202
 20
21.3906
 11
60.9905
 21
22.043
  0
LINE
  8
0
 10
60.9905
 20
22.043
 11
61.3594
 21
22.645
  0
LINE
  8
0
 10
61.3594
 20
22.645
 11
61.818
 21
23.182
  0
LINE
  8
0
 10
61.818
 20
23.182
 11
62.355
 21
23.6406
  0
LINE
  8
0
 10
62.355
 20
23.6406
 11
62.957
 21
24.0095
  0
LINE
  8
0
 10
62.957
 20
24.0095
 11
63.6094
 21
24.2797
  0
LINE
  8
0
 10
63.6094
 20
24.2797
 11
64.296
 21
24.4446
  0
LINE
  8
0
 10
64.296
 20
24.4446
 11
65
 21
24.5
  0
LINE
  8
0
 10
65
 20
24.5
 11
65.7039
 21
24.4446
  0
LINE
  8
0
 10
65.7039
 20
24.4446
 11
66.3906
 21
24.2797
  0
LINE
  8
0
 10
66.3906
 20
24.2797
 11
67.043
 21
24.0095
  0
LINE
  8
0
 10
67.043
 20
24.0095
 11
67.645
 21
23.6406
  0
LINE
  8
0
 10
67.645
 20
23.6406
 11
68.182
 21
23.182
  0
LINE
  8
0
 10
68.182
 20
23.182
 11
68.6406
 21
22.645
  0
LINE
  8
0
 10
68.6406
 20
22.645
 11
69.0095
 21
22.043
  0
LINE
  8
0
 10
69.0095
 20
22.043
 11
69.2797
 21
21.3906
  0
LINE
  8
0
 10
69.2797
 20
21.3906
 11
69.4446
 21
20.7039
  0
LINE
  8
0
 10
69.4446
 20
20.7039
 11
69.5
 21
20
  0
LINE
  8
0
 10
69.5
 20
20
 11
69.4446
 21
19.296
  0
LINE
  8
0
 10
69.4446
 20
19.296
 11
69.2797
 21
18.6094
  0
LINE
  8
0
 10
69.2797
 20
18.6094
 11
69.0095
 21
17.957
  0
LINE
  8
0
 10
69.0095
 20
17.957
 11
68.6406
 21
17.355
  0
LINE
  8
0
 10
68.6406
 20
17.355
 11
68.182
 21
16.818
  0
LINE
  8
0
 10
68.182
 20
16.818
 11
67.645
 21
16.3594
  0
LINE
  8
0
 10
67.645
 20
16.3594
 11
67.043
 21
15.9905
  0
LINE
  8
0
 10
67.043
 20
15.9905
 11
66.3906
 21
15.7202
  0
LINE
  8
0
 10
66.3906
 20
15.7202
 11
65.7039
 21
15.5554
  0
LINE
  8
0
 10
65.7039
 20
15.5554
 11
65
 21
15.5
  0
LINE
  8
0
 10
65
 20
15.5
 11
64.296
 21
15.5554
  0
LINE
  8
0
 10
109.296
 20
15.5554
 11
108.609
 21
15.7202
  0
LINE
  8
0
 10
108.609
 20
15.7202
 11
107.957
 21
15.9905
  0
LINE
  8
0
 10
107.957
 20
15.9905
 11
107.355
 21
16.3594
  0
LINE
  8
0
 10
107.355
 20
16.3594
 11
106.818
 21
16.818
  0
LINE
  8
0
 10
106.818
 20
16.818
 11
106.359
 21
17.355
  0
LINE
  8
0
 10
106.359
 20
17.355
 11
105.99
 21
17.957
  0
LINE
  8
0
 10
105.99
 20
17.957
 11
105.72
 21
18.6094
  0
LINE
  8
0
 10
105.72
 20
18.6094
 11
105.555
 21
19.296
  0
LINE
  8
0
 10
105.555
 20
19.296
 11
105.5
 21
20
  0
LINE
  8
0
 10
105.5
 20
20
 11
105.555
 21
20.7039
  0
LINE
  8
0
 10
105.555
 20
20.7039
 11
105.72
 21
21.3906
  0
LINE
  8
0
 10
105.72
 20
21.3906
 11
105.99
 21
22.043
  0
LINE
  8
0
 10
105.99
 20
22.043
 11
106.359
 21
22.645
  0
LINE
  8
0
 10
106.359
 20
22.645
 11
106.818
 21
23.182
  0
LINE
  8
0
 10
106.818
 20
23.182
 11
107.355
 21
23.6406
  0
LINE
  8
0
 10
107.355
 20
23.6406
 11
107.957
 21
24.0095
  0
LINE
  8
0
 10
107.957
 20
24.0095
 11
108.609
 21
24.2797
  0
LINE
  8
0
 10
108.609
 20
24.2797
 11
109.296
 21
24.4446
  0
LINE
  8
0
 10
109.296
 20
24.4446
 11
110
 21
24.5
  0
LINE
  8
0
 10
110
 20
24.5
 11
110.704
 21
24.4446
  0
LINE
  8
0
 10
110.704
 20
24.4446
 11
111.391
 21
24.2797
  0
LINE
  8
0
 10
111.391
 20
24.2797
 11
112.043
 21
24.0095
  0
LINE
  8
0
 10
112.043
 20
24.0095
 11
112.645
 21
23.6406
  0
LINE
  8
0
 10
112.645
 20
23.6406
 11
113.182
 21
23.182
  0
LINE
  8
0
 10
113.182
 20
23.182
 11
113.641
 21
22.645
  0
LINE
  8
0
 10
113.641
 20
22.645
 11
114.01
 21
22.043
  0
LINE
  8
0
 10
114.01
 20
22.043
 11
114.28
 21
21.3906
  0
LINE
  8
0
 10
114.28
 20
21.3906
 11
114.445
 21
20.7039
  0
LINE
  8
0
 10
114.445
 20
20.7039
 11
114.5
 21
20
  0
LINE
  8
0
 10
114.5
 20
20
 11
114.445
 21
19.296
  0
LINE
  8
0
 10
114.445
 20
19.296
 11
114.28
 21
18.6094
  0
LINE
  8
0
 10
114.28
 20
18.6094
 11
114.01
 21
17.957
  0
LINE
  8
0
 10
114.01
 20
17.957
 11
113.641
 21
17.355
  0
LINE
  8
0
 10
113.641
 20
17.355
 11
113.182
 21
16.818
  0
LINE
  8
0
 10
113.182
 20
16.818
 11
112.645
 21
16.3594
  0
LINE
  8
0
 10
112.645
 20
16.3594
 11
112.043
 21
15.9905
  0
LINE
  8
0
 10
112.043
 20
15.9905
 11
111.391
 21
15.7202
  0
LINE
  8
0
 10
111.391
 20
15.7202
 11
110.704
 21
15.5554
  0
LINE
  8
0
 10
110.704
 20
15.5554
 11
110
 21
15.5
  0
LINE
  8
0
 10
110
 20
15.5
 11
109.296
 21
15.5554
  0
LINE
  8
0
 10
216.531
 20
17.0369
 11
216.073
 21
17.1468
  0
LINE
  8
0
 10
216.073
 20
17.1468
 11
215.638
 21
17.327
  0
LINE
  8
0
 10
215.638
 20
17.327
 11
215.237
 21
17.5729
  0
LINE
  8
0
 10
215.237
 20
17.5729
 11
214.879
 21
17.8787
  0
LINE
  8
0
 10
214.879
 20
17.8787
 11
214.573
 21
18.2366
  0
LINE
  8
0
 10
214.573
 20
18.2366
 11
214.327
 21
18.638
  0
LINE
  8
0
 10
214.327
 20
18.638
 11
214.147
 21
19.0729
  0
LINE
  8
0
 10
214.147
 20
19.0729
 11
214.037
 21
19.5307
  0
LINE
  8
0
 10
214.037
 20
19.5307
 11
214
 21
20
  0
LINE
  8
0
 10
214
 20
20
 11
214.037
 21
20.4693
  0
LINE
  8
0
 10
214.037
 20
20.4693
 11
214.147
 21
20.927
  0
LINE
  8
0
 10
214.147
 20
20.927
 11
214.327
 21
21.362
  0
LINE
  8
0
 10
214.327
 20
21.362
 11
214.573
 21
21.7634
  0
LINE
  8
0
 10
214.573
 20
21.7634
 11
214.879
 21
22.1213
  0
LINE
  8
0
 10
214.879
 20
22.1213
 11
215.237
 21
22.427
  0
LINE
  8
0
 10
215.237
 20
22.427
 11
215.638
 21
22.673
  0
LINE
  8
0
 10
215.638
 20
22.673
 11
216.073
 21
22.8532
  0
LINE
  8
0
 10
216.073
 20
22.8532
 11
216.531
 21
22.9631
  0
LINE
  8
0
 10
216.531
 20
22.9631
 11
217
 21
23
  0
LINE
  8
0
 10
217
 20
23
 11
217.469
 21
22.9631
  0
LINE
  8
0
 10
217.469
 20
22.9631
 11
217.927
 21
22.8532
  0
LINE
  8
0
 10
217.927
 20
22.8532
 11
218.362
 21
22.673
  0
LINE
  8
0
 10
218.362
 20
22.673
 11
218.763
 21
22.427
  0
LINE
  8
0
 10
218.763
 20
22.427
 11
219.121
 21
22.1213
  0
LINE
  8
0
 10
219.121
 20
22.1213
 11
219.427
 21
21.7634
  0
LINE
  8
0
 10
219.427
 20
21.7634
 11
219.673
 21
21.362
  0
LINE
  8
0
 10
219.673
 20
21.362
 11
219.853
 21
20.927
  0
LINE
  8
0
 10
219.853
 20
20.927
 11
219.963
 21
20.4693
  0
LINE
  8
0
 10
219.963
 20
20.4693
 11
220
 21
20
  0
LINE
  8
0
 10
220
 20
20
 11
219.963
 21
19.5307
  0
LINE
  8
0
 10
219.963
 20
19.5307
 11
219.853
 21
19.0729
  0
LINE
  8
0
 10
219.853
 20
19.0729
 11
219.673
 21
18.638
  0
LINE
  8
0
 10
219.673
 20
18.638
 11
219.427
 21
18.2366
  0
LINE
  8
0
 10
219.427
 20
18.2366
 11
219.121
 21
17.8787
  0
LINE
  8
0
 10
219.121
 20
17.8787
 11
218.763
 21
17.5729
  0
LINE
  8
0
 10
218.763
 20
17.5729
 11
218.362
 21
17.327
  0
LINE
  8
0
 10
218.362
 20
17.327
 11
217.927
 21
17.1468
  0
LINE
  8
0
 10
217.927
 20
17.1468
 11
217.469
 21
17.0369
  0
LINE
  8
0
 10
217.469
 20
17.0369
 11
217
 21
17
  0
LINE
  8
0
 10
217
 20
17
 11
216.531
 21
17.0369
  0
LINE
  8
0
 10
36.5307
 20
17.0369
 11
36.0729
 21
17.1468
  0
LINE
  8
0
 10
36.0729
 20
17.1468
 11
35.638
 21
17.327
  0
LINE
  8
0
 10
35.638
 20
17.327
 11
35.2366
 21
17.5729
  0
LINE
  8
0
 10
35.2366
 20
17.5729
 11
34.8787
 21
17.8787
  0
LINE
  8
0
 10
34.8787
 20
17.8787
 11
34.5729
 21
18.2366
  0
LINE
  8
0
 10
34.5729
 20
18.2366
 11
34.327
 21
18.638
  0
LINE
  8
0
 10
34.327
 20
18.638
 11
34.1468
 21
19.0729
  0
LINE
  8
0
 10
34.1468
 20
19.0729
 11
34.0369
 21
19.5307
  0
LINE
  8
0
 10
34.0369
 20
19.5307
 11
34
 21
20
  0
LINE
  8
0
 10
34
 20
20
 11
34.0369
 21
20.4693
  0
LINE
  8
0
 10
34.0369
 20
20.4693
 11
34.1468
 21
20.927
  0
LINE
  8
0
 10
34.1468
 20
20.927
 11
34.327
 21
21.362
  0
LINE
  8
0
 10
34.327
 20
21.362
 11
34.5729
 21
21.7634
  0
LINE
  8
0
 10
34.5729
 20
21.7634
 11
34.8787
 21
22.1213
  0
LINE
  8
0
 10
34.8787
 20
22.1213
 11
35.2366
 21
22.427
  0
LINE
  8
0
 10
35.2366
 20
22.427
 11
35.638
 21
22.673
  0
LINE
  8
0
 10
35.638
 20
22.673
 11
36.0729
 21
22.8532
  0
LINE
  8
0
 10
36.0729
 20
22.8532
 11
36.5307
 21
22.9631
  0
LINE
  8
0
 10
36.5307
 20
22.9631
 11
37
 21
23
  0
LINE
  8
0
 10
37
 20
23
 11
37.4693
 21
22.9631
  0
LINE
  8
0
 10
37.4693
 20
22.9631
 11
37.927
 21
22.8532
  0
LINE
  8
0
 10
37.927
 20
22.8532
 11
38.362
 21
22.673
  0
LINE
  8
0
 10
38.362
 20
22.673
 11
38.7634
 21
22.427
  0
LINE
  8
0
 10
38.7634
 20
22.427
 11
39.1213
 21
22.1213
  0
LINE
  8
0
 10
39.1213
 20
22.1213
 11
39.427
 21
21.7634
  0
LINE
  8
0
 10
39.427
 20
21.7634
 11
39.673
 21
21.362
  0
LINE
  8
0
 10
39.673
 20
21.362
 11
39.8532
 21
20.927
  0
LINE
  8
0
 10
39.8532
 20
20.927
 11
39.9631
 21
20.4693
  0
LINE
  8
0
 10
39.9631
 20
20.4693
 11
40
 21
20
  0
LINE
  8
0
 10
40
 20
20
 11
39.9631
 21
19.5307
  0
LINE
  8
0
 10
39.9631
 20
19.5307
 11
39.8532
 21
19.0729
  0
LINE
  8
0
 10
39.8532
 20
19.0729
 11
39.673
 21
18.638
  0
LINE
  8
0
 10
39.673
 20
18.638
 11
39.427
 21
18.2366
  0
LINE
  8
0
 10
39.427
 20
18.2366
 11
39.1213
 21
17.8787
  0
LINE
  8
0
 10
39.1213
 20
17.8787
 11
38.7634
 21
17.5729
  0
LINE
  8
0
 10
38.7634
 20
17.5729
 11
38.362
 21
17.327
  0
LINE
  8
0
 10
38.362
 20
17.327
 11
37.927
 21
17.1468
  0
LINE
  8
0
 10
37.927
 20
17.1468
 11
37.4693
 21
17.0369
  0
LINE
  8
0
 10
37.4693
 20
17.0369
 11
37
 21
17
  0
LINE
  8
0
 10
37
 20
17
 11
36.5307
 21
17.0369
  0
LINE
  8
0
 10
171.531
 20
17.0369
 11
171.073
 21
17.1468
  0
LINE
  8
0
 10
171.073
 20
17.1468
 11
170.638
 21
17.327
  0
LINE
  8
0
 10
170.638
 20
17.327
 11
170.237
 21
17.5729
  0
LINE
  8
0
 10
170.237
 20
17.5729
 11
169.879
 21
17.8787
  0
LINE
  8
0
 10
169.879
 20
17.8787
 11
169.573
 21
18.2366
  0
LINE
  8
0
 10
169.573
 20
18.2366
 11
169.327
 21
18.638
  0
LINE
  8
0
 10
169.327
 20
18.638
 11
169.147
 21
19.0729
  0
LINE
  8
0
 10
169.147
 20
19.0729
 11
169.037
 21
19.5307
  0
LINE
  8
0
 10
169.037
 20
19.5307
 11
169
 21
20
  0
LINE
  8
0
 10
169
 20
20
 11
169.037
 21
20.4693
  0
LINE
  8
0
 10
169.037
 20
20.4693
 11
169.147
 21
20.927
  0
LINE
  8
0
 10
169.147
 20
20.927
 11
169.327
 21
21.362
  0
LINE
  8
0
 10
169.327
 20
21.362
 11
169.573
 21
21.7634
  0
LINE
  8
0
 10
169.573
 20
21.7634
 11
169.879
 21
22.1213
  0
LINE
  8
0
 10
169.879
 20
22.1213
 11
170.237
 21
22.427
  0
LINE
  8
0
 10
170.237
 20
22.427
 11
170.638
 21
22.673
  0
LINE
  8
0
 10
170.638
 20
22.673
 11
171.073
 21
22.8532
  0
LINE
  8
0
 10
171.073
 20
22.8532
 11
171.531
 21
22.9631
  0
LINE
  8
0
 10
171.531
 20
22.9631
 11
172
 21
23
  0
LINE
  8
0
 10
172
 20
23
 11
172.469
 21
22.9631
  0
LINE
  8
0
 10
172.469
 20
22.9631
 11
172.927
 21
22.8532
  0
LINE
  8
0
 10
172.927
 20
22.8532
 11
173.362
 21
22.673
  0
LINE
  8
0
 10
173.362
 20
22.673
 11
173.763
 21
22.427
  0
LINE
  8
0
 10
173.763
 20
22.427
 11
174.121
 21
22.1213
  0
LINE
  8
0
 10
174.121
 20
22.1213
 11
174.427
 21
21.7634
  0
LINE
  8
0
 10
174.427
 20
21.7634
 11
174.673
 21
21.362
  0
LINE
  8
0
 10
174.673
 20
21.362
 11
174.853
 21
20.927
  0
LINE
  8
0
 10
174.853
 20
20.927
 11
174.963
 21
20.4693
  0
LINE
  8
0
 10
174.963
 20
20.4693
 11
175
 21
20
  0
LINE
  8
0
 10
175
 20
20
 11
174.963
 21
19.5307
  0
LINE
  8
0
 10
174.963
 20
19.5307
 11
174.853
 21
19.0729
  0
LINE
  8
0
 10
174.853
 20
19.0729
 11
174.673
 21
18.638
  0
LINE
  8
0
 10
174.673
 20
18.638
 11
174.427
 21
18.2366
  0
LINE
  8
0
 10
174.427
 20
18.2366
 11
174.121
 21
17.8787
  0
LINE
  8
0
 10
174.121
 20
17.8787
 11
173.763
 21
17.5729
  0
LINE
  8
0
 10
173.763
 20
17.5729
 11
173.362
 21
17.327
  0
LINE
  8
0
 10
173.362
 20
17.327
 11
172.927
 21
17.1468
  0
LINE
  8
0
 10
172.927
 20
17.1468
 11
172.469
 21
17.0369
  0
LINE
  8
0
 10
172.469
 20
17.0369
 11
172
 21
17
  0
LINE
  8
0
 10
172
 20
17
 11
171.531
 21
17.0369
  0
LINE
  8
0
 10
126.531
 20
17.0369
 11
126.073
 21
17.1468
  0
LINE
  8
0
 10
126.073
 20
17.1468
 11
125.638
 21
17.327
  0
LINE
  8
0
 10
125.638
 20
17.327
 11
125.237
 21
17.5729
  0
LINE
  8
0
 10
125.237
 20
17.5729
 11
124.879
 21
17.8787
  0
LINE
  8
0
 10
124.879
 20
17.8787
 11
124.573
 21
18.2366
  0
LINE
  8
0
 10
124.573
 20
18.2366
 11
124.327
 21
18.638
  0
LINE
  8
0
 10
124.327
 20
18.638
 11
124.147
 21
19.0729
  0
LINE
  8
0
 10
124.147
 20
19.0729
 11
124.037
 21
19.5307
  0
LINE
  8
0
 10
124.037
 20
19.5307
 11
124
 21
20
  0
LINE
  8
0
 10
124
 20
20
 11
124.037
 21
20.4693
  0
LINE
  8
0
 10
124.037
 20
20.4693
 11
124.147
 21
20.927
  0
LINE
  8
0
 10
124.147
 20
20.927
 11
124.327
 21
21.362
  0
LINE
  8
0
 10
124.327
 20
21.362
 11
124.573
 21
21.7634
  0
LINE
  8
0
 10
124.573
 20
21.7634
 11
124.879
 21
22.1213
  0
LINE
  8
0
 10
124.879
 20
22.1213
 11
125.237
 21
22.427
  0
LINE
  8
0
 10
125.237
 20
22.427
 11
125.638
 21
22.673
  0
LINE
  8
0
 10
125.638
 20
22.673
 11
126.073
 21
22.8532
  0
LINE
  8
0
 10
126.073
 20
22.8532
 11
126.531
 21
22.9631
  0
LINE
  8
0
 10
126.531
 20
22.9631
 11
127
 21
23
  0
LINE
  8
0
 10
127
 20
23
 11
127.469
 21
22.9631
  0
LINE
  8
0
 10
127.469
 20
22.9631
 11
127.927
 21
22.8532
  0
LINE
  8
0
 10
127.927
 20
22.8532
 11
128.362
 21
22.673
  0
LINE
  8
0
 10
128.362
 20
22.673
 11
128.763
 21
22.427
  0
LINE
  8
0
 10
128.763
 20
22.427
 11
129.121
 21
22.1213
  0
LINE
  8
0
 10
129.121
 20
22.1213
 11
129.427
 21
21.7634
  0
LINE
  8
0
 10
129.427
 20
21.7634
 11
129.673
 21
21.362
  0
LINE
  8
0
 10
129.673
 20
21.362
 11
129.853
 21
20.927
  0
LINE
  8
0
 10
129.853
 20
20.927
 11
129.963
 21
20.4693
  0
LINE
  8
0
 10
129.963
 20
20.4693
 11
130
 21
20
  0
LINE
  8
0
 10
130
 20
20
 11
129.963
 21
19.5307
  0
LINE
  8
0
 10
129.963
 20
19.5307
 11
129.853
 21
19.0729
  0
LINE
  8
0
 10
129.853
 20
19.0729
 11
129.673
 21
18.638
  0
LINE
  8
0
 10
129.673
 20
18.638
 11
129.427
 21
18.2366
  0
LINE
  8
0
 10
129.427
 20
18.2366
 11
129.121
 21
17.8787
  0
LINE
  8
0
 10
129.121
 20
17.8787
 11
128.763
 21
17.5729
  0
LINE
  8
0
 10
128.763
 20
17.5729
 11
128.362
 21
17.327
  0
LINE
  8
0
 10
128.362
 20
17.327
 11
127.927
 21
17.1468
  0
LINE
  8
0
 10
127.927
 20
17.1468
 11
127.469
 21
17.0369
  0
LINE
  8
0
 10
127.469
 20
17.0369
 11
127
 21
17
  0
LINE
  8
0
 10
127
 20
17
 11
126.531
 21
17.0369
  0
LINE
  8
0
 10
261.531
 20
17.0369
 11
261.073
 21
17.1468
  0
LINE
  8
0
 10
261.073
 20
17.1468
 11
260.638
 21
17.327
  0
LINE
  8
0
 10
260.638
 20
17.327
 11
260.237
 21
17.5729
  0
LINE
  8
0
 10
260.237
 20
17.5729
 11
259.879
 21
17.8787
  0
LINE
  8
0
 10
259.879
 20
17.8787
 11
259.573
 21
18.2366
  0
LINE
  8
0
 10
259.573
 20
18.2366
 11
259.327
 21
18.638
  0
LINE
  8
0
 10
259.327
 20
18.638
 11
259.147
 21
19.0729
  0
LINE
  8
0
 10
259.147
 20
19.0729
 11
259.037
 21
19.5307
  0
LINE
  8
0
 10
259.037
 20
19.5307
 11
259
 21
20
  0
LINE
  8
0
 10
259
 20
20
 11
259.037
 21
20.4693
  0
LINE
  8
0
 10
259.037
 20
20.4693
 11
259.147
 21
20.927
  0
LINE
  8
0
 10
259.147
 20
20.927
 11
259.327
 21
21.362
  0
LINE
  8
0
 10
259.327
 20
21.362
 11
259.573
 21
21.7634
  0
LINE
  8
0
 10
259.573
 20
21.7634
 11
259.879
 21
22.1213
  0
LINE
  8
0
 10
259.879
 20
22.1213
 11
260.237
 21
22.427
  0
LINE
  8
0
 10
260.237
 20
22.427
 11
260.638
 21
22.673
  0
LINE
  8
0
 10
260.638
 20
22.673
 11
261.073
 21
22.8532
  0
LINE
  8
0
 10
261.073
 20
22.8532
 11
261.531
 21
22.9631
  0
LINE
  8
0
 10
261.531
 20
22.9631
 11
262
 21
23
  0
LINE
  8
0
 10
262
 20
23
 11
262.469
 21
22.9631
  0
LINE
  8
0
 10
262.469
 20
22.9631
 11
262.927
 21
22.8532
  0
LINE
  8
0
 10
262.927
 20
22.8532
 11
263.362
 21
22.673
  0
LINE
  8
0
 10
263.362
 20
22.673
 11
263.763
 21
22.427
  0
LINE
  8
0
 10
263.763
 20
22.427
 11
264.121
 21
22.1213
  0
LINE
  8
0
 10
264.121
 20
22.1213
 11
264.427
 21
21.7634
  0
LINE
  8
0
 10
264.427
 20
21.7634
 11
264.673
 21
21.362
  0
LINE
  8
0
 10
264.673
 20
21.362
 11
264.853
 21
20.927
  0
LINE
  8
0
 10
264.853
 20
20.927
 11
264.963
 21
20.4693
  0
LINE
  8
0
 10
264.963
 20
20.4693
 11
265
 21
20
  0
LINE
  8
0
 10
265
 20
20
 11
264.963
 21
19.5307
  0
LINE
  8
0
 10
264.963
 20
19.5307
 11
264.853
 21
19.0729
  0
LINE
  8
0
 10
264.853
 20
19.0729
 11
264.673
 21
18.638
  0
LINE
  8
0
 10
264.673
 20
18.638
 11
264.427
 21
18.2366
  0
LINE
  8
0
 10
264.427
 20
18.2366
 11
264.121
 21
17.8787
  0
LINE
  8
0
 10
264.121
 20
17.8787
 11
263.763
 21
17.5729
  0
LINE
  8
0
 10
263.763
 20
17.5729
 11
263.362
 21
17.327
  0
LINE
  8
0
 10
263.362
 20
17.327
 11
262.927
 21
17.1468
  0
LINE
  8
0
 10
262.927
 20
17.1468
 11
262.469
 21
17.0369
  0
LINE
  8
0
 10
262.469
 20
17.0369
 11
262
 21
17
  0
LINE
  8
0
 10
262
 20
17
 11
261.531
 21
17.0369
  0
LINE
  8
0
 10
81.5307
 20
17.0369
 11
81.0729
 21
17.1468
  0
LINE
  8
0
 10
81.0729
 20
17.1468
 11
80.638
 21
17.327
  0
LINE
  8
0
 10
80.638
 20
17.327
 11
80.2366
 21
17.5729
  0
LINE
  8
0
 10
80.2366
 20
17.5729
 11
79.8787
 21
17.8787
  0
LINE
  8
0
 10
79.8787
 20
17.8787
 11
79.5729
 21
18.2366
  0
LINE
  8
0
 10
79.5729
 20
18.2366
 11
79.327
 21
18.638
  0
LINE
  8
0
 10
79.327
 20
18.638
 11
79.1468
 21
19.0729
  0
LINE
  8
0
 10
79.1468
 20
19.0729
 11
79.0369
 21
19.5307
  0
LINE
  8
0
 10
79.0369
 20
19.5307
 11
79
 21
20
  0
LINE
  8
0
 10
79
 20
20
 11
79.0369
 21
20.4693
  0
LINE
  8
0
 10
79.0369
 20
20.4693
 11
79.1468
 21
20.927
  0
LINE
  8
0
 10
79.1468
 20
20.927
 11
79.327
 21
21.362
  0
LINE
  8
0
 10
79.327
 20
21.362
 11
79.5729
 21
21.7634
  0
LINE
  8
0
 10
79.5729
 20
21.7634
 11
79.8787
 21
22.1213
  0
LINE
  8
0
 10
79.8787
 20
22.1213
 11
80.2366
 21
22.427
  0
LINE
  8
0
 10
80.2366
 20
22.427
 11
80.638
 21
22.673
  0
LINE
  8
0
 10
80.638
 20
22.673
 11
81.0729
 21
22.8532
  0
LINE
  8
0
 10
81.0729
 20
22.8532
 11
81.5307
 21
22.9631
  0
LINE
  8
0
 10
81.5307
 20
22.9631
 11
82
 21
23
  0
LINE
  8
0
 10
82
 20
23
 11
82.4693
 21
22.9631
  0
LINE
  8
0
 10
82.4693
 20
22.9631
 11
82.927
 21
22.8532
  0
LINE
  8
0
 10
82.927
 20
22.8532
 11
83.362
 21
22.673
  0
LINE
  8
0
 10
83.362
 20
22.673
 11
83.7634
 21
22.427
  0
LINE
  8
0
 10
83.7634
 20
22.427
 11
84.1213
 21
22.1213
  0
LINE
  8
0
 10
84.1213
 20
22.1213
 11
84.427
 21
21.7634
  0
LINE
  8
0
 10
84.427
 20
21.7634
 11
84.673
 21
21.362
  0
LINE
  8
0
 10
84.673
 20
21.362
 11
84.8532
 21
20.927
  0
LINE
  8
0
 10
84.8532
 20
20.927
 11
84.9631
 21
20.4693
  0
LINE
  8
0
 10
84.9631
 20
20.4693
 11
85
 21
20
  0
LINE
  8
0
 10
85
 20
20
 11
84.9631
 21
19.5307
  0
LINE
  8
0
 10
84.9631
 20
19.5307
 11
84.8532
 21
19.0729
  0
LINE
  8
0
 10
84.8532
 20
19.0729
 11
84.673
 21
18.638
  0
LINE
  8
0
 10
84.673
 20
18.638
 11
84.427
 21
18.2366
  0
LINE
  8
0
 10
84.427
 20
18.2366
 11
84.1213
 21
17.8787
  0
LINE
  8
0
 10
84.1213
 20
17.8787
 11
83.7634
 21
17.5729
  0
LINE
  8
0
 10
83.7634
 20
17.5729
 11
83.362
 21
17.327
  0
LINE
  8
0
 10
83.362
 20
17.327
 11
82.927
 21
17.1468
  0
LINE
  8
0
 10
82.927
 20
17.1468
 11
82.4693
 21
17.0369
  0
LINE
  8
0
 10
82.4693
 20
17.0369
 11
82
 21
17
  0
LINE
  8
0
 10
82
 20
17
 11
81.5307
 21
17.0369
  0
ENDSEC
  0
SECTION
  2
OBJECTS
  0
DICTIONARY
  0
ENDSEC
  0
EOF
