<?xml version="1.0" standalone="no"?>
<!DOCTYPE svg PUBLIC "-//W3C//DTD SVG 1.1//EN" "http://www.w3.org/Graphics/SVG/1.1/DTD/svg11.dtd">
<svg width="220mm" height="160mm" viewBox="0 -160 220 160" xmlns="http://www.w3.org/2000/svg" version="1.1">
<title>OpenSCAD Model</title>
<path d="
M 220,-160 L 0,-160 L 0,-0 L 220,-0 z
M 169.218,-135.062 L 168.455,-135.245 L 167.73,-135.545 L 167.061,-135.955 L 166.464,-136.464 L 165.955,-137.061
 L 165.545,-137.73 L 165.245,-138.455 L 165.062,-139.218 L 165,-140 L 165.062,-140.782 L 165.245,-141.545
 L 165.545,-142.27 L 165.955,-142.939 L 166.464,-143.536 L 167.061,-144.045 L 167.73,-144.455 L 168.455,-144.755
 L 169.218,-144.938 L 170,-145 L 170.782,-144.938 L 171.545,-144.755 L 172.27,-144.455 L 172.939,-144.045
 L 173.536,-143.536 L 174.045,-142.939 L 174.455,-142.27 L 174.755,-141.545 L 174.938,-140.782 L 175,-140
 L 174.938,-139.218 L 174.755,-138.455 L 174.455,-137.73 L 174.045,-137.061 L 173.536,-136.464 L 172.939,-135.955
 L 172.27,-135.545 L 171.545,-135.245 L 170.782,-135.062 L 170,-135 z
M 139.218,-135.062 L 138.455,-135.245 L 137.73,-135.545 L 137.061,-135.955 L 136.464,-136.464 L 135.955,-137.061
 L 135.545,-137.73 L 135.245,-138.455 L 135.062,-139.218 L 135,-140 L 135.062,-140.782 L 135.245,-141.545
 L 135.545,-142.27 L 135.955,-142.939 L 136.464,-143.536 L 137.061,-144.045 L 137.73,-144.455 L 138.455,-144.755
 L 139.218,-144.938 L 140,-145 L 140.782,-144.938 L 141.545,-144.755 L 142.27,-144.455 L 142.939,-144.045
 L 143.536,-143.536 L 144.045,-142.939 L 144.455,-142.27 L 144.755,-141.545 L 144.938,-140.782 L 145,-140
 L 144.938,-139.218 L 144.755,-138.455 L 144.455,-137.73 L 144.045,-137.061 L 143.536,-136.464 L 142.939,-135.955
 L 142.27,-135.545 L 141.545,-135.245 L 140.782,-135.062 L 140,-135 z
M 19.2178,-135.062 L 18.4549,-135.245 L 17.73,-135.545 L 17.0611,-135.955 L 16.4645,-136.464 L 15.9549,-137.061
 L 15.545,-137.73 L 15.2447,-138.455 L 15.0616,-139.218 L 15,-140 L 15.0616,-140.782 L 15.2447,-141.545
 L 15.545,-142.27 L 15.9549,-142.939 L 16.4645,-143.536 L 17.0611,-144.045 L 17.73,-144.455 L 18.4549,-144.755
 L 19.2178,-144.938 L 20,-145 L 20.7822,-144.938 L 21.5451,-144.755 L 22.2699,-144.455 L 22.9389,-144.045
 L 23.5355,-143.536 L 24.0451,-142.939 L 24.455,-142.27 L 24.7553,-141.545 L 24.9384,-140.782 L 25,-140
 L 24.9384,-139.218 L 24.7553,-138.455 L 24.455,-137.73 L 24.0451,-137.061 L 23.5355,-136.464 L 22.9389,-135.955
 L 22.2699,-135.545 L 21.5451,-135.245 L 20.7822,-135.062 L 20,-135 z
M 49.2178,-135.062 L 48.4549,-135.245 L 47.73,-135.545 L 47.0611,-135.955 L 46.4645,-136.464 L 45.9549,-137.061
 L 45.545,-137.73 L 45.2447,-138.455 L 45.0616,-139.218 L 45,-140 L 45.0616,-140.782 L 45.2447,-141.545
 L 45.545,-142.27 L 45.9549,-142.939 L 46.4645,-143.536 L 47.0611,-144.045 L 47.73,-144.455 L 48.4549,-144.755
 L 49.2178,-144.938 L 50,-145 L 50.7822,-144.938 L 51.5451,-144.755 L 52.2699,-144.455 L 52.9389,-144.045
 L 53.5355,-143.536 L 54.0451,-142.939 L 54.455,-142.27 L 54.7553,-141.545 L 54.9384,-140.782 L 55,-140
 L 54.9384,-139.218 L 54.7553,-138.455 L 54.455,-137.73 L 54.0451,-137.061 L 53.5355,-136.464 L 52.9389,-135.955
 L 52.2699,-135.545 L 51.5451,-135.245 L 50.7822,-135.062 L 50,-135 z
M 109.218,-135.062 L 108.455,-135.245 L 107.73,-135.545 L 107.061,-135.955 L 106.464,-136.464 L 105.955,-137.061
 L 105.545,-137.73 L 105.245,-138.455 L 105.062,-139.218 L 105,-140 L 105.062,-140.782 L 105.245,-141.545
 L 105.545,-142.27 L 105.955,-142.939 L 106.464,-143.536 L 107.061,-144.045 L 107.73,-144.455 L 108.455,-144.755
 L 109.218,-144.938 L 110,-145 L 110.782,-144.938 L 111.545,-144.755 L 112.27,-144.455 L 112.939,-144.045
 L 113.536,-143.536 L 114.045,-142.939 L 114.455,-142.27 L 114.755,-141.545 L 114.938,-140.782 L 115,-140
 L 114.938,-139.218 L 114.755,-138.455 L 114.455,-137.73 L 114.045,-137.061 L 113.536,-136.464 L 112.939,-135.955
 L 112.27,-135.545 L 111.545,-135.245 L 110.782,-135.062 L 110,-135 z
M 79.2178,-135.062 L 78.4549,-135.245 L 77.73,-135.545 L 77.0611,-135.955 L 76.4645,-136.464 L 75.9549,-137.061
 L 75.545,-137.73 L 75.2447,-138.455 L 75.0616,-139.218 L 75,-140 L 75.0616,-140.782 L 75.2447,-141.545
 L 75.545,-142.27 L 75.9549,-142.939 L 76.4645,-143.536 L 77.0611,-144.045 L 77.73,-144.455 L 78.4549,-144.755
 L 79.2178,-144.938 L 80,-145 L 80.7822,-144.938 L 81.5451,-144.755 L 82.2699,-144.455 L 82.9389,-144.045
 L 83.5355,-143.536 L 84.0451,-142.939 L 84.455,-142.27 L 84.7553,-141.545 L 84.9384,-140.782 L 85,-140
 L 84.9384,-139.218 L 84.7553,-138.455 L 84.455,-137.73 L 84.0451,-137.061 L 83.5355,-136.464 L 82.9389,-135.955
 L 82.2699,-135.545 L 81.5451,-135.245 L 80.7822,-135.062 L 80,-135 z
M 199.218,-135.062 L 198.455,-135.245 L 197.73,-135.545 L 197.061,-135.955 L 196.464,-136.464 L 195.955,-137.061
 L 195.545,-137.73 L 195.245,-138.455 L 195.062,-139.218 L 195,-140 L 195.062,-140.782 L 195.245,-141.545
 L 195.545,-142.27 L 195.955,-142.939 L 196.464,-143.536 L 197.061,-144.045 L 197.73,-144.455 L 198.455,-144.755
 L 199.218,-144.938 L 200,-145 L 200.782,-144.938 L 201.545,-144.755 L 202.27,-144.455 L 202.939,-144.045
 L 203.536,-143.536 L 204.045,-142.939 L 204.455,-142.27 L 204.755,-141.545 L 204.938,-140.782 L 205,-140
 L 204.938,-139.218 L 204.755,-138.455 L 204.455,-137.73 L 204.045,-137.061 L 203.536,-136.464 L 202.939,-135.955
 L 202.27,-135.545 L 201.545,-135.245 L 200.782,-135.062 L 200,-135 z
M 19.2178,-105.062 L 18.4549,-105.245 L 17.73,-105.545 L 17.0611,-105.955 L 16.4645,-106.464 L 15.9549,-107.061
 L 15.545,-107.73 L 15.2447,-108.455 L 15.0616,-109.218 L 15,-110 L 15.0616,-110.782 L 15.2447,-111.545
 L 15.545,-112.27 L 15.9549,-112.939 L 16.4645,-113.536 L 17.0611,-114.045 L 17.73,-114.455 L 18.4549,-114.755
 L 19.2178,-114.938 L 20,-115 L 20.7822,-114.938 L 21.5451,-114.755 L 22.2699,-114.455 L 22.9389,-114.045
 L 23.5355,-113.536 L 24.0451,-112.939 L 24.455,-112.27 L 24.7553,-111.545 L 24.9384,-110.782 L 25,-110
 L 24.9384,-109.218 L 24.7553,-108.455 L 24.455,-107.73 L 24.0451,-107.061 L 23.5355,-106.464 L 22.9389,-105.955
 L 22.2699,-105.545 L 21.5451,-105.245 L 20.7822,-105.062 L 20,-105 z
M 169.296,-105.555 L 168.609,-105.72 L 167.957,-105.99 L 167.355,-106.359 L 166.818,-106.818 L 166.359,-107.355
 L 165.99,-107.957 L 165.72,-108.609 L 165.555,-109.296 L 165.5,-110 L 165.555,-110.704 L 165.72,-111.391
 L 165.99,-112.043 L 166.359,-112.645 L 166.818,-113.182 L 167.355,-113.641 L 167.957,-114.01 L 168.609,-114.28
 L 169.296,-114.445 L 170,-114.5 L 170.704,-114.445 L 171.391,-114.28 L 172.043,-114.01 L 172.645,-113.641
 L 173.182,-113.182 L 173.641,-112.645 L 174.01,-112.043 L 174.28,-111.391 L 174.445,-110.704 L 174.5,-110
 L 174.445,-109.296 L 174.28,-108.609 L 174.01,-107.957 L 173.641,-107.355 L 173.182,-106.818 L 172.645,-106.359
 L 172.043,-105.99 L 171.391,-105.72 L 170.704,-105.555 L 170,-105.5 z
M 139.296,-105.555 L 138.609,-105.72 L 137.957,-105.99 L 137.355,-106.359 L 136.818,-106.818 L 136.359,-107.355
 L 135.99,-107.957 L 135.72,-108.609 L 135.555,-109.296 L 135.5,-110 L 135.555,-110.704 L 135.72,-111.391
 L 135.99,-112.043 L 136.359,-112.645 L 136.818,-113.182 L 137.355,-113.641 L 137.957,-114.01 L 138.609,-114.28
 L 139.296,-114.445 L 140,-114.5 L 140.704,-114.445 L 141.391,-114.28 L 142.043,-114.01 L 142.645,-113.641
 L 143.182,-113.182 L 143.641,-112.645 L 144.01,-112.043 L 144.28,-111.391 L 144.445,-110.704 L 144.5,-110
 L 144.445,-109.296 L 144.28,-108.609 L 144.01,-107.957 L 143.641,-107.355 L 143.182,-106.818 L 142.645,-106.359
 L 142.043,-105.99 L 141.391,-105.72 L 140.704,-105.555 L 140,-105.5 z
M 109.296,-105.555 L 108.609,-105.72 L 107.957,-105.99 L 107.355,-106.359 L 106.818,-106.818 L 106.359,-107.355
 L 105.99,-107.957 L 105.72,-108.609 L 105.555,-109.296 L 105.5,-110 L 105.555,-110.704 L 105.72,-111.391
 L 105.99,-112.043 L 106.359,-112.645 L 106.818,-113.182 L 107.355,-113.641 L 107.957,-114.01 L 108.609,-114.28
 L 109.296,-114.445 L 110,-114.5 L 110.704,-114.445 L 111.391,-114.28 L 112.043,-114.01 L 112.645,-113.641
 L 113.182,-113.182 L 113.641,-112.645 L 114.01,-112.043 L 114.28,-111.391 L 114.445,-110.704 L 114.5,-110
 L 114.445,-109.296 L 114.28,-108.609 L 114.01,-107.957 L 113.641,-107.355 L 113.182,-106.818 L 112.645,-106.359
 L 112.043,-105.99 L 111.391,-105.72 L 110.704,-105.555 L 110,-105.5 z
M 79.296,-105.555 L 78.6094,-105.72 L 77.957,-105.99 L 77.355,-106.359 L 76.818,-106.818 L 76.3594,-107.355
 L 75.9905,-107.957 L 75.7202,-108.609 L 75.5554,-109.296 L 75.5,-110 L 75.5554,-110.704 L 75.7202,-111.391
 L 75.9905,-112.043 L 76.3594,-112.645 L 76.818,-113.182 L 77.355,-113.641 L 77.957,-114.01 L 78.6094,-114.28
 L 79.296,-114.445 L 80,-114.5 L 80.7039,-114.445 L 81.3906,-114.28 L 82.043,-114.01 L 82.645,-113.641
 L 83.182,-113.182 L 83.6406,-112.645 L 84.0095,-112.043 L 84.2797,-111.391 L 84.4446,-110.704 L 84.5,-110
 L 84.4446,-109.296 L 84.2797,-108.609 L 84.0095,-107.957 L 83.6406,-107.355 L 83.182,-106.818 L 82.645,-106.359
 L 82.043,-105.99 L 81.3906,-105.72 L 80.7039,-105.555 L 80,-105.5 z
M 49.296,-105.555 L 48.6094,-105.72 L 47.957,-105.99 L 47.355,-106.359 L 46.818,-106.818 L 46.3594,-107.355
 L 45.9905,-107.957 L 45.7202,-108.609 L 45.5554,-109.296 L 45.5,-110 L 45.5554,-110.704 L 45.7202,-111.391
 L 45.9905,-112.043 L 46.3594,-112.645 L 46.818,-113.182 L 47.355,-113.641 L 47.957,-114.01 L 48.6094,-114.28
 L 49.296,-114.445 L 50,-114.5 L 50.7039,-114.445 L 51.3906,-114.28 L 52.043,-114.01 L 52.645,-113.641
 L 53.182,-113.182 L 53.6406,-112.645 L 54.0095,-112.043 L 54.2797,-111.391 L 54.4446,-110.704 L 54.5,-110
 L 54.4446,-109.296 L 54.2797,-108.609 L 54.0095,-107.957 L 53.6406,-107.355 L 53.182,-106.818 L 52.645,-106.359
 L 52.043,-105.99 L 51.3906,-105.72 L 50.7039,-105.555 L 50,-105.5 z
M 199.296,-105.555 L 198.609,-105.72 L 197.957,-105.99 L 197.355,-106.359 L 196.818,-106.818 L 196.359,-107.355
 L 195.99,-107.957 L 195.72,-108.609 L 195.555,-109.296 L 195.5,-110 L 195.555,-110.704 L 195.72,-111.391
 L 195.99,-112.043 L 196.359,-112.645 L 196.818,-113.182 L 197.355,-113.641 L 197.957,-114.01 L 198.609,-114.28
 L 199.296,-114.445 L 200,-114.5 L 200.704,-114.445 L 201.391,-114.28 L 202.043,-114.01 L 202.645,-113.641
 L 203.182,-113.182 L 203.641,-112.645 L 204.01,-112.043 L 204.28,-111.391 L 204.445,-110.704 L 204.5,-110
 L 204.445,-109.296 L 204.28,-108.609 L 204.01,-107.957 L 203.641,-107.355 L 203.182,-106.818 L 202.645,-106.359
 L 202.043,-105.99 L 201.391,-105.72 L 200.704,-105.555 L 200,-105.5 z
M 19.2178,-75.0616 L 18.4549,-75.2447 L 17.73,-75.545 L 17.0611,-75.9549 L 16.4645,-76.4645 L 15.9549,-77.0611
 L 15.545,-77.73 L 15.2447,-78.4549 L 15.0616,-79.2178 L 15,-80 L 15.0616,-80.7822 L 15.2447,-81.5451
 L 15.545,-82.2699 L 15.9549,-82.9389 L 16.4645,-83.5355 L 17.0611,-84.0451 L 17.73,-84.455 L 18.4549,-84.7553
 L 19.2178,-84.9384 L 20,-85 L 20.7822,-84.9384 L 21.5451,-84.7553 L 22.2699,-84.455 L 22.9389,-84.0451
 L 23.5355,-83.5355 L 24.0451,-82.9389 L 24.455,-82.2699 L 24.7553,-81.5451 L 24.9384,-80.7822 L 25,-80
 L 24.9384,-79.2178 L 24.7553,-78.4549 L 24.455,-77.73 L 24.0451,-77.0611 L 23.5355,-76.4645 L 22.9389,-75.9549
 L 22.2699,-75.545 L 21.5451,-75.2447 L 20.7822,-75.0616 L 20,-75 z
M 79.296,-75.5554 L 78.6094,-75.7202 L 77.957,-75.9905 L 77.355,-76.3594 L 76.818,-76.818 L 76.3594,-77.355
 L 75.9905,-77.957 L 75.7202,-78.6094 L 75.5554,-79.296 L 75.5,-80 L 75.5554,-80.7039 L 75.7202,-81.3906
 L 75.9905,-82.043 L 76.3594,-82.645 L 76.818,-83.182 L 77.355,-83.6406 L 77.957,-84.0095 L 78.6094,-84.2797
 L 79.296,-84.4446 L 80,-84.5 L 80.7039,-84.4446 L 81.3906,-84.2797 L 82.043,-84.0095 L 82.645,-83.6406
 L 83.182,-83.182 L 83.6406,-82.645 L 84.0095,-82.043 L 84.2797,-81.3906 L 84.4446,-80.7039 L 84.5,-80
 L 84.4446,-79.296 L 84.2797,-78.6094 L 84.0095,-77.957 L 83.6406,-77.355 L 83.182,-76.818 L 82.645,-76.3594
 L 82.043,-75.9905 L 81.3906,-75.7202 L 80.7039,-75.5554 L 80,-75.5 z
M 49.296,-75.5554 L 48.6094,-75.7202 L 47.957,-75.9905 L 47.355,-76.3594 L 46.818,-76.818 L 46.3594,-77.355
 L 45.9905,-77.957 L 45.7202,-78.6094 L 45.5554,-79.296 L 45.5,-80 L 45.5554,-80.7039 L 45.7202,-81.3906
 L 45.9905,-82.043 L 46.3594,-82.645 L 46.818,-83.182 L 47.355,-83.6406 L 47.957,-84.0095 L 48.6094,-84.2797
 L 49.296,-84.4446 L 50,-84.5 L 50.7039,-84.4446 L 51.3906,-84.2797 L 52.043,-84.0095 L 52.645,-83.6406
 L 53.182,-83.182 L 53.6406,-82.645 L 54.0095,-82.043 L 54.2797,-81.3906 L 54.4446,-80.7039 L 54.5,-80
 L 54.4446,-79.296 L 54.2797,-78.6094 L 54.0095,-77.957 L 53.6406,-77.355 L 53.182,-76.818 L 52.645,-76.3594
 L 52.043,-75.9905 L 51.3906,-75.7202 L 50.7039,-75.5554 L 50,-75.5 z
M 169.296,-75.5554 L 168.609,-75.7202 L 167.957,-75.9905 L 167.355,-76.3594 L 166.818,-76.818 L 166.359,-77.355
 L 165.99,-77.957 L 165.72,-78.6094 L 165.555,-79.296 L 165.5,-80 L 165.555,-80.7039 L 165.72,-81.3906
 L 165.99,-82.043 L 166.359,-82.645 L 166.818,-83.182 L 167.355,-83.6406 L 167.957,-84.0095 L 168.609,-84.2797
 L 169.296,-84.4446 L 170,-84.5 L 170.704,-84.4446 L 171.391,-84.2797 L 172.043,-84.0095 L 172.645,-83.6406
 L 173.182,-83.182 L 173.641,-82.645 L 174.01,-82.043 L 174.28,-81.3906 L 174.445,-80.7039 L 174.5,-80
 L 174.445,-79.296 L 174.28,-78.6094 L 174.01,-77.957 L 173.641,-77.355 L 173.182,-76.818 L 172.645,-76.3594
 L 172.043,-75.9905 L 171.391,-75.7202 L 170.704,-75.5554 L 170,-75.5 z
M 109.296,-75.5554 L 108.609,-75.7202 L 107.957,-75.9905 L 107.355,-76.3594 L 106.818,-76.818 L 106.359,-77.355
 L 105.99,-77.957 L 105.72,-78.6094 L 105.555,-79.296 L 105.5,-80 L 105.555,-80.7039 L 105.72,-81.3906
 L 105.99,-82.043 L 106.359,-82.645 L 106.818,-83.182 L 107.355,-83.6406 L 107.957,-84.0095 L 108.609,-84.2797
 L 109.296,-84.4446 L 110,-84.5 L 110.704,-84.4446 L 111.391,-84.2797 L 112.043,-84.0095 L 112.645,-83.6406
 L 113.182,-83.182 L 113.641,-82.645 L 114.01,-82.043 L 114.28,-81.3906 L 114.445,-80.7039 L 114.5,-80
 L 114.445,-79.296 L 114.28,-78.6094 L 114.01,-77.957 L 113.641,-77.355 L 113.182,-76.818 L 112.645,-76.3594
 L 112.043,-75.9905 L 111.391,-75.7202 L 110.704,-75.5554 L 110,-75.5 z
M 199.296,-75.5554 L 198.609,-75.7202 L 197.957,-75.9905 L 197.355,-76.3594 L 196.818,-76.818 L 196.359,-77.355
 L 195.99,-77.957 L 195.72,-78.6094 L 195.555,-79.296 L 195.5,-80 L 195.555,-80.7039 L 195.72,-81.3906
 L 195.99,-82.043 L 196.359,-82.645 L 196.818,-83.182 L 197.355,-83.6406 L 197.957,-84.0095 L 198.609,-84.2797
 L 199.296,-84.4446 L 200,-84.5 L 200.704,-84.4446 L 201.391,-84.2797 L 202.043,-84.0095 L 202.645,-83.6406
 L 203.182,-83.182 L 203.641,-82.645 L 204.01,-82.043 L 204.28,-81.3906 L 204.445,-80.7039 L 204.5,-80
 L 204.445,-79.296 L 204.28,-78.6094 L 204.01,-77.957 L 203.641,-77.355 L 203.182,-76.818 L 202.645,-76.3594
 L 202.043,-75.9905 L 201.391,-75.7202 L 200.704,-75.5554 L 200,-75.5 z
M 139.296,-75.5554 L 138.609,-75.7202 L 137.957,-75.9905 L 137.355,-76.3594 L 136.818,-76.818 L 136.359,-77.355
 L 135.99,-77.957 L 135.72,-78.6094 L 135.555,-79.296 L 135.5,-80 L 135.555,-80.7039 L 135.72,-81.3906
 L 135.99,-82.043 L 136.359,-82.645 L 136.818,-83.182 L 137.355,-83.6406 L 137.957,-84.0095 L 138.609,-84.2797
 L 139.296,-84.4446 L 140,-84.5 L 140.704,-84.4446 L 141.391,-84.2797 L 142.043,-84.0095 L 142.645,-83.6406
 L 143.182,-83.182 L 143.641,-82.645 L 144.01,-82.043 L 144.28,-81.3906 L 144.445,-80.7039 L 144.5,-80
 L 144.445,-79.296 L 144.28,-78.6094 L 144.01,-77.957 L 143.641,-77.355 L 143.182,-76.818 L 142.645,-76.3594
 L 142.043,-75.9905 L 141.391,-75.7202 L 140.704,-75.5554 L 140,-75.5 z
M 19.2178,-45.0616 L 18.4549,-45.2447 L 17.73,-45.545 L 17.0611,-45.9549 L 16.4645,-46.4645 L 15.9549,-47.0611
 L 15.545,-47.73 L 15.2447,-48.4549 L 15.0616,-49.2178 L 15,-50 L 15.0616,-50.7822 L 15.2447,-51.5451
 L 15.545,-52.2699 L 15.9549,-52.9389 L 16.4645,-53.5355 L 17.0611,-54.0451 L 17.73,-54.455 L 18.4549,-54.7553
 L 19.2178,-54.9384 L 20,-55 L 20.7822,-54.9384 L 21.5451,-54.7553 L 22.2699,-54.455 L 22.9389,-54.0451
 L 23.5355,-53.5355 L 24.0451,-52.9389 L 24.455,-52.2699 L 24.7553,-51.5451 L 24.9384,-50.7822 L 25,-50
 L 24.9384,-49.2178 L 24.7553,-48.4549 L 24.455,-47.73 L 24.0451,-47.0611 L 23.5355,-46.4645 L 22.9389,-45.9549
 L 22.2699,-45.545 L 21.5451,-45.2447 L 20.7822,-45.0616 L 20,-45 z
M 109.296,-45.5554 L 108.609,-45.7202 L 107.957,-45.9905 L 107.355,-46.3594 L 106.818,-46.818 L 106.359,-47.355
 L 105.99,-47.957 L 105.72,-48.6094 L 105.555,-49.296 L 105.5,-50 L 105.555,-50.7039 L 105.72,-51.3906
 L 105.99,-52.043 L 106.359,-52.645 L 106.818,-53.182 L 107.355,-53.6406 L 107.957,-54.0095 L 108.609,-54.2797
 L 109.296,-54.4446 L 110,-54.5 L 110.704,-54.4446 L 111.391,-54.2797 L 112.043,-54.0095 L 112.645,-53.6406
 L 113.182,-53.182 L 113.641,-52.645 L 114.01,-52.043 L 114.28,-51.3906 L 114.445,-50.7039 L 114.5,-50
 L 114.445,-49.296 L 114.28,-48.6094 L 114.01,-47.957 L 113.641,-47.355 L 113.182,-46.818 L 112.645,-46.3594
 L 112.043,-45.9905 L 111.391,-45.7202 L 110.704,-45.5554 L 110,-45.5 z
M 199.296,-45.5554 L 198.609,-45.7202 L 197.957,-45.9905 L 197.355,-46.3594 L 196.818,-46.818 L 196.359,-47.355
 L 195.99,-47.957 L 195.72,-48.6094 L 195.555,-49.296 L 195.5,-50 L 195.555,-50.7039 L 195.72,-51.3906
 L 195.99,-52.043 L 196.359,-52.645 L 196.818,-53.182 L 197.355,-53.6406 L 197.957,-54.0095 L 198.609,-54.2797
 L 199.296,-54.4446 L 200,-54.5 L 200.704,-54.4446 L 201.391,-54.2797 L 202.043,-54.0095 L 202.645,-53.6406
 L 203.182,-53.182 L 203.641,-52.645 L 204.01,-52.043 L 204.28,-51.3906 L 204.445,-50.7039 L 204.5,-50
 L 204.445,-49.296 L 204.28,-48.6094 L 204.01,-47.957 L 203.641,-47.355 L 203.182,-46.818 L 202.645,-46.3594
 L 202.043,-45.9905 L 201.391,-45.7202 L 200.704,-45.5554 L 200,-45.5 z
M 169.296,-45.5554 L 168.609,-45.7202 L 167.957,-45.9905 L 167.355,-46.3594 L 166.818,-46.818 L 166.359,-47.355
 L 165.99,-47.957 L 165.72,-48.6094 L 165.555,-49.296 L 165.5,-50 L 165.555,-50.7039 L 165.72,-51.3906
 L 165.99,-52.043 L 166.359,-52.645 L 166.818,-53.182 L 167.355,-53.6406 L 167.957,-54.0095 L 168.609,-54.2797
 L 169.296,-54.4446 L 170,-54.5 L 170.704,-54.4446 L 171.391,-54.2797 L 172.043,-54.0095 L 172.645,-53.6406
 L 173.182,-53.182 L 173.641,-52.645 L 174.01,-52.043 L 174.28,-51.3906 L 174.445,-50.7039 L 174.5,-50
 L 174.445,-49.296 L 174.28,-48.6094 L 174.01,-47.957 L 173.641,-47.355 L 173.182,-46.818 L 172.645,-46.3594
 L 172.043,-45.9905 L 171.391,-45.7202 L 170.704,-45.5554 L 170,-45.5 z
M 139.296,-45.5554 L 138.609,-45.7202 L 137.957,-45.9905 L 137.355,-46.3594 L 136.818,-46.818 L 136.359,-47.355
 L 135.99,-47.957 L 135.72,-48.6094 L 135.555,-49.296 L 135.5,-50 L 135.555,-50.7039 L 135.72,-51.3906
 L 135.99,-52.043 L 136.359,-52.645 L 136.818,-53.182 L 137.355,-53.6406 L 137.957,-54.0095 L 138.609,-54.2797
 L 139.296,-54.4446 L 140,-54.5 L 140.704,-54.4446 L 141.391,-54.2797 L 142.043,-54.0095 L 142.645,-53.6406
 L 143.182,-53.182 L 143.641,-52.645 L 144.01,-52.043 L 144.28,-51.3906 L 144.445,-50.7039 L 144.5,-50
 L 144.445,-49.296 L 144.28,-48.6094 L 144.01,-47.957 L 143.641,-47.355 L 143.182,-46.818 L 142.645,-46.3594
 L 142.043,-45.9905 L 141.391,-45.7202 L 140.704,-45.5554 L 140,-45.5 z
M 79.296,-45.5554 L 78.6094,-45.7202 L 77.957,-45.9905 L 77.355,-46.3594 L 76.818,-46.818 L 76.3594,-47.355
 L 75.9905,-47.957 L 75.7202,-48.6094 L 75.5554,-49.296 L 75.5,-50 L 75.5554,-50.7039 L 75.7202,-51.3906
 L 75.9905,-52.043 L 76.3594,-52.645 L 76.818,-53.182 L 77.355,-53.6406 L 77.957,-54.0095 L 78.6094,-54.2797
 L 79.296,-54.4446 L 80,-54.5 L 80.7039,-54.4446 L 81.3906,-54.2797 L 82.043,-54.0095 L 82.645,-53.6406
 L 83.182,-53.182 L 83.6406,-52.645 L 84.0095,-52.043 L 84.2797,-51.3906 L 84.4446,-50.7039 L 84.5,-50
 L 84.4446,-49.296 L 84.2797,-48.6094 L 84.0095,-47.957 L 83.6406,-47.355 L 83.182,-46.818 L 82.645,-46.3594
 L 82.043,-45.9905 L 81.3906,-45.7202 L 80.7039,-45.5554 L 80,-45.5 z
M 49.296,-45.5554 L 48.6094,-45.7202 L 47.957,-45.9905 L 47.355,-46.3594 L 46.818,-46.818 L 46.3594,-47.355
 L 45.9905,-47.957 L 45.7202,-48.6094 L 45.5554,-49.296 L 45.5,-50 L 45.5554,-50.7039 L 45.7202,-51.3906
 L 45.9905,-52.043 L 46.3594,-52.645 L 46.818,-53.182 L 47.355,-53.6406 L 47.957,-54.0095 L 48.6094,-54.2797
 L 49.296,-54.4446 L 50,-54.5 L 50.7039,-54.4446 L 51.3906,-54.2797 L 52.043,-54.0095 L 52.645,-53.6406
 L 53.182,-53.182 L 53.6406,-52.645 L 54.0095,-52.043 L 54.2797,-51.3906 L 54.4446,-50.7039 L 54.5,-50
 L 54.4446,-49.296 L 54.2797,-48.6094 L 54.0095,-47.957 L 53.6406,-47.355 L 53.182,-46.818 L 52.645,-46.3594
 L 52.043,-45.9905 L 51.3906,-45.7202 L 50.7039,-45.5554 L 50,-45.5 z
M 19.2178,-15.0616 L 18.4549,-15.2447 L 17.73,-15.545 L 17.0611,-15.9549 L 16.4645,-16.4645 L 15.9549,-17.0611
 L 15.545,-17.73 L 15.2447,-18.4549 L 15.0616,-19.2178 L 15,-20 L 15.0616,-20.7822 L 15.2447,-21.5451
 L 15.545,-22.2699 L 15.9549,-22.9389 L 16.4645,-23.5355 L 17.0611,-24.0451 L 17.73,-24.455 L 18.4549,-24.7553
 L 19.2178,-24.9384 L 20,-25 L 20.7822,-24.9384 L 21.5451,-24.7553 L 22.2699,-24.455 L 22.9389,-24.0451
 L 23.5355,-23.5355 L 24.0451,-22.9389 L 24.455,-22.2699 L 24.7553,-21.5451 L 24.9384,-20.7822 L 25,-20
 L 24.9384,-19.2178 L 24.7553,-18.4549 L 24.455,-17.73 L 24.0451,-17.0611 L 23.5355,-16.4645 L 22.9389,-15.9549
 L 22.2699,-15.545 L 21.5451,-15.2447 L 20.7822,-15.0616 L 20,-15 z
M 169.296,-15.5554 L 168.609,-15.7202 L 167.957,-15.9905 L 167.355,-16.3594 L 166.818,-16.818 L 166.359,-17.355
 L 165.99,-17.957 L 165.72,-18.6094 L 165.555,-19.296 L 165.5,-20 L 165.555,-20.7039 L 165.72,-21.3906
 L 165.99,-22.043 L 166.359,-22.645 L 166.818,-23.182 L 167.355,-23.6406 L 167.957,-24.0095 L 168.609,-24.2797
 L 169.296,-24.4446 L 170,-24.5 L 170.704,-24.4446 L 171.391,-24.2797 L 172.043,-24.0095 L 172.645,-23.6406
 L 173.182,-23.182 L 173.641,-22.645 L 174.01,-22.043 L 174.28,-21.3906 L 174.445,-20.7039 L 174.5,-20
 L 174.445,-19.296 L 174.28,-18.6094 L 174.01,-17.957 L 173.641,-17.355 L 173.182,-16.818 L 172.645,-16.3594
 L 172.043,-15.9905 L 171.391,-15.7202 L 170.704,-15.5554 L 170,-15.5 z
M 139.296,-15.5554 L 138.609,-15.7202 L 137.957,-15.9905 L 137.355,-16.3594 L 136.818,-16.818 L 136.359,-17.355
 L 135.99,-17.957 L 135.72,-18.6094 L 135.555,-19.296 L 135.5,-20 L 135.555,-20.7039 L 135.72,-21.3906
 L 135.99,-22.043 L 136.359,-22.645 L 136.818,-23.182 L 137.355,-23.6406 L 137.957,-24.0095 L 138.609,-24.2797
 L 139.296,-24.4446 L 140,-24.5 L 140.704,-24.4446 L 141.391,-24.2797 L 142.043,-24.0095 L 142.645,-23.6406
 L 143.182,-23.182 L 143.641,-22.645 L 144.01,-22.043 L 144.28,-21.3906 L 144.445,-20.7039 L 144.5,-20
 L 144.445,-19.296 L 144.28,-18.6094 L 144.01,-17.957 L 143.641,-17.355 L 143.182,-16.818 L 142.645,-16.3594
 L 142.043,-15.9905 L 141.391,-15.7202 L 140.704,-15.5554 L 140,-15.5 z
M 109.296,-15.5554 L 108.609,-15.7202 L 107.957,-15.9905 L 107.355,-16.3594 L 106.818,-16.818 L 106.359,-17.355
 L 105.99,-17.957 L 105.72,-18.6094 L 105.555,-19.296 L 105.5,-20 L 105.555,-20.7039 L 105.72,-21.3906
 L 105.99,-22.043 L 106.359,-22.645 L 106.818,-23.182 L 107.355,-23.6406 L 107.957,-24.0095 L 108.609,-24.2797
 L 109.296,-24.4446 L 110,-24.5 L 110.704,-24.4446 L 111.391,-24.2797 L 112.043,-24.0095 L 112.645,-23.6406
 L 113.182,-23.182 L 113.641,-22.645 L 114.01,-22.043 L 114.28,-21.3906 L 114.445,-20.7039 L 114.5,-20
 L 114.445,-19.296 L 114.28,-18.6094 L 114.01,-17.957 L 113.641,-17.355 L 113.182,-16.818 L 112.645,-16.3594
 L 112.043,-15.9905 L 111.391,-15.7202 L 110.704,-15.5554 L 110,-15.5 z
M 79.296,-15.5554 L 78.6094,-15.7202 L 77.957,-15.9905 L 77.355,-16.3594 L 76.818,-16.818 L 76.3594,-17.355
 L 75.9905,-17.957 L 75.7202,-18.6094 L 75.5554,-19.296 L 75.5,-20 L 75.5554,-20.7039 L 75.7202,-21.3906
 L 75.9905,-22.043 L 76.3594,-22.645 L 76.818,-23.182 L 77.355,-23.6406 L 77.957,-24.0095 L 78.6094,-24.2797
 L 79.296,-24.4446 L 80,-24.5 L 80.7039,-24.4446 L 81.3906,-24.2797 L 82.043,-24.0095 L 82.645,-23.6406
 L 83.182,-23.182 L 83.6406,-22.645 L 84.0095,-22.043 L 84.2797,-21.3906 L 84.4446,-20.7039 L 84.5,-20
 L 84.4446,-19.296 L 84.2797,-18.6094 L 84.0095,-17.957 L 83.6406,-17.355 L 83.182,-16.818 L 82.645,-16.3594
 L 82.043,-15.9905 L 81.3906,-15.7202 L 80.7039,-15.5554 L 80,-15.5 z
M 199.296,-15.5554 L 198.609,-15.7202 L 197.957,-15.9905 L 197.355,-16.3594 L 196.818,-16.818 L 196.359,-17.355
 L 195.99,-17.957 L 195.72,-18.6094 L 195.555,-19.296 L 195.5,-20 L 195.555,-20.7039 L 195.72,-21.3906
 L 195.99,-22.043 L 196.359,-22.645 L 196.818,-23.182 L 197.355,-23.6406 L 197.957,-24.0095 L 198.609,-24.2797
 L 199.296,-24.4446 L 200,-24.5 L 200.704,-24.4446 L 201.391,-24.2797 L 202.043,-24.0095 L 202.645,-23.6406
 L 203.182,-23.182 L 203.641,-22.645 L 204.01,-22.043 L 204.28,-21.3906 L 204.445,-20.7039 L 204.5,-20
 L 204.445,-19.296 L 204.28,-18.6094 L 204.01,-17.957 L 203.641,-17.355 L 203.182,-16.818 L 202.645,-16.3594
 L 202.043,-15.9905 L 201.391,-15.7202 L 200.704,-15.5554 L 200,-15.5 z
M 49.296,-15.5554 L 48.6094,-15.7202 L 47.957,-15.9905 L 47.355,-16.3594 L 46.818,-16.818 L 46.3594,-17.355
 L 45.9905,-17.957 L 45.7202,-18.6094 L 45.5554,-19.296 L 45.5,-20 L 45.5554,-20.7039 L 45.7202,-21.3906
 L 45.9905,-22.043 L 46.3594,-22.645 L 46.818,-23.182 L 47.355,-23.6406 L 47.957,-24.0095 L 48.6094,-24.2797
 L 49.296,-24.4446 L 50,-24.5 L 50.7039,-24.4446 L 51.3906,-24.2797 L 52.043,-24.0095 L 52.645,-23.6406
 L 53.182,-23.182 L 53.6406,-22.645 L 54.0095,-22.043 L 54.2797,-21.3906 L 54.4446,-20.7039 L 54.5,-20
 L 54.4446,-19.296 L 54.2797,-18.6094 L 54.0095,-17.957 L 53.6406,-17.355 L 53.182,-16.818 L 52.645,-16.3594
 L 52.043,-15.9905 L 51.3906,-15.7202 L 50.7039,-15.5554 L 50,-15.5 z
" stroke="black" fill="lightgray" stroke-width="0.5"/>
</svg>
