  0
SECTION
  2
BLOCKS
  0
ENDSEC
  0
SECTION
  2
ENTITIES
  0
LINE
  8
0
 10
240
 20
180
 11
0
 21
180
  0
LINE
  8
0
 10
0
 20
180
 11
0
 21
0
  0
LINE
  8
0
 10
0
 20
0
 11
240
 21
0
  0
LINE
  8
0
 10
240
 20
0
 11
240
 21
180
  0
LINE
  8
0
 10
179.218
 20
145.062
 11
178.455
 21
145.245
  0
LINE
  8
0
 10
178.455
 20
145.245
 11
177.73
 21
145.545
  0
LINE
  8
0
 10
177.73
 20
145.545
 11
177.061
 21
145.955
  0
LINE
  8
0
 10
177.061
 20
145.955
 11
176.464
 21
146.464
  0
LINE
  8
0
 10
176.464
 20
146.464
 11
175.955
 21
147.061
  0
LINE
  8
0
 10
175.955
 20
147.061
 11
175.545
 21
147.73
  0
LINE
  8
0
 10
175.545
 20
147.73
 11
175.245
 21
148.455
  0
LINE
  8
0
 10
175.245
 20
148.455
 11
175.062
 21
149.218
  0
LINE
  8
0
 10
175.062
 20
149.218
 11
175
 21
150
  0
LINE
  8
0
 10
175
 20
150
 11
175.062
 21
150.782
  0
LINE
  8
0
 10
175.062
 20
150.782
 11
175.245
 21
151.545
  0
LINE
  8
0
 10
175.245
 20
151.545
 11
175.545
 21
152.27
  0
LINE
  8
0
 10
175.545
 20
152.27
 11
175.955
 21
152.939
  0
LINE
  8
0
 10
175.955
 20
152.939
 11
176.464
 21
153.536
  0
LINE
  8
0
 10
176.464
 20
153.536
 11
177.061
 21
154.045
  0
LINE
  8
0
 10
177.061
 20
154.045
 11
177.73
 21
154.455
  0
LINE
  8
0
 10
177.73
 20
154.455
 11
178.455
 21
154.755
  0
LINE
  8
0
 10
178.455
 20
154.755
 11
179.218
 21
154.938
  0
LINE
  8
0
 10
179.218
 20
154.938
 11
180
 21
155
  0
LINE
  8
0
 10
180
 20
155
 11
180.782
 21
154.938
  0
LINE
  8
0
 10
180.782
 20
154.938
 11
181.545
 21
154.755
  0
LINE
  8
0
 10
181.545
 20
154.755
 11
182.27
 21
154.455
  0
LINE
  8
0
 10
182.27
 20
154.455
 11
182.939
 21
154.045
  0
LINE
  8
0
 10
182.939
 20
154.045
 11
183.536
 21
153.536
  0
LINE
  8
0
 10
183.536
 20
153.536
 11
184.045
 21
152.939
  0
LINE
  8
0
 10
184.045
 20
152.939
 11
184.455
 21
152.27
  0
LINE
  8
0
 10
184.455
 20
152.27
 11
184.755
 21
151.545
  0
LINE
  8
0
 10
184.755
 20
151.545
 11
184.938
 21
150.782
  0
LINE
  8
0
 10
184.938
 20
150.782
 11
185
 21
150
  0
LINE
  8
0
 10
185
 20
150
 11
184.938
 21
149.218
  0
LINE
  8
0
 10
184.938
 20
149.218
 11
184.755
 21
148.455
  0
LINE
  8
0
 10
184.755
 20
148.455
 11
184.455
 21
147.73
  0
LINE
  8
0
 10
184.455
 20
147.73
 11
184.045
 21
147.061
  0
LINE
  8
0
 10
184.045
 20
147.061
 11
183.536
 21
146.464
  0
LINE
  8
0
 10
183.536
 20
146.464
 11
182.939
 21
145.955
  0
LINE
  8
0
 10
182.939
 20
145.955
 11
182.27
 21
145.545
  0
LINE
  8
0
 10
182.27
 20
145.545
 11
181.545
 21
145.245
  0
LINE
  8
0
 10
181.545
 20
145.245
 11
180.782
 21
145.062
  0
LINE
  8
0
 10
180.782
 20
145.062
 11
180
 21
145
  0
LINE
  8
0
 10
180
 20
145
 11
179.218
 21
145.062
  0
LINE
  8
0
 10
149.218
 20
145.062
 11
148.455
 21
145.245
  0
LINE
  8
0
 10
148.455
 20
145.245
 11
147.73
 21
145.545
  0
LINE
  8
0
 10
147.73
 20
145.545
 11
147.061
 21
145.955
  0
LINE
  8
0
 10
147.061
 20
145.955
 11
146.464
 21
146.464
  0
LINE
  8
0
 10
146.464
 20
146.464
 11
145.955
 21
147.061
  0
LINE
  8
0
 10
145.955
 20
147.061
 11
145.545
 21
147.73
  0
LINE
  8
0
 10
145.545
 20
147.73
 11
145.245
 21
148.455
  0
LINE
  8
0
 10
145.245
 20
148.455
 11
145.062
 21
149.218
  0
LINE
  8
0
 10
145.062
 20
149.218
 11
145
 21
150
  0
LINE
  8
0
 10
145
 20
150
 11
145.062
 21
150.782
  0
LINE
  8
0
 10
145.062
 20
150.782
 11
145.245
 21
151.545
  0
LINE
  8
0
 10
145.245
 20
151.545
 11
145.545
 21
152.27
  0
LINE
  8
0
 10
145.545
 20
152.27
 11
145.955
 21
152.939
  0
LINE
  8
0
 10
145.955
 20
152.939
 11
146.464
 21
153.536
  0
LINE
  8
0
 10
146.464
 20
153.536
 11
147.061
 21
154.045
  0
LINE
  8
0
 10
147.061
 20
154.045
 11
147.73
 21
154.455
  0
LINE
  8
0
 10
147.73
 20
154.455
 11
148.455
 21
154.755
  0
LINE
  8
0
 10
148.455
 20
154.755
 11
149.218
 21
154.938
  0
LINE
  8
0
 10
149.218
 20
154.938
 11
150
 21
155
  0
LINE
  8
0
 10
150
 20
155
 11
150.782
 21
154.938
  0
LINE
  8
0
 10
150.782
 20
154.938
 11
151.545
 21
154.755
  0
LINE
  8
0
 10
151.545
 20
154.755
 11
152.27
 21
154.455
  0
LINE
  8
0
 10
152.27
 20
154.455
 11
152.939
 21
154.045
  0
LINE
  8
0
 10
152.939
 20
154.045
 11
153.536
 21
153.536
  0
LINE
  8
0
 10
153.536
 20
153.536
 11
154.045
 21
152.939
  0
LINE
  8
0
 10
154.045
 20
152.939
 11
154.455
 21
152.27
  0
LINE
  8
0
 10
154.455
 20
152.27
 11
154.755
 21
151.545
  0
LINE
  8
0
 10
154.755
 20
151.545
 11
154.938
 21
150.782
  0
LINE
  8
0
 10
154.938
 20
150.782
 11
155
 21
150
  0
LINE
  8
0
 10
155
 20
150
 11
154.938
 21
149.218
  0
LINE
  8
0
 10
154.938
 20
149.218
 11
154.755
 21
148.455
  0
LINE
  8
0
 10
154.755
 20
148.455
 11
154.455
 21
147.73
  0
LINE
  8
0
 10
154.455
 20
147.73
 11
154.045
 21
147.061
  0
LINE
  8
0
 10
154.045
 20
147.061
 11
153.536
 21
146.464
  0
LINE
  8
0
 10
153.536
 20
146.464
 11
152.939
 21
145.955
  0
LINE
  8
0
 10
152.939
 20
145.955
 11
152.27
 21
145.545
  0
LINE
  8
0
 10
152.27
 20
145.545
 11
151.545
 21
145.245
  0
LINE
  8
0
 10
151.545
 20
145.245
 11
150.782
 21
145.062
  0
LINE
  8
0
 10
150.782
 20
145.062
 11
150
 21
145
  0
LINE
  8
0
 10
150
 20
145
 11
149.218
 21
145.062
  0
LINE
  8
0
 10
59.2178
 20
145.062
 11
58.4549
 21
145.245
  0
LINE
  8
0
 10
58.4549
 20
145.245
 11
57.73
 21
145.545
  0
LINE
  8
0
 10
57.73
 20
145.545
 11
57.0611
 21
145.955
  0
LINE
  8
0
 10
57.0611
 20
145.955
 11
56.4645
 21
146.464
  0
LINE
  8
0
 10
56.4645
 20
146.464
 11
55.9549
 21
147.061
  0
LINE
  8
0
 10
55.9549
 20
147.061
 11
55.545
 21
147.73
  0
LINE
  8
0
 10
55.545
 20
147.73
 11
55.2447
 21
148.455
  0
LINE
  8
0
 10
55.2447
 20
148.455
 11
55.0616
 21
149.218
  0
LINE
  8
0
 10
55.0616
 20
149.218
 11
55
 21
150
  0
LINE
  8
0
 10
55
 20
150
 11
55.0616
 21
150.782
  0
LINE
  8
0
 10
55.0616
 20
150.782
 11
55.2447
 21
151.545
  0
LINE
  8
0
 10
55.2447
 20
151.545
 11
55.545
 21
152.27
  0
LINE
  8
0
 10
55.545
 20
152.27
 11
55.9549
 21
152.939
  0
LINE
  8
0
 10
55.9549
 20
152.939
 11
56.4645
 21
153.536
  0
LINE
  8
0
 10
56.4645
 20
153.536
 11
57.0611
 21
154.045
  0
LINE
  8
0
 10
57.0611
 20
154.045
 11
57.73
 21
154.455
  0
LINE
  8
0
 10
57.73
 20
154.455
 11
58.4549
 21
154.755
  0
LINE
  8
0
 10
58.4549
 20
154.755
 11
59.2178
 21
154.938
  0
LINE
  8
0
 10
59.2178
 20
154.938
 11
60
 21
155
  0
LINE
  8
0
 10
60
 20
155
 11
60.7822
 21
154.938
  0
LINE
  8
0
 10
60.7822
 20
154.938
 11
61.5451
 21
154.755
  0
LINE
  8
0
 10
61.5451
 20
154.755
 11
62.2699
 21
154.455
  0
LINE
  8
0
 10
62.2699
 20
154.455
 11
62.9389
 21
154.045
  0
LINE
  8
0
 10
62.9389
 20
154.045
 11
63.5355
 21
153.536
  0
LINE
  8
0
 10
63.5355
 20
153.536
 11
64.0451
 21
152.939
  0
LINE
  8
0
 10
64.0451
 20
152.939
 11
64.455
 21
152.27
  0
LINE
  8
0
 10
64.455
 20
152.27
 11
64.7553
 21
151.545
  0
LINE
  8
0
 10
64.7553
 20
151.545
 11
64.9384
 21
150.782
  0
LINE
  8
0
 10
64.9384
 20
150.782
 11
65
 21
150
  0
LINE
  8
0
 10
65
 20
150
 11
64.9384
 21
149.218
  0
LINE
  8
0
 10
64.9384
 20
149.218
 11
64.7553
 21
148.455
  0
LINE
  8
0
 10
64.7553
 20
148.455
 11
64.455
 21
147.73
  0
LINE
  8
0
 10
64.455
 20
147.73
 11
64.0451
 21
147.061
  0
LINE
  8
0
 10
64.0451
 20
147.061
 11
63.5355
 21
146.464
  0
LINE
  8
0
 10
63.5355
 20
146.464
 11
62.9389
 21
145.955
  0
LINE
  8
0
 10
62.9389
 20
145.955
 11
62.2699
 21
145.545
  0
LINE
  8
0
 10
62.2699
 20
145.545
 11
61.5451
 21
145.245
  0
LINE
  8
0
 10
61.5451
 20
145.245
 11
60.7822
 21
145.062
  0
LINE
  8
0
 10
60.7822
 20
145.062
 11
60
 21
145
  0
LINE
  8
0
 10
60
 20
145
 11
59.2178
 21
145.062
  0
LINE
  8
0
 10
119.218
 20
145.062
 11
118.455
 21
145.245
  0
LINE
  8
0
 10
118.455
 20
145.245
 11
117.73
 21
145.545
  0
LINE
  8
0
 10
117.73
 20
145.545
 11
117.061
 21
145.955
  0
LINE
  8
0
 10
117.061
 20
145.955
 11
116.464
 21
146.464
  0
LINE
  8
0
 10
116.464
 20
146.464
 11
115.955
 21
147.061
  0
LINE
  8
0
 10
115.955
 20
147.061
 11
115.545
 21
147.73
  0
LINE
  8
0
 10
115.545
 20
147.73
 11
115.245
 21
148.455
  0
LINE
  8
0
 10
115.245
 20
148.455
 11
115.062
 21
149.218
  0
LINE
  8
0
 10
115.062
 20
149.218
 11
115
 21
150
  0
LINE
  8
0
 10
115
 20
150
 11
115.062
 21
150.782
  0
LINE
  8
0
 10
115.062
 20
150.782
 11
115.245
 21
151.545
  0
LINE
  8
0
 10
115.245
 20
151.545
 11
115.545
 21
152.27
  0
LINE
  8
0
 10
115.545
 20
152.27
 11
115.955
 21
152.939
  0
LINE
  8
0
 10
115.955
 20
152.939
 11
116.464
 21
153.536
  0
LINE
  8
0
 10
116.464
 20
153.536
 11
117.061
 21
154.045
  0
LINE
  8
0
 10
117.061
 20
154.045
 11
117.73
 21
154.455
  0
LINE
  8
0
 10
117.73
 20
154.455
 11
118.455
 21
154.755
  0
LINE
  8
0
 10
118.455
 20
154.755
 11
119.218
 21
154.938
  0
LINE
  8
0
 10
119.218
 20
154.938
 11
120
 21
155
  0
LINE
  8
0
 10
120
 20
155
 11
120.782
 21
154.938
  0
LINE
  8
0
 10
120.782
 20
154.938
 11
121.545
 21
154.755
  0
LINE
  8
0
 10
121.545
 20
154.755
 11
122.27
 21
154.455
  0
LINE
  8
0
 10
122.27
 20
154.455
 11
122.939
 21
154.045
  0
LINE
  8
0
 10
122.939
 20
154.045
 11
123.536
 21
153.536
  0
LINE
  8
0
 10
123.536
 20
153.536
 11
124.045
 21
152.939
  0
LINE
  8
0
 10
124.045
 20
152.939
 11
124.455
 21
152.27
  0
LINE
  8
0
 10
124.455
 20
152.27
 11
124.755
 21
151.545
  0
LINE
  8
0
 10
124.755
 20
151.545
 11
124.938
 21
150.782
  0
LINE
  8
0
 10
124.938
 20
150.782
 11
125
 21
150
  0
LINE
  8
0
 10
125
 20
150
 11
124.938
 21
149.218
  0
LINE
  8
0
 10
124.938
 20
149.218
 11
124.755
 21
148.455
  0
LINE
  8
0
 10
124.755
 20
148.455
 11
124.455
 21
147.73
  0
LINE
  8
0
 10
124.455
 20
147.73
 11
124.045
 21
147.061
  0
LINE
  8
0
 10
124.045
 20
147.061
 11
123.536
 21
146.464
  0
LINE
  8
0
 10
123.536
 20
146.464
 11
122.939
 21
145.955
  0
LINE
  8
0
 10
122.939
 20
145.955
 11
122.27
 21
145.545
  0
LINE
  8
0
 10
122.27
 20
145.545
 11
121.545
 21
145.245
  0
LINE
  8
0
 10
121.545
 20
145.245
 11
120.782
 21
145.062
  0
LINE
  8
0
 10
120.782
 20
145.062
 11
120
 21
145
  0
LINE
  8
0
 10
120
 20
145
 11
119.218
 21
145.062
  0
LINE
  8
0
 10
89.2178
 20
145.062
 11
88.4549
 21
145.245
  0
LINE
  8
0
 10
88.4549
 20
145.245
 11
87.73
 21
145.545
  0
LINE
  8
0
 10
87.73
 20
145.545
 11
87.0611
 21
145.955
  0
LINE
  8
0
 10
87.0611
 20
145.955
 11
86.4645
 21
146.464
  0
LINE
  8
0
 10
86.4645
 20
146.464
 11
85.9549
 21
147.061
  0
LINE
  8
0
 10
85.9549
 20
147.061
 11
85.545
 21
147.73
  0
LINE
  8
0
 10
85.545
 20
147.73
 11
85.2447
 21
148.455
  0
LINE
  8
0
 10
85.2447
 20
148.455
 11
85.0616
 21
149.218
  0
LINE
  8
0
 10
85.0616
 20
149.218
 11
85
 21
150
  0
LINE
  8
0
 10
85
 20
150
 11
85.0616
 21
150.782
  0
LINE
  8
0
 10
85.0616
 20
150.782
 11
85.2447
 21
151.545
  0
LINE
  8
0
 10
85.2447
 20
151.545
 11
85.545
 21
152.27
  0
LINE
  8
0
 10
85.545
 20
152.27
 11
85.9549
 21
152.939
  0
LINE
  8
0
 10
85.9549
 20
152.939
 11
86.4645
 21
153.536
  0
LINE
  8
0
 10
86.4645
 20
153.536
 11
87.0611
 21
154.045
  0
LINE
  8
0
 10
87.0611
 20
154.045
 11
87.73
 21
154.455
  0
LINE
  8
0
 10
87.73
 20
154.455
 11
88.4549
 21
154.755
  0
LINE
  8
0
 10
88.4549
 20
154.755
 11
89.2178
 21
154.938
  0
LINE
  8
0
 10
89.2178
 20
154.938
 11
90
 21
155
  0
LINE
  8
0
 10
90
 20
155
 11
90.7822
 21
154.938
  0
LINE
  8
0
 10
90.7822
 20
154.938
 11
91.5451
 21
154.755
  0
LINE
  8
0
 10
91.5451
 20
154.755
 11
92.2699
 21
154.455
  0
LINE
  8
0
 10
92.2699
 20
154.455
 11
92.9389
 21
154.045
  0
LINE
  8
0
 10
92.9389
 20
154.045
 11
93.5355
 21
153.536
  0
LINE
  8
0
 10
93.5355
 20
153.536
 11
94.0451
 21
152.939
  0
LINE
  8
0
 10
94.0451
 20
152.939
 11
94.455
 21
152.27
  0
LINE
  8
0
 10
94.455
 20
152.27
 11
94.7553
 21
151.545
  0
LINE
  8
0
 10
94.7553
 20
151.545
 11
94.9384
 21
150.782
  0
LINE
  8
0
 10
94.9384
 20
150.782
 11
95
 21
150
  0
LINE
  8
0
 10
95
 20
150
 11
94.9384
 21
149.218
  0
LINE
  8
0
 10
94.9384
 20
149.218
 11
94.7553
 21
148.455
  0
LINE
  8
0
 10
94.7553
 20
148.455
 11
94.455
 21
147.73
  0
LINE
  8
0
 10
94.455
 20
147.73
 11
94.0451
 21
147.061
  0
LINE
  8
0
 10
94.0451
 20
147.061
 11
93.5355
 21
146.464
  0
LINE
  8
0
 10
93.5355
 20
146.464
 11
92.9389
 21
145.955
  0
LINE
  8
0
 10
92.9389
 20
145.955
 11
92.2699
 21
145.545
  0
LINE
  8
0
 10
92.2699
 20
145.545
 11
91.5451
 21
145.245
  0
LINE
  8
0
 10
91.5451
 20
145.245
 11
90.7822
 21
145.062
  0
LINE
  8
0
 10
90.7822
 20
145.062
 11
90
 21
145
  0
LINE
  8
0
 10
90
 20
145
 11
89.2178
 21
145.062
  0
LINE
  8
0
 10
209.218
 20
145.062
 11
208.455
 21
145.245
  0
LINE
  8
0
 10
208.455
 20
145.245
 11
207.73
 21
145.545
  0
LINE
  8
0
 10
207.73
 20
145.545
 11
207.061
 21
145.955
  0
LINE
  8
0
 10
207.061
 20
145.955
 11
206.464
 21
146.464
  0
LINE
  8
0
 10
206.464
 20
146.464
 11
205.955
 21
147.061
  0
LINE
  8
0
 10
205.955
 20
147.061
 11
205.545
 21
147.73
  0
LINE
  8
0
 10
205.545
 20
147.73
 11
205.245
 21
148.455
  0
LINE
  8
0
 10
205.245
 20
148.455
 11
205.062
 21
149.218
  0
LINE
  8
0
 10
205.062
 20
149.218
 11
205
 21
150
  0
LINE
  8
0
 10
205
 20
150
 11
205.062
 21
150.782
  0
LINE
  8
0
 10
205.062
 20
150.782
 11
205.245
 21
151.545
  0
LINE
  8
0
 10
205.245
 20
151.545
 11
205.545
 21
152.27
  0
LINE
  8
0
 10
205.545
 20
152.27
 11
205.955
 21
152.939
  0
LINE
  8
0
 10
205.955
 20
152.939
 11
206.464
 21
153.536
  0
LINE
  8
0
 10
206.464
 20
153.536
 11
207.061
 21
154.045
  0
LINE
  8
0
 10
207.061
 20
154.045
 11
207.73
 21
154.455
  0
LINE
  8
0
 10
207.73
 20
154.455
 11
208.455
 21
154.755
  0
LINE
  8
0
 10
208.455
 20
154.755
 11
209.218
 21
154.938
  0
LINE
  8
0
 10
209.218
 20
154.938
 11
210
 21
155
  0
LINE
  8
0
 10
210
 20
155
 11
210.782
 21
154.938
  0
LINE
  8
0
 10
210.782
 20
154.938
 11
211.545
 21
154.755
  0
LINE
  8
0
 10
211.545
 20
154.755
 11
212.27
 21
154.455
  0
LINE
  8
0
 10
212.27
 20
154.455
 11
212.939
 21
154.045
  0
LINE
  8
0
 10
212.939
 20
154.045
 11
213.536
 21
153.536
  0
LINE
  8
0
 10
213.536
 20
153.536
 11
214.045
 21
152.939
  0
LINE
  8
0
 10
214.045
 20
152.939
 11
214.455
 21
152.27
  0
LINE
  8
0
 10
214.455
 20
152.27
 11
214.755
 21
151.545
  0
LINE
  8
0
 10
214.755
 20
151.545
 11
214.938
 21
150.782
  0
LINE
  8
0
 10
214.938
 20
150.782
 11
215
 21
150
  0
LINE
  8
0
 10
215
 20
150
 11
214.938
 21
149.218
  0
LINE
  8
0
 10
214.938
 20
149.218
 11
214.755
 21
148.455
  0
LINE
  8
0
 10
214.755
 20
148.455
 11
214.455
 21
147.73
  0
LINE
  8
0
 10
214.455
 20
147.73
 11
214.045
 21
147.061
  0
LINE
  8
0
 10
214.045
 20
147.061
 11
213.536
 21
146.464
  0
LINE
  8
0
 10
213.536
 20
146.464
 11
212.939
 21
145.955
  0
LINE
  8
0
 10
212.939
 20
145.955
 11
212.27
 21
145.545
  0
LINE
  8
0
 10
212.27
 20
145.545
 11
211.545
 21
145.245
  0
LINE
  8
0
 10
211.545
 20
145.245
 11
210.782
 21
145.062
  0
LINE
  8
0
 10
210.782
 20
145.062
 11
210
 21
145
  0
LINE
  8
0
 10
210
 20
145
 11
209.218
 21
145.062
  0
LINE
  8
0
 10
29.2178
 20
115.062
 11
28.4549
 21
115.245
  0
LINE
  8
0
 10
28.4549
 20
115.245
 11
27.73
 21
115.545
  0
LINE
  8
0
 10
27.73
 20
115.545
 11
27.0611
 21
115.955
  0
LINE
  8
0
 10
27.0611
 20
115.955
 11
26.4645
 21
116.464
  0
LINE
  8
0
 10
26.4645
 20
116.464
 11
25.9549
 21
117.061
  0
LINE
  8
0
 10
25.9549
 20
117.061
 11
25.545
 21
117.73
  0
LINE
  8
0
 10
25.545
 20
117.73
 11
25.2447
 21
118.455
  0
LINE
  8
0
 10
25.2447
 20
118.455
 11
25.0616
 21
119.218
  0
LINE
  8
0
 10
25.0616
 20
119.218
 11
25
 21
120
  0
LINE
  8
0
 10
25
 20
120
 11
25.0616
 21
120.782
  0
LINE
  8
0
 10
25.0616
 20
120.782
 11
25.2447
 21
121.545
  0
LINE
  8
0
 10
25.2447
 20
121.545
 11
25.545
 21
122.27
  0
LINE
  8
0
 10
25.545
 20
122.27
 11
25.9549
 21
122.939
  0
LINE
  8
0
 10
25.9549
 20
122.939
 11
26.4645
 21
123.536
  0
LINE
  8
0
 10
26.4645
 20
123.536
 11
27.0611
 21
124.045
  0
LINE
  8
0
 10
27.0611
 20
124.045
 11
27.73
 21
124.455
  0
LINE
  8
0
 10
27.73
 20
124.455
 11
28.4549
 21
124.755
  0
LINE
  8
0
 10
28.4549
 20
124.755
 11
29.2178
 21
124.938
  0
LINE
  8
0
 10
29.2178
 20
124.938
 11
30
 21
125
  0
LINE
  8
0
 10
30
 20
125
 11
30.7822
 21
124.938
  0
LINE
  8
0
 10
30.7822
 20
124.938
 11
31.5451
 21
124.755
  0
LINE
  8
0
 10
31.5451
 20
124.755
 11
32.2699
 21
124.455
  0
LINE
  8
0
 10
32.2699
 20
124.455
 11
32.9389
 21
124.045
  0
LINE
  8
0
 10
32.9389
 20
124.045
 11
33.5355
 21
123.536
  0
LINE
  8
0
 10
33.5355
 20
123.536
 11
34.0451
 21
122.939
  0
LINE
  8
0
 10
34.0451
 20
122.939
 11
34.455
 21
122.27
  0
LINE
  8
0
 10
34.455
 20
122.27
 11
34.7553
 21
121.545
  0
LINE
  8
0
 10
34.7553
 20
121.545
 11
34.9384
 21
120.782
  0
LINE
  8
0
 10
34.9384
 20
120.782
 11
35
 21
120
  0
LINE
  8
0
 10
35
 20
120
 11
34.9384
 21
119.218
  0
LINE
  8
0
 10
34.9384
 20
119.218
 11
34.7553
 21
118.455
  0
LINE
  8
0
 10
34.7553
 20
118.455
 11
34.455
 21
117.73
  0
LINE
  8
0
 10
34.455
 20
117.73
 11
34.0451
 21
117.061
  0
LINE
  8
0
 10
34.0451
 20
117.061
 11
33.5355
 21
116.464
  0
LINE
  8
0
 10
33.5355
 20
116.464
 11
32.9389
 21
115.955
  0
LINE
  8
0
 10
32.9389
 20
115.955
 11
32.2699
 21
115.545
  0
LINE
  8
0
 10
32.2699
 20
115.545
 11
31.5451
 21
115.245
  0
LINE
  8
0
 10
31.5451
 20
115.245
 11
30.7822
 21
115.062
  0
LINE
  8
0
 10
30.7822
 20
115.062
 11
30
 21
115
  0
LINE
  8
0
 10
30
 20
115
 11
29.2178
 21
115.062
  0
LINE
  8
0
 10
179.296
 20
115.555
 11
178.609
 21
115.72
  0
LINE
  8
0
 10
178.609
 20
115.72
 11
177.957
 21
115.99
  0
LINE
  8
0
 10
177.957
 20
115.99
 11
177.355
 21
116.359
  0
LINE
  8
0
 10
177.355
 20
116.359
 11
176.818
 21
116.818
  0
LINE
  8
0
 10
176.818
 20
116.818
 11
176.359
 21
117.355
  0
LINE
  8
0
 10
176.359
 20
117.355
 11
175.99
 21
117.957
  0
LINE
  8
0
 10
175.99
 20
117.957
 11
175.72
 21
118.609
  0
LINE
  8
0
 10
175.72
 20
118.609
 11
175.555
 21
119.296
  0
LINE
  8
0
 10
175.555
 20
119.296
 11
175.5
 21
120
  0
LINE
  8
0
 10
175.5
 20
120
 11
175.555
 21
120.704
  0
LINE
  8
0
 10
175.555
 20
120.704
 11
175.72
 21
121.391
  0
LINE
  8
0
 10
175.72
 20
121.391
 11
175.99
 21
122.043
  0
LINE
  8
0
 10
175.99
 20
122.043
 11
176.359
 21
122.645
  0
LINE
  8
0
 10
176.359
 20
122.645
 11
176.818
 21
123.182
  0
LINE
  8
0
 10
176.818
 20
123.182
 11
177.355
 21
123.641
  0
LINE
  8
0
 10
177.355
 20
123.641
 11
177.957
 21
124.01
  0
LINE
  8
0
 10
177.957
 20
124.01
 11
178.609
 21
124.28
  0
LINE
  8
0
 10
178.609
 20
124.28
 11
179.296
 21
124.445
  0
LINE
  8
0
 10
179.296
 20
124.445
 11
180
 21
124.5
  0
LINE
  8
0
 10
180
 20
124.5
 11
180.704
 21
124.445
  0
LINE
  8
0
 10
180.704
 20
124.445
 11
181.391
 21
124.28
  0
LINE
  8
0
 10
181.391
 20
124.28
 11
182.043
 21
124.01
  0
LINE
  8
0
 10
182.043
 20
124.01
 11
182.645
 21
123.641
  0
LINE
  8
0
 10
182.645
 20
123.641
 11
183.182
 21
123.182
  0
LINE
  8
0
 10
183.182
 20
123.182
 11
183.641
 21
122.645
  0
LINE
  8
0
 10
183.641
 20
122.645
 11
184.01
 21
122.043
  0
LINE
  8
0
 10
184.01
 20
122.043
 11
184.28
 21
121.391
  0
LINE
  8
0
 10
184.28
 20
121.391
 11
184.445
 21
120.704
  0
LINE
  8
0
 10
184.445
 20
120.704
 11
184.5
 21
120
  0
LINE
  8
0
 10
184.5
 20
120
 11
184.445
 21
119.296
  0
LINE
  8
0
 10
184.445
 20
119.296
 11
184.28
 21
118.609
  0
LINE
  8
0
 10
184.28
 20
118.609
 11
184.01
 21
117.957
  0
LINE
  8
0
 10
184.01
 20
117.957
 11
183.641
 21
117.355
  0
LINE
  8
0
 10
183.641
 20
117.355
 11
183.182
 21
116.818
  0
LINE
  8
0
 10
183.182
 20
116.818
 11
182.645
 21
116.359
  0
LINE
  8
0
 10
182.645
 20
116.359
 11
182.043
 21
115.99
  0
LINE
  8
0
 10
182.043
 20
115.99
 11
181.391
 21
115.72
  0
LINE
  8
0
 10
181.391
 20
115.72
 11
180.704
 21
115.555
  0
LINE
  8
0
 10
180.704
 20
115.555
 11
180
 21
115.5
  0
LINE
  8
0
 10
180
 20
115.5
 11
179.296
 21
115.555
  0
LINE
  8
0
 10
149.296
 20
115.555
 11
148.609
 21
115.72
  0
LINE
  8
0
 10
148.609
 20
115.72
 11
147.957
 21
115.99
  0
LINE
  8
0
 10
147.957
 20
115.99
 11
147.355
 21
116.359
  0
LINE
  8
0
 10
147.355
 20
116.359
 11
146.818
 21
116.818
  0
LINE
  8
0
 10
146.818
 20
116.818
 11
146.359
 21
117.355
  0
LINE
  8
0
 10
146.359
 20
117.355
 11
145.99
 21
117.957
  0
LINE
  8
0
 10
145.99
 20
117.957
 11
145.72
 21
118.609
  0
LINE
  8
0
 10
145.72
 20
118.609
 11
145.555
 21
119.296
  0
LINE
  8
0
 10
145.555
 20
119.296
 11
145.5
 21
120
  0
LINE
  8
0
 10
145.5
 20
120
 11
145.555
 21
120.704
  0
LINE
  8
0
 10
145.555
 20
120.704
 11
145.72
 21
121.391
  0
LINE
  8
0
 10
145.72
 20
121.391
 11
145.99
 21
122.043
  0
LINE
  8
0
 10
145.99
 20
122.043
 11
146.359
 21
122.645
  0
LINE
  8
0
 10
146.359
 20
122.645
 11
146.818
 21
123.182
  0
LINE
  8
0
 10
146.818
 20
123.182
 11
147.355
 21
123.641
  0
LINE
  8
0
 10
147.355
 20
123.641
 11
147.957
 21
124.01
  0
LINE
  8
0
 10
147.957
 20
124.01
 11
148.609
 21
124.28
  0
LINE
  8
0
 10
148.609
 20
124.28
 11
149.296
 21
124.445
  0
LINE
  8
0
 10
149.296
 20
124.445
 11
150
 21
124.5
  0
LINE
  8
0
 10
150
 20
124.5
 11
150.704
 21
124.445
  0
LINE
  8
0
 10
150.704
 20
124.445
 11
151.391
 21
124.28
  0
LINE
  8
0
 10
151.391
 20
124.28
 11
152.043
 21
124.01
  0
LINE
  8
0
 10
152.043
 20
124.01
 11
152.645
 21
123.641
  0
LINE
  8
0
 10
152.645
 20
123.641
 11
153.182
 21
123.182
  0
LINE
  8
0
 10
153.182
 20
123.182
 11
153.641
 21
122.645
  0
LINE
  8
0
 10
153.641
 20
122.645
 11
154.01
 21
122.043
  0
LINE
  8
0
 10
154.01
 20
122.043
 11
154.28
 21
121.391
  0
LINE
  8
0
 10
154.28
 20
121.391
 11
154.445
 21
120.704
  0
LINE
  8
0
 10
154.445
 20
120.704
 11
154.5
 21
120
  0
LINE
  8
0
 10
154.5
 20
120
 11
154.445
 21
119.296
  0
LINE
  8
0
 10
154.445
 20
119.296
 11
154.28
 21
118.609
  0
LINE
  8
0
 10
154.28
 20
118.609
 11
154.01
 21
117.957
  0
LINE
  8
0
 10
154.01
 20
117.957
 11
153.641
 21
117.355
  0
LINE
  8
0
 10
153.641
 20
117.355
 11
153.182
 21
116.818
  0
LINE
  8
0
 10
153.182
 20
116.818
 11
152.645
 21
116.359
  0
LINE
  8
0
 10
152.645
 20
116.359
 11
152.043
 21
115.99
  0
LINE
  8
0
 10
152.043
 20
115.99
 11
151.391
 21
115.72
  0
LINE
  8
0
 10
151.391
 20
115.72
 11
150.704
 21
115.555
  0
LINE
  8
0
 10
150.704
 20
115.555
 11
150
 21
115.5
  0
LINE
  8
0
 10
150
 20
115.5
 11
149.296
 21
115.555
  0
LINE
  8
0
 10
119.296
 20
115.555
 11
118.609
 21
115.72
  0
LINE
  8
0
 10
118.609
 20
115.72
 11
117.957
 21
115.99
  0
LINE
  8
0
 10
117.957
 20
115.99
 11
117.355
 21
116.359
  0
LINE
  8
0
 10
117.355
 20
116.359
 11
116.818
 21
116.818
  0
LINE
  8
0
 10
116.818
 20
116.818
 11
116.359
 21
117.355
  0
LINE
  8
0
 10
116.359
 20
117.355
 11
115.99
 21
117.957
  0
LINE
  8
0
 10
115.99
 20
117.957
 11
115.72
 21
118.609
  0
LINE
  8
0
 10
115.72
 20
118.609
 11
115.555
 21
119.296
  0
LINE
  8
0
 10
115.555
 20
119.296
 11
115.5
 21
120
  0
LINE
  8
0
 10
115.5
 20
120
 11
115.555
 21
120.704
  0
LINE
  8
0
 10
115.555
 20
120.704
 11
115.72
 21
121.391
  0
LINE
  8
0
 10
115.72
 20
121.391
 11
115.99
 21
122.043
  0
LINE
  8
0
 10
115.99
 20
122.043
 11
116.359
 21
122.645
  0
LINE
  8
0
 10
116.359
 20
122.645
 11
116.818
 21
123.182
  0
LINE
  8
0
 10
116.818
 20
123.182
 11
117.355
 21
123.641
  0
LINE
  8
0
 10
117.355
 20
123.641
 11
117.957
 21
124.01
  0
LINE
  8
0
 10
117.957
 20
124.01
 11
118.609
 21
124.28
  0
LINE
  8
0
 10
118.609
 20
124.28
 11
119.296
 21
124.445
  0
LINE
  8
0
 10
119.296
 20
124.445
 11
120
 21
124.5
  0
LINE
  8
0
 10
120
 20
124.5
 11
120.704
 21
124.445
  0
LINE
  8
0
 10
120.704
 20
124.445
 11
121.391
 21
124.28
  0
LINE
  8
0
 10
121.391
 20
124.28
 11
122.043
 21
124.01
  0
LINE
  8
0
 10
122.043
 20
124.01
 11
122.645
 21
123.641
  0
LINE
  8
0
 10
122.645
 20
123.641
 11
123.182
 21
123.182
  0
LINE
  8
0
 10
123.182
 20
123.182
 11
123.641
 21
122.645
  0
LINE
  8
0
 10
123.641
 20
122.645
 11
124.01
 21
122.043
  0
LINE
  8
0
 10
124.01
 20
122.043
 11
124.28
 21
121.391
  0
LINE
  8
0
 10
124.28
 20
121.391
 11
124.445
 21
120.704
  0
LINE
  8
0
 10
124.445
 20
120.704
 11
124.5
 21
120
  0
LINE
  8
0
 10
124.5
 20
120
 11
124.445
 21
119.296
  0
LINE
  8
0
 10
124.445
 20
119.296
 11
124.28
 21
118.609
  0
LINE
  8
0
 10
124.28
 20
118.609
 11
124.01
 21
117.957
  0
LINE
  8
0
 10
124.01
 20
117.957
 11
123.641
 21
117.355
  0
LINE
  8
0
 10
123.641
 20
117.355
 11
123.182
 21
116.818
  0
LINE
  8
0
 10
123.182
 20
116.818
 11
122.645
 21
116.359
  0
LINE
  8
0
 10
122.645
 20
116.359
 11
122.043
 21
115.99
  0
LINE
  8
0
 10
122.043
 20
115.99
 11
121.391
 21
115.72
  0
LINE
  8
0
 10
121.391
 20
115.72
 11
120.704
 21
115.555
  0
LINE
  8
0
 10
120.704
 20
115.555
 11
120
 21
115.5
  0
LINE
  8
0
 10
120
 20
115.5
 11
119.296
 21
115.555
  0
LINE
  8
0
 10
89.296
 20
115.555
 11
88.6094
 21
115.72
  0
LINE
  8
0
 10
88.6094
 20
115.72
 11
87.957
 21
115.99
  0
LINE
  8
0
 10
87.957
 20
115.99
 11
87.355
 21
116.359
  0
LINE
  8
0
 10
87.355
 20
116.359
 11
86.818
 21
116.818
  0
LINE
  8
0
 10
86.818
 20
116.818
 11
86.3594
 21
117.355
  0
LINE
  8
0
 10
86.3594
 20
117.355
 11
85.9905
 21
117.957
  0
LINE
  8
0
 10
85.9905
 20
117.957
 11
85.7202
 21
118.609
  0
LINE
  8
0
 10
85.7202
 20
118.609
 11
85.5554
 21
119.296
  0
LINE
  8
0
 10
85.5554
 20
119.296
 11
85.5
 21
120
  0
LINE
  8
0
 10
85.5
 20
120
 11
85.5554
 21
120.704
  0
LINE
  8
0
 10
85.5554
 20
120.704
 11
85.7202
 21
121.391
  0
LINE
  8
0
 10
85.7202
 20
121.391
 11
85.9905
 21
122.043
  0
LINE
  8
0
 10
85.9905
 20
122.043
 11
86.3594
 21
122.645
  0
LINE
  8
0
 10
86.3594
 20
122.645
 11
86.818
 21
123.182
  0
LINE
  8
0
 10
86.818
 20
123.182
 11
87.355
 21
123.641
  0
LINE
  8
0
 10
87.355
 20
123.641
 11
87.957
 21
124.01
  0
LINE
  8
0
 10
87.957
 20
124.01
 11
88.6094
 21
124.28
  0
LINE
  8
0
 10
88.6094
 20
124.28
 11
89.296
 21
124.445
  0
LINE
  8
0
 10
89.296
 20
124.445
 11
90
 21
124.5
  0
LINE
  8
0
 10
90
 20
124.5
 11
90.7039
 21
124.445
  0
LINE
  8
0
 10
90.7039
 20
124.445
 11
91.3906
 21
124.28
  0
LINE
  8
0
 10
91.3906
 20
124.28
 11
92.043
 21
124.01
  0
LINE
  8
0
 10
92.043
 20
124.01
 11
92.645
 21
123.641
  0
LINE
  8
0
 10
92.645
 20
123.641
 11
93.182
 21
123.182
  0
LINE
  8
0
 10
93.182
 20
123.182
 11
93.6406
 21
122.645
  0
LINE
  8
0
 10
93.6406
 20
122.645
 11
94.0095
 21
122.043
  0
LINE
  8
0
 10
94.0095
 20
122.043
 11
94.2797
 21
121.391
  0
LINE
  8
0
 10
94.2797
 20
121.391
 11
94.4446
 21
120.704
  0
LINE
  8
0
 10
94.4446
 20
120.704
 11
94.5
 21
120
  0
LINE
  8
0
 10
94.5
 20
120
 11
94.4446
 21
119.296
  0
LINE
  8
0
 10
94.4446
 20
119.296
 11
94.2797
 21
118.609
  0
LINE
  8
0
 10
94.2797
 20
118.609
 11
94.0095
 21
117.957
  0
LINE
  8
0
 10
94.0095
 20
117.957
 11
93.6406
 21
117.355
  0
LINE
  8
0
 10
93.6406
 20
117.355
 11
93.182
 21
116.818
  0
LINE
  8
0
 10
93.182
 20
116.818
 11
92.645
 21
116.359
  0
LINE
  8
0
 10
92.645
 20
116.359
 11
92.043
 21
115.99
  0
LINE
  8
0
 10
92.043
 20
115.99
 11
91.3906
 21
115.72
  0
LINE
  8
0
 10
91.3906
 20
115.72
 11
90.7039
 21
115.555
  0
LINE
  8
0
 10
90.7039
 20
115.555
 11
90
 21
115.5
  0
LINE
  8
0
 10
90
 20
115.5
 11
89.296
 21
115.555
  0
LINE
  8
0
 10
59.296
 20
115.555
 11
58.6094
 21
115.72
  0
LINE
  8
0
 10
58.6094
 20
115.72
 11
57.957
 21
115.99
  0
LINE
  8
0
 10
57.957
 20
115.99
 11
57.355
 21
116.359
  0
LINE
  8
0
 10
57.355
 20
116.359
 11
56.818
 21
116.818
  0
LINE
  8
0
 10
56.818
 20
116.818
 11
56.3594
 21
117.355
  0
LINE
  8
0
 10
56.3594
 20
117.355
 11
55.9905
 21
117.957
  0
LINE
  8
0
 10
55.9905
 20
117.957
 11
55.7202
 21
118.609
  0
LINE
  8
0
 10
55.7202
 20
118.609
 11
55.5554
 21
119.296
  0
LINE
  8
0
 10
55.5554
 20
119.296
 11
55.5
 21
120
  0
LINE
  8
0
 10
55.5
 20
120
 11
55.5554
 21
120.704
  0
LINE
  8
0
 10
55.5554
 20
120.704
 11
55.7202
 21
121.391
  0
LINE
  8
0
 10
55.7202
 20
121.391
 11
55.9905
 21
122.043
  0
LINE
  8
0
 10
55.9905
 20
122.043
 11
56.3594
 21
122.645
  0
LINE
  8
0
 10
56.3594
 20
122.645
 11
56.818
 21
123.182
  0
LINE
  8
0
 10
56.818
 20
123.182
 11
57.355
 21
123.641
  0
LINE
  8
0
 10
57.355
 20
123.641
 11
57.957
 21
124.01
  0
LINE
  8
0
 10
57.957
 20
124.01
 11
58.6094
 21
124.28
  0
LINE
  8
0
 10
58.6094
 20
124.28
 11
59.296
 21
124.445
  0
LINE
  8
0
 10
59.296
 20
124.445
 11
60
 21
124.5
  0
LINE
  8
0
 10
60
 20
124.5
 11
60.7039
 21
124.445
  0
LINE
  8
0
 10
60.7039
 20
124.445
 11
61.3906
 21
124.28
  0
LINE
  8
0
 10
61.3906
 20
124.28
 11
62.043
 21
124.01
  0
LINE
  8
0
 10
62.043
 20
124.01
 11
62.645
 21
123.641
  0
LINE
  8
0
 10
62.645
 20
123.641
 11
63.182
 21
123.182
  0
LINE
  8
0
 10
63.182
 20
123.182
 11
63.6406
 21
122.645
  0
LINE
  8
0
 10
63.6406
 20
122.645
 11
64.0095
 21
122.043
  0
LINE
  8
0
 10
64.0095
 20
122.043
 11
64.2797
 21
121.391
  0
LINE
  8
0
 10
64.2797
 20
121.391
 11
64.4446
 21
120.704
  0
LINE
  8
0
 10
64.4446
 20
120.704
 11
64.5
 21
120
  0
LINE
  8
0
 10
64.5
 20
120
 11
64.4446
 21
119.296
  0
LINE
  8
0
 10
64.4446
 20
119.296
 11
64.2797
 21
118.609
  0
LINE
  8
0
 10
64.2797
 20
118.609
 11
64.0095
 21
117.957
  0
LINE
  8
0
 10
64.0095
 20
117.957
 11
63.6406
 21
117.355
  0
LINE
  8
0
 10
63.6406
 20
117.355
 11
63.182
 21
116.818
  0
LINE
  8
0
 10
63.182
 20
116.818
 11
62.645
 21
116.359
  0
LINE
  8
0
 10
62.645
 20
116.359
 11
62.043
 21
115.99
  0
LINE
  8
0
 10
62.043
 20
115.99
 11
61.3906
 21
115.72
  0
LINE
  8
0
 10
61.3906
 20
115.72
 11
60.7039
 21
115.555
  0
LINE
  8
0
 10
60.7039
 20
115.555
 11
60
 21
115.5
  0
LINE
  8
0
 10
60
 20
115.5
 11
59.296
 21
115.555
  0
LINE
  8
0
 10
209.296
 20
115.555
 11
208.609
 21
115.72
  0
LINE
  8
0
 10
208.609
 20
115.72
 11
207.957
 21
115.99
  0
LINE
  8
0
 10
207.957
 20
115.99
 11
207.355
 21
116.359
  0
LINE
  8
0
 10
207.355
 20
116.359
 11
206.818
 21
116.818
  0
LINE
  8
0
 10
206.818
 20
116.818
 11
206.359
 21
117.355
  0
LINE
  8
0
 10
206.359
 20
117.355
 11
205.99
 21
117.957
  0
LINE
  8
0
 10
205.99
 20
117.957
 11
205.72
 21
118.609
  0
LINE
  8
0
 10
205.72
 20
118.609
 11
205.555
 21
119.296
  0
LINE
  8
0
 10
205.555
 20
119.296
 11
205.5
 21
120
  0
LINE
  8
0
 10
205.5
 20
120
 11
205.555
 21
120.704
  0
LINE
  8
0
 10
205.555
 20
120.704
 11
205.72
 21
121.391
  0
LINE
  8
0
 10
205.72
 20
121.391
 11
205.99
 21
122.043
  0
LINE
  8
0
 10
205.99
 20
122.043
 11
206.359
 21
122.645
  0
LINE
  8
0
 10
206.359
 20
122.645
 11
206.818
 21
123.182
  0
LINE
  8
0
 10
206.818
 20
123.182
 11
207.355
 21
123.641
  0
LINE
  8
0
 10
207.355
 20
123.641
 11
207.957
 21
124.01
  0
LINE
  8
0
 10
207.957
 20
124.01
 11
208.609
 21
124.28
  0
LINE
  8
0
 10
208.609
 20
124.28
 11
209.296
 21
124.445
  0
LINE
  8
0
 10
209.296
 20
124.445
 11
210
 21
124.5
  0
LINE
  8
0
 10
210
 20
124.5
 11
210.704
 21
124.445
  0
LINE
  8
0
 10
210.704
 20
124.445
 11
211.391
 21
124.28
  0
LINE
  8
0
 10
211.391
 20
124.28
 11
212.043
 21
124.01
  0
LINE
  8
0
 10
212.043
 20
124.01
 11
212.645
 21
123.641
  0
LINE
  8
0
 10
212.645
 20
123.641
 11
213.182
 21
123.182
  0
LINE
  8
0
 10
213.182
 20
123.182
 11
213.641
 21
122.645
  0
LINE
  8
0
 10
213.641
 20
122.645
 11
214.01
 21
122.043
  0
LINE
  8
0
 10
214.01
 20
122.043
 11
214.28
 21
121.391
  0
LINE
  8
0
 10
214.28
 20
121.391
 11
214.445
 21
120.704
  0
LINE
  8
0
 10
214.445
 20
120.704
 11
214.5
 21
120
  0
LINE
  8
0
 10
214.5
 20
120
 11
214.445
 21
119.296
  0
LINE
  8
0
 10
214.445
 20
119.296
 11
214.28
 21
118.609
  0
LINE
  8
0
 10
214.28
 20
118.609
 11
214.01
 21
117.957
  0
LINE
  8
0
 10
214.01
 20
117.957
 11
213.641
 21
117.355
  0
LINE
  8
0
 10
213.641
 20
117.355
 11
213.182
 21
116.818
  0
LINE
  8
0
 10
213.182
 20
116.818
 11
212.645
 21
116.359
  0
LINE
  8
0
 10
212.645
 20
116.359
 11
212.043
 21
115.99
  0
LINE
  8
0
 10
212.043
 20
115.99
 11
211.391
 21
115.72
  0
LINE
  8
0
 10
211.391
 20
115.72
 11
210.704
 21
115.555
  0
LINE
  8
0
 10
210.704
 20
115.555
 11
210
 21
115.5
  0
LINE
  8
0
 10
210
 20
115.5
 11
209.296
 21
115.555
  0
LINE
  8
0
 10
29.2178
 20
85.0616
 11
28.4549
 21
85.2447
  0
LINE
  8
0
 10
28.4549
 20
85.2447
 11
27.73
 21
85.545
  0
LINE
  8
0
 10
27.73
 20
85.545
 11
27.0611
 21
85.9549
  0
LINE
  8
0
 10
27.0611
 20
85.9549
 11
26.4645
 21
86.4645
  0
LINE
  8
0
 10
26.4645
 20
86.4645
 11
25.9549
 21
87.0611
  0
LINE
  8
0
 10
25.9549
 20
87.0611
 11
25.545
 21
87.73
  0
LINE
  8
0
 10
25.545
 20
87.73
 11
25.2447
 21
88.4549
  0
LINE
  8
0
 10
25.2447
 20
88.4549
 11
25.0616
 21
89.2178
  0
LINE
  8
0
 10
25.0616
 20
89.2178
 11
25
 21
90
  0
LINE
  8
0
 10
25
 20
90
 11
25.0616
 21
90.7822
  0
LINE
  8
0
 10
25.0616
 20
90.7822
 11
25.2447
 21
91.5451
  0
LINE
  8
0
 10
25.2447
 20
91.5451
 11
25.545
 21
92.2699
  0
LINE
  8
0
 10
25.545
 20
92.2699
 11
25.9549
 21
92.9389
  0
LINE
  8
0
 10
25.9549
 20
92.9389
 11
26.4645
 21
93.5355
  0
LINE
  8
0
 10
26.4645
 20
93.5355
 11
27.0611
 21
94.0451
  0
LINE
  8
0
 10
27.0611
 20
94.0451
 11
27.73
 21
94.455
  0
LINE
  8
0
 10
27.73
 20
94.455
 11
28.4549
 21
94.7553
  0
LINE
  8
0
 10
28.4549
 20
94.7553
 11
29.2178
 21
94.9384
  0
LINE
  8
0
 10
29.2178
 20
94.9384
 11
30
 21
95
  0
LINE
  8
0
 10
30
 20
95
 11
30.7822
 21
94.9384
  0
LINE
  8
0
 10
30.7822
 20
94.9384
 11
31.5451
 21
94.7553
  0
LINE
  8
0
 10
31.5451
 20
94.7553
 11
32.2699
 21
94.455
  0
LINE
  8
0
 10
32.2699
 20
94.455
 11
32.9389
 21
94.0451
  0
LINE
  8
0
 10
32.9389
 20
94.0451
 11
33.5355
 21
93.5355
  0
LINE
  8
0
 10
33.5355
 20
93.5355
 11
34.0451
 21
92.9389
  0
LINE
  8
0
 10
34.0451
 20
92.9389
 11
34.455
 21
92.2699
  0
LINE
  8
0
 10
34.455
 20
92.2699
 11
34.7553
 21
91.5451
  0
LINE
  8
0
 10
34.7553
 20
91.5451
 11
34.9384
 21
90.7822
  0
LINE
  8
0
 10
34.9384
 20
90.7822
 11
35
 21
90
  0
LINE
  8
0
 10
35
 20
90
 11
34.9384
 21
89.2178
  0
LINE
  8
0
 10
34.9384
 20
89.2178
 11
34.7553
 21
88.4549
  0
LINE
  8
0
 10
34.7553
 20
88.4549
 11
34.455
 21
87.73
  0
LINE
  8
0
 10
34.455
 20
87.73
 11
34.0451
 21
87.0611
  0
LINE
  8
0
 10
34.0451
 20
87.0611
 11
33.5355
 21
86.4645
  0
LINE
  8
0
 10
33.5355
 20
86.4645
 11
32.9389
 21
85.9549
  0
LINE
  8
0
 10
32.9389
 20
85.9549
 11
32.2699
 21
85.545
  0
LINE
  8
0
 10
32.2699
 20
85.545
 11
31.5451
 21
85.2447
  0
LINE
  8
0
 10
31.5451
 20
85.2447
 11
30.7822
 21
85.0616
  0
LINE
  8
0
 10
30.7822
 20
85.0616
 11
30
 21
85
  0
LINE
  8
0
 10
30
 20
85
 11
29.2178
 21
85.0616
  0
LINE
  8
0
 10
89.296
 20
85.5554
 11
88.6094
 21
85.7202
  0
LINE
  8
0
 10
88.6094
 20
85.7202
 11
87.957
 21
85.9905
  0
LINE
  8
0
 10
87.957
 20
85.9905
 11
87.355
 21
86.3594
  0
LINE
  8
0
 10
87.355
 20
86.3594
 11
86.818
 21
86.818
  0
LINE
  8
0
 10
86.818
 20
86.818
 11
86.3594
 21
87.355
  0
LINE
  8
0
 10
86.3594
 20
87.355
 11
85.9905
 21
87.957
  0
LINE
  8
0
 10
85.9905
 20
87.957
 11
85.7202
 21
88.6094
  0
LINE
  8
0
 10
85.7202
 20
88.6094
 11
85.5554
 21
89.296
  0
LINE
  8
0
 10
85.5554
 20
89.296
 11
85.5
 21
90
  0
LINE
  8
0
 10
85.5
 20
90
 11
85.5554
 21
90.7039
  0
LINE
  8
0
 10
85.5554
 20
90.7039
 11
85.7202
 21
91.3906
  0
LINE
  8
0
 10
85.7202
 20
91.3906
 11
85.9905
 21
92.043
  0
LINE
  8
0
 10
85.9905
 20
92.043
 11
86.3594
 21
92.645
  0
LINE
  8
0
 10
86.3594
 20
92.645
 11
86.818
 21
93.182
  0
LINE
  8
0
 10
86.818
 20
93.182
 11
87.355
 21
93.6406
  0
LINE
  8
0
 10
87.355
 20
93.6406
 11
87.957
 21
94.0095
  0
LINE
  8
0
 10
87.957
 20
94.0095
 11
88.6094
 21
94.2797
  0
LINE
  8
0
 10
88.6094
 20
94.2797
 11
89.296
 21
94.4446
  0
LINE
  8
0
 10
89.296
 20
94.4446
 11
90
 21
94.5
  0
LINE
  8
0
 10
90
 20
94.5
 11
90.7039
 21
94.4446
  0
LINE
  8
0
 10
90.7039
 20
94.4446
 11
91.3906
 21
94.2797
  0
LINE
  8
0
 10
91.3906
 20
94.2797
 11
92.043
 21
94.0095
  0
LINE
  8
0
 10
92.043
 20
94.0095
 11
92.645
 21
93.6406
  0
LINE
  8
0
 10
92.645
 20
93.6406
 11
93.182
 21
93.182
  0
LINE
  8
0
 10
93.182
 20
93.182
 11
93.6406
 21
92.645
  0
LINE
  8
0
 10
93.6406
 20
92.645
 11
94.0095
 21
92.043
  0
LINE
  8
0
 10
94.0095
 20
92.043
 11
94.2797
 21
91.3906
  0
LINE
  8
0
 10
94.2797
 20
91.3906
 11
94.4446
 21
90.7039
  0
LINE
  8
0
 10
94.4446
 20
90.7039
 11
94.5
 21
90
  0
LINE
  8
0
 10
94.5
 20
90
 11
94.4446
 21
89.296
  0
LINE
  8
0
 10
94.4446
 20
89.296
 11
94.2797
 21
88.6094
  0
LINE
  8
0
 10
94.2797
 20
88.6094
 11
94.0095
 21
87.957
  0
LINE
  8
0
 10
94.0095
 20
87.957
 11
93.6406
 21
87.355
  0
LINE
  8
0
 10
93.6406
 20
87.355
 11
93.182
 21
86.818
  0
LINE
  8
0
 10
93.182
 20
86.818
 11
92.645
 21
86.3594
  0
LINE
  8
0
 10
92.645
 20
86.3594
 11
92.043
 21
85.9905
  0
LINE
  8
0
 10
92.043
 20
85.9905
 11
91.3906
 21
85.7202
  0
LINE
  8
0
 10
91.3906
 20
85.7202
 11
90.7039
 21
85.5554
  0
LINE
  8
0
 10
90.7039
 20
85.5554
 11
90
 21
85.5
  0
LINE
  8
0
 10
90
 20
85.5
 11
89.296
 21
85.5554
  0
LINE
  8
0
 10
59.296
 20
85.5554
 11
58.6094
 21
85.7202
  0
LINE
  8
0
 10
58.6094
 20
85.7202
 11
57.957
 21
85.9905
  0
LINE
  8
0
 10
57.957
 20
85.9905
 11
57.355
 21
86.3594
  0
LINE
  8
0
 10
57.355
 20
86.3594
 11
56.818
 21
86.818
  0
LINE
  8
0
 10
56.818
 20
86.818
 11
56.3594
 21
87.355
  0
LINE
  8
0
 10
56.3594
 20
87.355
 11
55.9905
 21
87.957
  0
LINE
  8
0
 10
55.9905
 20
87.957
 11
55.7202
 21
88.6094
  0
LINE
  8
0
 10
55.7202
 20
88.6094
 11
55.5554
 21
89.296
  0
LINE
  8
0
 10
55.5554
 20
89.296
 11
55.5
 21
90
  0
LINE
  8
0
 10
55.5
 20
90
 11
55.5554
 21
90.7039
  0
LINE
  8
0
 10
55.5554
 20
90.7039
 11
55.7202
 21
91.3906
  0
LINE
  8
0
 10
55.7202
 20
91.3906
 11
55.9905
 21
92.043
  0
LINE
  8
0
 10
55.9905
 20
92.043
 11
56.3594
 21
92.645
  0
LINE
  8
0
 10
56.3594
 20
92.645
 11
56.818
 21
93.182
  0
LINE
  8
0
 10
56.818
 20
93.182
 11
57.355
 21
93.6406
  0
LINE
  8
0
 10
57.355
 20
93.6406
 11
57.957
 21
94.0095
  0
LINE
  8
0
 10
57.957
 20
94.0095
 11
58.6094
 21
94.2797
  0
LINE
  8
0
 10
58.6094
 20
94.2797
 11
59.296
 21
94.4446
  0
LINE
  8
0
 10
59.296
 20
94.4446
 11
60
 21
94.5
  0
LINE
  8
0
 10
60
 20
94.5
 11
60.7039
 21
94.4446
  0
LINE
  8
0
 10
60.7039
 20
94.4446
 11
61.3906
 21
94.2797
  0
LINE
  8
0
 10
61.3906
 20
94.2797
 11
62.043
 21
94.0095
  0
LINE
  8
0
 10
62.043
 20
94.0095
 11
62.645
 21
93.6406
  0
LINE
  8
0
 10
62.645
 20
93.6406
 11
63.182
 21
93.182
  0
LINE
  8
0
 10
63.182
 20
93.182
 11
63.6406
 21
92.645
  0
LINE
  8
0
 10
63.6406
 20
92.645
 11
64.0095
 21
92.043
  0
LINE
  8
0
 10
64.0095
 20
92.043
 11
64.2797
 21
91.3906
  0
LINE
  8
0
 10
64.2797
 20
91.3906
 11
64.4446
 21
90.7039
  0
LINE
  8
0
 10
64.4446
 20
90.7039
 11
64.5
 21
90
  0
LINE
  8
0
 10
64.5
 20
90
 11
64.4446
 21
89.296
  0
LINE
  8
0
 10
64.4446
 20
89.296
 11
64.2797
 21
88.6094
  0
LINE
  8
0
 10
64.2797
 20
88.6094
 11
64.0095
 21
87.957
  0
LINE
  8
0
 10
64.0095
 20
87.957
 11
63.6406
 21
87.355
  0
LINE
  8
0
 10
63.6406
 20
87.355
 11
63.182
 21
86.818
  0
LINE
  8
0
 10
63.182
 20
86.818
 11
62.645
 21
86.3594
  0
LINE
  8
0
 10
62.645
 20
86.3594
 11
62.043
 21
85.9905
  0
LINE
  8
0
 10
62.043
 20
85.9905
 11
61.3906
 21
85.7202
  0
LINE
  8
0
 10
61.3906
 20
85.7202
 11
60.7039
 21
85.5554
  0
LINE
  8
0
 10
60.7039
 20
85.5554
 11
60
 21
85.5
  0
LINE
  8
0
 10
60
 20
85.5
 11
59.296
 21
85.5554
  0
LINE
  8
0
 10
179.296
 20
85.5554
 11
178.609
 21
85.7202
  0
LINE
  8
0
 10
178.609
 20
85.7202
 11
177.957
 21
85.9905
  0
LINE
  8
0
 10
177.957
 20
85.9905
 11
177.355
 21
86.3594
  0
LINE
  8
0
 10
177.355
 20
86.3594
 11
176.818
 21
86.818
  0
LINE
  8
0
 10
176.818
 20
86.818
 11
176.359
 21
87.355
  0
LINE
  8
0
 10
176.359
 20
87.355
 11
175.99
 21
87.957
  0
LINE
  8
0
 10
175.99
 20
87.957
 11
175.72
 21
88.6094
  0
LINE
  8
0
 10
175.72
 20
88.6094
 11
175.555
 21
89.296
  0
LINE
  8
0
 10
175.555
 20
89.296
 11
175.5
 21
90
  0
LINE
  8
0
 10
175.5
 20
90
 11
175.555
 21
90.7039
  0
LINE
  8
0
 10
175.555
 20
90.7039
 11
175.72
 21
91.3906
  0
LINE
  8
0
 10
175.72
 20
91.3906
 11
175.99
 21
92.043
  0
LINE
  8
0
 10
175.99
 20
92.043
 11
176.359
 21
92.645
  0
LINE
  8
0
 10
176.359
 20
92.645
 11
176.818
 21
93.182
  0
LINE
  8
0
 10
176.818
 20
93.182
 11
177.355
 21
93.6406
  0
LINE
  8
0
 10
177.355
 20
93.6406
 11
177.957
 21
94.0095
  0
LINE
  8
0
 10
177.957
 20
94.0095
 11
178.609
 21
94.2797
  0
LINE
  8
0
 10
178.609
 20
94.2797
 11
179.296
 21
94.4446
  0
LINE
  8
0
 10
179.296
 20
94.4446
 11
180
 21
94.5
  0
LINE
  8
0
 10
180
 20
94.5
 11
180.704
 21
94.4446
  0
LINE
  8
0
 10
180.704
 20
94.4446
 11
181.391
 21
94.2797
  0
LINE
  8
0
 10
181.391
 20
94.2797
 11
182.043
 21
94.0095
  0
LINE
  8
0
 10
182.043
 20
94.0095
 11
182.645
 21
93.6406
  0
LINE
  8
0
 10
182.645
 20
93.6406
 11
183.182
 21
93.182
  0
LINE
  8
0
 10
183.182
 20
93.182
 11
183.641
 21
92.645
  0
LINE
  8
0
 10
183.641
 20
92.645
 11
184.01
 21
92.043
  0
LINE
  8
0
 10
184.01
 20
92.043
 11
184.28
 21
91.3906
  0
LINE
  8
0
 10
184.28
 20
91.3906
 11
184.445
 21
90.7039
  0
LINE
  8
0
 10
184.445
 20
90.7039
 11
184.5
 21
90
  0
LINE
  8
0
 10
184.5
 20
90
 11
184.445
 21
89.296
  0
LINE
  8
0
 10
184.445
 20
89.296
 11
184.28
 21
88.6094
  0
LINE
  8
0
 10
184.28
 20
88.6094
 11
184.01
 21
87.957
  0
LINE
  8
0
 10
184.01
 20
87.957
 11
183.641
 21
87.355
  0
LINE
  8
0
 10
183.641
 20
87.355
 11
183.182
 21
86.818
  0
LINE
  8
0
 10
183.182
 20
86.818
 11
182.645
 21
86.3594
  0
LINE
  8
0
 10
182.645
 20
86.3594
 11
182.043
 21
85.9905
  0
LINE
  8
0
 10
182.043
 20
85.9905
 11
181.391
 21
85.7202
  0
LINE
  8
0
 10
181.391
 20
85.7202
 11
180.704
 21
85.5554
  0
LINE
  8
0
 10
180.704
 20
85.5554
 11
180
 21
85.5
  0
LINE
  8
0
 10
180
 20
85.5
 11
179.296
 21
85.5554
  0
LINE
  8
0
 10
119.296
 20
85.5554
 11
118.609
 21
85.7202
  0
LINE
  8
0
 10
118.609
 20
85.7202
 11
117.957
 21
85.9905
  0
LINE
  8
0
 10
117.957
 20
85.9905
 11
117.355
 21
86.3594
  0
LINE
  8
0
 10
117.355
 20
86.3594
 11
116.818
 21
86.818
  0
LINE
  8
0
 10
116.818
 20
86.818
 11
116.359
 21
87.355
  0
LINE
  8
0
 10
116.359
 20
87.355
 11
115.99
 21
87.957
  0
LINE
  8
0
 10
115.99
 20
87.957
 11
115.72
 21
88.6094
  0
LINE
  8
0
 10
115.72
 20
88.6094
 11
115.555
 21
89.296
  0
LINE
  8
0
 10
115.555
 20
89.296
 11
115.5
 21
90
  0
LINE
  8
0
 10
115.5
 20
90
 11
115.555
 21
90.7039
  0
LINE
  8
0
 10
115.555
 20
90.7039
 11
115.72
 21
91.3906
  0
LINE
  8
0
 10
115.72
 20
91.3906
 11
115.99
 21
92.043
  0
LINE
  8
0
 10
115.99
 20
92.043
 11
116.359
 21
92.645
  0
LINE
  8
0
 10
116.359
 20
92.645
 11
116.818
 21
93.182
  0
LINE
  8
0
 10
116.818
 20
93.182
 11
117.355
 21
93.6406
  0
LINE
  8
0
 10
117.355
 20
93.6406
 11
117.957
 21
94.0095
  0
LINE
  8
0
 10
117.957
 20
94.0095
 11
118.609
 21
94.2797
  0
LINE
  8
0
 10
118.609
 20
94.2797
 11
119.296
 21
94.4446
  0
LINE
  8
0
 10
119.296
 20
94.4446
 11
120
 21
94.5
  0
LINE
  8
0
 10
120
 20
94.5
 11
120.704
 21
94.4446
  0
LINE
  8
0
 10
120.704
 20
94.4446
 11
121.391
 21
94.2797
  0
LINE
  8
0
 10
121.391
 20
94.2797
 11
122.043
 21
94.0095
  0
LINE
  8
0
 10
122.043
 20
94.0095
 11
122.645
 21
93.6406
  0
LINE
  8
0
 10
122.645
 20
93.6406
 11
123.182
 21
93.182
  0
LINE
  8
0
 10
123.182
 20
93.182
 11
123.641
 21
92.645
  0
LINE
  8
0
 10
123.641
 20
92.645
 11
124.01
 21
92.043
  0
LINE
  8
0
 10
124.01
 20
92.043
 11
124.28
 21
91.3906
  0
LINE
  8
0
 10
124.28
 20
91.3906
 11
124.445
 21
90.7039
  0
LINE
  8
0
 10
124.445
 20
90.7039
 11
124.5
 21
90
  0
LINE
  8
0
 10
124.5
 20
90
 11
124.445
 21
89.296
  0
LINE
  8
0
 10
124.445
 20
89.296
 11
124.28
 21
88.6094
  0
LINE
  8
0
 10
124.28
 20
88.6094
 11
124.01
 21
87.957
  0
LINE
  8
0
 10
124.01
 20
87.957
 11
123.641
 21
87.355
  0
LINE
  8
0
 10
123.641
 20
87.355
 11
123.182
 21
86.818
  0
LINE
  8
0
 10
123.182
 20
86.818
 11
122.645
 21
86.3594
  0
LINE
  8
0
 10
122.645
 20
86.3594
 11
122.043
 21
85.9905
  0
LINE
  8
0
 10
122.043
 20
85.9905
 11
121.391
 21
85.7202
  0
LINE
  8
0
 10
121.391
 20
85.7202
 11
120.704
 21
85.5554
  0
LINE
  8
0
 10
120.704
 20
85.5554
 11
120
 21
85.5
  0
LINE
  8
0
 10
120
 20
85.5
 11
119.296
 21
85.5554
  0
LINE
  8
0
 10
209.296
 20
85.5554
 11
208.609
 21
85.7202
  0
LINE
  8
0
 10
208.609
 20
85.7202
 11
207.957
 21
85.9905
  0
LINE
  8
0
 10
207.957
 20
85.9905
 11
207.355
 21
86.3594
  0
LINE
  8
0
 10
207.355
 20
86.3594
 11
206.818
 21
86.818
  0
LINE
  8
0
 10
206.818
 20
86.818
 11
206.359
 21
87.355
  0
LINE
  8
0
 10
206.359
 20
87.355
 11
205.99
 21
87.957
  0
LINE
  8
0
 10
205.99
 20
87.957
 11
205.72
 21
88.6094
  0
LINE
  8
0
 10
205.72
 20
88.6094
 11
205.555
 21
89.296
  0
LINE
  8
0
 10
205.555
 20
89.296
 11
205.5
 21
90
  0
LINE
  8
0
 10
205.5
 20
90
 11
205.555
 21
90.7039
  0
LINE
  8
0
 10
205.555
 20
90.7039
 11
205.72
 21
91.3906
  0
LINE
  8
0
 10
205.72
 20
91.3906
 11
205.99
 21
92.043
  0
LINE
  8
0
 10
205.99
 20
92.043
 11
206.359
 21
92.645
  0
LINE
  8
0
 10
206.359
 20
92.645
 11
206.818
 21
93.182
  0
LINE
  8
0
 10
206.818
 20
93.182
 11
207.355
 21
93.6406
  0
LINE
  8
0
 10
207.355
 20
93.6406
 11
207.957
 21
94.0095
  0
LINE
  8
0
 10
207.957
 20
94.0095
 11
208.609
 21
94.2797
  0
LINE
  8
0
 10
208.609
 20
94.2797
 11
209.296
 21
94.4446
  0
LINE
  8
0
 10
209.296
 20
94.4446
 11
210
 21
94.5
  0
LINE
  8
0
 10
210
 20
94.5
 11
210.704
 21
94.4446
  0
LINE
  8
0
 10
210.704
 20
94.4446
 11
211.391
 21
94.2797
  0
LINE
  8
0
 10
211.391
 20
94.2797
 11
212.043
 21
94.0095
  0
LINE
  8
0
 10
212.043
 20
94.0095
 11
212.645
 21
93.6406
  0
LINE
  8
0
 10
212.645
 20
93.6406
 11
213.182
 21
93.182
  0
LINE
  8
0
 10
213.182
 20
93.182
 11
213.641
 21
92.645
  0
LINE
  8
0
 10
213.641
 20
92.645
 11
214.01
 21
92.043
  0
LINE
  8
0
 10
214.01
 20
92.043
 11
214.28
 21
91.3906
  0
LINE
  8
0
 10
214.28
 20
91.3906
 11
214.445
 21
90.7039
  0
LINE
  8
0
 10
214.445
 20
90.7039
 11
214.5
 21
90
  0
LINE
  8
0
 10
214.5
 20
90
 11
214.445
 21
89.296
  0
LINE
  8
0
 10
214.445
 20
89.296
 11
214.28
 21
88.6094
  0
LINE
  8
0
 10
214.28
 20
88.6094
 11
214.01
 21
87.957
  0
LINE
  8
0
 10
214.01
 20
87.957
 11
213.641
 21
87.355
  0
LINE
  8
0
 10
213.641
 20
87.355
 11
213.182
 21
86.818
  0
LINE
  8
0
 10
213.182
 20
86.818
 11
212.645
 21
86.3594
  0
LINE
  8
0
 10
212.645
 20
86.3594
 11
212.043
 21
85.9905
  0
LINE
  8
0
 10
212.043
 20
85.9905
 11
211.391
 21
85.7202
  0
LINE
  8
0
 10
211.391
 20
85.7202
 11
210.704
 21
85.5554
  0
LINE
  8
0
 10
210.704
 20
85.5554
 11
210
 21
85.5
  0
LINE
  8
0
 10
210
 20
85.5
 11
209.296
 21
85.5554
  0
LINE
  8
0
 10
149.296
 20
85.5554
 11
148.609
 21
85.7202
  0
LINE
  8
0
 10
148.609
 20
85.7202
 11
147.957
 21
85.9905
  0
LINE
  8
0
 10
147.957
 20
85.9905
 11
147.355
 21
86.3594
  0
LINE
  8
0
 10
147.355
 20
86.3594
 11
146.818
 21
86.818
  0
LINE
  8
0
 10
146.818
 20
86.818
 11
146.359
 21
87.355
  0
LINE
  8
0
 10
146.359
 20
87.355
 11
145.99
 21
87.957
  0
LINE
  8
0
 10
145.99
 20
87.957
 11
145.72
 21
88.6094
  0
LINE
  8
0
 10
145.72
 20
88.6094
 11
145.555
 21
89.296
  0
LINE
  8
0
 10
145.555
 20
89.296
 11
145.5
 21
90
  0
LINE
  8
0
 10
145.5
 20
90
 11
145.555
 21
90.7039
  0
LINE
  8
0
 10
145.555
 20
90.7039
 11
145.72
 21
91.3906
  0
LINE
  8
0
 10
145.72
 20
91.3906
 11
145.99
 21
92.043
  0
LINE
  8
0
 10
145.99
 20
92.043
 11
146.359
 21
92.645
  0
LINE
  8
0
 10
146.359
 20
92.645
 11
146.818
 21
93.182
  0
LINE
  8
0
 10
146.818
 20
93.182
 11
147.355
 21
93.6406
  0
LINE
  8
0
 10
147.355
 20
93.6406
 11
147.957
 21
94.0095
  0
LINE
  8
0
 10
147.957
 20
94.0095
 11
148.609
 21
94.2797
  0
LINE
  8
0
 10
148.609
 20
94.2797
 11
149.296
 21
94.4446
  0
LINE
  8
0
 10
149.296
 20
94.4446
 11
150
 21
94.5
  0
LINE
  8
0
 10
150
 20
94.5
 11
150.704
 21
94.4446
  0
LINE
  8
0
 10
150.704
 20
94.4446
 11
151.391
 21
94.2797
  0
LINE
  8
0
 10
151.391
 20
94.2797
 11
152.043
 21
94.0095
  0
LINE
  8
0
 10
152.043
 20
94.0095
 11
152.645
 21
93.6406
  0
LINE
  8
0
 10
152.645
 20
93.6406
 11
153.182
 21
93.182
  0
LINE
  8
0
 10
153.182
 20
93.182
 11
153.641
 21
92.645
  0
LINE
  8
0
 10
153.641
 20
92.645
 11
154.01
 21
92.043
  0
LINE
  8
0
 10
154.01
 20
92.043
 11
154.28
 21
91.3906
  0
LINE
  8
0
 10
154.28
 20
91.3906
 11
154.445
 21
90.7039
  0
LINE
  8
0
 10
154.445
 20
90.7039
 11
154.5
 21
90
  0
LINE
  8
0
 10
154.5
 20
90
 11
154.445
 21
89.296
  0
LINE
  8
0
 10
154.445
 20
89.296
 11
154.28
 21
88.6094
  0
LINE
  8
0
 10
154.28
 20
88.6094
 11
154.01
 21
87.957
  0
LINE
  8
0
 10
154.01
 20
87.957
 11
153.641
 21
87.355
  0
LINE
  8
0
 10
153.641
 20
87.355
 11
153.182
 21
86.818
  0
LINE
  8
0
 10
153.182
 20
86.818
 11
152.645
 21
86.3594
  0
LINE
  8
0
 10
152.645
 20
86.3594
 11
152.043
 21
85.9905
  0
LINE
  8
0
 10
152.043
 20
85.9905
 11
151.391
 21
85.7202
  0
LINE
  8
0
 10
151.391
 20
85.7202
 11
150.704
 21
85.5554
  0
LINE
  8
0
 10
150.704
 20
85.5554
 11
150
 21
85.5
  0
LINE
  8
0
 10
150
 20
85.5
 11
149.296
 21
85.5554
  0
LINE
  8
0
 10
29.2178
 20
55.0616
 11
28.4549
 21
55.2447
  0
LINE
  8
0
 10
28.4549
 20
55.2447
 11
27.73
 21
55.545
  0
LINE
  8
0
 10
27.73
 20
55.545
 11
27.0611
 21
55.9549
  0
LINE
  8
0
 10
27.0611
 20
55.9549
 11
26.4645
 21
56.4645
  0
LINE
  8
0
 10
26.4645
 20
56.4645
 11
25.9549
 21
57.0611
  0
LINE
  8
0
 10
25.9549
 20
57.0611
 11
25.545
 21
57.73
  0
LINE
  8
0
 10
25.545
 20
57.73
 11
25.2447
 21
58.4549
  0
LINE
  8
0
 10
25.2447
 20
58.4549
 11
25.0616
 21
59.2178
  0
LINE
  8
0
 10
25.0616
 20
59.2178
 11
25
 21
60
  0
LINE
  8
0
 10
25
 20
60
 11
25.0616
 21
60.7822
  0
LINE
  8
0
 10
25.0616
 20
60.7822
 11
25.2447
 21
61.5451
  0
LINE
  8
0
 10
25.2447
 20
61.5451
 11
25.545
 21
62.2699
  0
LINE
  8
0
 10
25.545
 20
62.2699
 11
25.9549
 21
62.9389
  0
LINE
  8
0
 10
25.9549
 20
62.9389
 11
26.4645
 21
63.5355
  0
LINE
  8
0
 10
26.4645
 20
63.5355
 11
27.0611
 21
64.0451
  0
LINE
  8
0
 10
27.0611
 20
64.0451
 11
27.73
 21
64.455
  0
LINE
  8
0
 10
27.73
 20
64.455
 11
28.4549
 21
64.7553
  0
LINE
  8
0
 10
28.4549
 20
64.7553
 11
29.2178
 21
64.9384
  0
LINE
  8
0
 10
29.2178
 20
64.9384
 11
30
 21
65
  0
LINE
  8
0
 10
30
 20
65
 11
30.7822
 21
64.9384
  0
LINE
  8
0
 10
30.7822
 20
64.9384
 11
31.5451
 21
64.7553
  0
LINE
  8
0
 10
31.5451
 20
64.7553
 11
32.2699
 21
64.455
  0
LINE
  8
0
 10
32.2699
 20
64.455
 11
32.9389
 21
64.0451
  0
LINE
  8
0
 10
32.9389
 20
64.0451
 11
33.5355
 21
63.5355
  0
LINE
  8
0
 10
33.5355
 20
63.5355
 11
34.0451
 21
62.9389
  0
LINE
  8
0
 10
34.0451
 20
62.9389
 11
34.455
 21
62.2699
  0
LINE
  8
0
 10
34.455
 20
62.2699
 11
34.7553
 21
61.5451
  0
LINE
  8
0
 10
34.7553
 20
61.5451
 11
34.9384
 21
60.7822
  0
LINE
  8
0
 10
34.9384
 20
60.7822
 11
35
 21
60
  0
LINE
  8
0
 10
35
 20
60
 11
34.9384
 21
59.2178
  0
LINE
  8
0
 10
34.9384
 20
59.2178
 11
34.7553
 21
58.4549
  0
LINE
  8
0
 10
34.7553
 20
58.4549
 11
34.455
 21
57.73
  0
LINE
  8
0
 10
34.455
 20
57.73
 11
34.0451
 21
57.0611
  0
LINE
  8
0
 10
34.0451
 20
57.0611
 11
33.5355
 21
56.4645
  0
LINE
  8
0
 10
33.5355
 20
56.4645
 11
32.9389
 21
55.9549
  0
LINE
  8
0
 10
32.9389
 20
55.9549
 11
32.2699
 21
55.545
  0
LINE
  8
0
 10
32.2699
 20
55.545
 11
31.5451
 21
55.2447
  0
LINE
  8
0
 10
31.5451
 20
55.2447
 11
30.7822
 21
55.0616
  0
LINE
  8
0
 10
30.7822
 20
55.0616
 11
30
 21
55
  0
LINE
  8
0
 10
30
 20
55
 11
29.2178
 21
55.0616
  0
LINE
  8
0
 10
119.296
 20
55.5554
 11
118.609
 21
55.7202
  0
LINE
  8
0
 10
118.609
 20
55.7202
 11
117.957
 21
55.9905
  0
LINE
  8
0
 10
117.957
 20
55.9905
 11
117.355
 21
56.3594
  0
LINE
  8
0
 10
117.355
 20
56.3594
 11
116.818
 21
56.818
  0
LINE
  8
0
 10
116.818
 20
56.818
 11
116.359
 21
57.355
  0
LINE
  8
0
 10
116.359
 20
57.355
 11
115.99
 21
57.957
  0
LINE
  8
0
 10
115.99
 20
57.957
 11
115.72
 21
58.6094
  0
LINE
  8
0
 10
115.72
 20
58.6094
 11
115.555
 21
59.296
  0
LINE
  8
0
 10
115.555
 20
59.296
 11
115.5
 21
60
  0
LINE
  8
0
 10
115.5
 20
60
 11
115.555
 21
60.7039
  0
LINE
  8
0
 10
115.555
 20
60.7039
 11
115.72
 21
61.3906
  0
LINE
  8
0
 10
115.72
 20
61.3906
 11
115.99
 21
62.043
  0
LINE
  8
0
 10
115.99
 20
62.043
 11
116.359
 21
62.645
  0
LINE
  8
0
 10
116.359
 20
62.645
 11
116.818
 21
63.182
  0
LINE
  8
0
 10
116.818
 20
63.182
 11
117.355
 21
63.6406
  0
LINE
  8
0
 10
117.355
 20
63.6406
 11
117.957
 21
64.0095
  0
LINE
  8
0
 10
117.957
 20
64.0095
 11
118.609
 21
64.2797
  0
LINE
  8
0
 10
118.609
 20
64.2797
 11
119.296
 21
64.4446
  0
LINE
  8
0
 10
119.296
 20
64.4446
 11
120
 21
64.5
  0
LINE
  8
0
 10
120
 20
64.5
 11
120.704
 21
64.4446
  0
LINE
  8
0
 10
120.704
 20
64.4446
 11
121.391
 21
64.2797
  0
LINE
  8
0
 10
121.391
 20
64.2797
 11
122.043
 21
64.0095
  0
LINE
  8
0
 10
122.043
 20
64.0095
 11
122.645
 21
63.6406
  0
LINE
  8
0
 10
122.645
 20
63.6406
 11
123.182
 21
63.182
  0
LINE
  8
0
 10
123.182
 20
63.182
 11
123.641
 21
62.645
  0
LINE
  8
0
 10
123.641
 20
62.645
 11
124.01
 21
62.043
  0
LINE
  8
0
 10
124.01
 20
62.043
 11
124.28
 21
61.3906
  0
LINE
  8
0
 10
124.28
 20
61.3906
 11
124.445
 21
60.7039
  0
LINE
  8
0
 10
124.445
 20
60.7039
 11
124.5
 21
60
  0
LINE
  8
0
 10
124.5
 20
60
 11
124.445
 21
59.296
  0
LINE
  8
0
 10
124.445
 20
59.296
 11
124.28
 21
58.6094
  0
LINE
  8
0
 10
124.28
 20
58.6094
 11
124.01
 21
57.957
  0
LINE
  8
0
 10
124.01
 20
57.957
 11
123.641
 21
57.355
  0
LINE
  8
0
 10
123.641
 20
57.355
 11
123.182
 21
56.818
  0
LINE
  8
0
 10
123.182
 20
56.818
 11
122.645
 21
56.3594
  0
LINE
  8
0
 10
122.645
 20
56.3594
 11
122.043
 21
55.9905
  0
LINE
  8
0
 10
122.043
 20
55.9905
 11
121.391
 21
55.7202
  0
LINE
  8
0
 10
121.391
 20
55.7202
 11
120.704
 21
55.5554
  0
LINE
  8
0
 10
120.704
 20
55.5554
 11
120
 21
55.5
  0
LINE
  8
0
 10
120
 20
55.5
 11
119.296
 21
55.5554
  0
LINE
  8
0
 10
209.296
 20
55.5554
 11
208.609
 21
55.7202
  0
LINE
  8
0
 10
208.609
 20
55.7202
 11
207.957
 21
55.9905
  0
LINE
  8
0
 10
207.957
 20
55.9905
 11
207.355
 21
56.3594
  0
LINE
  8
0
 10
207.355
 20
56.3594
 11
206.818
 21
56.818
  0
LINE
  8
0
 10
206.818
 20
56.818
 11
206.359
 21
57.355
  0
LINE
  8
0
 10
206.359
 20
57.355
 11
205.99
 21
57.957
  0
LINE
  8
0
 10
205.99
 20
57.957
 11
205.72
 21
58.6094
  0
LINE
  8
0
 10
205.72
 20
58.6094
 11
205.555
 21
59.296
  0
LINE
  8
0
 10
205.555
 20
59.296
 11
205.5
 21
60
  0
LINE
  8
0
 10
205.5
 20
60
 11
205.555
 21
60.7039
  0
LINE
  8
0
 10
205.555
 20
60.7039
 11
205.72
 21
61.3906
  0
LINE
  8
0
 10
205.72
 20
61.3906
 11
205.99
 21
62.043
  0
LINE
  8
0
 10
205.99
 20
62.043
 11
206.359
 21
62.645
  0
LINE
  8
0
 10
206.359
 20
62.645
 11
206.818
 21
63.182
  0
LINE
  8
0
 10
206.818
 20
63.182
 11
207.355
 21
63.6406
  0
LINE
  8
0
 10
207.355
 20
63.6406
 11
207.957
 21
64.0095
  0
LINE
  8
0
 10
207.957
 20
64.0095
 11
208.609
 21
64.2797
  0
LINE
  8
0
 10
208.609
 20
64.2797
 11
209.296
 21
64.4446
  0
LINE
  8
0
 10
209.296
 20
64.4446
 11
210
 21
64.5
  0
LINE
  8
0
 10
210
 20
64.5
 11
210.704
 21
64.4446
  0
LINE
  8
0
 10
210.704
 20
64.4446
 11
211.391
 21
64.2797
  0
LINE
  8
0
 10
211.391
 20
64.2797
 11
212.043
 21
64.0095
  0
LINE
  8
0
 10
212.043
 20
64.0095
 11
212.645
 21
63.6406
  0
LINE
  8
0
 10
212.645
 20
63.6406
 11
213.182
 21
63.182
  0
LINE
  8
0
 10
213.182
 20
63.182
 11
213.641
 21
62.645
  0
LINE
  8
0
 10
213.641
 20
62.645
 11
214.01
 21
62.043
  0
LINE
  8
0
 10
214.01
 20
62.043
 11
214.28
 21
61.3906
  0
LINE
  8
0
 10
214.28
 20
61.3906
 11
214.445
 21
60.7039
  0
LINE
  8
0
 10
214.445
 20
60.7039
 11
214.5
 21
60
  0
LINE
  8
0
 10
214.5
 20
60
 11
214.445
 21
59.296
  0
LINE
  8
0
 10
214.445
 20
59.296
 11
214.28
 21
58.6094
  0
LINE
  8
0
 10
214.28
 20
58.6094
 11
214.01
 21
57.957
  0
LINE
  8
0
 10
214.01
 20
57.957
 11
213.641
 21
57.355
  0
LINE
  8
0
 10
213.641
 20
57.355
 11
213.182
 21
56.818
  0
LINE
  8
0
 10
213.182
 20
56.818
 11
212.645
 21
56.3594
  0
LINE
  8
0
 10
212.645
 20
56.3594
 11
212.043
 21
55.9905
  0
LINE
  8
0
 10
212.043
 20
55.9905
 11
211.391
 21
55.7202
  0
LINE
  8
0
 10
211.391
 20
55.7202
 11
210.704
 21
55.5554
  0
LINE
  8
0
 10
210.704
 20
55.5554
 11
210
 21
55.5
  0
LINE
  8
0
 10
210
 20
55.5
 11
209.296
 21
55.5554
  0
LINE
  8
0
 10
179.296
 20
55.5554
 11
178.609
 21
55.7202
  0
LINE
  8
0
 10
178.609
 20
55.7202
 11
177.957
 21
55.9905
  0
LINE
  8
0
 10
177.957
 20
55.9905
 11
177.355
 21
56.3594
  0
LINE
  8
0
 10
177.355
 20
56.3594
 11
176.818
 21
56.818
  0
LINE
  8
0
 10
176.818
 20
56.818
 11
176.359
 21
57.355
  0
LINE
  8
0
 10
176.359
 20
57.355
 11
175.99
 21
57.957
  0
LINE
  8
0
 10
175.99
 20
57.957
 11
175.72
 21
58.6094
  0
LINE
  8
0
 10
175.72
 20
58.6094
 11
175.555
 21
59.296
  0
LINE
  8
0
 10
175.555
 20
59.296
 11
175.5
 21
60
  0
LINE
  8
0
 10
175.5
 20
60
 11
175.555
 21
60.7039
  0
LINE
  8
0
 10
175.555
 20
60.7039
 11
175.72
 21
61.3906
  0
LINE
  8
0
 10
175.72
 20
61.3906
 11
175.99
 21
62.043
  0
LINE
  8
0
 10
175.99
 20
62.043
 11
176.359
 21
62.645
  0
LINE
  8
0
 10
176.359
 20
62.645
 11
176.818
 21
63.182
  0
LINE
  8
0
 10
176.818
 20
63.182
 11
177.355
 21
63.6406
  0
LINE
  8
0
 10
177.355
 20
63.6406
 11
177.957
 21
64.0095
  0
LINE
  8
0
 10
177.957
 20
64.0095
 11
178.609
 21
64.2797
  0
LINE
  8
0
 10
178.609
 20
64.2797
 11
179.296
 21
64.4446
  0
LINE
  8
0
 10
179.296
 20
64.4446
 11
180
 21
64.5
  0
LINE
  8
0
 10
180
 20
64.5
 11
180.704
 21
64.4446
  0
LINE
  8
0
 10
180.704
 20
64.4446
 11
181.391
 21
64.2797
  0
LINE
  8
0
 10
181.391
 20
64.2797
 11
182.043
 21
64.0095
  0
LINE
  8
0
 10
182.043
 20
64.0095
 11
182.645
 21
63.6406
  0
LINE
  8
0
 10
182.645
 20
63.6406
 11
183.182
 21
63.182
  0
LINE
  8
0
 10
183.182
 20
63.182
 11
183.641
 21
62.645
  0
LINE
  8
0
 10
183.641
 20
62.645
 11
184.01
 21
62.043
  0
LINE
  8
0
 10
184.01
 20
62.043
 11
184.28
 21
61.3906
  0
LINE
  8
0
 10
184.28
 20
61.3906
 11
184.445
 21
60.7039
  0
LINE
  8
0
 10
184.445
 20
60.7039
 11
184.5
 21
60
  0
LINE
  8
0
 10
184.5
 20
60
 11
184.445
 21
59.296
  0
LINE
  8
0
 10
184.445
 20
59.296
 11
184.28
 21
58.6094
  0
LINE
  8
0
 10
184.28
 20
58.6094
 11
184.01
 21
57.957
  0
LINE
  8
0
 10
184.01
 20
57.957
 11
183.641
 21
57.355
  0
LINE
  8
0
 10
183.641
 20
57.355
 11
183.182
 21
56.818
  0
LINE
  8
0
 10
183.182
 20
56.818
 11
182.645
 21
56.3594
  0
LINE
  8
0
 10
182.645
 20
56.3594
 11
182.043
 21
55.9905
  0
LINE
  8
0
 10
182.043
 20
55.9905
 11
181.391
 21
55.7202
  0
LINE
  8
0
 10
181.391
 20
55.7202
 11
180.704
 21
55.5554
  0
LINE
  8
0
 10
180.704
 20
55.5554
 11
180
 21
55.5
  0
LINE
  8
0
 10
180
 20
55.5
 11
179.296
 21
55.5554
  0
LINE
  8
0
 10
149.296
 20
55.5554
 11
148.609
 21
55.7202
  0
LINE
  8
0
 10
148.609
 20
55.7202
 11
147.957
 21
55.9905
  0
LINE
  8
0
 10
147.957
 20
55.9905
 11
147.355
 21
56.3594
  0
LINE
  8
0
 10
147.355
 20
56.3594
 11
146.818
 21
56.818
  0
LINE
  8
0
 10
146.818
 20
56.818
 11
146.359
 21
57.355
  0
LINE
  8
0
 10
146.359
 20
57.355
 11
145.99
 21
57.957
  0
LINE
  8
0
 10
145.99
 20
57.957
 11
145.72
 21
58.6094
  0
LINE
  8
0
 10
145.72
 20
58.6094
 11
145.555
 21
59.296
  0
LINE
  8
0
 10
145.555
 20
59.296
 11
145.5
 21
60
  0
LINE
  8
0
 10
145.5
 20
60
 11
145.555
 21
60.7039
  0
LINE
  8
0
 10
145.555
 20
60.7039
 11
145.72
 21
61.3906
  0
LINE
  8
0
 10
145.72
 20
61.3906
 11
145.99
 21
62.043
  0
LINE
  8
0
 10
145.99
 20
62.043
 11
146.359
 21
62.645
  0
LINE
  8
0
 10
146.359
 20
62.645
 11
146.818
 21
63.182
  0
LINE
  8
0
 10
146.818
 20
63.182
 11
147.355
 21
63.6406
  0
LINE
  8
0
 10
147.355
 20
63.6406
 11
147.957
 21
64.0095
  0
LINE
  8
0
 10
147.957
 20
64.0095
 11
148.609
 21
64.2797
  0
LINE
  8
0
 10
148.609
 20
64.2797
 11
149.296
 21
64.4446
  0
LINE
  8
0
 10
149.296
 20
64.4446
 11
150
 21
64.5
  0
LINE
  8
0
 10
150
 20
64.5
 11
150.704
 21
64.4446
  0
LINE
  8
0
 10
150.704
 20
64.4446
 11
151.391
 21
64.2797
  0
LINE
  8
0
 10
151.391
 20
64.2797
 11
152.043
 21
64.0095
  0
LINE
  8
0
 10
152.043
 20
64.0095
 11
152.645
 21
63.6406
  0
LINE
  8
0
 10
152.645
 20
63.6406
 11
153.182
 21
63.182
  0
LINE
  8
0
 10
153.182
 20
63.182
 11
153.641
 21
62.645
  0
LINE
  8
0
 10
153.641
 20
62.645
 11
154.01
 21
62.043
  0
LINE
  8
0
 10
154.01
 20
62.043
 11
154.28
 21
61.3906
  0
LINE
  8
0
 10
154.28
 20
61.3906
 11
154.445
 21
60.7039
  0
LINE
  8
0
 10
154.445
 20
60.7039
 11
154.5
 21
60
  0
LINE
  8
0
 10
154.5
 20
60
 11
154.445
 21
59.296
  0
LINE
  8
0
 10
154.445
 20
59.296
 11
154.28
 21
58.6094
  0
LINE
  8
0
 10
154.28
 20
58.6094
 11
154.01
 21
57.957
  0
LINE
  8
0
 10
154.01
 20
57.957
 11
153.641
 21
57.355
  0
LINE
  8
0
 10
153.641
 20
57.355
 11
153.182
 21
56.818
  0
LINE
  8
0
 10
153.182
 20
56.818
 11
152.645
 21
56.3594
  0
LINE
  8
0
 10
152.645
 20
56.3594
 11
152.043
 21
55.9905
  0
LINE
  8
0
 10
152.043
 20
55.9905
 11
151.391
 21
55.7202
  0
LINE
  8
0
 10
151.391
 20
55.7202
 11
150.704
 21
55.5554
  0
LINE
  8
0
 10
150.704
 20
55.5554
 11
150
 21
55.5
  0
LINE
  8
0
 10
150
 20
55.5
 11
149.296
 21
55.5554
  0
LINE
  8
0
 10
89.296
 20
55.5554
 11
88.6094
 21
55.7202
  0
LINE
  8
0
 10
88.6094
 20
55.7202
 11
87.957
 21
55.9905
  0
LINE
  8
0
 10
87.957
 20
55.9905
 11
87.355
 21
56.3594
  0
LINE
  8
0
 10
87.355
 20
56.3594
 11
86.818
 21
56.818
  0
LINE
  8
0
 10
86.818
 20
56.818
 11
86.3594
 21
57.355
  0
LINE
  8
0
 10
86.3594
 20
57.355
 11
85.9905
 21
57.957
  0
LINE
  8
0
 10
85.9905
 20
57.957
 11
85.7202
 21
58.6094
  0
LINE
  8
0
 10
85.7202
 20
58.6094
 11
85.5554
 21
59.296
  0
LINE
  8
0
 10
85.5554
 20
59.296
 11
85.5
 21
60
  0
LINE
  8
0
 10
85.5
 20
60
 11
85.5554
 21
60.7039
  0
LINE
  8
0
 10
85.5554
 20
60.7039
 11
85.7202
 21
61.3906
  0
LINE
  8
0
 10
85.7202
 20
61.3906
 11
85.9905
 21
62.043
  0
LINE
  8
0
 10
85.9905
 20
62.043
 11
86.3594
 21
62.645
  0
LINE
  8
0
 10
86.3594
 20
62.645
 11
86.818
 21
63.182
  0
LINE
  8
0
 10
86.818
 20
63.182
 11
87.355
 21
63.6406
  0
LINE
  8
0
 10
87.355
 20
63.6406
 11
87.957
 21
64.0095
  0
LINE
  8
0
 10
87.957
 20
64.0095
 11
88.6094
 21
64.2797
  0
LINE
  8
0
 10
88.6094
 20
64.2797
 11
89.296
 21
64.4446
  0
LINE
  8
0
 10
89.296
 20
64.4446
 11
90
 21
64.5
  0
LINE
  8
0
 10
90
 20
64.5
 11
90.7039
 21
64.4446
  0
LINE
  8
0
 10
90.7039
 20
64.4446
 11
91.3906
 21
64.2797
  0
LINE
  8
0
 10
91.3906
 20
64.2797
 11
92.043
 21
64.0095
  0
LINE
  8
0
 10
92.043
 20
64.0095
 11
92.645
 21
63.6406
  0
LINE
  8
0
 10
92.645
 20
63.6406
 11
93.182
 21
63.182
  0
LINE
  8
0
 10
93.182
 20
63.182
 11
93.6406
 21
62.645
  0
LINE
  8
0
 10
93.6406
 20
62.645
 11
94.0095
 21
62.043
  0
LINE
  8
0
 10
94.0095
 20
62.043
 11
94.2797
 21
61.3906
  0
LINE
  8
0
 10
94.2797
 20
61.3906
 11
94.4446
 21
60.7039
  0
LINE
  8
0
 10
94.4446
 20
60.7039
 11
94.5
 21
60
  0
LINE
  8
0
 10
94.5
 20
60
 11
94.4446
 21
59.296
  0
LINE
  8
0
 10
94.4446
 20
59.296
 11
94.2797
 21
58.6094
  0
LINE
  8
0
 10
94.2797
 20
58.6094
 11
94.0095
 21
57.957
  0
LINE
  8
0
 10
94.0095
 20
57.957
 11
93.6406
 21
57.355
  0
LINE
  8
0
 10
93.6406
 20
57.355
 11
93.182
 21
56.818
  0
LINE
  8
0
 10
93.182
 20
56.818
 11
92.645
 21
56.3594
  0
LINE
  8
0
 10
92.645
 20
56.3594
 11
92.043
 21
55.9905
  0
LINE
  8
0
 10
92.043
 20
55.9905
 11
91.3906
 21
55.7202
  0
LINE
  8
0
 10
91.3906
 20
55.7202
 11
90.7039
 21
55.5554
  0
LINE
  8
0
 10
90.7039
 20
55.5554
 11
90
 21
55.5
  0
LINE
  8
0
 10
90
 20
55.5
 11
89.296
 21
55.5554
  0
LINE
  8
0
 10
59.296
 20
55.5554
 11
58.6094
 21
55.7202
  0
LINE
  8
0
 10
58.6094
 20
55.7202
 11
57.957
 21
55.9905
  0
LINE
  8
0
 10
57.957
 20
55.9905
 11
57.355
 21
56.3594
  0
LINE
  8
0
 10
57.355
 20
56.3594
 11
56.818
 21
56.818
  0
LINE
  8
0
 10
56.818
 20
56.818
 11
56.3594
 21
57.355
  0
LINE
  8
0
 10
56.3594
 20
57.355
 11
55.9905
 21
57.957
  0
LINE
  8
0
 10
55.9905
 20
57.957
 11
55.7202
 21
58.6094
  0
LINE
  8
0
 10
55.7202
 20
58.6094
 11
55.5554
 21
59.296
  0
LINE
  8
0
 10
55.5554
 20
59.296
 11
55.5
 21
60
  0
LINE
  8
0
 10
55.5
 20
60
 11
55.5554
 21
60.7039
  0
LINE
  8
0
 10
55.5554
 20
60.7039
 11
55.7202
 21
61.3906
  0
LINE
  8
0
 10
55.7202
 20
61.3906
 11
55.9905
 21
62.043
  0
LINE
  8
0
 10
55.9905
 20
62.043
 11
56.3594
 21
62.645
  0
LINE
  8
0
 10
56.3594
 20
62.645
 11
56.818
 21
63.182
  0
LINE
  8
0
 10
56.818
 20
63.182
 11
57.355
 21
63.6406
  0
LINE
  8
0
 10
57.355
 20
63.6406
 11
57.957
 21
64.0095
  0
LINE
  8
0
 10
57.957
 20
64.0095
 11
58.6094
 21
64.2797
  0
LINE
  8
0
 10
58.6094
 20
64.2797
 11
59.296
 21
64.4446
  0
LINE
  8
0
 10
59.296
 20
64.4446
 11
60
 21
64.5
  0
LINE
  8
0
 10
60
 20
64.5
 11
60.7039
 21
64.4446
  0
LINE
  8
0
 10
60.7039
 20
64.4446
 11
61.3906
 21
64.2797
  0
LINE
  8
0
 10
61.3906
 20
64.2797
 11
62.043
 21
64.0095
  0
LINE
  8
0
 10
62.043
 20
64.0095
 11
62.645
 21
63.6406
  0
LINE
  8
0
 10
62.645
 20
63.6406
 11
63.182
 21
63.182
  0
LINE
  8
0
 10
63.182
 20
63.182
 11
63.6406
 21
62.645
  0
LINE
  8
0
 10
63.6406
 20
62.645
 11
64.0095
 21
62.043
  0
LINE
  8
0
 10
64.0095
 20
62.043
 11
64.2797
 21
61.3906
  0
LINE
  8
0
 10
64.2797
 20
61.3906
 11
64.4446
 21
60.7039
  0
LINE
  8
0
 10
64.4446
 20
60.7039
 11
64.5
 21
60
  0
LINE
  8
0
 10
64.5
 20
60
 11
64.4446
 21
59.296
  0
LINE
  8
0
 10
64.4446
 20
59.296
 11
64.2797
 21
58.6094
  0
LINE
  8
0
 10
64.2797
 20
58.6094
 11
64.0095
 21
57.957
  0
LINE
  8
0
 10
64.0095
 20
57.957
 11
63.6406
 21
57.355
  0
LINE
  8
0
 10
63.6406
 20
57.355
 11
63.182
 21
56.818
  0
LINE
  8
0
 10
63.182
 20
56.818
 11
62.645
 21
56.3594
  0
LINE
  8
0
 10
62.645
 20
56.3594
 11
62.043
 21
55.9905
  0
LINE
  8
0
 10
62.043
 20
55.9905
 11
61.3906
 21
55.7202
  0
LINE
  8
0
 10
61.3906
 20
55.7202
 11
60.7039
 21
55.5554
  0
LINE
  8
0
 10
60.7039
 20
55.5554
 11
60
 21
55.5
  0
LINE
  8
0
 10
60
 20
55.5
 11
59.296
 21
55.5554
  0
LINE
  8
0
 10
29.2178
 20
25.0616
 11
28.4549
 21
25.2447
  0
LINE
  8
0
 10
28.4549
 20
25.2447
 11
27.73
 21
25.545
  0
LINE
  8
0
 10
27.73
 20
25.545
 11
27.0611
 21
25.9549
  0
LINE
  8
0
 10
27.0611
 20
25.9549
 11
26.4645
 21
26.4645
  0
LINE
  8
0
 10
26.4645
 20
26.4645
 11
25.9549
 21
27.0611
  0
LINE
  8
0
 10
25.9549
 20
27.0611
 11
25.545
 21
27.73
  0
LINE
  8
0
 10
25.545
 20
27.73
 11
25.2447
 21
28.4549
  0
LINE
  8
0
 10
25.2447
 20
28.4549
 11
25.0616
 21
29.2178
  0
LINE
  8
0
 10
25.0616
 20
29.2178
 11
25
 21
30
  0
LINE
  8
0
 10
25
 20
30
 11
25.0616
 21
30.7822
  0
LINE
  8
0
 10
25.0616
 20
30.7822
 11
25.2447
 21
31.5451
  0
LINE
  8
0
 10
25.2447
 20
31.5451
 11
25.545
 21
32.2699
  0
LINE
  8
0
 10
25.545
 20
32.2699
 11
25.9549
 21
32.9389
  0
LINE
  8
0
 10
25.9549
 20
32.9389
 11
26.4645
 21
33.5355
  0
LINE
  8
0
 10
26.4645
 20
33.5355
 11
27.0611
 21
34.0451
  0
LINE
  8
0
 10
27.0611
 20
34.0451
 11
27.73
 21
34.455
  0
LINE
  8
0
 10
27.73
 20
34.455
 11
28.4549
 21
34.7553
  0
LINE
  8
0
 10
28.4549
 20
34.7553
 11
29.2178
 21
34.9384
  0
LINE
  8
0
 10
29.2178
 20
34.9384
 11
30
 21
35
  0
LINE
  8
0
 10
30
 20
35
 11
30.7822
 21
34.9384
  0
LINE
  8
0
 10
30.7822
 20
34.9384
 11
31.5451
 21
34.7553
  0
LINE
  8
0
 10
31.5451
 20
34.7553
 11
32.2699
 21
34.455
  0
LINE
  8
0
 10
32.2699
 20
34.455
 11
32.9389
 21
34.0451
  0
LINE
  8
0
 10
32.9389
 20
34.0451
 11
33.5355
 21
33.5355
  0
LINE
  8
0
 10
33.5355
 20
33.5355
 11
34.0451
 21
32.9389
  0
LINE
  8
0
 10
34.0451
 20
32.9389
 11
34.455
 21
32.2699
  0
LINE
  8
0
 10
34.455
 20
32.2699
 11
34.7553
 21
31.5451
  0
LINE
  8
0
 10
34.7553
 20
31.5451
 11
34.9384
 21
30.7822
  0
LINE
  8
0
 10
34.9384
 20
30.7822
 11
35
 21
30
  0
LINE
  8
0
 10
35
 20
30
 11
34.9384
 21
29.2178
  0
LINE
  8
0
 10
34.9384
 20
29.2178
 11
34.7553
 21
28.4549
  0
LINE
  8
0
 10
34.7553
 20
28.4549
 11
34.455
 21
27.73
  0
LINE
  8
0
 10
34.455
 20
27.73
 11
34.0451
 21
27.0611
  0
LINE
  8
0
 10
34.0451
 20
27.0611
 11
33.5355
 21
26.4645
  0
LINE
  8
0
 10
33.5355
 20
26.4645
 11
32.9389
 21
25.9549
  0
LINE
  8
0
 10
32.9389
 20
25.9549
 11
32.2699
 21
25.545
  0
LINE
  8
0
 10
32.2699
 20
25.545
 11
31.5451
 21
25.2447
  0
LINE
  8
0
 10
31.5451
 20
25.2447
 11
30.7822
 21
25.0616
  0
LINE
  8
0
 10
30.7822
 20
25.0616
 11
30
 21
25
  0
LINE
  8
0
 10
30
 20
25
 11
29.2178
 21
25.0616
  0
LINE
  8
0
 10
179.296
 20
25.5554
 11
178.609
 21
25.7202
  0
LINE
  8
0
 10
178.609
 20
25.7202
 11
177.957
 21
25.9905
  0
LINE
  8
0
 10
177.957
 20
25.9905
 11
177.355
 21
26.3594
  0
LINE
  8
0
 10
177.355
 20
26.3594
 11
176.818
 21
26.818
  0
LINE
  8
0
 10
176.818
 20
26.818
 11
176.359
 21
27.355
  0
LINE
  8
0
 10
176.359
 20
27.355
 11
175.99
 21
27.957
  0
LINE
  8
0
 10
175.99
 20
27.957
 11
175.72
 21
28.6094
  0
LINE
  8
0
 10
175.72
 20
28.6094
 11
175.555
 21
29.296
  0
LINE
  8
0
 10
175.555
 20
29.296
 11
175.5
 21
30
  0
LINE
  8
0
 10
175.5
 20
30
 11
175.555
 21
30.7039
  0
LINE
  8
0
 10
175.555
 20
30.7039
 11
175.72
 21
31.3906
  0
LINE
  8
0
 10
175.72
 20
31.3906
 11
175.99
 21
32.043
  0
LINE
  8
0
 10
175.99
 20
32.043
 11
176.359
 21
32.645
  0
LINE
  8
0
 10
176.359
 20
32.645
 11
176.818
 21
33.182
  0
LINE
  8
0
 10
176.818
 20
33.182
 11
177.355
 21
33.6406
  0
LINE
  8
0
 10
177.355
 20
33.6406
 11
177.957
 21
34.0095
  0
LINE
  8
0
 10
177.957
 20
34.0095
 11
178.609
 21
34.2797
  0
LINE
  8
0
 10
178.609
 20
34.2797
 11
179.296
 21
34.4446
  0
LINE
  8
0
 10
179.296
 20
34.4446
 11
180
 21
34.5
  0
LINE
  8
0
 10
180
 20
34.5
 11
180.704
 21
34.4446
  0
LINE
  8
0
 10
180.704
 20
34.4446
 11
181.391
 21
34.2797
  0
LINE
  8
0
 10
181.391
 20
34.2797
 11
182.043
 21
34.0095
  0
LINE
  8
0
 10
182.043
 20
34.0095
 11
182.645
 21
33.6406
  0
LINE
  8
0
 10
182.645
 20
33.6406
 11
183.182
 21
33.182
  0
LINE
  8
0
 10
183.182
 20
33.182
 11
183.641
 21
32.645
  0
LINE
  8
0
 10
183.641
 20
32.645
 11
184.01
 21
32.043
  0
LINE
  8
0
 10
184.01
 20
32.043
 11
184.28
 21
31.3906
  0
LINE
  8
0
 10
184.28
 20
31.3906
 11
184.445
 21
30.7039
  0
LINE
  8
0
 10
184.445
 20
30.7039
 11
184.5
 21
30
  0
LINE
  8
0
 10
184.5
 20
30
 11
184.445
 21
29.296
  0
LINE
  8
0
 10
184.445
 20
29.296
 11
184.28
 21
28.6094
  0
LINE
  8
0
 10
184.28
 20
28.6094
 11
184.01
 21
27.957
  0
LINE
  8
0
 10
184.01
 20
27.957
 11
183.641
 21
27.355
  0
LINE
  8
0
 10
183.641
 20
27.355
 11
183.182
 21
26.818
  0
LINE
  8
0
 10
183.182
 20
26.818
 11
182.645
 21
26.3594
  0
LINE
  8
0
 10
182.645
 20
26.3594
 11
182.043
 21
25.9905
  0
LINE
  8
0
 10
182.043
 20
25.9905
 11
181.391
 21
25.7202
  0
LINE
  8
0
 10
181.391
 20
25.7202
 11
180.704
 21
25.5554
  0
LINE
  8
0
 10
180.704
 20
25.5554
 11
180
 21
25.5
  0
LINE
  8
0
 10
180
 20
25.5
 11
179.296
 21
25.5554
  0
LINE
  8
0
 10
149.296
 20
25.5554
 11
148.609
 21
25.7202
  0
LINE
  8
0
 10
148.609
 20
25.7202
 11
147.957
 21
25.9905
  0
LINE
  8
0
 10
147.957
 20
25.9905
 11
147.355
 21
26.3594
  0
LINE
  8
0
 10
147.355
 20
26.3594
 11
146.818
 21
26.818
  0
LINE
  8
0
 10
146.818
 20
26.818
 11
146.359
 21
27.355
  0
LINE
  8
0
 10
146.359
 20
27.355
 11
145.99
 21
27.957
  0
LINE
  8
0
 10
145.99
 20
27.957
 11
145.72
 21
28.6094
  0
LINE
  8
0
 10
145.72
 20
28.6094
 11
145.555
 21
29.296
  0
LINE
  8
0
 10
145.555
 20
29.296
 11
145.5
 21
30
  0
LINE
  8
0
 10
145.5
 20
30
 11
145.555
 21
30.7039
  0
LINE
  8
0
 10
145.555
 20
30.7039
 11
145.72
 21
31.3906
  0
LINE
  8
0
 10
145.72
 20
31.3906
 11
145.99
 21
32.043
  0
LINE
  8
0
 10
145.99
 20
32.043
 11
146.359
 21
32.645
  0
LINE
  8
0
 10
146.359
 20
32.645
 11
146.818
 21
33.182
  0
LINE
  8
0
 10
146.818
 20
33.182
 11
147.355
 21
33.6406
  0
LINE
  8
0
 10
147.355
 20
33.6406
 11
147.957
 21
34.0095
  0
LINE
  8
0
 10
147.957
 20
34.0095
 11
148.609
 21
34.2797
  0
LINE
  8
0
 10
148.609
 20
34.2797
 11
149.296
 21
34.4446
  0
LINE
  8
0
 10
149.296
 20
34.4446
 11
150
 21
34.5
  0
LINE
  8
0
 10
150
 20
34.5
 11
150.704
 21
34.4446
  0
LINE
  8
0
 10
150.704
 20
34.4446
 11
151.391
 21
34.2797
  0
LINE
  8
0
 10
151.391
 20
34.2797
 11
152.043
 21
34.0095
  0
LINE
  8
0
 10
152.043
 20
34.0095
 11
152.645
 21
33.6406
  0
LINE
  8
0
 10
152.645
 20
33.6406
 11
153.182
 21
33.182
  0
LINE
  8
0
 10
153.182
 20
33.182
 11
153.641
 21
32.645
  0
LINE
  8
0
 10
153.641
 20
32.645
 11
154.01
 21
32.043
  0
LINE
  8
0
 10
154.01
 20
32.043
 11
154.28
 21
31.3906
  0
LINE
  8
0
 10
154.28
 20
31.3906
 11
154.445
 21
30.7039
  0
LINE
  8
0
 10
154.445
 20
30.7039
 11
154.5
 21
30
  0
LINE
  8
0
 10
154.5
 20
30
 11
154.445
 21
29.296
  0
LINE
  8
0
 10
154.445
 20
29.296
 11
154.28
 21
28.6094
  0
LINE
  8
0
 10
154.28
 20
28.6094
 11
154.01
 21
27.957
  0
LINE
  8
0
 10
154.01
 20
27.957
 11
153.641
 21
27.355
  0
LINE
  8
0
 10
153.641
 20
27.355
 11
153.182
 21
26.818
  0
LINE
  8
0
 10
153.182
 20
26.818
 11
152.645
 21
26.3594
  0
LINE
  8
0
 10
152.645
 20
26.3594
 11
152.043
 21
25.9905
  0
LINE
  8
0
 10
152.043
 20
25.9905
 11
151.391
 21
25.7202
  0
LINE
  8
0
 10
151.391
 20
25.7202
 11
150.704
 21
25.5554
  0
LINE
  8
0
 10
150.704
 20
25.5554
 11
150
 21
25.5
  0
LINE
  8
0
 10
150
 20
25.5
 11
149.296
 21
25.5554
  0
LINE
  8
0
 10
119.296
 20
25.5554
 11
118.609
 21
25.7202
  0
LINE
  8
0
 10
118.609
 20
25.7202
 11
117.957
 21
25.9905
  0
LINE
  8
0
 10
117.957
 20
25.9905
 11
117.355
 21
26.3594
  0
LINE
  8
0
 10
117.355
 20
26.3594
 11
116.818
 21
26.818
  0
LINE
  8
0
 10
116.818
 20
26.818
 11
116.359
 21
27.355
  0
LINE
  8
0
 10
116.359
 20
27.355
 11
115.99
 21
27.957
  0
LINE
  8
0
 10
115.99
 20
27.957
 11
115.72
 21
28.6094
  0
LINE
  8
0
 10
115.72
 20
28.6094
 11
115.555
 21
29.296
  0
LINE
  8
0
 10
115.555
 20
29.296
 11
115.5
 21
30
  0
LINE
  8
0
 10
115.5
 20
30
 11
115.555
 21
30.7039
  0
LINE
  8
0
 10
115.555
 20
30.7039
 11
115.72
 21
31.3906
  0
LINE
  8
0
 10
115.72
 20
31.3906
 11
115.99
 21
32.043
  0
LINE
  8
0
 10
115.99
 20
32.043
 11
116.359
 21
32.645
  0
LINE
  8
0
 10
116.359
 20
32.645
 11
116.818
 21
33.182
  0
LINE
  8
0
 10
116.818
 20
33.182
 11
117.355
 21
33.6406
  0
LINE
  8
0
 10
117.355
 20
33.6406
 11
117.957
 21
34.0095
  0
LINE
  8
0
 10
117.957
 20
34.0095
 11
118.609
 21
34.2797
  0
LINE
  8
0
 10
118.609
 20
34.2797
 11
119.296
 21
34.4446
  0
LINE
  8
0
 10
119.296
 20
34.4446
 11
120
 21
34.5
  0
LINE
  8
0
 10
120
 20
34.5
 11
120.704
 21
34.4446
  0
LINE
  8
0
 10
120.704
 20
34.4446
 11
121.391
 21
34.2797
  0
LINE
  8
0
 10
121.391
 20
34.2797
 11
122.043
 21
34.0095
  0
LINE
  8
0
 10
122.043
 20
34.0095
 11
122.645
 21
33.6406
  0
LINE
  8
0
 10
122.645
 20
33.6406
 11
123.182
 21
33.182
  0
LINE
  8
0
 10
123.182
 20
33.182
 11
123.641
 21
32.645
  0
LINE
  8
0
 10
123.641
 20
32.645
 11
124.01
 21
32.043
  0
LINE
  8
0
 10
124.01
 20
32.043
 11
124.28
 21
31.3906
  0
LINE
  8
0
 10
124.28
 20
31.3906
 11
124.445
 21
30.7039
  0
LINE
  8
0
 10
124.445
 20
30.7039
 11
124.5
 21
30
  0
LINE
  8
0
 10
124.5
 20
30
 11
124.445
 21
29.296
  0
LINE
  8
0
 10
124.445
 20
29.296
 11
124.28
 21
28.6094
  0
LINE
  8
0
 10
124.28
 20
28.6094
 11
124.01
 21
27.957
  0
LINE
  8
0
 10
124.01
 20
27.957
 11
123.641
 21
27.355
  0
LINE
  8
0
 10
123.641
 20
27.355
 11
123.182
 21
26.818
  0
LINE
  8
0
 10
123.182
 20
26.818
 11
122.645
 21
26.3594
  0
LINE
  8
0
 10
122.645
 20
26.3594
 11
122.043
 21
25.9905
  0
LINE
  8
0
 10
122.043
 20
25.9905
 11
121.391
 21
25.7202
  0
LINE
  8
0
 10
121.391
 20
25.7202
 11
120.704
 21
25.5554
  0
LINE
  8
0
 10
120.704
 20
25.5554
 11
120
 21
25.5
  0
LINE
  8
0
 10
120
 20
25.5
 11
119.296
 21
25.5554
  0
LINE
  8
0
 10
89.296
 20
25.5554
 11
88.6094
 21
25.7202
  0
LINE
  8
0
 10
88.6094
 20
25.7202
 11
87.957
 21
25.9905
  0
LINE
  8
0
 10
87.957
 20
25.9905
 11
87.355
 21
26.3594
  0
LINE
  8
0
 10
87.355
 20
26.3594
 11
86.818
 21
26.818
  0
LINE
  8
0
 10
86.818
 20
26.818
 11
86.3594
 21
27.355
  0
LINE
  8
0
 10
86.3594
 20
27.355
 11
85.9905
 21
27.957
  0
LINE
  8
0
 10
85.9905
 20
27.957
 11
85.7202
 21
28.6094
  0
LINE
  8
0
 10
85.7202
 20
28.6094
 11
85.5554
 21
29.296
  0
LINE
  8
0
 10
85.5554
 20
29.296
 11
85.5
 21
30
  0
LINE
  8
0
 10
85.5
 20
30
 11
85.5554
 21
30.7039
  0
LINE
  8
0
 10
85.5554
 20
30.7039
 11
85.7202
 21
31.3906
  0
LINE
  8
0
 10
85.7202
 20
31.3906
 11
85.9905
 21
32.043
  0
LINE
  8
0
 10
85.9905
 20
32.043
 11
86.3594
 21
32.645
  0
LINE
  8
0
 10
86.3594
 20
32.645
 11
86.818
 21
33.182
  0
LINE
  8
0
 10
86.818
 20
33.182
 11
87.355
 21
33.6406
  0
LINE
  8
0
 10
87.355
 20
33.6406
 11
87.957
 21
34.0095
  0
LINE
  8
0
 10
87.957
 20
34.0095
 11
88.6094
 21
34.2797
  0
LINE
  8
0
 10
88.6094
 20
34.2797
 11
89.296
 21
34.4446
  0
LINE
  8
0
 10
89.296
 20
34.4446
 11
90
 21
34.5
  0
LINE
  8
0
 10
90
 20
34.5
 11
90.7039
 21
34.4446
  0
LINE
  8
0
 10
90.7039
 20
34.4446
 11
91.3906
 21
34.2797
  0
LINE
  8
0
 10
91.3906
 20
34.2797
 11
92.043
 21
34.0095
  0
LINE
  8
0
 10
92.043
 20
34.0095
 11
92.645
 21
33.6406
  0
LINE
  8
0
 10
92.645
 20
33.6406
 11
93.182
 21
33.182
  0
LINE
  8
0
 10
93.182
 20
33.182
 11
93.6406
 21
32.645
  0
LINE
  8
0
 10
93.6406
 20
32.645
 11
94.0095
 21
32.043
  0
LINE
  8
0
 10
94.0095
 20
32.043
 11
94.2797
 21
31.3906
  0
LINE
  8
0
 10
94.2797
 20
31.3906
 11
94.4446
 21
30.7039
  0
LINE
  8
0
 10
94.4446
 20
30.7039
 11
94.5
 21
30
  0
LINE
  8
0
 10
94.5
 20
30
 11
94.4446
 21
29.296
  0
LINE
  8
0
 10
94.4446
 20
29.296
 11
94.2797
 21
28.6094
  0
LINE
  8
0
 10
94.2797
 20
28.6094
 11
94.0095
 21
27.957
  0
LINE
  8
0
 10
94.0095
 20
27.957
 11
93.6406
 21
27.355
  0
LINE
  8
0
 10
93.6406
 20
27.355
 11
93.182
 21
26.818
  0
LINE
  8
0
 10
93.182
 20
26.818
 11
92.645
 21
26.3594
  0
LINE
  8
0
 10
92.645
 20
26.3594
 11
92.043
 21
25.9905
  0
LINE
  8
0
 10
92.043
 20
25.9905
 11
91.3906
 21
25.7202
  0
LINE
  8
0
 10
91.3906
 20
25.7202
 11
90.7039
 21
25.5554
  0
LINE
  8
0
 10
90.7039
 20
25.5554
 11
90
 21
25.5
  0
LINE
  8
0
 10
90
 20
25.5
 11
89.296
 21
25.5554
  0
LINE
  8
0
 10
209.296
 20
25.5554
 11
208.609
 21
25.7202
  0
LINE
  8
0
 10
208.609
 20
25.7202
 11
207.957
 21
25.9905
  0
LINE
  8
0
 10
207.957
 20
25.9905
 11
207.355
 21
26.3594
  0
LINE
  8
0
 10
207.355
 20
26.3594
 11
206.818
 21
26.818
  0
LINE
  8
0
 10
206.818
 20
26.818
 11
206.359
 21
27.355
  0
LINE
  8
0
 10
206.359
 20
27.355
 11
205.99
 21
27.957
  0
LINE
  8
0
 10
205.99
 20
27.957
 11
205.72
 21
28.6094
  0
LINE
  8
0
 10
205.72
 20
28.6094
 11
205.555
 21
29.296
  0
LINE
  8
0
 10
205.555
 20
29.296
 11
205.5
 21
30
  0
LINE
  8
0
 10
205.5
 20
30
 11
205.555
 21
30.7039
  0
LINE
  8
0
 10
205.555
 20
30.7039
 11
205.72
 21
31.3906
  0
LINE
  8
0
 10
205.72
 20
31.3906
 11
205.99
 21
32.043
  0
LINE
  8
0
 10
205.99
 20
32.043
 11
206.359
 21
32.645
  0
LINE
  8
0
 10
206.359
 20
32.645
 11
206.818
 21
33.182
  0
LINE
  8
0
 10
206.818
 20
33.182
 11
207.355
 21
33.6406
  0
LINE
  8
0
 10
207.355
 20
33.6406
 11
207.957
 21
34.0095
  0
LINE
  8
0
 10
207.957
 20
34.0095
 11
208.609
 21
34.2797
  0
LINE
  8
0
 10
208.609
 20
34.2797
 11
209.296
 21
34.4446
  0
LINE
  8
0
 10
209.296
 20
34.4446
 11
210
 21
34.5
  0
LINE
  8
0
 10
210
 20
34.5
 11
210.704
 21
34.4446
  0
LINE
  8
0
 10
210.704
 20
34.4446
 11
211.391
 21
34.2797
  0
LINE
  8
0
 10
211.391
 20
34.2797
 11
212.043
 21
34.0095
  0
LINE
  8
0
 10
212.043
 20
34.0095
 11
212.645
 21
33.6406
  0
LINE
  8
0
 10
212.645
 20
33.6406
 11
213.182
 21
33.182
  0
LINE
  8
0
 10
213.182
 20
33.182
 11
213.641
 21
32.645
  0
LINE
  8
0
 10
213.641
 20
32.645
 11
214.01
 21
32.043
  0
LINE
  8
0
 10
214.01
 20
32.043
 11
214.28
 21
31.3906
  0
LINE
  8
0
 10
214.28
 20
31.3906
 11
214.445
 21
30.7039
  0
LINE
  8
0
 10
214.445
 20
30.7039
 11
214.5
 21
30
  0
LINE
  8
0
 10
214.5
 20
30
 11
214.445
 21
29.296
  0
LINE
  8
0
 10
214.445
 20
29.296
 11
214.28
 21
28.6094
  0
LINE
  8
0
 10
214.28
 20
28.6094
 11
214.01
 21
27.957
  0
LINE
  8
0
 10
214.01
 20
27.957
 11
213.641
 21
27.355
  0
LINE
  8
0
 10
213.641
 20
27.355
 11
213.182
 21
26.818
  0
LINE
  8
0
 10
213.182
 20
26.818
 11
212.645
 21
26.3594
  0
LINE
  8
0
 10
212.645
 20
26.3594
 11
212.043
 21
25.9905
  0
LINE
  8
0
 10
212.043
 20
25.9905
 11
211.391
 21
25.7202
  0
LINE
  8
0
 10
211.391
 20
25.7202
 11
210.704
 21
25.5554
  0
LINE
  8
0
 10
210.704
 20
25.5554
 11
210
 21
25.5
  0
LINE
  8
0
 10
210
 20
25.5
 11
209.296
 21
25.5554
  0
LINE
  8
0
 10
59.296
 20
25.5554
 11
58.6094
 21
25.7202
  0
LINE
  8
0
 10
58.6094
 20
25.7202
 11
57.957
 21
25.9905
  0
LINE
  8
0
 10
57.957
 20
25.9905
 11
57.355
 21
26.3594
  0
LINE
  8
0
 10
57.355
 20
26.3594
 11
56.818
 21
26.818
  0
LINE
  8
0
 10
56.818
 20
26.818
 11
56.3594
 21
27.355
  0
LINE
  8
0
 10
56.3594
 20
27.355
 11
55.9905
 21
27.957
  0
LINE
  8
0
 10
55.9905
 20
27.957
 11
55.7202
 21
28.6094
  0
LINE
  8
0
 10
55.7202
 20
28.6094
 11
55.5554
 21
29.296
  0
LINE
  8
0
 10
55.5554
 20
29.296
 11
55.5
 21
30
  0
LINE
  8
0
 10
55.5
 20
30
 11
55.5554
 21
30.7039
  0
LINE
  8
0
 10
55.5554
 20
30.7039
 11
55.7202
 21
31.3906
  0
LINE
  8
0
 10
55.7202
 20
31.3906
 11
55.9905
 21
32.043
  0
LINE
  8
0
 10
55.9905
 20
32.043
 11
56.3594
 21
32.645
  0
LINE
  8
0
 10
56.3594
 20
32.645
 11
56.818
 21
33.182
  0
LINE
  8
0
 10
56.818
 20
33.182
 11
57.355
 21
33.6406
  0
LINE
  8
0
 10
57.355
 20
33.6406
 11
57.957
 21
34.0095
  0
LINE
  8
0
 10
57.957
 20
34.0095
 11
58.6094
 21
34.2797
  0
LINE
  8
0
 10
58.6094
 20
34.2797
 11
59.296
 21
34.4446
  0
LINE
  8
0
 10
59.296
 20
34.4446
 11
60
 21
34.5
  0
LINE
  8
0
 10
60
 20
34.5
 11
60.7039
 21
34.4446
  0
LINE
  8
0
 10
60.7039
 20
34.4446
 11
61.3906
 21
34.2797
  0
LINE
  8
0
 10
61.3906
 20
34.2797
 11
62.043
 21
34.0095
  0
LINE
  8
0
 10
62.043
 20
34.0095
 11
62.645
 21
33.6406
  0
LINE
  8
0
 10
62.645
 20
33.6406
 11
63.182
 21
33.182
  0
LINE
  8
0
 10
63.182
 20
33.182
 11
63.6406
 21
32.645
  0
LINE
  8
0
 10
63.6406
 20
32.645
 11
64.0095
 21
32.043
  0
LINE
  8
0
 10
64.0095
 20
32.043
 11
64.2797
 21
31.3906
  0
LINE
  8
0
 10
64.2797
 20
31.3906
 11
64.4446
 21
30.7039
  0
LINE
  8
0
 10
64.4446
 20
30.7039
 11
64.5
 21
30
  0
LINE
  8
0
 10
64.5
 20
30
 11
64.4446
 21
29.296
  0
LINE
  8
0
 10
64.4446
 20
29.296
 11
64.2797
 21
28.6094
  0
LINE
  8
0
 10
64.2797
 20
28.6094
 11
64.0095
 21
27.957
  0
LINE
  8
0
 10
64.0095
 20
27.957
 11
63.6406
 21
27.355
  0
LINE
  8
0
 10
63.6406
 20
27.355
 11
63.182
 21
26.818
  0
LINE
  8
0
 10
63.182
 20
26.818
 11
62.645
 21
26.3594
  0
LINE
  8
0
 10
62.645
 20
26.3594
 11
62.043
 21
25.9905
  0
LINE
  8
0
 10
62.043
 20
25.9905
 11
61.3906
 21
25.7202
  0
LINE
  8
0
 10
61.3906
 20
25.7202
 11
60.7039
 21
25.5554
  0
LINE
  8
0
 10
60.7039
 20
25.5554
 11
60
 21
25.5
  0
LINE
  8
0
 10
60
 20
25.5
 11
59.296
 21
25.5554
  0
ENDSEC
  0
SECTION
  2
OBJECTS
  0
DICTIONARY
  0
ENDSEC
  0
EOF
