  0
SECTION
  2
BLOCKS
  0
ENDSEC
  0
SECTION
  2
ENTITIES
  0
LINE
  8
0
 10
220
 20
160
 11
0
 21
160
  0
LINE
  8
0
 10
0
 20
160
 11
0
 21
0
  0
LINE
  8
0
 10
0
 20
0
 11
220
 21
0
  0
LINE
  8
0
 10
220
 20
0
 11
220
 21
160
  0
LINE
  8
0
 10
169.218
 20
135.062
 11
168.455
 21
135.245
  0
LINE
  8
0
 10
168.455
 20
135.245
 11
167.73
 21
135.545
  0
LINE
  8
0
 10
167.73
 20
135.545
 11
167.061
 21
135.955
  0
LINE
  8
0
 10
167.061
 20
135.955
 11
166.464
 21
136.464
  0
LINE
  8
0
 10
166.464
 20
136.464
 11
165.955
 21
137.061
  0
LINE
  8
0
 10
165.955
 20
137.061
 11
165.545
 21
137.73
  0
LINE
  8
0
 10
165.545
 20
137.73
 11
165.245
 21
138.455
  0
LINE
  8
0
 10
165.245
 20
138.455
 11
165.062
 21
139.218
  0
LINE
  8
0
 10
165.062
 20
139.218
 11
165
 21
140
  0
LINE
  8
0
 10
165
 20
140
 11
165.062
 21
140.782
  0
LINE
  8
0
 10
165.062
 20
140.782
 11
165.245
 21
141.545
  0
LINE
  8
0
 10
165.245
 20
141.545
 11
165.545
 21
142.27
  0
LINE
  8
0
 10
165.545
 20
142.27
 11
165.955
 21
142.939
  0
LINE
  8
0
 10
165.955
 20
142.939
 11
166.464
 21
143.536
  0
LINE
  8
0
 10
166.464
 20
143.536
 11
167.061
 21
144.045
  0
LINE
  8
0
 10
167.061
 20
144.045
 11
167.73
 21
144.455
  0
LINE
  8
0
 10
167.73
 20
144.455
 11
168.455
 21
144.755
  0
LINE
  8
0
 10
168.455
 20
144.755
 11
169.218
 21
144.938
  0
LINE
  8
0
 10
169.218
 20
144.938
 11
170
 21
145
  0
LINE
  8
0
 10
170
 20
145
 11
170.782
 21
144.938
  0
LINE
  8
0
 10
170.782
 20
144.938
 11
171.545
 21
144.755
  0
LINE
  8
0
 10
171.545
 20
144.755
 11
172.27
 21
144.455
  0
LINE
  8
0
 10
172.27
 20
144.455
 11
172.939
 21
144.045
  0
LINE
  8
0
 10
172.939
 20
144.045
 11
173.536
 21
143.536
  0
LINE
  8
0
 10
173.536
 20
143.536
 11
174.045
 21
142.939
  0
LINE
  8
0
 10
174.045
 20
142.939
 11
174.455
 21
142.27
  0
LINE
  8
0
 10
174.455
 20
142.27
 11
174.755
 21
141.545
  0
LINE
  8
0
 10
174.755
 20
141.545
 11
174.938
 21
140.782
  0
LINE
  8
0
 10
174.938
 20
140.782
 11
175
 21
140
  0
LINE
  8
0
 10
175
 20
140
 11
174.938
 21
139.218
  0
LINE
  8
0
 10
174.938
 20
139.218
 11
174.755
 21
138.455
  0
LINE
  8
0
 10
174.755
 20
138.455
 11
174.455
 21
137.73
  0
LINE
  8
0
 10
174.455
 20
137.73
 11
174.045
 21
137.061
  0
LINE
  8
0
 10
174.045
 20
137.061
 11
173.536
 21
136.464
  0
LINE
  8
0
 10
173.536
 20
136.464
 11
172.939
 21
135.955
  0
LINE
  8
0
 10
172.939
 20
135.955
 11
172.27
 21
135.545
  0
LINE
  8
0
 10
172.27
 20
135.545
 11
171.545
 21
135.245
  0
LINE
  8
0
 10
171.545
 20
135.245
 11
170.782
 21
135.062
  0
LINE
  8
0
 10
170.782
 20
135.062
 11
170
 21
135
  0
LINE
  8
0
 10
170
 20
135
 11
169.218
 21
135.062
  0
LINE
  8
0
 10
139.218
 20
135.062
 11
138.455
 21
135.245
  0
LINE
  8
0
 10
138.455
 20
135.245
 11
137.73
 21
135.545
  0
LINE
  8
0
 10
137.73
 20
135.545
 11
137.061
 21
135.955
  0
LINE
  8
0
 10
137.061
 20
135.955
 11
136.464
 21
136.464
  0
LINE
  8
0
 10
136.464
 20
136.464
 11
135.955
 21
137.061
  0
LINE
  8
0
 10
135.955
 20
137.061
 11
135.545
 21
137.73
  0
LINE
  8
0
 10
135.545
 20
137.73
 11
135.245
 21
138.455
  0
LINE
  8
0
 10
135.245
 20
138.455
 11
135.062
 21
139.218
  0
LINE
  8
0
 10
135.062
 20
139.218
 11
135
 21
140
  0
LINE
  8
0
 10
135
 20
140
 11
135.062
 21
140.782
  0
LINE
  8
0
 10
135.062
 20
140.782
 11
135.245
 21
141.545
  0
LINE
  8
0
 10
135.245
 20
141.545
 11
135.545
 21
142.27
  0
LINE
  8
0
 10
135.545
 20
142.27
 11
135.955
 21
142.939
  0
LINE
  8
0
 10
135.955
 20
142.939
 11
136.464
 21
143.536
  0
LINE
  8
0
 10
136.464
 20
143.536
 11
137.061
 21
144.045
  0
LINE
  8
0
 10
137.061
 20
144.045
 11
137.73
 21
144.455
  0
LINE
  8
0
 10
137.73
 20
144.455
 11
138.455
 21
144.755
  0
LINE
  8
0
 10
138.455
 20
144.755
 11
139.218
 21
144.938
  0
LINE
  8
0
 10
139.218
 20
144.938
 11
140
 21
145
  0
LINE
  8
0
 10
140
 20
145
 11
140.782
 21
144.938
  0
LINE
  8
0
 10
140.782
 20
144.938
 11
141.545
 21
144.755
  0
LINE
  8
0
 10
141.545
 20
144.755
 11
142.27
 21
144.455
  0
LINE
  8
0
 10
142.27
 20
144.455
 11
142.939
 21
144.045
  0
LINE
  8
0
 10
142.939
 20
144.045
 11
143.536
 21
143.536
  0
LINE
  8
0
 10
143.536
 20
143.536
 11
144.045
 21
142.939
  0
LINE
  8
0
 10
144.045
 20
142.939
 11
144.455
 21
142.27
  0
LINE
  8
0
 10
144.455
 20
142.27
 11
144.755
 21
141.545
  0
LINE
  8
0
 10
144.755
 20
141.545
 11
144.938
 21
140.782
  0
LINE
  8
0
 10
144.938
 20
140.782
 11
145
 21
140
  0
LINE
  8
0
 10
145
 20
140
 11
144.938
 21
139.218
  0
LINE
  8
0
 10
144.938
 20
139.218
 11
144.755
 21
138.455
  0
LINE
  8
0
 10
144.755
 20
138.455
 11
144.455
 21
137.73
  0
LINE
  8
0
 10
144.455
 20
137.73
 11
144.045
 21
137.061
  0
LINE
  8
0
 10
144.045
 20
137.061
 11
143.536
 21
136.464
  0
LINE
  8
0
 10
143.536
 20
136.464
 11
142.939
 21
135.955
  0
LINE
  8
0
 10
142.939
 20
135.955
 11
142.27
 21
135.545
  0
LINE
  8
0
 10
142.27
 20
135.545
 11
141.545
 21
135.245
  0
LINE
  8
0
 10
141.545
 20
135.245
 11
140.782
 21
135.062
  0
LINE
  8
0
 10
140.782
 20
135.062
 11
140
 21
135
  0
LINE
  8
0
 10
140
 20
135
 11
139.218
 21
135.062
  0
LINE
  8
0
 10
19.2178
 20
135.062
 11
18.4549
 21
135.245
  0
LINE
  8
0
 10
18.4549
 20
135.245
 11
17.73
 21
135.545
  0
LINE
  8
0
 10
17.73
 20
135.545
 11
17.0611
 21
135.955
  0
LINE
  8
0
 10
17.0611
 20
135.955
 11
16.4645
 21
136.464
  0
LINE
  8
0
 10
16.4645
 20
136.464
 11
15.9549
 21
137.061
  0
LINE
  8
0
 10
15.9549
 20
137.061
 11
15.545
 21
137.73
  0
LINE
  8
0
 10
15.545
 20
137.73
 11
15.2447
 21
138.455
  0
LINE
  8
0
 10
15.2447
 20
138.455
 11
15.0616
 21
139.218
  0
LINE
  8
0
 10
15.0616
 20
139.218
 11
15
 21
140
  0
LINE
  8
0
 10
15
 20
140
 11
15.0616
 21
140.782
  0
LINE
  8
0
 10
15.0616
 20
140.782
 11
15.2447
 21
141.545
  0
LINE
  8
0
 10
15.2447
 20
141.545
 11
15.545
 21
142.27
  0
LINE
  8
0
 10
15.545
 20
142.27
 11
15.9549
 21
142.939
  0
LINE
  8
0
 10
15.9549
 20
142.939
 11
16.4645
 21
143.536
  0
LINE
  8
0
 10
16.4645
 20
143.536
 11
17.0611
 21
144.045
  0
LINE
  8
0
 10
17.0611
 20
144.045
 11
17.73
 21
144.455
  0
LINE
  8
0
 10
17.73
 20
144.455
 11
18.4549
 21
144.755
  0
LINE
  8
0
 10
18.4549
 20
144.755
 11
19.2178
 21
144.938
  0
LINE
  8
0
 10
19.2178
 20
144.938
 11
20
 21
145
  0
LINE
  8
0
 10
20
 20
145
 11
20.7822
 21
144.938
  0
LINE
  8
0
 10
20.7822
 20
144.938
 11
21.5451
 21
144.755
  0
LINE
  8
0
 10
21.5451
 20
144.755
 11
22.2699
 21
144.455
  0
LINE
  8
0
 10
22.2699
 20
144.455
 11
22.9389
 21
144.045
  0
LINE
  8
0
 10
22.9389
 20
144.045
 11
23.5355
 21
143.536
  0
LINE
  8
0
 10
23.5355
 20
143.536
 11
24.0451
 21
142.939
  0
LINE
  8
0
 10
24.0451
 20
142.939
 11
24.455
 21
142.27
  0
LINE
  8
0
 10
24.455
 20
142.27
 11
24.7553
 21
141.545
  0
LINE
  8
0
 10
24.7553
 20
141.545
 11
24.9384
 21
140.782
  0
LINE
  8
0
 10
24.9384
 20
140.782
 11
25
 21
140
  0
LINE
  8
0
 10
25
 20
140
 11
24.9384
 21
139.218
  0
LINE
  8
0
 10
24.9384
 20
139.218
 11
24.7553
 21
138.455
  0
LINE
  8
0
 10
24.7553
 20
138.455
 11
24.455
 21
137.73
  0
LINE
  8
0
 10
24.455
 20
137.73
 11
24.0451
 21
137.061
  0
LINE
  8
0
 10
24.0451
 20
137.061
 11
23.5355
 21
136.464
  0
LINE
  8
0
 10
23.5355
 20
136.464
 11
22.9389
 21
135.955
  0
LINE
  8
0
 10
22.9389
 20
135.955
 11
22.2699
 21
135.545
  0
LINE
  8
0
 10
22.2699
 20
135.545
 11
21.5451
 21
135.245
  0
LINE
  8
0
 10
21.5451
 20
135.245
 11
20.7822
 21
135.062
  0
LINE
  8
0
 10
20.7822
 20
135.062
 11
20
 21
135
  0
LINE
  8
0
 10
20
 20
135
 11
19.2178
 21
135.062
  0
LINE
  8
0
 10
49.2178
 20
135.062
 11
48.4549
 21
135.245
  0
LINE
  8
0
 10
48.4549
 20
135.245
 11
47.73
 21
135.545
  0
LINE
  8
0
 10
47.73
 20
135.545
 11
47.0611
 21
135.955
  0
LINE
  8
0
 10
47.0611
 20
135.955
 11
46.4645
 21
136.464
  0
LINE
  8
0
 10
46.4645
 20
136.464
 11
45.9549
 21
137.061
  0
LINE
  8
0
 10
45.9549
 20
137.061
 11
45.545
 21
137.73
  0
LINE
  8
0
 10
45.545
 20
137.73
 11
45.2447
 21
138.455
  0
LINE
  8
0
 10
45.2447
 20
138.455
 11
45.0616
 21
139.218
  0
LINE
  8
0
 10
45.0616
 20
139.218
 11
45
 21
140
  0
LINE
  8
0
 10
45
 20
140
 11
45.0616
 21
140.782
  0
LINE
  8
0
 10
45.0616
 20
140.782
 11
45.2447
 21
141.545
  0
LINE
  8
0
 10
45.2447
 20
141.545
 11
45.545
 21
142.27
  0
LINE
  8
0
 10
45.545
 20
142.27
 11
45.9549
 21
142.939
  0
LINE
  8
0
 10
45.9549
 20
142.939
 11
46.4645
 21
143.536
  0
LINE
  8
0
 10
46.4645
 20
143.536
 11
47.0611
 21
144.045
  0
LINE
  8
0
 10
47.0611
 20
144.045
 11
47.73
 21
144.455
  0
LINE
  8
0
 10
47.73
 20
144.455
 11
48.4549
 21
144.755
  0
LINE
  8
0
 10
48.4549
 20
144.755
 11
49.2178
 21
144.938
  0
LINE
  8
0
 10
49.2178
 20
144.938
 11
50
 21
145
  0
LINE
  8
0
 10
50
 20
145
 11
50.7822
 21
144.938
  0
LINE
  8
0
 10
50.7822
 20
144.938
 11
51.5451
 21
144.755
  0
LINE
  8
0
 10
51.5451
 20
144.755
 11
52.2699
 21
144.455
  0
LINE
  8
0
 10
52.2699
 20
144.455
 11
52.9389
 21
144.045
  0
LINE
  8
0
 10
52.9389
 20
144.045
 11
53.5355
 21
143.536
  0
LINE
  8
0
 10
53.5355
 20
143.536
 11
54.0451
 21
142.939
  0
LINE
  8
0
 10
54.0451
 20
142.939
 11
54.455
 21
142.27
  0
LINE
  8
0
 10
54.455
 20
142.27
 11
54.7553
 21
141.545
  0
LINE
  8
0
 10
54.7553
 20
141.545
 11
54.9384
 21
140.782
  0
LINE
  8
0
 10
54.9384
 20
140.782
 11
55
 21
140
  0
LINE
  8
0
 10
55
 20
140
 11
54.9384
 21
139.218
  0
LINE
  8
0
 10
54.9384
 20
139.218
 11
54.7553
 21
138.455
  0
LINE
  8
0
 10
54.7553
 20
138.455
 11
54.455
 21
137.73
  0
LINE
  8
0
 10
54.455
 20
137.73
 11
54.0451
 21
137.061
  0
LINE
  8
0
 10
54.0451
 20
137.061
 11
53.5355
 21
136.464
  0
LINE
  8
0
 10
53.5355
 20
136.464
 11
52.9389
 21
135.955
  0
LINE
  8
0
 10
52.9389
 20
135.955
 11
52.2699
 21
135.545
  0
LINE
  8
0
 10
52.2699
 20
135.545
 11
51.5451
 21
135.245
  0
LINE
  8
0
 10
51.5451
 20
135.245
 11
50.7822
 21
135.062
  0
LINE
  8
0
 10
50.7822
 20
135.062
 11
50
 21
135
  0
LINE
  8
0
 10
50
 20
135
 11
49.2178
 21
135.062
  0
LINE
  8
0
 10
109.218
 20
135.062
 11
108.455
 21
135.245
  0
LINE
  8
0
 10
108.455
 20
135.245
 11
107.73
 21
135.545
  0
LINE
  8
0
 10
107.73
 20
135.545
 11
107.061
 21
135.955
  0
LINE
  8
0
 10
107.061
 20
135.955
 11
106.464
 21
136.464
  0
LINE
  8
0
 10
106.464
 20
136.464
 11
105.955
 21
137.061
  0
LINE
  8
0
 10
105.955
 20
137.061
 11
105.545
 21
137.73
  0
LINE
  8
0
 10
105.545
 20
137.73
 11
105.245
 21
138.455
  0
LINE
  8
0
 10
105.245
 20
138.455
 11
105.062
 21
139.218
  0
LINE
  8
0
 10
105.062
 20
139.218
 11
105
 21
140
  0
LINE
  8
0
 10
105
 20
140
 11
105.062
 21
140.782
  0
LINE
  8
0
 10
105.062
 20
140.782
 11
105.245
 21
141.545
  0
LINE
  8
0
 10
105.245
 20
141.545
 11
105.545
 21
142.27
  0
LINE
  8
0
 10
105.545
 20
142.27
 11
105.955
 21
142.939
  0
LINE
  8
0
 10
105.955
 20
142.939
 11
106.464
 21
143.536
  0
LINE
  8
0
 10
106.464
 20
143.536
 11
107.061
 21
144.045
  0
LINE
  8
0
 10
107.061
 20
144.045
 11
107.73
 21
144.455
  0
LINE
  8
0
 10
107.73
 20
144.455
 11
108.455
 21
144.755
  0
LINE
  8
0
 10
108.455
 20
144.755
 11
109.218
 21
144.938
  0
LINE
  8
0
 10
109.218
 20
144.938
 11
110
 21
145
  0
LINE
  8
0
 10
110
 20
145
 11
110.782
 21
144.938
  0
LINE
  8
0
 10
110.782
 20
144.938
 11
111.545
 21
144.755
  0
LINE
  8
0
 10
111.545
 20
144.755
 11
112.27
 21
144.455
  0
LINE
  8
0
 10
112.27
 20
144.455
 11
112.939
 21
144.045
  0
LINE
  8
0
 10
112.939
 20
144.045
 11
113.536
 21
143.536
  0
LINE
  8
0
 10
113.536
 20
143.536
 11
114.045
 21
142.939
  0
LINE
  8
0
 10
114.045
 20
142.939
 11
114.455
 21
142.27
  0
LINE
  8
0
 10
114.455
 20
142.27
 11
114.755
 21
141.545
  0
LINE
  8
0
 10
114.755
 20
141.545
 11
114.938
 21
140.782
  0
LINE
  8
0
 10
114.938
 20
140.782
 11
115
 21
140
  0
LINE
  8
0
 10
115
 20
140
 11
114.938
 21
139.218
  0
LINE
  8
0
 10
114.938
 20
139.218
 11
114.755
 21
138.455
  0
LINE
  8
0
 10
114.755
 20
138.455
 11
114.455
 21
137.73
  0
LINE
  8
0
 10
114.455
 20
137.73
 11
114.045
 21
137.061
  0
LINE
  8
0
 10
114.045
 20
137.061
 11
113.536
 21
136.464
  0
LINE
  8
0
 10
113.536
 20
136.464
 11
112.939
 21
135.955
  0
LINE
  8
0
 10
112.939
 20
135.955
 11
112.27
 21
135.545
  0
LINE
  8
0
 10
112.27
 20
135.545
 11
111.545
 21
135.245
  0
LINE
  8
0
 10
111.545
 20
135.245
 11
110.782
 21
135.062
  0
LINE
  8
0
 10
110.782
 20
135.062
 11
110
 21
135
  0
LINE
  8
0
 10
110
 20
135
 11
109.218
 21
135.062
  0
LINE
  8
0
 10
79.2178
 20
135.062
 11
78.4549
 21
135.245
  0
LINE
  8
0
 10
78.4549
 20
135.245
 11
77.73
 21
135.545
  0
LINE
  8
0
 10
77.73
 20
135.545
 11
77.0611
 21
135.955
  0
LINE
  8
0
 10
77.0611
 20
135.955
 11
76.4645
 21
136.464
  0
LINE
  8
0
 10
76.4645
 20
136.464
 11
75.9549
 21
137.061
  0
LINE
  8
0
 10
75.9549
 20
137.061
 11
75.545
 21
137.73
  0
LINE
  8
0
 10
75.545
 20
137.73
 11
75.2447
 21
138.455
  0
LINE
  8
0
 10
75.2447
 20
138.455
 11
75.0616
 21
139.218
  0
LINE
  8
0
 10
75.0616
 20
139.218
 11
75
 21
140
  0
LINE
  8
0
 10
75
 20
140
 11
75.0616
 21
140.782
  0
LINE
  8
0
 10
75.0616
 20
140.782
 11
75.2447
 21
141.545
  0
LINE
  8
0
 10
75.2447
 20
141.545
 11
75.545
 21
142.27
  0
LINE
  8
0
 10
75.545
 20
142.27
 11
75.9549
 21
142.939
  0
LINE
  8
0
 10
75.9549
 20
142.939
 11
76.4645
 21
143.536
  0
LINE
  8
0
 10
76.4645
 20
143.536
 11
77.0611
 21
144.045
  0
LINE
  8
0
 10
77.0611
 20
144.045
 11
77.73
 21
144.455
  0
LINE
  8
0
 10
77.73
 20
144.455
 11
78.4549
 21
144.755
  0
LINE
  8
0
 10
78.4549
 20
144.755
 11
79.2178
 21
144.938
  0
LINE
  8
0
 10
79.2178
 20
144.938
 11
80
 21
145
  0
LINE
  8
0
 10
80
 20
145
 11
80.7822
 21
144.938
  0
LINE
  8
0
 10
80.7822
 20
144.938
 11
81.5451
 21
144.755
  0
LINE
  8
0
 10
81.5451
 20
144.755
 11
82.2699
 21
144.455
  0
LINE
  8
0
 10
82.2699
 20
144.455
 11
82.9389
 21
144.045
  0
LINE
  8
0
 10
82.9389
 20
144.045
 11
83.5355
 21
143.536
  0
LINE
  8
0
 10
83.5355
 20
143.536
 11
84.0451
 21
142.939
  0
LINE
  8
0
 10
84.0451
 20
142.939
 11
84.455
 21
142.27
  0
LINE
  8
0
 10
84.455
 20
142.27
 11
84.7553
 21
141.545
  0
LINE
  8
0
 10
84.7553
 20
141.545
 11
84.9384
 21
140.782
  0
LINE
  8
0
 10
84.9384
 20
140.782
 11
85
 21
140
  0
LINE
  8
0
 10
85
 20
140
 11
84.9384
 21
139.218
  0
LINE
  8
0
 10
84.9384
 20
139.218
 11
84.7553
 21
138.455
  0
LINE
  8
0
 10
84.7553
 20
138.455
 11
84.455
 21
137.73
  0
LINE
  8
0
 10
84.455
 20
137.73
 11
84.0451
 21
137.061
  0
LINE
  8
0
 10
84.0451
 20
137.061
 11
83.5355
 21
136.464
  0
LINE
  8
0
 10
83.5355
 20
136.464
 11
82.9389
 21
135.955
  0
LINE
  8
0
 10
82.9389
 20
135.955
 11
82.2699
 21
135.545
  0
LINE
  8
0
 10
82.2699
 20
135.545
 11
81.5451
 21
135.245
  0
LINE
  8
0
 10
81.5451
 20
135.245
 11
80.7822
 21
135.062
  0
LINE
  8
0
 10
80.7822
 20
135.062
 11
80
 21
135
  0
LINE
  8
0
 10
80
 20
135
 11
79.2178
 21
135.062
  0
LINE
  8
0
 10
199.218
 20
135.062
 11
198.455
 21
135.245
  0
LINE
  8
0
 10
198.455
 20
135.245
 11
197.73
 21
135.545
  0
LINE
  8
0
 10
197.73
 20
135.545
 11
197.061
 21
135.955
  0
LINE
  8
0
 10
197.061
 20
135.955
 11
196.464
 21
136.464
  0
LINE
  8
0
 10
196.464
 20
136.464
 11
195.955
 21
137.061
  0
LINE
  8
0
 10
195.955
 20
137.061
 11
195.545
 21
137.73
  0
LINE
  8
0
 10
195.545
 20
137.73
 11
195.245
 21
138.455
  0
LINE
  8
0
 10
195.245
 20
138.455
 11
195.062
 21
139.218
  0
LINE
  8
0
 10
195.062
 20
139.218
 11
195
 21
140
  0
LINE
  8
0
 10
195
 20
140
 11
195.062
 21
140.782
  0
LINE
  8
0
 10
195.062
 20
140.782
 11
195.245
 21
141.545
  0
LINE
  8
0
 10
195.245
 20
141.545
 11
195.545
 21
142.27
  0
LINE
  8
0
 10
195.545
 20
142.27
 11
195.955
 21
142.939
  0
LINE
  8
0
 10
195.955
 20
142.939
 11
196.464
 21
143.536
  0
LINE
  8
0
 10
196.464
 20
143.536
 11
197.061
 21
144.045
  0
LINE
  8
0
 10
197.061
 20
144.045
 11
197.73
 21
144.455
  0
LINE
  8
0
 10
197.73
 20
144.455
 11
198.455
 21
144.755
  0
LINE
  8
0
 10
198.455
 20
144.755
 11
199.218
 21
144.938
  0
LINE
  8
0
 10
199.218
 20
144.938
 11
200
 21
145
  0
LINE
  8
0
 10
200
 20
145
 11
200.782
 21
144.938
  0
LINE
  8
0
 10
200.782
 20
144.938
 11
201.545
 21
144.755
  0
LINE
  8
0
 10
201.545
 20
144.755
 11
202.27
 21
144.455
  0
LINE
  8
0
 10
202.27
 20
144.455
 11
202.939
 21
144.045
  0
LINE
  8
0
 10
202.939
 20
144.045
 11
203.536
 21
143.536
  0
LINE
  8
0
 10
203.536
 20
143.536
 11
204.045
 21
142.939
  0
LINE
  8
0
 10
204.045
 20
142.939
 11
204.455
 21
142.27
  0
LINE
  8
0
 10
204.455
 20
142.27
 11
204.755
 21
141.545
  0
LINE
  8
0
 10
204.755
 20
141.545
 11
204.938
 21
140.782
  0
LINE
  8
0
 10
204.938
 20
140.782
 11
205
 21
140
  0
LINE
  8
0
 10
205
 20
140
 11
204.938
 21
139.218
  0
LINE
  8
0
 10
204.938
 20
139.218
 11
204.755
 21
138.455
  0
LINE
  8
0
 10
204.755
 20
138.455
 11
204.455
 21
137.73
  0
LINE
  8
0
 10
204.455
 20
137.73
 11
204.045
 21
137.061
  0
LINE
  8
0
 10
204.045
 20
137.061
 11
203.536
 21
136.464
  0
LINE
  8
0
 10
203.536
 20
136.464
 11
202.939
 21
135.955
  0
LINE
  8
0
 10
202.939
 20
135.955
 11
202.27
 21
135.545
  0
LINE
  8
0
 10
202.27
 20
135.545
 11
201.545
 21
135.245
  0
LINE
  8
0
 10
201.545
 20
135.245
 11
200.782
 21
135.062
  0
LINE
  8
0
 10
200.782
 20
135.062
 11
200
 21
135
  0
LINE
  8
0
 10
200
 20
135
 11
199.218
 21
135.062
  0
LINE
  8
0
 10
19.2178
 20
105.062
 11
18.4549
 21
105.245
  0
LINE
  8
0
 10
18.4549
 20
105.245
 11
17.73
 21
105.545
  0
LINE
  8
0
 10
17.73
 20
105.545
 11
17.0611
 21
105.955
  0
LINE
  8
0
 10
17.0611
 20
105.955
 11
16.4645
 21
106.464
  0
LINE
  8
0
 10
16.4645
 20
106.464
 11
15.9549
 21
107.061
  0
LINE
  8
0
 10
15.9549
 20
107.061
 11
15.545
 21
107.73
  0
LINE
  8
0
 10
15.545
 20
107.73
 11
15.2447
 21
108.455
  0
LINE
  8
0
 10
15.2447
 20
108.455
 11
15.0616
 21
109.218
  0
LINE
  8
0
 10
15.0616
 20
109.218
 11
15
 21
110
  0
LINE
  8
0
 10
15
 20
110
 11
15.0616
 21
110.782
  0
LINE
  8
0
 10
15.0616
 20
110.782
 11
15.2447
 21
111.545
  0
LINE
  8
0
 10
15.2447
 20
111.545
 11
15.545
 21
112.27
  0
LINE
  8
0
 10
15.545
 20
112.27
 11
15.9549
 21
112.939
  0
LINE
  8
0
 10
15.9549
 20
112.939
 11
16.4645
 21
113.536
  0
LINE
  8
0
 10
16.4645
 20
113.536
 11
17.0611
 21
114.045
  0
LINE
  8
0
 10
17.0611
 20
114.045
 11
17.73
 21
114.455
  0
LINE
  8
0
 10
17.73
 20
114.455
 11
18.4549
 21
114.755
  0
LINE
  8
0
 10
18.4549
 20
114.755
 11
19.2178
 21
114.938
  0
LINE
  8
0
 10
19.2178
 20
114.938
 11
20
 21
115
  0
LINE
  8
0
 10
20
 20
115
 11
20.7822
 21
114.938
  0
LINE
  8
0
 10
20.7822
 20
114.938
 11
21.5451
 21
114.755
  0
LINE
  8
0
 10
21.5451
 20
114.755
 11
22.2699
 21
114.455
  0
LINE
  8
0
 10
22.2699
 20
114.455
 11
22.9389
 21
114.045
  0
LINE
  8
0
 10
22.9389
 20
114.045
 11
23.5355
 21
113.536
  0
LINE
  8
0
 10
23.5355
 20
113.536
 11
24.0451
 21
112.939
  0
LINE
  8
0
 10
24.0451
 20
112.939
 11
24.455
 21
112.27
  0
LINE
  8
0
 10
24.455
 20
112.27
 11
24.7553
 21
111.545
  0
LINE
  8
0
 10
24.7553
 20
111.545
 11
24.9384
 21
110.782
  0
LINE
  8
0
 10
24.9384
 20
110.782
 11
25
 21
110
  0
LINE
  8
0
 10
25
 20
110
 11
24.9384
 21
109.218
  0
LINE
  8
0
 10
24.9384
 20
109.218
 11
24.7553
 21
108.455
  0
LINE
  8
0
 10
24.7553
 20
108.455
 11
24.455
 21
107.73
  0
LINE
  8
0
 10
24.455
 20
107.73
 11
24.0451
 21
107.061
  0
LINE
  8
0
 10
24.0451
 20
107.061
 11
23.5355
 21
106.464
  0
LINE
  8
0
 10
23.5355
 20
106.464
 11
22.9389
 21
105.955
  0
LINE
  8
0
 10
22.9389
 20
105.955
 11
22.2699
 21
105.545
  0
LINE
  8
0
 10
22.2699
 20
105.545
 11
21.5451
 21
105.245
  0
LINE
  8
0
 10
21.5451
 20
105.245
 11
20.7822
 21
105.062
  0
LINE
  8
0
 10
20.7822
 20
105.062
 11
20
 21
105
  0
LINE
  8
0
 10
20
 20
105
 11
19.2178
 21
105.062
  0
LINE
  8
0
 10
169.296
 20
105.555
 11
168.609
 21
105.72
  0
LINE
  8
0
 10
168.609
 20
105.72
 11
167.957
 21
105.99
  0
LINE
  8
0
 10
167.957
 20
105.99
 11
167.355
 21
106.359
  0
LINE
  8
0
 10
167.355
 20
106.359
 11
166.818
 21
106.818
  0
LINE
  8
0
 10
166.818
 20
106.818
 11
166.359
 21
107.355
  0
LINE
  8
0
 10
166.359
 20
107.355
 11
165.99
 21
107.957
  0
LINE
  8
0
 10
165.99
 20
107.957
 11
165.72
 21
108.609
  0
LINE
  8
0
 10
165.72
 20
108.609
 11
165.555
 21
109.296
  0
LINE
  8
0
 10
165.555
 20
109.296
 11
165.5
 21
110
  0
LINE
  8
0
 10
165.5
 20
110
 11
165.555
 21
110.704
  0
LINE
  8
0
 10
165.555
 20
110.704
 11
165.72
 21
111.391
  0
LINE
  8
0
 10
165.72
 20
111.391
 11
165.99
 21
112.043
  0
LINE
  8
0
 10
165.99
 20
112.043
 11
166.359
 21
112.645
  0
LINE
  8
0
 10
166.359
 20
112.645
 11
166.818
 21
113.182
  0
LINE
  8
0
 10
166.818
 20
113.182
 11
167.355
 21
113.641
  0
LINE
  8
0
 10
167.355
 20
113.641
 11
167.957
 21
114.01
  0
LINE
  8
0
 10
167.957
 20
114.01
 11
168.609
 21
114.28
  0
LINE
  8
0
 10
168.609
 20
114.28
 11
169.296
 21
114.445
  0
LINE
  8
0
 10
169.296
 20
114.445
 11
170
 21
114.5
  0
LINE
  8
0
 10
170
 20
114.5
 11
170.704
 21
114.445
  0
LINE
  8
0
 10
170.704
 20
114.445
 11
171.391
 21
114.28
  0
LINE
  8
0
 10
171.391
 20
114.28
 11
172.043
 21
114.01
  0
LINE
  8
0
 10
172.043
 20
114.01
 11
172.645
 21
113.641
  0
LINE
  8
0
 10
172.645
 20
113.641
 11
173.182
 21
113.182
  0
LINE
  8
0
 10
173.182
 20
113.182
 11
173.641
 21
112.645
  0
LINE
  8
0
 10
173.641
 20
112.645
 11
174.01
 21
112.043
  0
LINE
  8
0
 10
174.01
 20
112.043
 11
174.28
 21
111.391
  0
LINE
  8
0
 10
174.28
 20
111.391
 11
174.445
 21
110.704
  0
LINE
  8
0
 10
174.445
 20
110.704
 11
174.5
 21
110
  0
LINE
  8
0
 10
174.5
 20
110
 11
174.445
 21
109.296
  0
LINE
  8
0
 10
174.445
 20
109.296
 11
174.28
 21
108.609
  0
LINE
  8
0
 10
174.28
 20
108.609
 11
174.01
 21
107.957
  0
LINE
  8
0
 10
174.01
 20
107.957
 11
173.641
 21
107.355
  0
LINE
  8
0
 10
173.641
 20
107.355
 11
173.182
 21
106.818
  0
LINE
  8
0
 10
173.182
 20
106.818
 11
172.645
 21
106.359
  0
LINE
  8
0
 10
172.645
 20
106.359
 11
172.043
 21
105.99
  0
LINE
  8
0
 10
172.043
 20
105.99
 11
171.391
 21
105.72
  0
LINE
  8
0
 10
171.391
 20
105.72
 11
170.704
 21
105.555
  0
LINE
  8
0
 10
170.704
 20
105.555
 11
170
 21
105.5
  0
LINE
  8
0
 10
170
 20
105.5
 11
169.296
 21
105.555
  0
LINE
  8
0
 10
139.296
 20
105.555
 11
138.609
 21
105.72
  0
LINE
  8
0
 10
138.609
 20
105.72
 11
137.957
 21
105.99
  0
LINE
  8
0
 10
137.957
 20
105.99
 11
137.355
 21
106.359
  0
LINE
  8
0
 10
137.355
 20
106.359
 11
136.818
 21
106.818
  0
LINE
  8
0
 10
136.818
 20
106.818
 11
136.359
 21
107.355
  0
LINE
  8
0
 10
136.359
 20
107.355
 11
135.99
 21
107.957
  0
LINE
  8
0
 10
135.99
 20
107.957
 11
135.72
 21
108.609
  0
LINE
  8
0
 10
135.72
 20
108.609
 11
135.555
 21
109.296
  0
LINE
  8
0
 10
135.555
 20
109.296
 11
135.5
 21
110
  0
LINE
  8
0
 10
135.5
 20
110
 11
135.555
 21
110.704
  0
LINE
  8
0
 10
135.555
 20
110.704
 11
135.72
 21
111.391
  0
LINE
  8
0
 10
135.72
 20
111.391
 11
135.99
 21
112.043
  0
LINE
  8
0
 10
135.99
 20
112.043
 11
136.359
 21
112.645
  0
LINE
  8
0
 10
136.359
 20
112.645
 11
136.818
 21
113.182
  0
LINE
  8
0
 10
136.818
 20
113.182
 11
137.355
 21
113.641
  0
LINE
  8
0
 10
137.355
 20
113.641
 11
137.957
 21
114.01
  0
LINE
  8
0
 10
137.957
 20
114.01
 11
138.609
 21
114.28
  0
LINE
  8
0
 10
138.609
 20
114.28
 11
139.296
 21
114.445
  0
LINE
  8
0
 10
139.296
 20
114.445
 11
140
 21
114.5
  0
LINE
  8
0
 10
140
 20
114.5
 11
140.704
 21
114.445
  0
LINE
  8
0
 10
140.704
 20
114.445
 11
141.391
 21
114.28
  0
LINE
  8
0
 10
141.391
 20
114.28
 11
142.043
 21
114.01
  0
LINE
  8
0
 10
142.043
 20
114.01
 11
142.645
 21
113.641
  0
LINE
  8
0
 10
142.645
 20
113.641
 11
143.182
 21
113.182
  0
LINE
  8
0
 10
143.182
 20
113.182
 11
143.641
 21
112.645
  0
LINE
  8
0
 10
143.641
 20
112.645
 11
144.01
 21
112.043
  0
LINE
  8
0
 10
144.01
 20
112.043
 11
144.28
 21
111.391
  0
LINE
  8
0
 10
144.28
 20
111.391
 11
144.445
 21
110.704
  0
LINE
  8
0
 10
144.445
 20
110.704
 11
144.5
 21
110
  0
LINE
  8
0
 10
144.5
 20
110
 11
144.445
 21
109.296
  0
LINE
  8
0
 10
144.445
 20
109.296
 11
144.28
 21
108.609
  0
LINE
  8
0
 10
144.28
 20
108.609
 11
144.01
 21
107.957
  0
LINE
  8
0
 10
144.01
 20
107.957
 11
143.641
 21
107.355
  0
LINE
  8
0
 10
143.641
 20
107.355
 11
143.182
 21
106.818
  0
LINE
  8
0
 10
143.182
 20
106.818
 11
142.645
 21
106.359
  0
LINE
  8
0
 10
142.645
 20
106.359
 11
142.043
 21
105.99
  0
LINE
  8
0
 10
142.043
 20
105.99
 11
141.391
 21
105.72
  0
LINE
  8
0
 10
141.391
 20
105.72
 11
140.704
 21
105.555
  0
LINE
  8
0
 10
140.704
 20
105.555
 11
140
 21
105.5
  0
LINE
  8
0
 10
140
 20
105.5
 11
139.296
 21
105.555
  0
LINE
  8
0
 10
109.296
 20
105.555
 11
108.609
 21
105.72
  0
LINE
  8
0
 10
108.609
 20
105.72
 11
107.957
 21
105.99
  0
LINE
  8
0
 10
107.957
 20
105.99
 11
107.355
 21
106.359
  0
LINE
  8
0
 10
107.355
 20
106.359
 11
106.818
 21
106.818
  0
LINE
  8
0
 10
106.818
 20
106.818
 11
106.359
 21
107.355
  0
LINE
  8
0
 10
106.359
 20
107.355
 11
105.99
 21
107.957
  0
LINE
  8
0
 10
105.99
 20
107.957
 11
105.72
 21
108.609
  0
LINE
  8
0
 10
105.72
 20
108.609
 11
105.555
 21
109.296
  0
LINE
  8
0
 10
105.555
 20
109.296
 11
105.5
 21
110
  0
LINE
  8
0
 10
105.5
 20
110
 11
105.555
 21
110.704
  0
LINE
  8
0
 10
105.555
 20
110.704
 11
105.72
 21
111.391
  0
LINE
  8
0
 10
105.72
 20
111.391
 11
105.99
 21
112.043
  0
LINE
  8
0
 10
105.99
 20
112.043
 11
106.359
 21
112.645
  0
LINE
  8
0
 10
106.359
 20
112.645
 11
106.818
 21
113.182
  0
LINE
  8
0
 10
106.818
 20
113.182
 11
107.355
 21
113.641
  0
LINE
  8
0
 10
107.355
 20
113.641
 11
107.957
 21
114.01
  0
LINE
  8
0
 10
107.957
 20
114.01
 11
108.609
 21
114.28
  0
LINE
  8
0
 10
108.609
 20
114.28
 11
109.296
 21
114.445
  0
LINE
  8
0
 10
109.296
 20
114.445
 11
110
 21
114.5
  0
LINE
  8
0
 10
110
 20
114.5
 11
110.704
 21
114.445
  0
LINE
  8
0
 10
110.704
 20
114.445
 11
111.391
 21
114.28
  0
LINE
  8
0
 10
111.391
 20
114.28
 11
112.043
 21
114.01
  0
LINE
  8
0
 10
112.043
 20
114.01
 11
112.645
 21
113.641
  0
LINE
  8
0
 10
112.645
 20
113.641
 11
113.182
 21
113.182
  0
LINE
  8
0
 10
113.182
 20
113.182
 11
113.641
 21
112.645
  0
LINE
  8
0
 10
113.641
 20
112.645
 11
114.01
 21
112.043
  0
LINE
  8
0
 10
114.01
 20
112.043
 11
114.28
 21
111.391
  0
LINE
  8
0
 10
114.28
 20
111.391
 11
114.445
 21
110.704
  0
LINE
  8
0
 10
114.445
 20
110.704
 11
114.5
 21
110
  0
LINE
  8
0
 10
114.5
 20
110
 11
114.445
 21
109.296
  0
LINE
  8
0
 10
114.445
 20
109.296
 11
114.28
 21
108.609
  0
LINE
  8
0
 10
114.28
 20
108.609
 11
114.01
 21
107.957
  0
LINE
  8
0
 10
114.01
 20
107.957
 11
113.641
 21
107.355
  0
LINE
  8
0
 10
113.641
 20
107.355
 11
113.182
 21
106.818
  0
LINE
  8
0
 10
113.182
 20
106.818
 11
112.645
 21
106.359
  0
LINE
  8
0
 10
112.645
 20
106.359
 11
112.043
 21
105.99
  0
LINE
  8
0
 10
112.043
 20
105.99
 11
111.391
 21
105.72
  0
LINE
  8
0
 10
111.391
 20
105.72
 11
110.704
 21
105.555
  0
LINE
  8
0
 10
110.704
 20
105.555
 11
110
 21
105.5
  0
LINE
  8
0
 10
110
 20
105.5
 11
109.296
 21
105.555
  0
LINE
  8
0
 10
79.296
 20
105.555
 11
78.6094
 21
105.72
  0
LINE
  8
0
 10
78.6094
 20
105.72
 11
77.957
 21
105.99
  0
LINE
  8
0
 10
77.957
 20
105.99
 11
77.355
 21
106.359
  0
LINE
  8
0
 10
77.355
 20
106.359
 11
76.818
 21
106.818
  0
LINE
  8
0
 10
76.818
 20
106.818
 11
76.3594
 21
107.355
  0
LINE
  8
0
 10
76.3594
 20
107.355
 11
75.9905
 21
107.957
  0
LINE
  8
0
 10
75.9905
 20
107.957
 11
75.7202
 21
108.609
  0
LINE
  8
0
 10
75.7202
 20
108.609
 11
75.5554
 21
109.296
  0
LINE
  8
0
 10
75.5554
 20
109.296
 11
75.5
 21
110
  0
LINE
  8
0
 10
75.5
 20
110
 11
75.5554
 21
110.704
  0
LINE
  8
0
 10
75.5554
 20
110.704
 11
75.7202
 21
111.391
  0
LINE
  8
0
 10
75.7202
 20
111.391
 11
75.9905
 21
112.043
  0
LINE
  8
0
 10
75.9905
 20
112.043
 11
76.3594
 21
112.645
  0
LINE
  8
0
 10
76.3594
 20
112.645
 11
76.818
 21
113.182
  0
LINE
  8
0
 10
76.818
 20
113.182
 11
77.355
 21
113.641
  0
LINE
  8
0
 10
77.355
 20
113.641
 11
77.957
 21
114.01
  0
LINE
  8
0
 10
77.957
 20
114.01
 11
78.6094
 21
114.28
  0
LINE
  8
0
 10
78.6094
 20
114.28
 11
79.296
 21
114.445
  0
LINE
  8
0
 10
79.296
 20
114.445
 11
80
 21
114.5
  0
LINE
  8
0
 10
80
 20
114.5
 11
80.7039
 21
114.445
  0
LINE
  8
0
 10
80.7039
 20
114.445
 11
81.3906
 21
114.28
  0
LINE
  8
0
 10
81.3906
 20
114.28
 11
82.043
 21
114.01
  0
LINE
  8
0
 10
82.043
 20
114.01
 11
82.645
 21
113.641
  0
LINE
  8
0
 10
82.645
 20
113.641
 11
83.182
 21
113.182
  0
LINE
  8
0
 10
83.182
 20
113.182
 11
83.6406
 21
112.645
  0
LINE
  8
0
 10
83.6406
 20
112.645
 11
84.0095
 21
112.043
  0
LINE
  8
0
 10
84.0095
 20
112.043
 11
84.2797
 21
111.391
  0
LINE
  8
0
 10
84.2797
 20
111.391
 11
84.4446
 21
110.704
  0
LINE
  8
0
 10
84.4446
 20
110.704
 11
84.5
 21
110
  0
LINE
  8
0
 10
84.5
 20
110
 11
84.4446
 21
109.296
  0
LINE
  8
0
 10
84.4446
 20
109.296
 11
84.2797
 21
108.609
  0
LINE
  8
0
 10
84.2797
 20
108.609
 11
84.0095
 21
107.957
  0
LINE
  8
0
 10
84.0095
 20
107.957
 11
83.6406
 21
107.355
  0
LINE
  8
0
 10
83.6406
 20
107.355
 11
83.182
 21
106.818
  0
LINE
  8
0
 10
83.182
 20
106.818
 11
82.645
 21
106.359
  0
LINE
  8
0
 10
82.645
 20
106.359
 11
82.043
 21
105.99
  0
LINE
  8
0
 10
82.043
 20
105.99
 11
81.3906
 21
105.72
  0
LINE
  8
0
 10
81.3906
 20
105.72
 11
80.7039
 21
105.555
  0
LINE
  8
0
 10
80.7039
 20
105.555
 11
80
 21
105.5
  0
LINE
  8
0
 10
80
 20
105.5
 11
79.296
 21
105.555
  0
LINE
  8
0
 10
49.296
 20
105.555
 11
48.6094
 21
105.72
  0
LINE
  8
0
 10
48.6094
 20
105.72
 11
47.957
 21
105.99
  0
LINE
  8
0
 10
47.957
 20
105.99
 11
47.355
 21
106.359
  0
LINE
  8
0
 10
47.355
 20
106.359
 11
46.818
 21
106.818
  0
LINE
  8
0
 10
46.818
 20
106.818
 11
46.3594
 21
107.355
  0
LINE
  8
0
 10
46.3594
 20
107.355
 11
45.9905
 21
107.957
  0
LINE
  8
0
 10
45.9905
 20
107.957
 11
45.7202
 21
108.609
  0
LINE
  8
0
 10
45.7202
 20
108.609
 11
45.5554
 21
109.296
  0
LINE
  8
0
 10
45.5554
 20
109.296
 11
45.5
 21
110
  0
LINE
  8
0
 10
45.5
 20
110
 11
45.5554
 21
110.704
  0
LINE
  8
0
 10
45.5554
 20
110.704
 11
45.7202
 21
111.391
  0
LINE
  8
0
 10
45.7202
 20
111.391
 11
45.9905
 21
112.043
  0
LINE
  8
0
 10
45.9905
 20
112.043
 11
46.3594
 21
112.645
  0
LINE
  8
0
 10
46.3594
 20
112.645
 11
46.818
 21
113.182
  0
LINE
  8
0
 10
46.818
 20
113.182
 11
47.355
 21
113.641
  0
LINE
  8
0
 10
47.355
 20
113.641
 11
47.957
 21
114.01
  0
LINE
  8
0
 10
47.957
 20
114.01
 11
48.6094
 21
114.28
  0
LINE
  8
0
 10
48.6094
 20
114.28
 11
49.296
 21
114.445
  0
LINE
  8
0
 10
49.296
 20
114.445
 11
50
 21
114.5
  0
LINE
  8
0
 10
50
 20
114.5
 11
50.7039
 21
114.445
  0
LINE
  8
0
 10
50.7039
 20
114.445
 11
51.3906
 21
114.28
  0
LINE
  8
0
 10
51.3906
 20
114.28
 11
52.043
 21
114.01
  0
LINE
  8
0
 10
52.043
 20
114.01
 11
52.645
 21
113.641
  0
LINE
  8
0
 10
52.645
 20
113.641
 11
53.182
 21
113.182
  0
LINE
  8
0
 10
53.182
 20
113.182
 11
53.6406
 21
112.645
  0
LINE
  8
0
 10
53.6406
 20
112.645
 11
54.0095
 21
112.043
  0
LINE
  8
0
 10
54.0095
 20
112.043
 11
54.2797
 21
111.391
  0
LINE
  8
0
 10
54.2797
 20
111.391
 11
54.4446
 21
110.704
  0
LINE
  8
0
 10
54.4446
 20
110.704
 11
54.5
 21
110
  0
LINE
  8
0
 10
54.5
 20
110
 11
54.4446
 21
109.296
  0
LINE
  8
0
 10
54.4446
 20
109.296
 11
54.2797
 21
108.609
  0
LINE
  8
0
 10
54.2797
 20
108.609
 11
54.0095
 21
107.957
  0
LINE
  8
0
 10
54.0095
 20
107.957
 11
53.6406
 21
107.355
  0
LINE
  8
0
 10
53.6406
 20
107.355
 11
53.182
 21
106.818
  0
LINE
  8
0
 10
53.182
 20
106.818
 11
52.645
 21
106.359
  0
LINE
  8
0
 10
52.645
 20
106.359
 11
52.043
 21
105.99
  0
LINE
  8
0
 10
52.043
 20
105.99
 11
51.3906
 21
105.72
  0
LINE
  8
0
 10
51.3906
 20
105.72
 11
50.7039
 21
105.555
  0
LINE
  8
0
 10
50.7039
 20
105.555
 11
50
 21
105.5
  0
LINE
  8
0
 10
50
 20
105.5
 11
49.296
 21
105.555
  0
LINE
  8
0
 10
199.296
 20
105.555
 11
198.609
 21
105.72
  0
LINE
  8
0
 10
198.609
 20
105.72
 11
197.957
 21
105.99
  0
LINE
  8
0
 10
197.957
 20
105.99
 11
197.355
 21
106.359
  0
LINE
  8
0
 10
197.355
 20
106.359
 11
196.818
 21
106.818
  0
LINE
  8
0
 10
196.818
 20
106.818
 11
196.359
 21
107.355
  0
LINE
  8
0
 10
196.359
 20
107.355
 11
195.99
 21
107.957
  0
LINE
  8
0
 10
195.99
 20
107.957
 11
195.72
 21
108.609
  0
LINE
  8
0
 10
195.72
 20
108.609
 11
195.555
 21
109.296
  0
LINE
  8
0
 10
195.555
 20
109.296
 11
195.5
 21
110
  0
LINE
  8
0
 10
195.5
 20
110
 11
195.555
 21
110.704
  0
LINE
  8
0
 10
195.555
 20
110.704
 11
195.72
 21
111.391
  0
LINE
  8
0
 10
195.72
 20
111.391
 11
195.99
 21
112.043
  0
LINE
  8
0
 10
195.99
 20
112.043
 11
196.359
 21
112.645
  0
LINE
  8
0
 10
196.359
 20
112.645
 11
196.818
 21
113.182
  0
LINE
  8
0
 10
196.818
 20
113.182
 11
197.355
 21
113.641
  0
LINE
  8
0
 10
197.355
 20
113.641
 11
197.957
 21
114.01
  0
LINE
  8
0
 10
197.957
 20
114.01
 11
198.609
 21
114.28
  0
LINE
  8
0
 10
198.609
 20
114.28
 11
199.296
 21
114.445
  0
LINE
  8
0
 10
199.296
 20
114.445
 11
200
 21
114.5
  0
LINE
  8
0
 10
200
 20
114.5
 11
200.704
 21
114.445
  0
LINE
  8
0
 10
200.704
 20
114.445
 11
201.391
 21
114.28
  0
LINE
  8
0
 10
201.391
 20
114.28
 11
202.043
 21
114.01
  0
LINE
  8
0
 10
202.043
 20
114.01
 11
202.645
 21
113.641
  0
LINE
  8
0
 10
202.645
 20
113.641
 11
203.182
 21
113.182
  0
LINE
  8
0
 10
203.182
 20
113.182
 11
203.641
 21
112.645
  0
LINE
  8
0
 10
203.641
 20
112.645
 11
204.01
 21
112.043
  0
LINE
  8
0
 10
204.01
 20
112.043
 11
204.28
 21
111.391
  0
LINE
  8
0
 10
204.28
 20
111.391
 11
204.445
 21
110.704
  0
LINE
  8
0
 10
204.445
 20
110.704
 11
204.5
 21
110
  0
LINE
  8
0
 10
204.5
 20
110
 11
204.445
 21
109.296
  0
LINE
  8
0
 10
204.445
 20
109.296
 11
204.28
 21
108.609
  0
LINE
  8
0
 10
204.28
 20
108.609
 11
204.01
 21
107.957
  0
LINE
  8
0
 10
204.01
 20
107.957
 11
203.641
 21
107.355
  0
LINE
  8
0
 10
203.641
 20
107.355
 11
203.182
 21
106.818
  0
LINE
  8
0
 10
203.182
 20
106.818
 11
202.645
 21
106.359
  0
LINE
  8
0
 10
202.645
 20
106.359
 11
202.043
 21
105.99
  0
LINE
  8
0
 10
202.043
 20
105.99
 11
201.391
 21
105.72
  0
LINE
  8
0
 10
201.391
 20
105.72
 11
200.704
 21
105.555
  0
LINE
  8
0
 10
200.704
 20
105.555
 11
200
 21
105.5
  0
LINE
  8
0
 10
200
 20
105.5
 11
199.296
 21
105.555
  0
LINE
  8
0
 10
19.2178
 20
75.0616
 11
18.4549
 21
75.2447
  0
LINE
  8
0
 10
18.4549
 20
75.2447
 11
17.73
 21
75.545
  0
LINE
  8
0
 10
17.73
 20
75.545
 11
17.0611
 21
75.9549
  0
LINE
  8
0
 10
17.0611
 20
75.9549
 11
16.4645
 21
76.4645
  0
LINE
  8
0
 10
16.4645
 20
76.4645
 11
15.9549
 21
77.0611
  0
LINE
  8
0
 10
15.9549
 20
77.0611
 11
15.545
 21
77.73
  0
LINE
  8
0
 10
15.545
 20
77.73
 11
15.2447
 21
78.4549
  0
LINE
  8
0
 10
15.2447
 20
78.4549
 11
15.0616
 21
79.2178
  0
LINE
  8
0
 10
15.0616
 20
79.2178
 11
15
 21
80
  0
LINE
  8
0
 10
15
 20
80
 11
15.0616
 21
80.7822
  0
LINE
  8
0
 10
15.0616
 20
80.7822
 11
15.2447
 21
81.5451
  0
LINE
  8
0
 10
15.2447
 20
81.5451
 11
15.545
 21
82.2699
  0
LINE
  8
0
 10
15.545
 20
82.2699
 11
15.9549
 21
82.9389
  0
LINE
  8
0
 10
15.9549
 20
82.9389
 11
16.4645
 21
83.5355
  0
LINE
  8
0
 10
16.4645
 20
83.5355
 11
17.0611
 21
84.0451
  0
LINE
  8
0
 10
17.0611
 20
84.0451
 11
17.73
 21
84.455
  0
LINE
  8
0
 10
17.73
 20
84.455
 11
18.4549
 21
84.7553
  0
LINE
  8
0
 10
18.4549
 20
84.7553
 11
19.2178
 21
84.9384
  0
LINE
  8
0
 10
19.2178
 20
84.9384
 11
20
 21
85
  0
LINE
  8
0
 10
20
 20
85
 11
20.7822
 21
84.9384
  0
LINE
  8
0
 10
20.7822
 20
84.9384
 11
21.5451
 21
84.7553
  0
LINE
  8
0
 10
21.5451
 20
84.7553
 11
22.2699
 21
84.455
  0
LINE
  8
0
 10
22.2699
 20
84.455
 11
22.9389
 21
84.0451
  0
LINE
  8
0
 10
22.9389
 20
84.0451
 11
23.5355
 21
83.5355
  0
LINE
  8
0
 10
23.5355
 20
83.5355
 11
24.0451
 21
82.9389
  0
LINE
  8
0
 10
24.0451
 20
82.9389
 11
24.455
 21
82.2699
  0
LINE
  8
0
 10
24.455
 20
82.2699
 11
24.7553
 21
81.5451
  0
LINE
  8
0
 10
24.7553
 20
81.5451
 11
24.9384
 21
80.7822
  0
LINE
  8
0
 10
24.9384
 20
80.7822
 11
25
 21
80
  0
LINE
  8
0
 10
25
 20
80
 11
24.9384
 21
79.2178
  0
LINE
  8
0
 10
24.9384
 20
79.2178
 11
24.7553
 21
78.4549
  0
LINE
  8
0
 10
24.7553
 20
78.4549
 11
24.455
 21
77.73
  0
LINE
  8
0
 10
24.455
 20
77.73
 11
24.0451
 21
77.0611
  0
LINE
  8
0
 10
24.0451
 20
77.0611
 11
23.5355
 21
76.4645
  0
LINE
  8
0
 10
23.5355
 20
76.4645
 11
22.9389
 21
75.9549
  0
LINE
  8
0
 10
22.9389
 20
75.9549
 11
22.2699
 21
75.545
  0
LINE
  8
0
 10
22.2699
 20
75.545
 11
21.5451
 21
75.2447
  0
LINE
  8
0
 10
21.5451
 20
75.2447
 11
20.7822
 21
75.0616
  0
LINE
  8
0
 10
20.7822
 20
75.0616
 11
20
 21
75
  0
LINE
  8
0
 10
20
 20
75
 11
19.2178
 21
75.0616
  0
LINE
  8
0
 10
79.296
 20
75.5554
 11
78.6094
 21
75.7202
  0
LINE
  8
0
 10
78.6094
 20
75.7202
 11
77.957
 21
75.9905
  0
LINE
  8
0
 10
77.957
 20
75.9905
 11
77.355
 21
76.3594
  0
LINE
  8
0
 10
77.355
 20
76.3594
 11
76.818
 21
76.818
  0
LINE
  8
0
 10
76.818
 20
76.818
 11
76.3594
 21
77.355
  0
LINE
  8
0
 10
76.3594
 20
77.355
 11
75.9905
 21
77.957
  0
LINE
  8
0
 10
75.9905
 20
77.957
 11
75.7202
 21
78.6094
  0
LINE
  8
0
 10
75.7202
 20
78.6094
 11
75.5554
 21
79.296
  0
LINE
  8
0
 10
75.5554
 20
79.296
 11
75.5
 21
80
  0
LINE
  8
0
 10
75.5
 20
80
 11
75.5554
 21
80.7039
  0
LINE
  8
0
 10
75.5554
 20
80.7039
 11
75.7202
 21
81.3906
  0
LINE
  8
0
 10
75.7202
 20
81.3906
 11
75.9905
 21
82.043
  0
LINE
  8
0
 10
75.9905
 20
82.043
 11
76.3594
 21
82.645
  0
LINE
  8
0
 10
76.3594
 20
82.645
 11
76.818
 21
83.182
  0
LINE
  8
0
 10
76.818
 20
83.182
 11
77.355
 21
83.6406
  0
LINE
  8
0
 10
77.355
 20
83.6406
 11
77.957
 21
84.0095
  0
LINE
  8
0
 10
77.957
 20
84.0095
 11
78.6094
 21
84.2797
  0
LINE
  8
0
 10
78.6094
 20
84.2797
 11
79.296
 21
84.4446
  0
LINE
  8
0
 10
79.296
 20
84.4446
 11
80
 21
84.5
  0
LINE
  8
0
 10
80
 20
84.5
 11
80.7039
 21
84.4446
  0
LINE
  8
0
 10
80.7039
 20
84.4446
 11
81.3906
 21
84.2797
  0
LINE
  8
0
 10
81.3906
 20
84.2797
 11
82.043
 21
84.0095
  0
LINE
  8
0
 10
82.043
 20
84.0095
 11
82.645
 21
83.6406
  0
LINE
  8
0
 10
82.645
 20
83.6406
 11
83.182
 21
83.182
  0
LINE
  8
0
 10
83.182
 20
83.182
 11
83.6406
 21
82.645
  0
LINE
  8
0
 10
83.6406
 20
82.645
 11
84.0095
 21
82.043
  0
LINE
  8
0
 10
84.0095
 20
82.043
 11
84.2797
 21
81.3906
  0
LINE
  8
0
 10
84.2797
 20
81.3906
 11
84.4446
 21
80.7039
  0
LINE
  8
0
 10
84.4446
 20
80.7039
 11
84.5
 21
80
  0
LINE
  8
0
 10
84.5
 20
80
 11
84.4446
 21
79.296
  0
LINE
  8
0
 10
84.4446
 20
79.296
 11
84.2797
 21
78.6094
  0
LINE
  8
0
 10
84.2797
 20
78.6094
 11
84.0095
 21
77.957
  0
LINE
  8
0
 10
84.0095
 20
77.957
 11
83.6406
 21
77.355
  0
LINE
  8
0
 10
83.6406
 20
77.355
 11
83.182
 21
76.818
  0
LINE
  8
0
 10
83.182
 20
76.818
 11
82.645
 21
76.3594
  0
LINE
  8
0
 10
82.645
 20
76.3594
 11
82.043
 21
75.9905
  0
LINE
  8
0
 10
82.043
 20
75.9905
 11
81.3906
 21
75.7202
  0
LINE
  8
0
 10
81.3906
 20
75.7202
 11
80.7039
 21
75.5554
  0
LINE
  8
0
 10
80.7039
 20
75.5554
 11
80
 21
75.5
  0
LINE
  8
0
 10
80
 20
75.5
 11
79.296
 21
75.5554
  0
LINE
  8
0
 10
49.296
 20
75.5554
 11
48.6094
 21
75.7202
  0
LINE
  8
0
 10
48.6094
 20
75.7202
 11
47.957
 21
75.9905
  0
LINE
  8
0
 10
47.957
 20
75.9905
 11
47.355
 21
76.3594
  0
LINE
  8
0
 10
47.355
 20
76.3594
 11
46.818
 21
76.818
  0
LINE
  8
0
 10
46.818
 20
76.818
 11
46.3594
 21
77.355
  0
LINE
  8
0
 10
46.3594
 20
77.355
 11
45.9905
 21
77.957
  0
LINE
  8
0
 10
45.9905
 20
77.957
 11
45.7202
 21
78.6094
  0
LINE
  8
0
 10
45.7202
 20
78.6094
 11
45.5554
 21
79.296
  0
LINE
  8
0
 10
45.5554
 20
79.296
 11
45.5
 21
80
  0
LINE
  8
0
 10
45.5
 20
80
 11
45.5554
 21
80.7039
  0
LINE
  8
0
 10
45.5554
 20
80.7039
 11
45.7202
 21
81.3906
  0
LINE
  8
0
 10
45.7202
 20
81.3906
 11
45.9905
 21
82.043
  0
LINE
  8
0
 10
45.9905
 20
82.043
 11
46.3594
 21
82.645
  0
LINE
  8
0
 10
46.3594
 20
82.645
 11
46.818
 21
83.182
  0
LINE
  8
0
 10
46.818
 20
83.182
 11
47.355
 21
83.6406
  0
LINE
  8
0
 10
47.355
 20
83.6406
 11
47.957
 21
84.0095
  0
LINE
  8
0
 10
47.957
 20
84.0095
 11
48.6094
 21
84.2797
  0
LINE
  8
0
 10
48.6094
 20
84.2797
 11
49.296
 21
84.4446
  0
LINE
  8
0
 10
49.296
 20
84.4446
 11
50
 21
84.5
  0
LINE
  8
0
 10
50
 20
84.5
 11
50.7039
 21
84.4446
  0
LINE
  8
0
 10
50.7039
 20
84.4446
 11
51.3906
 21
84.2797
  0
LINE
  8
0
 10
51.3906
 20
84.2797
 11
52.043
 21
84.0095
  0
LINE
  8
0
 10
52.043
 20
84.0095
 11
52.645
 21
83.6406
  0
LINE
  8
0
 10
52.645
 20
83.6406
 11
53.182
 21
83.182
  0
LINE
  8
0
 10
53.182
 20
83.182
 11
53.6406
 21
82.645
  0
LINE
  8
0
 10
53.6406
 20
82.645
 11
54.0095
 21
82.043
  0
LINE
  8
0
 10
54.0095
 20
82.043
 11
54.2797
 21
81.3906
  0
LINE
  8
0
 10
54.2797
 20
81.3906
 11
54.4446
 21
80.7039
  0
LINE
  8
0
 10
54.4446
 20
80.7039
 11
54.5
 21
80
  0
LINE
  8
0
 10
54.5
 20
80
 11
54.4446
 21
79.296
  0
LINE
  8
0
 10
54.4446
 20
79.296
 11
54.2797
 21
78.6094
  0
LINE
  8
0
 10
54.2797
 20
78.6094
 11
54.0095
 21
77.957
  0
LINE
  8
0
 10
54.0095
 20
77.957
 11
53.6406
 21
77.355
  0
LINE
  8
0
 10
53.6406
 20
77.355
 11
53.182
 21
76.818
  0
LINE
  8
0
 10
53.182
 20
76.818
 11
52.645
 21
76.3594
  0
LINE
  8
0
 10
52.645
 20
76.3594
 11
52.043
 21
75.9905
  0
LINE
  8
0
 10
52.043
 20
75.9905
 11
51.3906
 21
75.7202
  0
LINE
  8
0
 10
51.3906
 20
75.7202
 11
50.7039
 21
75.5554
  0
LINE
  8
0
 10
50.7039
 20
75.5554
 11
50
 21
75.5
  0
LINE
  8
0
 10
50
 20
75.5
 11
49.296
 21
75.5554
  0
LINE
  8
0
 10
169.296
 20
75.5554
 11
168.609
 21
75.7202
  0
LINE
  8
0
 10
168.609
 20
75.7202
 11
167.957
 21
75.9905
  0
LINE
  8
0
 10
167.957
 20
75.9905
 11
167.355
 21
76.3594
  0
LINE
  8
0
 10
167.355
 20
76.3594
 11
166.818
 21
76.818
  0
LINE
  8
0
 10
166.818
 20
76.818
 11
166.359
 21
77.355
  0
LINE
  8
0
 10
166.359
 20
77.355
 11
165.99
 21
77.957
  0
LINE
  8
0
 10
165.99
 20
77.957
 11
165.72
 21
78.6094
  0
LINE
  8
0
 10
165.72
 20
78.6094
 11
165.555
 21
79.296
  0
LINE
  8
0
 10
165.555
 20
79.296
 11
165.5
 21
80
  0
LINE
  8
0
 10
165.5
 20
80
 11
165.555
 21
80.7039
  0
LINE
  8
0
 10
165.555
 20
80.7039
 11
165.72
 21
81.3906
  0
LINE
  8
0
 10
165.72
 20
81.3906
 11
165.99
 21
82.043
  0
LINE
  8
0
 10
165.99
 20
82.043
 11
166.359
 21
82.645
  0
LINE
  8
0
 10
166.359
 20
82.645
 11
166.818
 21
83.182
  0
LINE
  8
0
 10
166.818
 20
83.182
 11
167.355
 21
83.6406
  0
LINE
  8
0
 10
167.355
 20
83.6406
 11
167.957
 21
84.0095
  0
LINE
  8
0
 10
167.957
 20
84.0095
 11
168.609
 21
84.2797
  0
LINE
  8
0
 10
168.609
 20
84.2797
 11
169.296
 21
84.4446
  0
LINE
  8
0
 10
169.296
 20
84.4446
 11
170
 21
84.5
  0
LINE
  8
0
 10
170
 20
84.5
 11
170.704
 21
84.4446
  0
LINE
  8
0
 10
170.704
 20
84.4446
 11
171.391
 21
84.2797
  0
LINE
  8
0
 10
171.391
 20
84.2797
 11
172.043
 21
84.0095
  0
LINE
  8
0
 10
172.043
 20
84.0095
 11
172.645
 21
83.6406
  0
LINE
  8
0
 10
172.645
 20
83.6406
 11
173.182
 21
83.182
  0
LINE
  8
0
 10
173.182
 20
83.182
 11
173.641
 21
82.645
  0
LINE
  8
0
 10
173.641
 20
82.645
 11
174.01
 21
82.043
  0
LINE
  8
0
 10
174.01
 20
82.043
 11
174.28
 21
81.3906
  0
LINE
  8
0
 10
174.28
 20
81.3906
 11
174.445
 21
80.7039
  0
LINE
  8
0
 10
174.445
 20
80.7039
 11
174.5
 21
80
  0
LINE
  8
0
 10
174.5
 20
80
 11
174.445
 21
79.296
  0
LINE
  8
0
 10
174.445
 20
79.296
 11
174.28
 21
78.6094
  0
LINE
  8
0
 10
174.28
 20
78.6094
 11
174.01
 21
77.957
  0
LINE
  8
0
 10
174.01
 20
77.957
 11
173.641
 21
77.355
  0
LINE
  8
0
 10
173.641
 20
77.355
 11
173.182
 21
76.818
  0
LINE
  8
0
 10
173.182
 20
76.818
 11
172.645
 21
76.3594
  0
LINE
  8
0
 10
172.645
 20
76.3594
 11
172.043
 21
75.9905
  0
LINE
  8
0
 10
172.043
 20
75.9905
 11
171.391
 21
75.7202
  0
LINE
  8
0
 10
171.391
 20
75.7202
 11
170.704
 21
75.5554
  0
LINE
  8
0
 10
170.704
 20
75.5554
 11
170
 21
75.5
  0
LINE
  8
0
 10
170
 20
75.5
 11
169.296
 21
75.5554
  0
LINE
  8
0
 10
109.296
 20
75.5554
 11
108.609
 21
75.7202
  0
LINE
  8
0
 10
108.609
 20
75.7202
 11
107.957
 21
75.9905
  0
LINE
  8
0
 10
107.957
 20
75.9905
 11
107.355
 21
76.3594
  0
LINE
  8
0
 10
107.355
 20
76.3594
 11
106.818
 21
76.818
  0
LINE
  8
0
 10
106.818
 20
76.818
 11
106.359
 21
77.355
  0
LINE
  8
0
 10
106.359
 20
77.355
 11
105.99
 21
77.957
  0
LINE
  8
0
 10
105.99
 20
77.957
 11
105.72
 21
78.6094
  0
LINE
  8
0
 10
105.72
 20
78.6094
 11
105.555
 21
79.296
  0
LINE
  8
0
 10
105.555
 20
79.296
 11
105.5
 21
80
  0
LINE
  8
0
 10
105.5
 20
80
 11
105.555
 21
80.7039
  0
LINE
  8
0
 10
105.555
 20
80.7039
 11
105.72
 21
81.3906
  0
LINE
  8
0
 10
105.72
 20
81.3906
 11
105.99
 21
82.043
  0
LINE
  8
0
 10
105.99
 20
82.043
 11
106.359
 21
82.645
  0
LINE
  8
0
 10
106.359
 20
82.645
 11
106.818
 21
83.182
  0
LINE
  8
0
 10
106.818
 20
83.182
 11
107.355
 21
83.6406
  0
LINE
  8
0
 10
107.355
 20
83.6406
 11
107.957
 21
84.0095
  0
LINE
  8
0
 10
107.957
 20
84.0095
 11
108.609
 21
84.2797
  0
LINE
  8
0
 10
108.609
 20
84.2797
 11
109.296
 21
84.4446
  0
LINE
  8
0
 10
109.296
 20
84.4446
 11
110
 21
84.5
  0
LINE
  8
0
 10
110
 20
84.5
 11
110.704
 21
84.4446
  0
LINE
  8
0
 10
110.704
 20
84.4446
 11
111.391
 21
84.2797
  0
LINE
  8
0
 10
111.391
 20
84.2797
 11
112.043
 21
84.0095
  0
LINE
  8
0
 10
112.043
 20
84.0095
 11
112.645
 21
83.6406
  0
LINE
  8
0
 10
112.645
 20
83.6406
 11
113.182
 21
83.182
  0
LINE
  8
0
 10
113.182
 20
83.182
 11
113.641
 21
82.645
  0
LINE
  8
0
 10
113.641
 20
82.645
 11
114.01
 21
82.043
  0
LINE
  8
0
 10
114.01
 20
82.043
 11
114.28
 21
81.3906
  0
LINE
  8
0
 10
114.28
 20
81.3906
 11
114.445
 21
80.7039
  0
LINE
  8
0
 10
114.445
 20
80.7039
 11
114.5
 21
80
  0
LINE
  8
0
 10
114.5
 20
80
 11
114.445
 21
79.296
  0
LINE
  8
0
 10
114.445
 20
79.296
 11
114.28
 21
78.6094
  0
LINE
  8
0
 10
114.28
 20
78.6094
 11
114.01
 21
77.957
  0
LINE
  8
0
 10
114.01
 20
77.957
 11
113.641
 21
77.355
  0
LINE
  8
0
 10
113.641
 20
77.355
 11
113.182
 21
76.818
  0
LINE
  8
0
 10
113.182
 20
76.818
 11
112.645
 21
76.3594
  0
LINE
  8
0
 10
112.645
 20
76.3594
 11
112.043
 21
75.9905
  0
LINE
  8
0
 10
112.043
 20
75.9905
 11
111.391
 21
75.7202
  0
LINE
  8
0
 10
111.391
 20
75.7202
 11
110.704
 21
75.5554
  0
LINE
  8
0
 10
110.704
 20
75.5554
 11
110
 21
75.5
  0
LINE
  8
0
 10
110
 20
75.5
 11
109.296
 21
75.5554
  0
LINE
  8
0
 10
199.296
 20
75.5554
 11
198.609
 21
75.7202
  0
LINE
  8
0
 10
198.609
 20
75.7202
 11
197.957
 21
75.9905
  0
LINE
  8
0
 10
197.957
 20
75.9905
 11
197.355
 21
76.3594
  0
LINE
  8
0
 10
197.355
 20
76.3594
 11
196.818
 21
76.818
  0
LINE
  8
0
 10
196.818
 20
76.818
 11
196.359
 21
77.355
  0
LINE
  8
0
 10
196.359
 20
77.355
 11
195.99
 21
77.957
  0
LINE
  8
0
 10
195.99
 20
77.957
 11
195.72
 21
78.6094
  0
LINE
  8
0
 10
195.72
 20
78.6094
 11
195.555
 21
79.296
  0
LINE
  8
0
 10
195.555
 20
79.296
 11
195.5
 21
80
  0
LINE
  8
0
 10
195.5
 20
80
 11
195.555
 21
80.7039
  0
LINE
  8
0
 10
195.555
 20
80.7039
 11
195.72
 21
81.3906
  0
LINE
  8
0
 10
195.72
 20
81.3906
 11
195.99
 21
82.043
  0
LINE
  8
0
 10
195.99
 20
82.043
 11
196.359
 21
82.645
  0
LINE
  8
0
 10
196.359
 20
82.645
 11
196.818
 21
83.182
  0
LINE
  8
0
 10
196.818
 20
83.182
 11
197.355
 21
83.6406
  0
LINE
  8
0
 10
197.355
 20
83.6406
 11
197.957
 21
84.0095
  0
LINE
  8
0
 10
197.957
 20
84.0095
 11
198.609
 21
84.2797
  0
LINE
  8
0
 10
198.609
 20
84.2797
 11
199.296
 21
84.4446
  0
LINE
  8
0
 10
199.296
 20
84.4446
 11
200
 21
84.5
  0
LINE
  8
0
 10
200
 20
84.5
 11
200.704
 21
84.4446
  0
LINE
  8
0
 10
200.704
 20
84.4446
 11
201.391
 21
84.2797
  0
LINE
  8
0
 10
201.391
 20
84.2797
 11
202.043
 21
84.0095
  0
LINE
  8
0
 10
202.043
 20
84.0095
 11
202.645
 21
83.6406
  0
LINE
  8
0
 10
202.645
 20
83.6406
 11
203.182
 21
83.182
  0
LINE
  8
0
 10
203.182
 20
83.182
 11
203.641
 21
82.645
  0
LINE
  8
0
 10
203.641
 20
82.645
 11
204.01
 21
82.043
  0
LINE
  8
0
 10
204.01
 20
82.043
 11
204.28
 21
81.3906
  0
LINE
  8
0
 10
204.28
 20
81.3906
 11
204.445
 21
80.7039
  0
LINE
  8
0
 10
204.445
 20
80.7039
 11
204.5
 21
80
  0
LINE
  8
0
 10
204.5
 20
80
 11
204.445
 21
79.296
  0
LINE
  8
0
 10
204.445
 20
79.296
 11
204.28
 21
78.6094
  0
LINE
  8
0
 10
204.28
 20
78.6094
 11
204.01
 21
77.957
  0
LINE
  8
0
 10
204.01
 20
77.957
 11
203.641
 21
77.355
  0
LINE
  8
0
 10
203.641
 20
77.355
 11
203.182
 21
76.818
  0
LINE
  8
0
 10
203.182
 20
76.818
 11
202.645
 21
76.3594
  0
LINE
  8
0
 10
202.645
 20
76.3594
 11
202.043
 21
75.9905
  0
LINE
  8
0
 10
202.043
 20
75.9905
 11
201.391
 21
75.7202
  0
LINE
  8
0
 10
201.391
 20
75.7202
 11
200.704
 21
75.5554
  0
LINE
  8
0
 10
200.704
 20
75.5554
 11
200
 21
75.5
  0
LINE
  8
0
 10
200
 20
75.5
 11
199.296
 21
75.5554
  0
LINE
  8
0
 10
139.296
 20
75.5554
 11
138.609
 21
75.7202
  0
LINE
  8
0
 10
138.609
 20
75.7202
 11
137.957
 21
75.9905
  0
LINE
  8
0
 10
137.957
 20
75.9905
 11
137.355
 21
76.3594
  0
LINE
  8
0
 10
137.355
 20
76.3594
 11
136.818
 21
76.818
  0
LINE
  8
0
 10
136.818
 20
76.818
 11
136.359
 21
77.355
  0
LINE
  8
0
 10
136.359
 20
77.355
 11
135.99
 21
77.957
  0
LINE
  8
0
 10
135.99
 20
77.957
 11
135.72
 21
78.6094
  0
LINE
  8
0
 10
135.72
 20
78.6094
 11
135.555
 21
79.296
  0
LINE
  8
0
 10
135.555
 20
79.296
 11
135.5
 21
80
  0
LINE
  8
0
 10
135.5
 20
80
 11
135.555
 21
80.7039
  0
LINE
  8
0
 10
135.555
 20
80.7039
 11
135.72
 21
81.3906
  0
LINE
  8
0
 10
135.72
 20
81.3906
 11
135.99
 21
82.043
  0
LINE
  8
0
 10
135.99
 20
82.043
 11
136.359
 21
82.645
  0
LINE
  8
0
 10
136.359
 20
82.645
 11
136.818
 21
83.182
  0
LINE
  8
0
 10
136.818
 20
83.182
 11
137.355
 21
83.6406
  0
LINE
  8
0
 10
137.355
 20
83.6406
 11
137.957
 21
84.0095
  0
LINE
  8
0
 10
137.957
 20
84.0095
 11
138.609
 21
84.2797
  0
LINE
  8
0
 10
138.609
 20
84.2797
 11
139.296
 21
84.4446
  0
LINE
  8
0
 10
139.296
 20
84.4446
 11
140
 21
84.5
  0
LINE
  8
0
 10
140
 20
84.5
 11
140.704
 21
84.4446
  0
LINE
  8
0
 10
140.704
 20
84.4446
 11
141.391
 21
84.2797
  0
LINE
  8
0
 10
141.391
 20
84.2797
 11
142.043
 21
84.0095
  0
LINE
  8
0
 10
142.043
 20
84.0095
 11
142.645
 21
83.6406
  0
LINE
  8
0
 10
142.645
 20
83.6406
 11
143.182
 21
83.182
  0
LINE
  8
0
 10
143.182
 20
83.182
 11
143.641
 21
82.645
  0
LINE
  8
0
 10
143.641
 20
82.645
 11
144.01
 21
82.043
  0
LINE
  8
0
 10
144.01
 20
82.043
 11
144.28
 21
81.3906
  0
LINE
  8
0
 10
144.28
 20
81.3906
 11
144.445
 21
80.7039
  0
LINE
  8
0
 10
144.445
 20
80.7039
 11
144.5
 21
80
  0
LINE
  8
0
 10
144.5
 20
80
 11
144.445
 21
79.296
  0
LINE
  8
0
 10
144.445
 20
79.296
 11
144.28
 21
78.6094
  0
LINE
  8
0
 10
144.28
 20
78.6094
 11
144.01
 21
77.957
  0
LINE
  8
0
 10
144.01
 20
77.957
 11
143.641
 21
77.355
  0
LINE
  8
0
 10
143.641
 20
77.355
 11
143.182
 21
76.818
  0
LINE
  8
0
 10
143.182
 20
76.818
 11
142.645
 21
76.3594
  0
LINE
  8
0
 10
142.645
 20
76.3594
 11
142.043
 21
75.9905
  0
LINE
  8
0
 10
142.043
 20
75.9905
 11
141.391
 21
75.7202
  0
LINE
  8
0
 10
141.391
 20
75.7202
 11
140.704
 21
75.5554
  0
LINE
  8
0
 10
140.704
 20
75.5554
 11
140
 21
75.5
  0
LINE
  8
0
 10
140
 20
75.5
 11
139.296
 21
75.5554
  0
LINE
  8
0
 10
19.2178
 20
45.0616
 11
18.4549
 21
45.2447
  0
LINE
  8
0
 10
18.4549
 20
45.2447
 11
17.73
 21
45.545
  0
LINE
  8
0
 10
17.73
 20
45.545
 11
17.0611
 21
45.9549
  0
LINE
  8
0
 10
17.0611
 20
45.9549
 11
16.4645
 21
46.4645
  0
LINE
  8
0
 10
16.4645
 20
46.4645
 11
15.9549
 21
47.0611
  0
LINE
  8
0
 10
15.9549
 20
47.0611
 11
15.545
 21
47.73
  0
LINE
  8
0
 10
15.545
 20
47.73
 11
15.2447
 21
48.4549
  0
LINE
  8
0
 10
15.2447
 20
48.4549
 11
15.0616
 21
49.2178
  0
LINE
  8
0
 10
15.0616
 20
49.2178
 11
15
 21
50
  0
LINE
  8
0
 10
15
 20
50
 11
15.0616
 21
50.7822
  0
LINE
  8
0
 10
15.0616
 20
50.7822
 11
15.2447
 21
51.5451
  0
LINE
  8
0
 10
15.2447
 20
51.5451
 11
15.545
 21
52.2699
  0
LINE
  8
0
 10
15.545
 20
52.2699
 11
15.9549
 21
52.9389
  0
LINE
  8
0
 10
15.9549
 20
52.9389
 11
16.4645
 21
53.5355
  0
LINE
  8
0
 10
16.4645
 20
53.5355
 11
17.0611
 21
54.0451
  0
LINE
  8
0
 10
17.0611
 20
54.0451
 11
17.73
 21
54.455
  0
LINE
  8
0
 10
17.73
 20
54.455
 11
18.4549
 21
54.7553
  0
LINE
  8
0
 10
18.4549
 20
54.7553
 11
19.2178
 21
54.9384
  0
LINE
  8
0
 10
19.2178
 20
54.9384
 11
20
 21
55
  0
LINE
  8
0
 10
20
 20
55
 11
20.7822
 21
54.9384
  0
LINE
  8
0
 10
20.7822
 20
54.9384
 11
21.5451
 21
54.7553
  0
LINE
  8
0
 10
21.5451
 20
54.7553
 11
22.2699
 21
54.455
  0
LINE
  8
0
 10
22.2699
 20
54.455
 11
22.9389
 21
54.0451
  0
LINE
  8
0
 10
22.9389
 20
54.0451
 11
23.5355
 21
53.5355
  0
LINE
  8
0
 10
23.5355
 20
53.5355
 11
24.0451
 21
52.9389
  0
LINE
  8
0
 10
24.0451
 20
52.9389
 11
24.455
 21
52.2699
  0
LINE
  8
0
 10
24.455
 20
52.2699
 11
24.7553
 21
51.5451
  0
LINE
  8
0
 10
24.7553
 20
51.5451
 11
24.9384
 21
50.7822
  0
LINE
  8
0
 10
24.9384
 20
50.7822
 11
25
 21
50
  0
LINE
  8
0
 10
25
 20
50
 11
24.9384
 21
49.2178
  0
LINE
  8
0
 10
24.9384
 20
49.2178
 11
24.7553
 21
48.4549
  0
LINE
  8
0
 10
24.7553
 20
48.4549
 11
24.455
 21
47.73
  0
LINE
  8
0
 10
24.455
 20
47.73
 11
24.0451
 21
47.0611
  0
LINE
  8
0
 10
24.0451
 20
47.0611
 11
23.5355
 21
46.4645
  0
LINE
  8
0
 10
23.5355
 20
46.4645
 11
22.9389
 21
45.9549
  0
LINE
  8
0
 10
22.9389
 20
45.9549
 11
22.2699
 21
45.545
  0
LINE
  8
0
 10
22.2699
 20
45.545
 11
21.5451
 21
45.2447
  0
LINE
  8
0
 10
21.5451
 20
45.2447
 11
20.7822
 21
45.0616
  0
LINE
  8
0
 10
20.7822
 20
45.0616
 11
20
 21
45
  0
LINE
  8
0
 10
20
 20
45
 11
19.2178
 21
45.0616
  0
LINE
  8
0
 10
109.296
 20
45.5554
 11
108.609
 21
45.7202
  0
LINE
  8
0
 10
108.609
 20
45.7202
 11
107.957
 21
45.9905
  0
LINE
  8
0
 10
107.957
 20
45.9905
 11
107.355
 21
46.3594
  0
LINE
  8
0
 10
107.355
 20
46.3594
 11
106.818
 21
46.818
  0
LINE
  8
0
 10
106.818
 20
46.818
 11
106.359
 21
47.355
  0
LINE
  8
0
 10
106.359
 20
47.355
 11
105.99
 21
47.957
  0
LINE
  8
0
 10
105.99
 20
47.957
 11
105.72
 21
48.6094
  0
LINE
  8
0
 10
105.72
 20
48.6094
 11
105.555
 21
49.296
  0
LINE
  8
0
 10
105.555
 20
49.296
 11
105.5
 21
50
  0
LINE
  8
0
 10
105.5
 20
50
 11
105.555
 21
50.7039
  0
LINE
  8
0
 10
105.555
 20
50.7039
 11
105.72
 21
51.3906
  0
LINE
  8
0
 10
105.72
 20
51.3906
 11
105.99
 21
52.043
  0
LINE
  8
0
 10
105.99
 20
52.043
 11
106.359
 21
52.645
  0
LINE
  8
0
 10
106.359
 20
52.645
 11
106.818
 21
53.182
  0
LINE
  8
0
 10
106.818
 20
53.182
 11
107.355
 21
53.6406
  0
LINE
  8
0
 10
107.355
 20
53.6406
 11
107.957
 21
54.0095
  0
LINE
  8
0
 10
107.957
 20
54.0095
 11
108.609
 21
54.2797
  0
LINE
  8
0
 10
108.609
 20
54.2797
 11
109.296
 21
54.4446
  0
LINE
  8
0
 10
109.296
 20
54.4446
 11
110
 21
54.5
  0
LINE
  8
0
 10
110
 20
54.5
 11
110.704
 21
54.4446
  0
LINE
  8
0
 10
110.704
 20
54.4446
 11
111.391
 21
54.2797
  0
LINE
  8
0
 10
111.391
 20
54.2797
 11
112.043
 21
54.0095
  0
LINE
  8
0
 10
112.043
 20
54.0095
 11
112.645
 21
53.6406
  0
LINE
  8
0
 10
112.645
 20
53.6406
 11
113.182
 21
53.182
  0
LINE
  8
0
 10
113.182
 20
53.182
 11
113.641
 21
52.645
  0
LINE
  8
0
 10
113.641
 20
52.645
 11
114.01
 21
52.043
  0
LINE
  8
0
 10
114.01
 20
52.043
 11
114.28
 21
51.3906
  0
LINE
  8
0
 10
114.28
 20
51.3906
 11
114.445
 21
50.7039
  0
LINE
  8
0
 10
114.445
 20
50.7039
 11
114.5
 21
50
  0
LINE
  8
0
 10
114.5
 20
50
 11
114.445
 21
49.296
  0
LINE
  8
0
 10
114.445
 20
49.296
 11
114.28
 21
48.6094
  0
LINE
  8
0
 10
114.28
 20
48.6094
 11
114.01
 21
47.957
  0
LINE
  8
0
 10
114.01
 20
47.957
 11
113.641
 21
47.355
  0
LINE
  8
0
 10
113.641
 20
47.355
 11
113.182
 21
46.818
  0
LINE
  8
0
 10
113.182
 20
46.818
 11
112.645
 21
46.3594
  0
LINE
  8
0
 10
112.645
 20
46.3594
 11
112.043
 21
45.9905
  0
LINE
  8
0
 10
112.043
 20
45.9905
 11
111.391
 21
45.7202
  0
LINE
  8
0
 10
111.391
 20
45.7202
 11
110.704
 21
45.5554
  0
LINE
  8
0
 10
110.704
 20
45.5554
 11
110
 21
45.5
  0
LINE
  8
0
 10
110
 20
45.5
 11
109.296
 21
45.5554
  0
LINE
  8
0
 10
199.296
 20
45.5554
 11
198.609
 21
45.7202
  0
LINE
  8
0
 10
198.609
 20
45.7202
 11
197.957
 21
45.9905
  0
LINE
  8
0
 10
197.957
 20
45.9905
 11
197.355
 21
46.3594
  0
LINE
  8
0
 10
197.355
 20
46.3594
 11
196.818
 21
46.818
  0
LINE
  8
0
 10
196.818
 20
46.818
 11
196.359
 21
47.355
  0
LINE
  8
0
 10
196.359
 20
47.355
 11
195.99
 21
47.957
  0
LINE
  8
0
 10
195.99
 20
47.957
 11
195.72
 21
48.6094
  0
LINE
  8
0
 10
195.72
 20
48.6094
 11
195.555
 21
49.296
  0
LINE
  8
0
 10
195.555
 20
49.296
 11
195.5
 21
50
  0
LINE
  8
0
 10
195.5
 20
50
 11
195.555
 21
50.7039
  0
LINE
  8
0
 10
195.555
 20
50.7039
 11
195.72
 21
51.3906
  0
LINE
  8
0
 10
195.72
 20
51.3906
 11
195.99
 21
52.043
  0
LINE
  8
0
 10
195.99
 20
52.043
 11
196.359
 21
52.645
  0
LINE
  8
0
 10
196.359
 20
52.645
 11
196.818
 21
53.182
  0
LINE
  8
0
 10
196.818
 20
53.182
 11
197.355
 21
53.6406
  0
LINE
  8
0
 10
197.355
 20
53.6406
 11
197.957
 21
54.0095
  0
LINE
  8
0
 10
197.957
 20
54.0095
 11
198.609
 21
54.2797
  0
LINE
  8
0
 10
198.609
 20
54.2797
 11
199.296
 21
54.4446
  0
LINE
  8
0
 10
199.296
 20
54.4446
 11
200
 21
54.5
  0
LINE
  8
0
 10
200
 20
54.5
 11
200.704
 21
54.4446
  0
LINE
  8
0
 10
200.704
 20
54.4446
 11
201.391
 21
54.2797
  0
LINE
  8
0
 10
201.391
 20
54.2797
 11
202.043
 21
54.0095
  0
LINE
  8
0
 10
202.043
 20
54.0095
 11
202.645
 21
53.6406
  0
LINE
  8
0
 10
202.645
 20
53.6406
 11
203.182
 21
53.182
  0
LINE
  8
0
 10
203.182
 20
53.182
 11
203.641
 21
52.645
  0
LINE
  8
0
 10
203.641
 20
52.645
 11
204.01
 21
52.043
  0
LINE
  8
0
 10
204.01
 20
52.043
 11
204.28
 21
51.3906
  0
LINE
  8
0
 10
204.28
 20
51.3906
 11
204.445
 21
50.7039
  0
LINE
  8
0
 10
204.445
 20
50.7039
 11
204.5
 21
50
  0
LINE
  8
0
 10
204.5
 20
50
 11
204.445
 21
49.296
  0
LINE
  8
0
 10
204.445
 20
49.296
 11
204.28
 21
48.6094
  0
LINE
  8
0
 10
204.28
 20
48.6094
 11
204.01
 21
47.957
  0
LINE
  8
0
 10
204.01
 20
47.957
 11
203.641
 21
47.355
  0
LINE
  8
0
 10
203.641
 20
47.355
 11
203.182
 21
46.818
  0
LINE
  8
0
 10
203.182
 20
46.818
 11
202.645
 21
46.3594
  0
LINE
  8
0
 10
202.645
 20
46.3594
 11
202.043
 21
45.9905
  0
LINE
  8
0
 10
202.043
 20
45.9905
 11
201.391
 21
45.7202
  0
LINE
  8
0
 10
201.391
 20
45.7202
 11
200.704
 21
45.5554
  0
LINE
  8
0
 10
200.704
 20
45.5554
 11
200
 21
45.5
  0
LINE
  8
0
 10
200
 20
45.5
 11
199.296
 21
45.5554
  0
LINE
  8
0
 10
169.296
 20
45.5554
 11
168.609
 21
45.7202
  0
LINE
  8
0
 10
168.609
 20
45.7202
 11
167.957
 21
45.9905
  0
LINE
  8
0
 10
167.957
 20
45.9905
 11
167.355
 21
46.3594
  0
LINE
  8
0
 10
167.355
 20
46.3594
 11
166.818
 21
46.818
  0
LINE
  8
0
 10
166.818
 20
46.818
 11
166.359
 21
47.355
  0
LINE
  8
0
 10
166.359
 20
47.355
 11
165.99
 21
47.957
  0
LINE
  8
0
 10
165.99
 20
47.957
 11
165.72
 21
48.6094
  0
LINE
  8
0
 10
165.72
 20
48.6094
 11
165.555
 21
49.296
  0
LINE
  8
0
 10
165.555
 20
49.296
 11
165.5
 21
50
  0
LINE
  8
0
 10
165.5
 20
50
 11
165.555
 21
50.7039
  0
LINE
  8
0
 10
165.555
 20
50.7039
 11
165.72
 21
51.3906
  0
LINE
  8
0
 10
165.72
 20
51.3906
 11
165.99
 21
52.043
  0
LINE
  8
0
 10
165.99
 20
52.043
 11
166.359
 21
52.645
  0
LINE
  8
0
 10
166.359
 20
52.645
 11
166.818
 21
53.182
  0
LINE
  8
0
 10
166.818
 20
53.182
 11
167.355
 21
53.6406
  0
LINE
  8
0
 10
167.355
 20
53.6406
 11
167.957
 21
54.0095
  0
LINE
  8
0
 10
167.957
 20
54.0095
 11
168.609
 21
54.2797
  0
LINE
  8
0
 10
168.609
 20
54.2797
 11
169.296
 21
54.4446
  0
LINE
  8
0
 10
169.296
 20
54.4446
 11
170
 21
54.5
  0
LINE
  8
0
 10
170
 20
54.5
 11
170.704
 21
54.4446
  0
LINE
  8
0
 10
170.704
 20
54.4446
 11
171.391
 21
54.2797
  0
LINE
  8
0
 10
171.391
 20
54.2797
 11
172.043
 21
54.0095
  0
LINE
  8
0
 10
172.043
 20
54.0095
 11
172.645
 21
53.6406
  0
LINE
  8
0
 10
172.645
 20
53.6406
 11
173.182
 21
53.182
  0
LINE
  8
0
 10
173.182
 20
53.182
 11
173.641
 21
52.645
  0
LINE
  8
0
 10
173.641
 20
52.645
 11
174.01
 21
52.043
  0
LINE
  8
0
 10
174.01
 20
52.043
 11
174.28
 21
51.3906
  0
LINE
  8
0
 10
174.28
 20
51.3906
 11
174.445
 21
50.7039
  0
LINE
  8
0
 10
174.445
 20
50.7039
 11
174.5
 21
50
  0
LINE
  8
0
 10
174.5
 20
50
 11
174.445
 21
49.296
  0
LINE
  8
0
 10
174.445
 20
49.296
 11
174.28
 21
48.6094
  0
LINE
  8
0
 10
174.28
 20
48.6094
 11
174.01
 21
47.957
  0
LINE
  8
0
 10
174.01
 20
47.957
 11
173.641
 21
47.355
  0
LINE
  8
0
 10
173.641
 20
47.355
 11
173.182
 21
46.818
  0
LINE
  8
0
 10
173.182
 20
46.818
 11
172.645
 21
46.3594
  0
LINE
  8
0
 10
172.645
 20
46.3594
 11
172.043
 21
45.9905
  0
LINE
  8
0
 10
172.043
 20
45.9905
 11
171.391
 21
45.7202
  0
LINE
  8
0
 10
171.391
 20
45.7202
 11
170.704
 21
45.5554
  0
LINE
  8
0
 10
170.704
 20
45.5554
 11
170
 21
45.5
  0
LINE
  8
0
 10
170
 20
45.5
 11
169.296
 21
45.5554
  0
LINE
  8
0
 10
139.296
 20
45.5554
 11
138.609
 21
45.7202
  0
LINE
  8
0
 10
138.609
 20
45.7202
 11
137.957
 21
45.9905
  0
LINE
  8
0
 10
137.957
 20
45.9905
 11
137.355
 21
46.3594
  0
LINE
  8
0
 10
137.355
 20
46.3594
 11
136.818
 21
46.818
  0
LINE
  8
0
 10
136.818
 20
46.818
 11
136.359
 21
47.355
  0
LINE
  8
0
 10
136.359
 20
47.355
 11
135.99
 21
47.957
  0
LINE
  8
0
 10
135.99
 20
47.957
 11
135.72
 21
48.6094
  0
LINE
  8
0
 10
135.72
 20
48.6094
 11
135.555
 21
49.296
  0
LINE
  8
0
 10
135.555
 20
49.296
 11
135.5
 21
50
  0
LINE
  8
0
 10
135.5
 20
50
 11
135.555
 21
50.7039
  0
LINE
  8
0
 10
135.555
 20
50.7039
 11
135.72
 21
51.3906
  0
LINE
  8
0
 10
135.72
 20
51.3906
 11
135.99
 21
52.043
  0
LINE
  8
0
 10
135.99
 20
52.043
 11
136.359
 21
52.645
  0
LINE
  8
0
 10
136.359
 20
52.645
 11
136.818
 21
53.182
  0
LINE
  8
0
 10
136.818
 20
53.182
 11
137.355
 21
53.6406
  0
LINE
  8
0
 10
137.355
 20
53.6406
 11
137.957
 21
54.0095
  0
LINE
  8
0
 10
137.957
 20
54.0095
 11
138.609
 21
54.2797
  0
LINE
  8
0
 10
138.609
 20
54.2797
 11
139.296
 21
54.4446
  0
LINE
  8
0
 10
139.296
 20
54.4446
 11
140
 21
54.5
  0
LINE
  8
0
 10
140
 20
54.5
 11
140.704
 21
54.4446
  0
LINE
  8
0
 10
140.704
 20
54.4446
 11
141.391
 21
54.2797
  0
LINE
  8
0
 10
141.391
 20
54.2797
 11
142.043
 21
54.0095
  0
LINE
  8
0
 10
142.043
 20
54.0095
 11
142.645
 21
53.6406
  0
LINE
  8
0
 10
142.645
 20
53.6406
 11
143.182
 21
53.182
  0
LINE
  8
0
 10
143.182
 20
53.182
 11
143.641
 21
52.645
  0
LINE
  8
0
 10
143.641
 20
52.645
 11
144.01
 21
52.043
  0
LINE
  8
0
 10
144.01
 20
52.043
 11
144.28
 21
51.3906
  0
LINE
  8
0
 10
144.28
 20
51.3906
 11
144.445
 21
50.7039
  0
LINE
  8
0
 10
144.445
 20
50.7039
 11
144.5
 21
50
  0
LINE
  8
0
 10
144.5
 20
50
 11
144.445
 21
49.296
  0
LINE
  8
0
 10
144.445
 20
49.296
 11
144.28
 21
48.6094
  0
LINE
  8
0
 10
144.28
 20
48.6094
 11
144.01
 21
47.957
  0
LINE
  8
0
 10
144.01
 20
47.957
 11
143.641
 21
47.355
  0
LINE
  8
0
 10
143.641
 20
47.355
 11
143.182
 21
46.818
  0
LINE
  8
0
 10
143.182
 20
46.818
 11
142.645
 21
46.3594
  0
LINE
  8
0
 10
142.645
 20
46.3594
 11
142.043
 21
45.9905
  0
LINE
  8
0
 10
142.043
 20
45.9905
 11
141.391
 21
45.7202
  0
LINE
  8
0
 10
141.391
 20
45.7202
 11
140.704
 21
45.5554
  0
LINE
  8
0
 10
140.704
 20
45.5554
 11
140
 21
45.5
  0
LINE
  8
0
 10
140
 20
45.5
 11
139.296
 21
45.5554
  0
LINE
  8
0
 10
79.296
 20
45.5554
 11
78.6094
 21
45.7202
  0
LINE
  8
0
 10
78.6094
 20
45.7202
 11
77.957
 21
45.9905
  0
LINE
  8
0
 10
77.957
 20
45.9905
 11
77.355
 21
46.3594
  0
LINE
  8
0
 10
77.355
 20
46.3594
 11
76.818
 21
46.818
  0
LINE
  8
0
 10
76.818
 20
46.818
 11
76.3594
 21
47.355
  0
LINE
  8
0
 10
76.3594
 20
47.355
 11
75.9905
 21
47.957
  0
LINE
  8
0
 10
75.9905
 20
47.957
 11
75.7202
 21
48.6094
  0
LINE
  8
0
 10
75.7202
 20
48.6094
 11
75.5554
 21
49.296
  0
LINE
  8
0
 10
75.5554
 20
49.296
 11
75.5
 21
50
  0
LINE
  8
0
 10
75.5
 20
50
 11
75.5554
 21
50.7039
  0
LINE
  8
0
 10
75.5554
 20
50.7039
 11
75.7202
 21
51.3906
  0
LINE
  8
0
 10
75.7202
 20
51.3906
 11
75.9905
 21
52.043
  0
LINE
  8
0
 10
75.9905
 20
52.043
 11
76.3594
 21
52.645
  0
LINE
  8
0
 10
76.3594
 20
52.645
 11
76.818
 21
53.182
  0
LINE
  8
0
 10
76.818
 20
53.182
 11
77.355
 21
53.6406
  0
LINE
  8
0
 10
77.355
 20
53.6406
 11
77.957
 21
54.0095
  0
LINE
  8
0
 10
77.957
 20
54.0095
 11
78.6094
 21
54.2797
  0
LINE
  8
0
 10
78.6094
 20
54.2797
 11
79.296
 21
54.4446
  0
LINE
  8
0
 10
79.296
 20
54.4446
 11
80
 21
54.5
  0
LINE
  8
0
 10
80
 20
54.5
 11
80.7039
 21
54.4446
  0
LINE
  8
0
 10
80.7039
 20
54.4446
 11
81.3906
 21
54.2797
  0
LINE
  8
0
 10
81.3906
 20
54.2797
 11
82.043
 21
54.0095
  0
LINE
  8
0
 10
82.043
 20
54.0095
 11
82.645
 21
53.6406
  0
LINE
  8
0
 10
82.645
 20
53.6406
 11
83.182
 21
53.182
  0
LINE
  8
0
 10
83.182
 20
53.182
 11
83.6406
 21
52.645
  0
LINE
  8
0
 10
83.6406
 20
52.645
 11
84.0095
 21
52.043
  0
LINE
  8
0
 10
84.0095
 20
52.043
 11
84.2797
 21
51.3906
  0
LINE
  8
0
 10
84.2797
 20
51.3906
 11
84.4446
 21
50.7039
  0
LINE
  8
0
 10
84.4446
 20
50.7039
 11
84.5
 21
50
  0
LINE
  8
0
 10
84.5
 20
50
 11
84.4446
 21
49.296
  0
LINE
  8
0
 10
84.4446
 20
49.296
 11
84.2797
 21
48.6094
  0
LINE
  8
0
 10
84.2797
 20
48.6094
 11
84.0095
 21
47.957
  0
LINE
  8
0
 10
84.0095
 20
47.957
 11
83.6406
 21
47.355
  0
LINE
  8
0
 10
83.6406
 20
47.355
 11
83.182
 21
46.818
  0
LINE
  8
0
 10
83.182
 20
46.818
 11
82.645
 21
46.3594
  0
LINE
  8
0
 10
82.645
 20
46.3594
 11
82.043
 21
45.9905
  0
LINE
  8
0
 10
82.043
 20
45.9905
 11
81.3906
 21
45.7202
  0
LINE
  8
0
 10
81.3906
 20
45.7202
 11
80.7039
 21
45.5554
  0
LINE
  8
0
 10
80.7039
 20
45.5554
 11
80
 21
45.5
  0
LINE
  8
0
 10
80
 20
45.5
 11
79.296
 21
45.5554
  0
LINE
  8
0
 10
49.296
 20
45.5554
 11
48.6094
 21
45.7202
  0
LINE
  8
0
 10
48.6094
 20
45.7202
 11
47.957
 21
45.9905
  0
LINE
  8
0
 10
47.957
 20
45.9905
 11
47.355
 21
46.3594
  0
LINE
  8
0
 10
47.355
 20
46.3594
 11
46.818
 21
46.818
  0
LINE
  8
0
 10
46.818
 20
46.818
 11
46.3594
 21
47.355
  0
LINE
  8
0
 10
46.3594
 20
47.355
 11
45.9905
 21
47.957
  0
LINE
  8
0
 10
45.9905
 20
47.957
 11
45.7202
 21
48.6094
  0
LINE
  8
0
 10
45.7202
 20
48.6094
 11
45.5554
 21
49.296
  0
LINE
  8
0
 10
45.5554
 20
49.296
 11
45.5
 21
50
  0
LINE
  8
0
 10
45.5
 20
50
 11
45.5554
 21
50.7039
  0
LINE
  8
0
 10
45.5554
 20
50.7039
 11
45.7202
 21
51.3906
  0
LINE
  8
0
 10
45.7202
 20
51.3906
 11
45.9905
 21
52.043
  0
LINE
  8
0
 10
45.9905
 20
52.043
 11
46.3594
 21
52.645
  0
LINE
  8
0
 10
46.3594
 20
52.645
 11
46.818
 21
53.182
  0
LINE
  8
0
 10
46.818
 20
53.182
 11
47.355
 21
53.6406
  0
LINE
  8
0
 10
47.355
 20
53.6406
 11
47.957
 21
54.0095
  0
LINE
  8
0
 10
47.957
 20
54.0095
 11
48.6094
 21
54.2797
  0
LINE
  8
0
 10
48.6094
 20
54.2797
 11
49.296
 21
54.4446
  0
LINE
  8
0
 10
49.296
 20
54.4446
 11
50
 21
54.5
  0
LINE
  8
0
 10
50
 20
54.5
 11
50.7039
 21
54.4446
  0
LINE
  8
0
 10
50.7039
 20
54.4446
 11
51.3906
 21
54.2797
  0
LINE
  8
0
 10
51.3906
 20
54.2797
 11
52.043
 21
54.0095
  0
LINE
  8
0
 10
52.043
 20
54.0095
 11
52.645
 21
53.6406
  0
LINE
  8
0
 10
52.645
 20
53.6406
 11
53.182
 21
53.182
  0
LINE
  8
0
 10
53.182
 20
53.182
 11
53.6406
 21
52.645
  0
LINE
  8
0
 10
53.6406
 20
52.645
 11
54.0095
 21
52.043
  0
LINE
  8
0
 10
54.0095
 20
52.043
 11
54.2797
 21
51.3906
  0
LINE
  8
0
 10
54.2797
 20
51.3906
 11
54.4446
 21
50.7039
  0
LINE
  8
0
 10
54.4446
 20
50.7039
 11
54.5
 21
50
  0
LINE
  8
0
 10
54.5
 20
50
 11
54.4446
 21
49.296
  0
LINE
  8
0
 10
54.4446
 20
49.296
 11
54.2797
 21
48.6094
  0
LINE
  8
0
 10
54.2797
 20
48.6094
 11
54.0095
 21
47.957
  0
LINE
  8
0
 10
54.0095
 20
47.957
 11
53.6406
 21
47.355
  0
LINE
  8
0
 10
53.6406
 20
47.355
 11
53.182
 21
46.818
  0
LINE
  8
0
 10
53.182
 20
46.818
 11
52.645
 21
46.3594
  0
LINE
  8
0
 10
52.645
 20
46.3594
 11
52.043
 21
45.9905
  0
LINE
  8
0
 10
52.043
 20
45.9905
 11
51.3906
 21
45.7202
  0
LINE
  8
0
 10
51.3906
 20
45.7202
 11
50.7039
 21
45.5554
  0
LINE
  8
0
 10
50.7039
 20
45.5554
 11
50
 21
45.5
  0
LINE
  8
0
 10
50
 20
45.5
 11
49.296
 21
45.5554
  0
LINE
  8
0
 10
19.2178
 20
15.0616
 11
18.4549
 21
15.2447
  0
LINE
  8
0
 10
18.4549
 20
15.2447
 11
17.73
 21
15.545
  0
LINE
  8
0
 10
17.73
 20
15.545
 11
17.0611
 21
15.9549
  0
LINE
  8
0
 10
17.0611
 20
15.9549
 11
16.4645
 21
16.4645
  0
LINE
  8
0
 10
16.4645
 20
16.4645
 11
15.9549
 21
17.0611
  0
LINE
  8
0
 10
15.9549
 20
17.0611
 11
15.545
 21
17.73
  0
LINE
  8
0
 10
15.545
 20
17.73
 11
15.2447
 21
18.4549
  0
LINE
  8
0
 10
15.2447
 20
18.4549
 11
15.0616
 21
19.2178
  0
LINE
  8
0
 10
15.0616
 20
19.2178
 11
15
 21
20
  0
LINE
  8
0
 10
15
 20
20
 11
15.0616
 21
20.7822
  0
LINE
  8
0
 10
15.0616
 20
20.7822
 11
15.2447
 21
21.5451
  0
LINE
  8
0
 10
15.2447
 20
21.5451
 11
15.545
 21
22.2699
  0
LINE
  8
0
 10
15.545
 20
22.2699
 11
15.9549
 21
22.9389
  0
LINE
  8
0
 10
15.9549
 20
22.9389
 11
16.4645
 21
23.5355
  0
LINE
  8
0
 10
16.4645
 20
23.5355
 11
17.0611
 21
24.0451
  0
LINE
  8
0
 10
17.0611
 20
24.0451
 11
17.73
 21
24.455
  0
LINE
  8
0
 10
17.73
 20
24.455
 11
18.4549
 21
24.7553
  0
LINE
  8
0
 10
18.4549
 20
24.7553
 11
19.2178
 21
24.9384
  0
LINE
  8
0
 10
19.2178
 20
24.9384
 11
20
 21
25
  0
LINE
  8
0
 10
20
 20
25
 11
20.7822
 21
24.9384
  0
LINE
  8
0
 10
20.7822
 20
24.9384
 11
21.5451
 21
24.7553
  0
LINE
  8
0
 10
21.5451
 20
24.7553
 11
22.2699
 21
24.455
  0
LINE
  8
0
 10
22.2699
 20
24.455
 11
22.9389
 21
24.0451
  0
LINE
  8
0
 10
22.9389
 20
24.0451
 11
23.5355
 21
23.5355
  0
LINE
  8
0
 10
23.5355
 20
23.5355
 11
24.0451
 21
22.9389
  0
LINE
  8
0
 10
24.0451
 20
22.9389
 11
24.455
 21
22.2699
  0
LINE
  8
0
 10
24.455
 20
22.2699
 11
24.7553
 21
21.5451
  0
LINE
  8
0
 10
24.7553
 20
21.5451
 11
24.9384
 21
20.7822
  0
LINE
  8
0
 10
24.9384
 20
20.7822
 11
25
 21
20
  0
LINE
  8
0
 10
25
 20
20
 11
24.9384
 21
19.2178
  0
LINE
  8
0
 10
24.9384
 20
19.2178
 11
24.7553
 21
18.4549
  0
LINE
  8
0
 10
24.7553
 20
18.4549
 11
24.455
 21
17.73
  0
LINE
  8
0
 10
24.455
 20
17.73
 11
24.0451
 21
17.0611
  0
LINE
  8
0
 10
24.0451
 20
17.0611
 11
23.5355
 21
16.4645
  0
LINE
  8
0
 10
23.5355
 20
16.4645
 11
22.9389
 21
15.9549
  0
LINE
  8
0
 10
22.9389
 20
15.9549
 11
22.2699
 21
15.545
  0
LINE
  8
0
 10
22.2699
 20
15.545
 11
21.5451
 21
15.2447
  0
LINE
  8
0
 10
21.5451
 20
15.2447
 11
20.7822
 21
15.0616
  0
LINE
  8
0
 10
20.7822
 20
15.0616
 11
20
 21
15
  0
LINE
  8
0
 10
20
 20
15
 11
19.2178
 21
15.0616
  0
LINE
  8
0
 10
169.296
 20
15.5554
 11
168.609
 21
15.7202
  0
LINE
  8
0
 10
168.609
 20
15.7202
 11
167.957
 21
15.9905
  0
LINE
  8
0
 10
167.957
 20
15.9905
 11
167.355
 21
16.3594
  0
LINE
  8
0
 10
167.355
 20
16.3594
 11
166.818
 21
16.818
  0
LINE
  8
0
 10
166.818
 20
16.818
 11
166.359
 21
17.355
  0
LINE
  8
0
 10
166.359
 20
17.355
 11
165.99
 21
17.957
  0
LINE
  8
0
 10
165.99
 20
17.957
 11
165.72
 21
18.6094
  0
LINE
  8
0
 10
165.72
 20
18.6094
 11
165.555
 21
19.296
  0
LINE
  8
0
 10
165.555
 20
19.296
 11
165.5
 21
20
  0
LINE
  8
0
 10
165.5
 20
20
 11
165.555
 21
20.7039
  0
LINE
  8
0
 10
165.555
 20
20.7039
 11
165.72
 21
21.3906
  0
LINE
  8
0
 10
165.72
 20
21.3906
 11
165.99
 21
22.043
  0
LINE
  8
0
 10
165.99
 20
22.043
 11
166.359
 21
22.645
  0
LINE
  8
0
 10
166.359
 20
22.645
 11
166.818
 21
23.182
  0
LINE
  8
0
 10
166.818
 20
23.182
 11
167.355
 21
23.6406
  0
LINE
  8
0
 10
167.355
 20
23.6406
 11
167.957
 21
24.0095
  0
LINE
  8
0
 10
167.957
 20
24.0095
 11
168.609
 21
24.2797
  0
LINE
  8
0
 10
168.609
 20
24.2797
 11
169.296
 21
24.4446
  0
LINE
  8
0
 10
169.296
 20
24.4446
 11
170
 21
24.5
  0
LINE
  8
0
 10
170
 20
24.5
 11
170.704
 21
24.4446
  0
LINE
  8
0
 10
170.704
 20
24.4446
 11
171.391
 21
24.2797
  0
LINE
  8
0
 10
171.391
 20
24.2797
 11
172.043
 21
24.0095
  0
LINE
  8
0
 10
172.043
 20
24.0095
 11
172.645
 21
23.6406
  0
LINE
  8
0
 10
172.645
 20
23.6406
 11
173.182
 21
23.182
  0
LINE
  8
0
 10
173.182
 20
23.182
 11
173.641
 21
22.645
  0
LINE
  8
0
 10
173.641
 20
22.645
 11
174.01
 21
22.043
  0
LINE
  8
0
 10
174.01
 20
22.043
 11
174.28
 21
21.3906
  0
LINE
  8
0
 10
174.28
 20
21.3906
 11
174.445
 21
20.7039
  0
LINE
  8
0
 10
174.445
 20
20.7039
 11
174.5
 21
20
  0
LINE
  8
0
 10
174.5
 20
20
 11
174.445
 21
19.296
  0
LINE
  8
0
 10
174.445
 20
19.296
 11
174.28
 21
18.6094
  0
LINE
  8
0
 10
174.28
 20
18.6094
 11
174.01
 21
17.957
  0
LINE
  8
0
 10
174.01
 20
17.957
 11
173.641
 21
17.355
  0
LINE
  8
0
 10
173.641
 20
17.355
 11
173.182
 21
16.818
  0
LINE
  8
0
 10
173.182
 20
16.818
 11
172.645
 21
16.3594
  0
LINE
  8
0
 10
172.645
 20
16.3594
 11
172.043
 21
15.9905
  0
LINE
  8
0
 10
172.043
 20
15.9905
 11
171.391
 21
15.7202
  0
LINE
  8
0
 10
171.391
 20
15.7202
 11
170.704
 21
15.5554
  0
LINE
  8
0
 10
170.704
 20
15.5554
 11
170
 21
15.5
  0
LINE
  8
0
 10
170
 20
15.5
 11
169.296
 21
15.5554
  0
LINE
  8
0
 10
139.296
 20
15.5554
 11
138.609
 21
15.7202
  0
LINE
  8
0
 10
138.609
 20
15.7202
 11
137.957
 21
15.9905
  0
LINE
  8
0
 10
137.957
 20
15.9905
 11
137.355
 21
16.3594
  0
LINE
  8
0
 10
137.355
 20
16.3594
 11
136.818
 21
16.818
  0
LINE
  8
0
 10
136.818
 20
16.818
 11
136.359
 21
17.355
  0
LINE
  8
0
 10
136.359
 20
17.355
 11
135.99
 21
17.957
  0
LINE
  8
0
 10
135.99
 20
17.957
 11
135.72
 21
18.6094
  0
LINE
  8
0
 10
135.72
 20
18.6094
 11
135.555
 21
19.296
  0
LINE
  8
0
 10
135.555
 20
19.296
 11
135.5
 21
20
  0
LINE
  8
0
 10
135.5
 20
20
 11
135.555
 21
20.7039
  0
LINE
  8
0
 10
135.555
 20
20.7039
 11
135.72
 21
21.3906
  0
LINE
  8
0
 10
135.72
 20
21.3906
 11
135.99
 21
22.043
  0
LINE
  8
0
 10
135.99
 20
22.043
 11
136.359
 21
22.645
  0
LINE
  8
0
 10
136.359
 20
22.645
 11
136.818
 21
23.182
  0
LINE
  8
0
 10
136.818
 20
23.182
 11
137.355
 21
23.6406
  0
LINE
  8
0
 10
137.355
 20
23.6406
 11
137.957
 21
24.0095
  0
LINE
  8
0
 10
137.957
 20
24.0095
 11
138.609
 21
24.2797
  0
LINE
  8
0
 10
138.609
 20
24.2797
 11
139.296
 21
24.4446
  0
LINE
  8
0
 10
139.296
 20
24.4446
 11
140
 21
24.5
  0
LINE
  8
0
 10
140
 20
24.5
 11
140.704
 21
24.4446
  0
LINE
  8
0
 10
140.704
 20
24.4446
 11
141.391
 21
24.2797
  0
LINE
  8
0
 10
141.391
 20
24.2797
 11
142.043
 21
24.0095
  0
LINE
  8
0
 10
142.043
 20
24.0095
 11
142.645
 21
23.6406
  0
LINE
  8
0
 10
142.645
 20
23.6406
 11
143.182
 21
23.182
  0
LINE
  8
0
 10
143.182
 20
23.182
 11
143.641
 21
22.645
  0
LINE
  8
0
 10
143.641
 20
22.645
 11
144.01
 21
22.043
  0
LINE
  8
0
 10
144.01
 20
22.043
 11
144.28
 21
21.3906
  0
LINE
  8
0
 10
144.28
 20
21.3906
 11
144.445
 21
20.7039
  0
LINE
  8
0
 10
144.445
 20
20.7039
 11
144.5
 21
20
  0
LINE
  8
0
 10
144.5
 20
20
 11
144.445
 21
19.296
  0
LINE
  8
0
 10
144.445
 20
19.296
 11
144.28
 21
18.6094
  0
LINE
  8
0
 10
144.28
 20
18.6094
 11
144.01
 21
17.957
  0
LINE
  8
0
 10
144.01
 20
17.957
 11
143.641
 21
17.355
  0
LINE
  8
0
 10
143.641
 20
17.355
 11
143.182
 21
16.818
  0
LINE
  8
0
 10
143.182
 20
16.818
 11
142.645
 21
16.3594
  0
LINE
  8
0
 10
142.645
 20
16.3594
 11
142.043
 21
15.9905
  0
LINE
  8
0
 10
142.043
 20
15.9905
 11
141.391
 21
15.7202
  0
LINE
  8
0
 10
141.391
 20
15.7202
 11
140.704
 21
15.5554
  0
LINE
  8
0
 10
140.704
 20
15.5554
 11
140
 21
15.5
  0
LINE
  8
0
 10
140
 20
15.5
 11
139.296
 21
15.5554
  0
LINE
  8
0
 10
109.296
 20
15.5554
 11
108.609
 21
15.7202
  0
LINE
  8
0
 10
108.609
 20
15.7202
 11
107.957
 21
15.9905
  0
LINE
  8
0
 10
107.957
 20
15.9905
 11
107.355
 21
16.3594
  0
LINE
  8
0
 10
107.355
 20
16.3594
 11
106.818
 21
16.818
  0
LINE
  8
0
 10
106.818
 20
16.818
 11
106.359
 21
17.355
  0
LINE
  8
0
 10
106.359
 20
17.355
 11
105.99
 21
17.957
  0
LINE
  8
0
 10
105.99
 20
17.957
 11
105.72
 21
18.6094
  0
LINE
  8
0
 10
105.72
 20
18.6094
 11
105.555
 21
19.296
  0
LINE
  8
0
 10
105.555
 20
19.296
 11
105.5
 21
20
  0
LINE
  8
0
 10
105.5
 20
20
 11
105.555
 21
20.7039
  0
LINE
  8
0
 10
105.555
 20
20.7039
 11
105.72
 21
21.3906
  0
LINE
  8
0
 10
105.72
 20
21.3906
 11
105.99
 21
22.043
  0
LINE
  8
0
 10
105.99
 20
22.043
 11
106.359
 21
22.645
  0
LINE
  8
0
 10
106.359
 20
22.645
 11
106.818
 21
23.182
  0
LINE
  8
0
 10
106.818
 20
23.182
 11
107.355
 21
23.6406
  0
LINE
  8
0
 10
107.355
 20
23.6406
 11
107.957
 21
24.0095
  0
LINE
  8
0
 10
107.957
 20
24.0095
 11
108.609
 21
24.2797
  0
LINE
  8
0
 10
108.609
 20
24.2797
 11
109.296
 21
24.4446
  0
LINE
  8
0
 10
109.296
 20
24.4446
 11
110
 21
24.5
  0
LINE
  8
0
 10
110
 20
24.5
 11
110.704
 21
24.4446
  0
LINE
  8
0
 10
110.704
 20
24.4446
 11
111.391
 21
24.2797
  0
LINE
  8
0
 10
111.391
 20
24.2797
 11
112.043
 21
24.0095
  0
LINE
  8
0
 10
112.043
 20
24.0095
 11
112.645
 21
23.6406
  0
LINE
  8
0
 10
112.645
 20
23.6406
 11
113.182
 21
23.182
  0
LINE
  8
0
 10
113.182
 20
23.182
 11
113.641
 21
22.645
  0
LINE
  8
0
 10
113.641
 20
22.645
 11
114.01
 21
22.043
  0
LINE
  8
0
 10
114.01
 20
22.043
 11
114.28
 21
21.3906
  0
LINE
  8
0
 10
114.28
 20
21.3906
 11
114.445
 21
20.7039
  0
LINE
  8
0
 10
114.445
 20
20.7039
 11
114.5
 21
20
  0
LINE
  8
0
 10
114.5
 20
20
 11
114.445
 21
19.296
  0
LINE
  8
0
 10
114.445
 20
19.296
 11
114.28
 21
18.6094
  0
LINE
  8
0
 10
114.28
 20
18.6094
 11
114.01
 21
17.957
  0
LINE
  8
0
 10
114.01
 20
17.957
 11
113.641
 21
17.355
  0
LINE
  8
0
 10
113.641
 20
17.355
 11
113.182
 21
16.818
  0
LINE
  8
0
 10
113.182
 20
16.818
 11
112.645
 21
16.3594
  0
LINE
  8
0
 10
112.645
 20
16.3594
 11
112.043
 21
15.9905
  0
LINE
  8
0
 10
112.043
 20
15.9905
 11
111.391
 21
15.7202
  0
LINE
  8
0
 10
111.391
 20
15.7202
 11
110.704
 21
15.5554
  0
LINE
  8
0
 10
110.704
 20
15.5554
 11
110
 21
15.5
  0
LINE
  8
0
 10
110
 20
15.5
 11
109.296
 21
15.5554
  0
LINE
  8
0
 10
79.296
 20
15.5554
 11
78.6094
 21
15.7202
  0
LINE
  8
0
 10
78.6094
 20
15.7202
 11
77.957
 21
15.9905
  0
LINE
  8
0
 10
77.957
 20
15.9905
 11
77.355
 21
16.3594
  0
LINE
  8
0
 10
77.355
 20
16.3594
 11
76.818
 21
16.818
  0
LINE
  8
0
 10
76.818
 20
16.818
 11
76.3594
 21
17.355
  0
LINE
  8
0
 10
76.3594
 20
17.355
 11
75.9905
 21
17.957
  0
LINE
  8
0
 10
75.9905
 20
17.957
 11
75.7202
 21
18.6094
  0
LINE
  8
0
 10
75.7202
 20
18.6094
 11
75.5554
 21
19.296
  0
LINE
  8
0
 10
75.5554
 20
19.296
 11
75.5
 21
20
  0
LINE
  8
0
 10
75.5
 20
20
 11
75.5554
 21
20.7039
  0
LINE
  8
0
 10
75.5554
 20
20.7039
 11
75.7202
 21
21.3906
  0
LINE
  8
0
 10
75.7202
 20
21.3906
 11
75.9905
 21
22.043
  0
LINE
  8
0
 10
75.9905
 20
22.043
 11
76.3594
 21
22.645
  0
LINE
  8
0
 10
76.3594
 20
22.645
 11
76.818
 21
23.182
  0
LINE
  8
0
 10
76.818
 20
23.182
 11
77.355
 21
23.6406
  0
LINE
  8
0
 10
77.355
 20
23.6406
 11
77.957
 21
24.0095
  0
LINE
  8
0
 10
77.957
 20
24.0095
 11
78.6094
 21
24.2797
  0
LINE
  8
0
 10
78.6094
 20
24.2797
 11
79.296
 21
24.4446
  0
LINE
  8
0
 10
79.296
 20
24.4446
 11
80
 21
24.5
  0
LINE
  8
0
 10
80
 20
24.5
 11
80.7039
 21
24.4446
  0
LINE
  8
0
 10
80.7039
 20
24.4446
 11
81.3906
 21
24.2797
  0
LINE
  8
0
 10
81.3906
 20
24.2797
 11
82.043
 21
24.0095
  0
LINE
  8
0
 10
82.043
 20
24.0095
 11
82.645
 21
23.6406
  0
LINE
  8
0
 10
82.645
 20
23.6406
 11
83.182
 21
23.182
  0
LINE
  8
0
 10
83.182
 20
23.182
 11
83.6406
 21
22.645
  0
LINE
  8
0
 10
83.6406
 20
22.645
 11
84.0095
 21
22.043
  0
LINE
  8
0
 10
84.0095
 20
22.043
 11
84.2797
 21
21.3906
  0
LINE
  8
0
 10
84.2797
 20
21.3906
 11
84.4446
 21
20.7039
  0
LINE
  8
0
 10
84.4446
 20
20.7039
 11
84.5
 21
20
  0
LINE
  8
0
 10
84.5
 20
20
 11
84.4446
 21
19.296
  0
LINE
  8
0
 10
84.4446
 20
19.296
 11
84.2797
 21
18.6094
  0
LINE
  8
0
 10
84.2797
 20
18.6094
 11
84.0095
 21
17.957
  0
LINE
  8
0
 10
84.0095
 20
17.957
 11
83.6406
 21
17.355
  0
LINE
  8
0
 10
83.6406
 20
17.355
 11
83.182
 21
16.818
  0
LINE
  8
0
 10
83.182
 20
16.818
 11
82.645
 21
16.3594
  0
LINE
  8
0
 10
82.645
 20
16.3594
 11
82.043
 21
15.9905
  0
LINE
  8
0
 10
82.043
 20
15.9905
 11
81.3906
 21
15.7202
  0
LINE
  8
0
 10
81.3906
 20
15.7202
 11
80.7039
 21
15.5554
  0
LINE
  8
0
 10
80.7039
 20
15.5554
 11
80
 21
15.5
  0
LINE
  8
0
 10
80
 20
15.5
 11
79.296
 21
15.5554
  0
LINE
  8
0
 10
199.296
 20
15.5554
 11
198.609
 21
15.7202
  0
LINE
  8
0
 10
198.609
 20
15.7202
 11
197.957
 21
15.9905
  0
LINE
  8
0
 10
197.957
 20
15.9905
 11
197.355
 21
16.3594
  0
LINE
  8
0
 10
197.355
 20
16.3594
 11
196.818
 21
16.818
  0
LINE
  8
0
 10
196.818
 20
16.818
 11
196.359
 21
17.355
  0
LINE
  8
0
 10
196.359
 20
17.355
 11
195.99
 21
17.957
  0
LINE
  8
0
 10
195.99
 20
17.957
 11
195.72
 21
18.6094
  0
LINE
  8
0
 10
195.72
 20
18.6094
 11
195.555
 21
19.296
  0
LINE
  8
0
 10
195.555
 20
19.296
 11
195.5
 21
20
  0
LINE
  8
0
 10
195.5
 20
20
 11
195.555
 21
20.7039
  0
LINE
  8
0
 10
195.555
 20
20.7039
 11
195.72
 21
21.3906
  0
LINE
  8
0
 10
195.72
 20
21.3906
 11
195.99
 21
22.043
  0
LINE
  8
0
 10
195.99
 20
22.043
 11
196.359
 21
22.645
  0
LINE
  8
0
 10
196.359
 20
22.645
 11
196.818
 21
23.182
  0
LINE
  8
0
 10
196.818
 20
23.182
 11
197.355
 21
23.6406
  0
LINE
  8
0
 10
197.355
 20
23.6406
 11
197.957
 21
24.0095
  0
LINE
  8
0
 10
197.957
 20
24.0095
 11
198.609
 21
24.2797
  0
LINE
  8
0
 10
198.609
 20
24.2797
 11
199.296
 21
24.4446
  0
LINE
  8
0
 10
199.296
 20
24.4446
 11
200
 21
24.5
  0
LINE
  8
0
 10
200
 20
24.5
 11
200.704
 21
24.4446
  0
LINE
  8
0
 10
200.704
 20
24.4446
 11
201.391
 21
24.2797
  0
LINE
  8
0
 10
201.391
 20
24.2797
 11
202.043
 21
24.0095
  0
LINE
  8
0
 10
202.043
 20
24.0095
 11
202.645
 21
23.6406
  0
LINE
  8
0
 10
202.645
 20
23.6406
 11
203.182
 21
23.182
  0
LINE
  8
0
 10
203.182
 20
23.182
 11
203.641
 21
22.645
  0
LINE
  8
0
 10
203.641
 20
22.645
 11
204.01
 21
22.043
  0
LINE
  8
0
 10
204.01
 20
22.043
 11
204.28
 21
21.3906
  0
LINE
  8
0
 10
204.28
 20
21.3906
 11
204.445
 21
20.7039
  0
LINE
  8
0
 10
204.445
 20
20.7039
 11
204.5
 21
20
  0
LINE
  8
0
 10
204.5
 20
20
 11
204.445
 21
19.296
  0
LINE
  8
0
 10
204.445
 20
19.296
 11
204.28
 21
18.6094
  0
LINE
  8
0
 10
204.28
 20
18.6094
 11
204.01
 21
17.957
  0
LINE
  8
0
 10
204.01
 20
17.957
 11
203.641
 21
17.355
  0
LINE
  8
0
 10
203.641
 20
17.355
 11
203.182
 21
16.818
  0
LINE
  8
0
 10
203.182
 20
16.818
 11
202.645
 21
16.3594
  0
LINE
  8
0
 10
202.645
 20
16.3594
 11
202.043
 21
15.9905
  0
LINE
  8
0
 10
202.043
 20
15.9905
 11
201.391
 21
15.7202
  0
LINE
  8
0
 10
201.391
 20
15.7202
 11
200.704
 21
15.5554
  0
LINE
  8
0
 10
200.704
 20
15.5554
 11
200
 21
15.5
  0
LINE
  8
0
 10
200
 20
15.5
 11
199.296
 21
15.5554
  0
LINE
  8
0
 10
49.296
 20
15.5554
 11
48.6094
 21
15.7202
  0
LINE
  8
0
 10
48.6094
 20
15.7202
 11
47.957
 21
15.9905
  0
LINE
  8
0
 10
47.957
 20
15.9905
 11
47.355
 21
16.3594
  0
LINE
  8
0
 10
47.355
 20
16.3594
 11
46.818
 21
16.818
  0
LINE
  8
0
 10
46.818
 20
16.818
 11
46.3594
 21
17.355
  0
LINE
  8
0
 10
46.3594
 20
17.355
 11
45.9905
 21
17.957
  0
LINE
  8
0
 10
45.9905
 20
17.957
 11
45.7202
 21
18.6094
  0
LINE
  8
0
 10
45.7202
 20
18.6094
 11
45.5554
 21
19.296
  0
LINE
  8
0
 10
45.5554
 20
19.296
 11
45.5
 21
20
  0
LINE
  8
0
 10
45.5
 20
20
 11
45.5554
 21
20.7039
  0
LINE
  8
0
 10
45.5554
 20
20.7039
 11
45.7202
 21
21.3906
  0
LINE
  8
0
 10
45.7202
 20
21.3906
 11
45.9905
 21
22.043
  0
LINE
  8
0
 10
45.9905
 20
22.043
 11
46.3594
 21
22.645
  0
LINE
  8
0
 10
46.3594
 20
22.645
 11
46.818
 21
23.182
  0
LINE
  8
0
 10
46.818
 20
23.182
 11
47.355
 21
23.6406
  0
LINE
  8
0
 10
47.355
 20
23.6406
 11
47.957
 21
24.0095
  0
LINE
  8
0
 10
47.957
 20
24.0095
 11
48.6094
 21
24.2797
  0
LINE
  8
0
 10
48.6094
 20
24.2797
 11
49.296
 21
24.4446
  0
LINE
  8
0
 10
49.296
 20
24.4446
 11
50
 21
24.5
  0
LINE
  8
0
 10
50
 20
24.5
 11
50.7039
 21
24.4446
  0
LINE
  8
0
 10
50.7039
 20
24.4446
 11
51.3906
 21
24.2797
  0
LINE
  8
0
 10
51.3906
 20
24.2797
 11
52.043
 21
24.0095
  0
LINE
  8
0
 10
52.043
 20
24.0095
 11
52.645
 21
23.6406
  0
LINE
  8
0
 10
52.645
 20
23.6406
 11
53.182
 21
23.182
  0
LINE
  8
0
 10
53.182
 20
23.182
 11
53.6406
 21
22.645
  0
LINE
  8
0
 10
53.6406
 20
22.645
 11
54.0095
 21
22.043
  0
LINE
  8
0
 10
54.0095
 20
22.043
 11
54.2797
 21
21.3906
  0
LINE
  8
0
 10
54.2797
 20
21.3906
 11
54.4446
 21
20.7039
  0
LINE
  8
0
 10
54.4446
 20
20.7039
 11
54.5
 21
20
  0
LINE
  8
0
 10
54.5
 20
20
 11
54.4446
 21
19.296
  0
LINE
  8
0
 10
54.4446
 20
19.296
 11
54.2797
 21
18.6094
  0
LINE
  8
0
 10
54.2797
 20
18.6094
 11
54.0095
 21
17.957
  0
LINE
  8
0
 10
54.0095
 20
17.957
 11
53.6406
 21
17.355
  0
LINE
  8
0
 10
53.6406
 20
17.355
 11
53.182
 21
16.818
  0
LINE
  8
0
 10
53.182
 20
16.818
 11
52.645
 21
16.3594
  0
LINE
  8
0
 10
52.645
 20
16.3594
 11
52.043
 21
15.9905
  0
LINE
  8
0
 10
52.043
 20
15.9905
 11
51.3906
 21
15.7202
  0
LINE
  8
0
 10
51.3906
 20
15.7202
 11
50.7039
 21
15.5554
  0
LINE
  8
0
 10
50.7039
 20
15.5554
 11
50
 21
15.5
  0
LINE
  8
0
 10
50
 20
15.5
 11
49.296
 21
15.5554
  0
ENDSEC
  0
SECTION
  2
OBJECTS
  0
DICTIONARY
  0
ENDSEC
  0
EOF
